<?xml version="1.0" encoding="UTF-8" standalone="no"?>
<!DOCTYPE svg PUBLIC "-//W3C//DTD SVG 1.1//EN"
 "http://www.w3.org/Graphics/SVG/1.1/DTD/svg11.dtd">
<!-- Generated by graphviz version 2.36.0 (20140111.2315)
 -->
<!-- Title: ierror Pages: 1 -->
<!--zoomable 422 -->
<svg id="main" version="1.1" xmlns="http://www.w3.org/2000/svg" xmlns:xlink="http://www.w3.org/1999/xlink" xml:space="preserve" onload="init(evt)">
<style type="text/css"><![CDATA[
.edge:hover path { stroke: red; }
.edge:hover polygon { stroke: red; fill: red; }
]]></style>
<script type="text/javascript"><![CDATA[
var edges = document.getElementsByTagName('g');
if (edges && edges.length) {
  for (var i=0;i<edges.length;i++) {
    if (edges[i].id.substr(0,4)=='edge') {
      edges[i].setAttribute('class','edge');
    }
  }
}
]]></script>
        <defs>
                <circle id="rim" cx="0" cy="0" r="7"/>
                <circle id="rim2" cx="0" cy="0" r="3.5"/>
                <g id="zoomPlus">
                        <use xlink:href="#rim" fill="#404040">
                                <set attributeName="fill" to="#808080" begin="zoomplus.mouseover" end="zoomplus.mouseout"/>
                        </use>
                        <path d="M-4,0h8M0,-4v8" fill="none" stroke="white" stroke-width="1.5" pointer-events="none"/>
                </g>
                <g id="zoomMin">
                        <use xlink:href="#rim" fill="#404040">
                                <set attributeName="fill" to="#808080" begin="zoomminus.mouseover" end="zoomminus.mouseout"/>
                        </use>
                        <path d="M-4,0h8" fill="none" stroke="white" stroke-width="1.5" pointer-events="none"/>
                </g>
                <g id="dirArrow">
                        <path fill="none" stroke="white" stroke-width="1.5" d="M0,-3.0v7 M-2.5,-0.5L0,-3.0L2.5,-0.5"/>
                </g>
               <g id="resetDef">
                       <use xlink:href="#rim2" fill="#404040">
                               <set attributeName="fill" to="#808080" begin="reset.mouseover" end="reset.mouseout"/>
                       </use>
               </g>
        </defs>

<script type="text/javascript">
var viewWidth = 534;
var viewHeight = 422;
var sectionId = 'dynsection-2';
</script>
<script xlink:href="svgpan.js"/>
<svg id="graph" class="graph">
<g id="viewport">
<title>ierror</title>
<polygon fill="white" stroke="none" points="-4,4 -4,-418.411 530,-418.411 530,4 -4,4"/>
<!-- Node1 -->
<g id="node1" class="node"><title>Node1</title>
<polygon fill="#bfbfbf" stroke="black" points="0,-190.5 0,-209.5 38,-209.5 38,-190.5 0,-190.5"/>
<text text-anchor="middle" x="19" y="-197.5" font-family="Helvetica,sans-Serif" font-size="10.00">ierror</text>
</g>
<!-- Node1&#45;&gt;Node1 -->
<g id="edge1" class="edge"><title>Node1&#45;&gt;Node1</title>
<path fill="none" stroke="midnightblue" d="M0.482387,-219.4C1.71906,-224.315 7.8916,-228 19,-228 36.7734,-228 41.9111,-218.565 34.4129,-209.757"/>
<polygon fill="midnightblue" stroke="midnightblue" points="3.85388,-220.349 3.5871,-209.757 -2.80928,-218.203 3.85388,-220.349"/>
</g>
<!-- Node2 -->
<g id="node2" class="node"><title>Node2</title>
<g id="a_node2"><a xlink:href="icoordinates_8h.html#a7c978730cf6130f65e3ca306b83d953b" target="_top" xlink:title="inew_linkedpoint">
<polygon fill="white" stroke="black" points="74.5,-266.5 74.5,-285.5 163.5,-285.5 163.5,-266.5 74.5,-266.5"/>
<text text-anchor="middle" x="119" y="-273.5" font-family="Helvetica,sans-Serif" font-size="10.00">inew_linkedpoint</text>
</a>
</g>
</g>
<!-- Node1&#45;&gt;Node2 -->
<g id="edge2" class="edge"><title>Node1&#45;&gt;Node2</title>
<path fill="none" stroke="midnightblue" d="M33.5759,-217.765C43.6713,-230.041 58.3563,-246.066 74,-257 79.1831,-260.623 85.1667,-263.769 91.0186,-266.403"/>
<polygon fill="midnightblue" stroke="midnightblue" points="36.0546,-215.259 27.088,-209.616 30.578,-219.619 36.0546,-215.259"/>
</g>
<!-- Node5 -->
<g id="node5" class="node"><title>Node5</title>
<g id="a_node5"><a xlink:href="icoordinates_8h.html#a1576e4429e977b28e65001af937bcf3e" target="_top" xlink:title="iadd_linkedpoint">
<polygon fill="white" stroke="black" points="76,-228.5 76,-247.5 162,-247.5 162,-228.5 76,-228.5"/>
<text text-anchor="middle" x="119" y="-235.5" font-family="Helvetica,sans-Serif" font-size="10.00">iadd_linkedpoint</text>
</a>
</g>
</g>
<!-- Node1&#45;&gt;Node5 -->
<g id="edge5" class="edge"><title>Node1&#45;&gt;Node5</title>
<path fill="none" stroke="midnightblue" d="M47.8049,-210.781C62.15,-216.344 79.4972,-223.07 93.3574,-228.445"/>
<polygon fill="midnightblue" stroke="midnightblue" points="49.022,-207.5 38.4331,-207.148 46.4913,-214.026 49.022,-207.5"/>
</g>
<!-- Node6 -->
<g id="node6" class="node"><title>Node6</title>
<g id="a_node6"><a xlink:href="inferno_8c.html#ac367369074184100d42ced4c3f1025ca" target="_top" xlink:title="random_function">
<polygon fill="white" stroke="black" points="360.5,-374.5 360.5,-393.5 449.5,-393.5 449.5,-374.5 360.5,-374.5"/>
<text text-anchor="middle" x="405" y="-381.5" font-family="Helvetica,sans-Serif" font-size="10.00">random_function</text>
</a>
</g>
</g>
<!-- Node1&#45;&gt;Node6 -->
<g id="edge7" class="edge"><title>Node1&#45;&gt;Node6</title>
<path fill="none" stroke="midnightblue" d="M19.5338,-220.322C19.9201,-257.245 26.6661,-334.856 74,-371 163.089,-439.028 308.563,-410.735 372.346,-393.563"/>
<polygon fill="midnightblue" stroke="midnightblue" points="23.036,-219.886 19.5884,-209.868 16.0361,-219.85 23.036,-219.886"/>
</g>
<!-- Node7 -->
<g id="node7" class="node"><title>Node7</title>
<g id="a_node7"><a xlink:href="iutils_8c.html#ad0ad5e5cbedd00755591bbb6a2862d97" target="_top" xlink:title="infastsort">
<polygon fill="white" stroke="black" points="90.5,-76.5 90.5,-95.5 147.5,-95.5 147.5,-76.5 90.5,-76.5"/>
<text text-anchor="middle" x="119" y="-83.5" font-family="Helvetica,sans-Serif" font-size="10.00">infastsort</text>
</a>
</g>
</g>
<!-- Node1&#45;&gt;Node7 -->
<g id="edge9" class="edge"><title>Node1&#45;&gt;Node7</title>
<path fill="none" stroke="midnightblue" d="M26.6402,-180.81C34.813,-159.708 50.5545,-126.015 74,-105 78.709,-100.779 84.4999,-97.39 90.3154,-94.7106"/>
<polygon fill="midnightblue" stroke="midnightblue" points="23.3149,-179.712 23.1453,-190.305 29.8841,-182.129 23.3149,-179.712"/>
</g>
<!-- Node8 -->
<g id="node8" class="node"><title>Node8</title>
<g id="a_node8"><a xlink:href="iutils_8h.html#a361efdc52b42b541f7f0db7288b1b4f5" target="_top" xlink:title="inew_linked">
<polygon fill="white" stroke="black" points="85,-190.5 85,-209.5 153,-209.5 153,-190.5 85,-190.5"/>
<text text-anchor="middle" x="119" y="-197.5" font-family="Helvetica,sans-Serif" font-size="10.00">inew_linked</text>
</a>
</g>
</g>
<!-- Node1&#45;&gt;Node8 -->
<g id="edge10" class="edge"><title>Node1&#45;&gt;Node8</title>
<path fill="none" stroke="midnightblue" d="M48.6894,-200C60.0609,-200 73.2057,-200 84.9711,-200"/>
<polygon fill="midnightblue" stroke="midnightblue" points="48.4331,-196.5 38.4331,-200 48.433,-203.5 48.4331,-196.5"/>
</g>
<!-- Node12 -->
<g id="node12" class="node"><title>Node12</title>
<g id="a_node12"><a xlink:href="iutils_8h.html#a87ccc53b520060810c7be2e2243e6397" target="_top" xlink:title="iset_linked">
<polygon fill="white" stroke="black" points="87.5,-38.5 87.5,-57.5 150.5,-57.5 150.5,-38.5 87.5,-38.5"/>
<text text-anchor="middle" x="119" y="-45.5" font-family="Helvetica,sans-Serif" font-size="10.00">iset_linked</text>
</a>
</g>
</g>
<!-- Node1&#45;&gt;Node12 -->
<g id="edge17" class="edge"><title>Node1&#45;&gt;Node12</title>
<path fill="none" stroke="midnightblue" d="M23.1493,-180.317C28.6633,-151.847 42.6146,-99.082 74,-67 77.7239,-63.1934 82.3359,-60.1026 87.1592,-57.6076"/>
<polygon fill="midnightblue" stroke="midnightblue" points="19.6852,-179.806 21.3784,-190.265 26.5769,-181.033 19.6852,-179.806"/>
</g>
<!-- Node13 -->
<g id="node13" class="node"><title>Node13</title>
<g id="a_node13"><a xlink:href="iutils_8h.html#a67413257923db7c88d91a7e706024e98" target="_top" xlink:title="iadd_linked">
<polygon fill="white" stroke="black" points="86.5,-152.5 86.5,-171.5 151.5,-171.5 151.5,-152.5 86.5,-152.5"/>
<text text-anchor="middle" x="119" y="-159.5" font-family="Helvetica,sans-Serif" font-size="10.00">iadd_linked</text>
</a>
</g>
</g>
<!-- Node1&#45;&gt;Node13 -->
<g id="edge18" class="edge"><title>Node1&#45;&gt;Node13</title>
<path fill="none" stroke="midnightblue" d="M47.8049,-189.219C62.15,-183.656 79.4972,-176.93 93.3574,-171.555"/>
<polygon fill="midnightblue" stroke="midnightblue" points="46.4913,-185.974 38.4331,-192.852 49.022,-192.5 46.4913,-185.974"/>
</g>
<!-- Node15 -->
<g id="node15" class="node"><title>Node15</title>
<g id="a_node15"><a xlink:href="iutils_8h.html#acf8aca63685fbd6b4c995516baedab14" target="_top" xlink:title="igetfirst_linked">
<polygon fill="white" stroke="black" points="79,-114.5 79,-133.5 159,-133.5 159,-114.5 79,-114.5"/>
<text text-anchor="middle" x="119" y="-121.5" font-family="Helvetica,sans-Serif" font-size="10.00">igetfirst_linked</text>
</a>
</g>
</g>
<!-- Node1&#45;&gt;Node15 -->
<g id="edge22" class="edge"><title>Node1&#45;&gt;Node15</title>
<path fill="none" stroke="midnightblue" d="M33.5759,-182.235C43.6713,-169.959 58.3563,-153.934 74,-143 79.1831,-139.377 85.1667,-136.231 91.0186,-133.597"/>
<polygon fill="midnightblue" stroke="midnightblue" points="30.578,-180.381 27.088,-190.384 36.0546,-184.741 30.578,-180.381"/>
</g>
<!-- Node19 -->
<g id="node19" class="node"><title>Node19</title>
<g id="a_node19"><a xlink:href="iutils_8h.html#af8939cbd050e1b0099ca01f4ff127e9c" target="_top" xlink:title="igetlast_linked">
<polygon fill="white" stroke="black" points="79.5,-304.5 79.5,-323.5 158.5,-323.5 158.5,-304.5 79.5,-304.5"/>
<text text-anchor="middle" x="119" y="-311.5" font-family="Helvetica,sans-Serif" font-size="10.00">igetlast_linked</text>
</a>
</g>
</g>
<!-- Node1&#45;&gt;Node19 -->
<g id="edge30" class="edge"><title>Node1&#45;&gt;Node19</title>
<path fill="none" stroke="midnightblue" d="M26.6402,-219.19C34.813,-240.292 50.5545,-273.985 74,-295 78.2133,-298.776 83.2928,-301.887 88.481,-304.42"/>
<polygon fill="midnightblue" stroke="midnightblue" points="29.8841,-217.871 23.1453,-209.695 23.3149,-220.288 29.8841,-217.871"/>
</g>
<!-- Node20 -->
<g id="node20" class="node"><title>Node20</title>
<g id="a_node20"><a xlink:href="iutils_8h.html#a78c507c5fd82c0c4f5255213b3690b57" target="_top" xlink:title="igetnext_linked">
<polygon fill="white" stroke="black" points="78,-342.5 78,-361.5 160,-361.5 160,-342.5 78,-342.5"/>
<text text-anchor="middle" x="119" y="-349.5" font-family="Helvetica,sans-Serif" font-size="10.00">igetnext_linked</text>
</a>
</g>
</g>
<!-- Node1&#45;&gt;Node20 -->
<g id="edge32" class="edge"><title>Node1&#45;&gt;Node20</title>
<path fill="none" stroke="midnightblue" d="M23.1493,-219.683C28.6633,-248.153 42.6146,-300.918 74,-333 77.7239,-336.807 82.3359,-339.897 87.1592,-342.392"/>
<polygon fill="midnightblue" stroke="midnightblue" points="26.5769,-218.967 21.3784,-209.735 19.6852,-220.194 26.5769,-218.967"/>
</g>
<!-- Node22 -->
<g id="node22" class="node"><title>Node22</title>
<g id="a_node22"><a xlink:href="iutils_8h.html#ab23b2e52f032125daf0977aba08bc1e6" target="_top" xlink:title="iremove_linked">
<polygon fill="white" stroke="black" points="78,-0.5 78,-19.5 160,-19.5 160,-0.5 78,-0.5"/>
<text text-anchor="middle" x="119" y="-7.5" font-family="Helvetica,sans-Serif" font-size="10.00">iremove_linked</text>
</a>
</g>
</g>
<!-- Node1&#45;&gt;Node22 -->
<g id="edge35" class="edge"><title>Node1&#45;&gt;Node22</title>
<path fill="none" stroke="midnightblue" d="M21.0715,-179.784C23.9611,-144.812 34.6316,-72.5928 74,-29 77.4576,-25.1714 81.8212,-22.0828 86.4492,-19.6004"/>
<polygon fill="midnightblue" stroke="midnightblue" points="17.555,-179.904 20.3596,-190.12 24.5385,-180.385 17.555,-179.904"/>
</g>
<!-- Node3 -->
<g id="node3" class="node"><title>Node3</title>
<g id="a_node3"><a xlink:href="iprimitives_8h.html#a32c313b4080f6b2ce22b65bbd1ad9236" target="_top" xlink:title="iobject_add_triplet">
<polygon fill="white" stroke="black" points="213.5,-266.5 213.5,-285.5 308.5,-285.5 308.5,-266.5 213.5,-266.5"/>
<text text-anchor="middle" x="261" y="-273.5" font-family="Helvetica,sans-Serif" font-size="10.00">iobject_add_triplet</text>
</a>
</g>
</g>
<!-- Node2&#45;&gt;Node3 -->
<g id="edge3" class="edge"><title>Node2&#45;&gt;Node3</title>
<path fill="none" stroke="midnightblue" d="M173.728,-276C186.701,-276 200.464,-276 213.096,-276"/>
<polygon fill="midnightblue" stroke="midnightblue" points="173.529,-272.5 163.529,-276 173.529,-279.5 173.529,-272.5"/>
</g>
<!-- Node4 -->
<g id="node4" class="node"><title>Node4</title>
<g id="a_node4"><a xlink:href="inferno_8c.html#a0ddf1224851353fc92bfbff6f499fa97" target="_top" xlink:title="main">
<polygon fill="white" stroke="black" points="488,-256.5 488,-275.5 526,-275.5 526,-256.5 488,-256.5"/>
<text text-anchor="middle" x="507" y="-263.5" font-family="Helvetica,sans-Serif" font-size="10.00">main</text>
</a>
</g>
</g>
<!-- Node3&#45;&gt;Node4 -->
<g id="edge4" class="edge"><title>Node3&#45;&gt;Node4</title>
<path fill="none" stroke="midnightblue" d="M318.977,-273.665C373.506,-271.43 452.521,-268.192 487.801,-266.746"/>
<polygon fill="midnightblue" stroke="midnightblue" points="318.605,-270.177 308.757,-274.084 318.892,-277.171 318.605,-270.177"/>
</g>
<!-- Node5&#45;&gt;Node3 -->
<g id="edge6" class="edge"><title>Node5&#45;&gt;Node3</title>
<path fill="none" stroke="midnightblue" d="M165.118,-250.246C184.415,-255.484 206.612,-261.509 224.683,-266.414"/>
<polygon fill="midnightblue" stroke="midnightblue" points="165.896,-246.831 155.328,-247.589 164.062,-253.586 165.896,-246.831"/>
</g>
<!-- Node6&#45;&gt;Node4 -->
<g id="edge8" class="edge"><title>Node6&#45;&gt;Node4</title>
<path fill="none" stroke="midnightblue" d="M428.407,-368.197C436.322,-362.06 444.991,-354.665 452,-347 473.213,-323.801 492.107,-291.553 500.854,-275.653"/>
<polygon fill="midnightblue" stroke="midnightblue" points="426.138,-365.524 420.227,-374.317 430.331,-371.129 426.138,-365.524"/>
</g>
<!-- Node8&#45;&gt;Node3 -->
<g id="edge16" class="edge"><title>Node8&#45;&gt;Node3</title>
<path fill="none" stroke="midnightblue" d="M156.011,-214.075C158.791,-215.602 161.489,-217.245 164,-219 183.068,-232.328 180.283,-244.651 200,-257 206.112,-260.828 213.06,-263.945 220.008,-266.463"/>
<polygon fill="midnightblue" stroke="midnightblue" points="157.495,-210.905 146.981,-209.597 154.385,-217.176 157.495,-210.905"/>
</g>
<!-- Node9 -->
<g id="node9" class="node"><title>Node9</title>
<g id="a_node9"><a xlink:href="icoordinates_8h.html#a4507e51c1f2470e19e8ff5a77adf54bd" target="_top" xlink:title="icreate_region">
<polygon fill="white" stroke="black" points="222.5,-228.5 222.5,-247.5 299.5,-247.5 299.5,-228.5 222.5,-228.5"/>
<text text-anchor="middle" x="261" y="-235.5" font-family="Helvetica,sans-Serif" font-size="10.00">icreate_region</text>
</a>
</g>
</g>
<!-- Node8&#45;&gt;Node9 -->
<g id="edge11" class="edge"><title>Node8&#45;&gt;Node9</title>
<path fill="none" stroke="midnightblue" d="M162.872,-211.637C182.652,-217.005 205.849,-223.302 224.613,-228.395"/>
<polygon fill="midnightblue" stroke="midnightblue" points="163.746,-208.247 153.178,-209.005 161.912,-215.003 163.746,-208.247"/>
</g>
<!-- Node10 -->
<g id="node10" class="node"><title>Node10</title>
<g id="a_node10"><a xlink:href="frontend__opengl__linux_8c.html#aeac975aee6becbb83f7fac162d290fe0" target="_top" xlink:title="frontend_initialize\l_viewspace">
<polygon fill="white" stroke="black" points="359,-229 359,-259 451,-259 451,-229 359,-229"/>
<text text-anchor="start" x="367" y="-247" font-family="Helvetica,sans-Serif" font-size="10.00">frontend_initialize</text>
<text text-anchor="middle" x="405" y="-236" font-family="Helvetica,sans-Serif" font-size="10.00">_viewspace</text>
</a>
</g>
</g>
<!-- Node9&#45;&gt;Node10 -->
<g id="edge12" class="edge"><title>Node9&#45;&gt;Node10</title>
<path fill="none" stroke="midnightblue" d="M309.795,-240.02C325.623,-240.688 343.181,-241.43 358.807,-242.09"/>
<polygon fill="midnightblue" stroke="midnightblue" points="309.819,-236.518 299.681,-239.592 309.524,-243.511 309.819,-236.518"/>
</g>
<!-- Node11 -->
<g id="node11" class="node"><title>Node11</title>
<g id="a_node11"><a xlink:href="icoordinates_8h.html#a045ac96ebb3a6309f1fc2fd44381c45f" target="_top" xlink:title="inew_point">
<polygon fill="white" stroke="black" points="373.5,-190.5 373.5,-209.5 436.5,-209.5 436.5,-190.5 373.5,-190.5"/>
<text text-anchor="middle" x="405" y="-197.5" font-family="Helvetica,sans-Serif" font-size="10.00">inew_point</text>
</a>
</g>
</g>
<!-- Node9&#45;&gt;Node11 -->
<g id="edge14" class="edge"><title>Node9&#45;&gt;Node11</title>
<path fill="none" stroke="midnightblue" d="M307.746,-225.758C329.252,-220.003 354.314,-213.296 373.472,-208.169"/>
<polygon fill="midnightblue" stroke="midnightblue" points="306.588,-222.445 297.833,-228.411 308.397,-229.207 306.588,-222.445"/>
</g>
<!-- Node10&#45;&gt;Node4 -->
<g id="edge13" class="edge"><title>Node10&#45;&gt;Node4</title>
<path fill="none" stroke="midnightblue" d="M460.854,-256.068C470.654,-258.224 480.203,-260.325 487.976,-262.035"/>
<polygon fill="midnightblue" stroke="midnightblue" points="461.545,-252.636 451.027,-253.906 460.041,-259.473 461.545,-252.636"/>
</g>
<!-- Node11&#45;&gt;Node4 -->
<g id="edge15" class="edge"><title>Node11&#45;&gt;Node4</title>
<path fill="none" stroke="midnightblue" d="M440.64,-213.727C444.56,-215.669 448.426,-217.77 452,-220 468.926,-230.561 486.055,-246.177 496.351,-256.22"/>
<polygon fill="midnightblue" stroke="midnightblue" points="442.054,-210.524 431.508,-209.501 439.114,-216.877 442.054,-210.524"/>
</g>
<!-- Node13&#45;&gt;Node3 -->
<g id="edge20" class="edge"><title>Node13&#45;&gt;Node3</title>
<path fill="none" stroke="midnightblue" d="M158.795,-176.692C160.644,-178.016 162.395,-179.45 164,-181 190.884,-206.966 171.84,-232.424 200,-257 204.445,-260.88 209.685,-263.968 215.186,-266.426"/>
<polygon fill="midnightblue" stroke="midnightblue" points="160.586,-173.685 150.207,-171.558 156.994,-179.693 160.586,-173.685"/>
</g>
<!-- Node13&#45;&gt;Node9 -->
<g id="edge19" class="edge"><title>Node13&#45;&gt;Node9</title>
<path fill="none" stroke="midnightblue" d="M155.377,-176.009C158.361,-177.568 161.276,-179.236 164,-181 182.217,-192.8 181.624,-202.448 200,-214 209.213,-219.792 220.059,-224.64 229.977,-228.429"/>
<polygon fill="midnightblue" stroke="midnightblue" points="156.864,-172.84 146.334,-171.666 153.833,-179.15 156.864,-172.84"/>
</g>
<!-- Node14 -->
<g id="node14" class="node"><title>Node14</title>
<g id="a_node14"><a xlink:href="iutils_8h.html#aadd9a7c0a870d973f29968dfb6ed8480" target="_top" xlink:title="iaddunique_linked">
<polygon fill="white" stroke="black" points="358,-133.5 358,-152.5 452,-152.5 452,-133.5 358,-133.5"/>
<text text-anchor="middle" x="405" y="-140.5" font-family="Helvetica,sans-Serif" font-size="10.00">iaddunique_linked</text>
</a>
</g>
</g>
<!-- Node13&#45;&gt;Node14 -->
<g id="edge21" class="edge"><title>Node13&#45;&gt;Node14</title>
<path fill="none" stroke="midnightblue" d="M162.035,-159.188C214.446,-155.681 303.723,-149.709 357.942,-146.081"/>
<polygon fill="midnightblue" stroke="midnightblue" points="161.496,-155.716 151.752,-159.876 161.963,-162.7 161.496,-155.716"/>
</g>
<!-- Node15&#45;&gt;Node9 -->
<g id="edge24" class="edge"><title>Node15&#45;&gt;Node9</title>
<path fill="none" stroke="midnightblue" d="M158.745,-138.744C160.607,-140.055 162.375,-141.472 164,-143 189.776,-167.235 173.897,-190.117 200,-214 206.787,-220.21 215.383,-224.904 223.931,-228.417"/>
<polygon fill="midnightblue" stroke="midnightblue" points="160.512,-135.723 150.123,-133.646 156.949,-141.748 160.512,-135.723"/>
</g>
<!-- Node15&#45;&gt;Node11 -->
<g id="edge23" class="edge"><title>Node15&#45;&gt;Node11</title>
<path fill="none" stroke="midnightblue" d="M165.371,-136.142C223.697,-151.75 323.402,-178.431 373.448,-191.824"/>
<polygon fill="midnightblue" stroke="midnightblue" points="166.246,-132.753 155.681,-133.548 164.437,-139.515 166.246,-132.753"/>
</g>
<!-- Node16 -->
<g id="node16" class="node"><title>Node16</title>
<g id="a_node16"><a xlink:href="iprimitives_8h.html#ad14816b7b9d9bc34ae7098efadf43add" target="_top" xlink:title="iprint_object">
<polygon fill="white" stroke="black" points="370.5,-57.5 370.5,-76.5 439.5,-76.5 439.5,-57.5 370.5,-57.5"/>
<text text-anchor="middle" x="405" y="-64.5" font-family="Helvetica,sans-Serif" font-size="10.00">iprint_object</text>
</a>
</g>
</g>
<!-- Node15&#45;&gt;Node16 -->
<g id="edge25" class="edge"><title>Node15&#45;&gt;Node16</title>
<path fill="none" stroke="midnightblue" d="M156.011,-109.925C158.791,-108.398 161.489,-106.755 164,-105 183.068,-91.6721 178.629,-76.1925 200,-67 255.797,-43 328.389,-51.1562 370.232,-59.1555"/>
<polygon fill="midnightblue" stroke="midnightblue" points="154.385,-106.824 146.981,-114.403 157.495,-113.095 154.385,-106.824"/>
</g>
<!-- Node17 -->
<g id="node17" class="node"><title>Node17</title>
<g id="a_node17"><a xlink:href="iutils_8h.html#af19f54fefe2f16b8a7fba23fc7f67de5" target="_top" xlink:title="igetclosest_point_linked">
<polygon fill="white" stroke="black" points="200.5,-114.5 200.5,-133.5 321.5,-133.5 321.5,-114.5 200.5,-114.5"/>
<text text-anchor="middle" x="261" y="-121.5" font-family="Helvetica,sans-Serif" font-size="10.00">igetclosest_point_linked</text>
</a>
</g>
</g>
<!-- Node15&#45;&gt;Node17 -->
<g id="edge27" class="edge"><title>Node15&#45;&gt;Node17</title>
<path fill="none" stroke="midnightblue" d="M169.487,-124C179.442,-124 190.005,-124 200.267,-124"/>
<polygon fill="midnightblue" stroke="midnightblue" points="169.37,-120.5 159.37,-124 169.37,-127.5 169.37,-120.5"/>
</g>
<!-- Node18 -->
<g id="node18" class="node"><title>Node18</title>
<g id="a_node18"><a xlink:href="iutils_8h.html#a0ebe4fcebc989b963635264358e68403" target="_top" xlink:title="icontains_linked">
<polygon fill="white" stroke="black" points="218,-76.5 218,-95.5 304,-95.5 304,-76.5 218,-76.5"/>
<text text-anchor="middle" x="261" y="-83.5" font-family="Helvetica,sans-Serif" font-size="10.00">icontains_linked</text>
</a>
</g>
</g>
<!-- Node15&#45;&gt;Node18 -->
<g id="edge28" class="edge"><title>Node15&#45;&gt;Node18</title>
<path fill="none" stroke="midnightblue" d="M165.118,-111.754C184.415,-106.516 206.612,-100.491 224.683,-95.5859"/>
<polygon fill="midnightblue" stroke="midnightblue" points="164.062,-108.414 155.328,-114.411 165.896,-115.169 164.062,-108.414"/>
</g>
<!-- Node16&#45;&gt;Node4 -->
<g id="edge26" class="edge"><title>Node16&#45;&gt;Node4</title>
<path fill="none" stroke="midnightblue" d="M422.328,-84.2426C431.911,-95.0358 443.725,-109.588 452,-124 478.659,-170.433 496.994,-232.515 503.443,-256.232"/>
<polygon fill="midnightblue" stroke="midnightblue" points="424.853,-81.8179 415.529,-76.7862 419.68,-86.5341 424.853,-81.8179"/>
</g>
<!-- Node18&#45;&gt;Node14 -->
<g id="edge29" class="edge"><title>Node18&#45;&gt;Node14</title>
<path fill="none" stroke="midnightblue" d="M304.491,-98.7134C310.413,-100.7 316.388,-102.821 322,-105 344.087,-113.575 368.647,-125.255 385.079,-133.393"/>
<polygon fill="midnightblue" stroke="midnightblue" points="305.239,-95.2764 294.647,-95.509 303.072,-101.933 305.239,-95.2764"/>
</g>
<!-- Node19&#45;&gt;Node3 -->
<g id="edge31" class="edge"><title>Node19&#45;&gt;Node3</title>
<path fill="none" stroke="midnightblue" d="M165.118,-301.754C184.415,-296.516 206.612,-290.491 224.683,-285.586"/>
<polygon fill="midnightblue" stroke="midnightblue" points="164.062,-298.414 155.328,-304.411 165.896,-305.169 164.062,-298.414"/>
</g>
<!-- Node21 -->
<g id="node21" class="node"><title>Node21</title>
<g id="a_node21"><a xlink:href="igraphics_8h.html#a59e056b979c3532457c54692f5af63b4" target="_top" xlink:title="draw_object">
<polygon fill="white" stroke="black" points="226.5,-342.5 226.5,-361.5 295.5,-361.5 295.5,-342.5 226.5,-342.5"/>
<text text-anchor="middle" x="261" y="-349.5" font-family="Helvetica,sans-Serif" font-size="10.00">draw_object</text>
</a>
</g>
</g>
<!-- Node20&#45;&gt;Node21 -->
<g id="edge33" class="edge"><title>Node20&#45;&gt;Node21</title>
<path fill="none" stroke="midnightblue" d="M170.252,-352C188.939,-352 209.671,-352 226.497,-352"/>
<polygon fill="midnightblue" stroke="midnightblue" points="170.118,-348.5 160.118,-352 170.118,-355.5 170.118,-348.5"/>
</g>
<!-- Node21&#45;&gt;Node4 -->
<g id="edge34" class="edge"><title>Node21&#45;&gt;Node4</title>
<path fill="none" stroke="midnightblue" d="M298.739,-339.051C351.787,-320.354 447.848,-286.496 487.804,-272.413"/>
<polygon fill="midnightblue" stroke="midnightblue" points="297.312,-335.843 289.045,-342.468 299.639,-342.445 297.312,-335.843"/>
</g>
</g>
</svg>
        <g id="navigator" transform="translate(0 0)" fill="#404254">
                <rect fill="#f2f5e9" fill-opacity="0.5" stroke="#606060" stroke-width=".5" x="0" y="0" width="60" height="60"/>
                <use id="zoomplus" xlink:href="#zoomPlus" x="17" y="9" onmousedown="handleZoom(evt,'in')"/>
                <use id="zoomminus" xlink:href="#zoomMin" x="42" y="9" onmousedown="handleZoom(evt,'out')"/>
                <use id="reset" xlink:href="#resetDef" x="30" y="36" onmousedown="handleReset()"/>
                <g id="arrowUp" xlink:href="#dirArrow" transform="translate(30 24)" onmousedown="handlePan(0,-1)">
                  <use xlink:href="#rim" fill="#404040">
                        <set attributeName="fill" to="#808080" begin="arrowUp.mouseover" end="arrowUp.mouseout"/>
                  </use>
                  <path fill="none" stroke="white" stroke-width="1.5" d="M0,-3.0v7 M-2.5,-0.5L0,-3.0L2.5,-0.5"/>
                </g>
                <g id="arrowRight" xlink:href="#dirArrow" transform="rotate(90) translate(36 -43)" onmousedown="handlePan(1,0)">
                  <use xlink:href="#rim" fill="#404040">
                        <set attributeName="fill" to="#808080" begin="arrowRight.mouseover" end="arrowRight.mouseout"/>
                  </use>
                  <path fill="none" stroke="white" stroke-width="1.5" d="M0,-3.0v7 M-2.5,-0.5L0,-3.0L2.5,-0.5"/>
                </g>
                <g id="arrowDown" xlink:href="#dirArrow" transform="rotate(180) translate(-30 -48)" onmousedown="handlePan(0,1)">
                  <use xlink:href="#rim" fill="#404040">
                        <set attributeName="fill" to="#808080" begin="arrowDown.mouseover" end="arrowDown.mouseout"/>
                  </use>
                  <path fill="none" stroke="white" stroke-width="1.5" d="M0,-3.0v7 M-2.5,-0.5L0,-3.0L2.5,-0.5"/>
                </g>
                <g id="arrowLeft" xlink:href="#dirArrow" transform="rotate(270) translate(-36 17)" onmousedown="handlePan(-1,0)">
                  <use xlink:href="#rim" fill="#404040">
                        <set attributeName="fill" to="#808080" begin="arrowLeft.mouseover" end="arrowLeft.mouseout"/>
                  </use>
                  <path fill="none" stroke="white" stroke-width="1.5" d="M0,-3.0v7 M-2.5,-0.5L0,-3.0L2.5,-0.5"/>
                </g>
        </g>
        <svg viewBox="0 0 15 15" width="100%" height="30px" preserveAspectRatio="xMaxYMin meet">
         <g id="arrow_out" transform="scale(0.3 0.3)">
          <a xlink:href="error_8h_ab10bea042bb9daa7a0e027197b8080e5_icgraph_org.svg" target="_base">
           <rect id="button" ry="5" rx="5" y="6" x="6" height="38" width="38"
                fill="#f2f5e9" fill-opacity="0.5" stroke="#606060" stroke-width="1.0"/>
           <path id="arrow"
             d="M 11.500037,31.436501 C 11.940474,20.09759 22.043105,11.32322 32.158766,21.979434 L 37.068811,17.246167 C 37.068811,17.246167 37.088388,32 37.088388,32 L 22.160133,31.978069 C 22.160133,31.978069 26.997745,27.140456 26.997745,27.140456 C 18.528582,18.264221 13.291696,25.230495 11.500037,31.436501 z"
             style="fill:#404040;"/>
          </a>
         </g>
        </svg>
</svg>
