<?xml version="1.0" encoding="UTF-8" standalone="no"?>
<!DOCTYPE svg PUBLIC "-//W3C//DTD SVG 1.1//EN"
 "http://www.w3.org/Graphics/SVG/1.1/DTD/svg11.dtd">
<!-- Generated by graphviz version 2.36.0 (20140111.2315)
 -->
<!-- Title: src/error.c Pages: 1 -->
<svg width="286pt" height="84pt"
 viewBox="0.00 0.00 286.00 84.00" xmlns="http://www.w3.org/2000/svg" xmlns:xlink="http://www.w3.org/1999/xlink">
<g id="graph0" class="graph" transform="scale(1 1) rotate(0) translate(4 80)">
<title>src/error.c</title>
<polygon fill="white" stroke="none" points="-4,4 -4,-80 282,-80 282,4 -4,4"/>
<!-- Node1 -->
<g id="node1" class="node"><title>Node1</title>
<polygon fill="#bfbfbf" stroke="black" points="116.5,-56.5 116.5,-75.5 177.5,-75.5 177.5,-56.5 116.5,-56.5"/>
<text text-anchor="middle" x="147" y="-63.5" font-family="Helvetica,sans-Serif" font-size="10.00">src/error.c</text>
</g>
<!-- Node2 -->
<g id="node2" class="node"><title>Node2</title>
<g id="a_node2"><a xlink:href="error_8h.html" target="_top" xlink:title="error.h">
<polygon fill="white" stroke="black" points="0,-0.5 0,-19.5 44,-19.5 44,-0.5 0,-0.5"/>
<text text-anchor="middle" x="22" y="-7.5" font-family="Helvetica,sans-Serif" font-size="10.00">error.h</text>
</a>
</g>
</g>
<!-- Node1&#45;&gt;Node2 -->
<g id="edge1" class="edge"><title>Node1&#45;&gt;Node2</title>
<path fill="none" stroke="midnightblue" d="M127.193,-56.4435C106.713,-47.5961 74.5173,-33.6875 51.1353,-23.5865"/>
<polygon fill="midnightblue" stroke="midnightblue" points="52.282,-20.2692 41.714,-19.5164 49.5059,-26.6953 52.282,-20.2692"/>
</g>
<!-- Node3 -->
<g id="node3" class="node"><title>Node3</title>
<g id="a_node3"><a xlink:href="iprettyconsole_8h.html" target="_top" xlink:title="iprettyconsole.h">
<polygon fill="white" stroke="black" points="62,-0.5 62,-19.5 148,-19.5 148,-0.5 62,-0.5"/>
<text text-anchor="middle" x="105" y="-7.5" font-family="Helvetica,sans-Serif" font-size="10.00">iprettyconsole.h</text>
</a>
</g>
</g>
<!-- Node1&#45;&gt;Node3 -->
<g id="edge2" class="edge"><title>Node1&#45;&gt;Node3</title>
<path fill="none" stroke="midnightblue" d="M140.065,-56.083C134.071,-48.3768 125.248,-37.0333 117.952,-27.6531"/>
<polygon fill="midnightblue" stroke="midnightblue" points="120.709,-25.4958 111.806,-19.7511 115.183,-29.7934 120.709,-25.4958"/>
</g>
<!-- Node4 -->
<g id="node4" class="node"><title>Node4</title>
<polygon fill="white" stroke="#bfbfbf" points="166,-0.5 166,-19.5 214,-19.5 214,-0.5 166,-0.5"/>
<text text-anchor="middle" x="190" y="-7.5" font-family="Helvetica,sans-Serif" font-size="10.00">stdlib.h</text>
</g>
<!-- Node1&#45;&gt;Node4 -->
<g id="edge3" class="edge"><title>Node1&#45;&gt;Node4</title>
<path fill="none" stroke="midnightblue" d="M154.101,-56.083C160.237,-48.3768 169.27,-37.0333 176.739,-27.6531"/>
<polygon fill="midnightblue" stroke="midnightblue" points="179.54,-29.7542 183.032,-19.7511 174.064,-25.3936 179.54,-29.7542"/>
</g>
<!-- Node5 -->
<g id="node5" class="node"><title>Node5</title>
<polygon fill="white" stroke="#bfbfbf" points="232,-0.5 232,-19.5 278,-19.5 278,-0.5 232,-0.5"/>
<text text-anchor="middle" x="255" y="-7.5" font-family="Helvetica,sans-Serif" font-size="10.00">stdio.h</text>
</g>
<!-- Node1&#45;&gt;Node5 -->
<g id="edge4" class="edge"><title>Node1&#45;&gt;Node5</title>
<path fill="none" stroke="midnightblue" d="M164.352,-56.324C181.672,-47.6641 208.515,-34.2424 228.502,-24.249"/>
<polygon fill="midnightblue" stroke="midnightblue" points="230.312,-27.2572 237.691,-19.6545 227.181,-20.9962 230.312,-27.2572"/>
</g>
</g>
</svg>
