<?xml version="1.0" encoding="UTF-8" standalone="no"?>
<!DOCTYPE svg PUBLIC "-//W3C//DTD SVG 1.1//EN"
 "http://www.w3.org/Graphics/SVG/1.1/DTD/svg11.dtd">
<!-- Generated by graphviz version 2.36.0 (20140111.2315)
 -->
<!-- Title: ierror Pages: 1 -->
<svg width="216pt" height="56pt"
 viewBox="0.00 0.00 216.00 56.00" xmlns="http://www.w3.org/2000/svg" xmlns:xlink="http://www.w3.org/1999/xlink">
<g id="graph0" class="graph" transform="scale(1 1) rotate(0) translate(4 52)">
<title>ierror</title>
<polygon fill="white" stroke="none" points="-4,4 -4,-52 212,-52 212,4 -4,4"/>
<!-- Node1 -->
<g id="node1" class="node"><title>Node1</title>
<polygon fill="#bfbfbf" stroke="black" points="0,-28.5 0,-47.5 38,-47.5 38,-28.5 0,-28.5"/>
<text text-anchor="middle" x="19" y="-35.5" font-family="Helvetica,sans-Serif" font-size="10.00">ierror</text>
</g>
<!-- Node2 -->
<g id="node2" class="node"><title>Node2</title>
<g id="a_node2"><a xlink:href="error_8c.html#ac1727d6e8e99b92957a0a7099d19d6f4" target="_top" xlink:title="print_error">
<polygon fill="white" stroke="black" points="148,-28.5 148,-47.5 208,-47.5 208,-28.5 148,-28.5"/>
<text text-anchor="middle" x="178" y="-35.5" font-family="Helvetica,sans-Serif" font-size="10.00">print_error</text>
</a>
</g>
</g>
<!-- Node1&#45;&gt;Node2 -->
<g id="edge1" class="edge"><title>Node1&#45;&gt;Node2</title>
<path fill="none" stroke="midnightblue" d="M38.3999,-41.8413C48.7975,-43.8166 62.0654,-46.0123 74,-47 95.0775,-48.7444 118.572,-46.9766 137.793,-44.5601"/>
<polygon fill="midnightblue" stroke="midnightblue" points="138.267,-48.0279 147.704,-43.2109 137.323,-41.0919 138.267,-48.0279"/>
</g>
<!-- Node3 -->
<g id="node3" class="node"><title>Node3</title>
<g id="a_node3"><a xlink:href="error_8c.html#ab10bea042bb9daa7a0e027197b8080e5" target="_top" xlink:title="ierror">
<polygon fill="white" stroke="black" points="74,-0.5 74,-19.5 112,-19.5 112,-0.5 74,-0.5"/>
<text text-anchor="middle" x="93" y="-7.5" font-family="Helvetica,sans-Serif" font-size="10.00">ierror</text>
</a>
</g>
</g>
<!-- Node1&#45;&gt;Node3 -->
<g id="edge2" class="edge"><title>Node1&#45;&gt;Node3</title>
<path fill="none" stroke="midnightblue" d="M38.1686,-30.9344C46.0383,-27.874 55.4288,-24.2221 64.1467,-20.8318"/>
<polygon fill="midnightblue" stroke="midnightblue" points="65.5353,-24.0473 73.5867,-17.1607 62.9981,-17.5232 65.5353,-24.0473"/>
</g>
<!-- Node3&#45;&gt;Node2 -->
<g id="edge3" class="edge"><title>Node3&#45;&gt;Node2</title>
<path fill="none" stroke="midnightblue" d="M112.01,-16.0756C119.936,-18.7496 129.567,-21.9986 138.96,-25.1673"/>
<polygon fill="midnightblue" stroke="midnightblue" points="137.987,-28.5328 148.581,-28.413 140.225,-21.9 137.987,-28.5328"/>
</g>
<!-- Node3&#45;&gt;Node3 -->
<g id="edge4" class="edge"><title>Node3&#45;&gt;Node3</title>
<path fill="none" stroke="midnightblue" d="M81.5945,-19.7571C76.0458,-28.5653 79.8477,-38 93,-38 101.015,-38 105.557,-34.4965 106.628,-29.7663"/>
<polygon fill="midnightblue" stroke="midnightblue" points="109.99,-28.7609 104.406,-19.7571 103.156,-30.2779 109.99,-28.7609"/>
</g>
</g>
</svg>
