<?xml version="1.0" encoding="UTF-8" standalone="no"?>
<!DOCTYPE svg PUBLIC "-//W3C//DTD SVG 1.1//EN"
 "http://www.w3.org/Graphics/SVG/1.1/DTD/svg11.dtd">
<!-- Generated by graphviz version 2.36.0 (20140111.2315)
 -->
<!-- Title: ierror Pages: 1 -->
<svg width="608pt" height="484pt"
 viewBox="0.00 0.00 608.00 484.00" xmlns="http://www.w3.org/2000/svg" xmlns:xlink="http://www.w3.org/1999/xlink">
<g id="graph0" class="graph" transform="scale(1 1) rotate(0) translate(4 480)">
<title>ierror</title>
<polygon fill="white" stroke="none" points="-4,4 -4,-480 604,-480 604,4 -4,4"/>
<!-- Node1 -->
<g id="node1" class="node"><title>Node1</title>
<polygon fill="#bfbfbf" stroke="black" points="0,-247.5 0,-266.5 38,-266.5 38,-247.5 0,-247.5"/>
<text text-anchor="middle" x="19" y="-254.5" font-family="Helvetica,sans-Serif" font-size="10.00">ierror</text>
</g>
<!-- Node2 -->
<g id="node2" class="node"><title>Node2</title>
<g id="a_node2"><a xlink:href="error_8h.html#ab10bea042bb9daa7a0e027197b8080e5" target="_top" xlink:title="ierror">
<polygon fill="white" stroke="black" points="74,-266.5 74,-285.5 112,-285.5 112,-266.5 74,-266.5"/>
<text text-anchor="middle" x="93" y="-273.5" font-family="Helvetica,sans-Serif" font-size="10.00">ierror</text>
</a>
</g>
</g>
<!-- Node1&#45;&gt;Node2 -->
<g id="edge1" class="edge"><title>Node1&#45;&gt;Node2</title>
<path fill="none" stroke="midnightblue" d="M47.864,-264.353C56.4887,-266.629 65.7708,-269.078 73.5867,-271.141"/>
<polygon fill="midnightblue" stroke="midnightblue" points="48.7307,-260.962 38.1686,-261.795 46.9446,-267.73 48.7307,-260.962"/>
</g>
<!-- Node3 -->
<g id="node3" class="node"><title>Node3</title>
<g id="a_node3"><a xlink:href="icoordinates_8h.html#a7c978730cf6130f65e3ca306b83d953b" target="_top" xlink:title="inew_linkedpoint">
<polygon fill="white" stroke="black" points="148.5,-228.5 148.5,-247.5 237.5,-247.5 237.5,-228.5 148.5,-228.5"/>
<text text-anchor="middle" x="193" y="-235.5" font-family="Helvetica,sans-Serif" font-size="10.00">inew_linkedpoint</text>
</a>
</g>
</g>
<!-- Node1&#45;&gt;Node3 -->
<g id="edge37" class="edge"><title>Node1&#45;&gt;Node3</title>
<path fill="none" stroke="midnightblue" d="M39.6841,-241.349C49.4148,-234.597 61.6918,-227.463 74,-224 103.788,-215.619 139.18,-221.866 163.382,-228.476"/>
<polygon fill="midnightblue" stroke="midnightblue" points="37.529,-238.589 31.5357,-247.326 41.6692,-244.233 37.529,-238.589"/>
</g>
<!-- Node6 -->
<g id="node6" class="node"><title>Node6</title>
<g id="a_node6"><a xlink:href="icoordinates_8h.html#a1576e4429e977b28e65001af937bcf3e" target="_top" xlink:title="iadd_linkedpoint">
<polygon fill="white" stroke="black" points="150,-380.5 150,-399.5 236,-399.5 236,-380.5 150,-380.5"/>
<text text-anchor="middle" x="193" y="-387.5" font-family="Helvetica,sans-Serif" font-size="10.00">iadd_linkedpoint</text>
</a>
</g>
</g>
<!-- Node1&#45;&gt;Node6 -->
<g id="edge38" class="edge"><title>Node1&#45;&gt;Node6</title>
<path fill="none" stroke="midnightblue" d="M25.7673,-276.122C33.3468,-298.052 48.7456,-333.6 74,-354 95.5765,-371.429 125.519,-380.437 149.842,-385.084"/>
<polygon fill="midnightblue" stroke="midnightblue" points="29.0845,-275.005 22.6656,-266.575 22.4271,-277.168 29.0845,-275.005"/>
</g>
<!-- Node7 -->
<g id="node7" class="node"><title>Node7</title>
<g id="a_node7"><a xlink:href="inferno_8c.html#ac367369074184100d42ced4c3f1025ca" target="_top" xlink:title="random_function">
<polygon fill="white" stroke="black" points="148.5,-418.5 148.5,-437.5 237.5,-437.5 237.5,-418.5 148.5,-418.5"/>
<text text-anchor="middle" x="193" y="-425.5" font-family="Helvetica,sans-Serif" font-size="10.00">random_function</text>
</a>
</g>
</g>
<!-- Node1&#45;&gt;Node7 -->
<g id="edge39" class="edge"><title>Node1&#45;&gt;Node7</title>
<path fill="none" stroke="midnightblue" d="M23.9772,-276.421C30.2899,-302.689 44.9781,-349.523 74,-378 94.8043,-398.413 125.216,-411.028 149.954,-418.48"/>
<polygon fill="midnightblue" stroke="midnightblue" points="27.3647,-275.531 21.7671,-266.536 20.5334,-277.059 27.3647,-275.531"/>
</g>
<!-- Node8 -->
<g id="node8" class="node"><title>Node8</title>
<g id="a_node8"><a xlink:href="iutils_8c.html#ad0ad5e5cbedd00755591bbb6a2862d97" target="_top" xlink:title="infastsort">
<polygon fill="white" stroke="black" points="164.5,-342.5 164.5,-361.5 221.5,-361.5 221.5,-342.5 164.5,-342.5"/>
<text text-anchor="middle" x="193" y="-349.5" font-family="Helvetica,sans-Serif" font-size="10.00">infastsort</text>
</a>
</g>
</g>
<!-- Node1&#45;&gt;Node8 -->
<g id="edge40" class="edge"><title>Node1&#45;&gt;Node8</title>
<path fill="none" stroke="midnightblue" d="M28.3637,-275.944C37.1244,-293.436 52.6006,-318.663 74,-332 101.332,-349.035 138.825,-352.773 164.154,-353.072"/>
<polygon fill="midnightblue" stroke="midnightblue" points="31.4257,-274.232 23.9875,-266.687 25.0972,-277.223 31.4257,-274.232"/>
</g>
<!-- Node9 -->
<g id="node9" class="node"><title>Node9</title>
<g id="a_node9"><a xlink:href="iutils_8h.html#a361efdc52b42b541f7f0db7288b1b4f5" target="_top" xlink:title="inew_linked">
<polygon fill="white" stroke="black" points="159,-190.5 159,-209.5 227,-209.5 227,-190.5 159,-190.5"/>
<text text-anchor="middle" x="193" y="-197.5" font-family="Helvetica,sans-Serif" font-size="10.00">inew_linked</text>
</a>
</g>
</g>
<!-- Node1&#45;&gt;Node9 -->
<g id="edge41" class="edge"><title>Node1&#45;&gt;Node9</title>
<path fill="none" stroke="midnightblue" d="M36.8962,-240.521C46.8797,-231.778 60.2328,-221.693 74,-216 101.129,-204.782 134.468,-201.086 158.78,-200.019"/>
<polygon fill="midnightblue" stroke="midnightblue" points="34.3732,-238.085 29.3675,-247.423 39.1037,-243.245 34.3732,-238.085"/>
</g>
<!-- Node13 -->
<g id="node13" class="node"><title>Node13</title>
<g id="a_node13"><a xlink:href="iutils_8h.html#a87ccc53b520060810c7be2e2243e6397" target="_top" xlink:title="iset_linked">
<polygon fill="white" stroke="black" points="161.5,-266.5 161.5,-285.5 224.5,-285.5 224.5,-266.5 161.5,-266.5"/>
<text text-anchor="middle" x="193" y="-273.5" font-family="Helvetica,sans-Serif" font-size="10.00">iset_linked</text>
</a>
</g>
</g>
<!-- Node1&#45;&gt;Node13 -->
<g id="edge42" class="edge"><title>Node1&#45;&gt;Node13</title>
<path fill="none" stroke="midnightblue" d="M48.0455,-255.313C66.3204,-254.628 90.6496,-254.499 112,-257 128.447,-258.926 146.415,-263.008 161.148,-266.896"/>
<polygon fill="midnightblue" stroke="midnightblue" points="47.8851,-251.816 38.0534,-255.764 48.2013,-258.809 47.8851,-251.816"/>
</g>
<!-- Node14 -->
<g id="node14" class="node"><title>Node14</title>
<g id="a_node14"><a xlink:href="iutils_8h.html#a67413257923db7c88d91a7e706024e98" target="_top" xlink:title="iadd_linked">
<polygon fill="white" stroke="black" points="160.5,-152.5 160.5,-171.5 225.5,-171.5 225.5,-152.5 160.5,-152.5"/>
<text text-anchor="middle" x="193" y="-159.5" font-family="Helvetica,sans-Serif" font-size="10.00">iadd_linked</text>
</a>
</g>
</g>
<!-- Node1&#45;&gt;Node14 -->
<g id="edge43" class="edge"><title>Node1&#45;&gt;Node14</title>
<path fill="none" stroke="midnightblue" d="M33.4382,-239.496C43.4685,-227.481 58.1325,-211.964 74,-202 100.837,-185.148 135.602,-174.484 160.432,-168.445"/>
<polygon fill="midnightblue" stroke="midnightblue" points="30.543,-237.511 27.0024,-247.497 35.9975,-241.899 30.543,-237.511"/>
</g>
<!-- Node16 -->
<g id="node16" class="node"><title>Node16</title>
<g id="a_node16"><a xlink:href="iutils_8h.html#acf8aca63685fbd6b4c995516baedab14" target="_top" xlink:title="igetfirst_linked">
<polygon fill="white" stroke="black" points="153,-76.5 153,-95.5 233,-95.5 233,-76.5 153,-76.5"/>
<text text-anchor="middle" x="193" y="-83.5" font-family="Helvetica,sans-Serif" font-size="10.00">igetfirst_linked</text>
</a>
</g>
</g>
<!-- Node1&#45;&gt;Node16 -->
<g id="edge44" class="edge"><title>Node1&#45;&gt;Node16</title>
<path fill="none" stroke="midnightblue" d="M30.7179,-238.732C40.7684,-222.4 56.7921,-198.292 74,-180 107.201,-144.707 154.039,-111.334 177.466,-95.5366"/>
<polygon fill="midnightblue" stroke="midnightblue" points="27.6904,-236.975 25.5268,-247.346 33.686,-240.588 27.6904,-236.975"/>
</g>
<!-- Node20 -->
<g id="node20" class="node"><title>Node20</title>
<g id="a_node20"><a xlink:href="iutils_8h.html#af8939cbd050e1b0099ca01f4ff127e9c" target="_top" xlink:title="igetlast_linked">
<polygon fill="white" stroke="black" points="153.5,-304.5 153.5,-323.5 232.5,-323.5 232.5,-304.5 153.5,-304.5"/>
<text text-anchor="middle" x="193" y="-311.5" font-family="Helvetica,sans-Serif" font-size="10.00">igetlast_linked</text>
</a>
</g>
</g>
<!-- Node1&#45;&gt;Node20 -->
<g id="edge45" class="edge"><title>Node1&#45;&gt;Node20</title>
<path fill="none" stroke="midnightblue" d="M31.5797,-275.195C41.1512,-288.414 56.055,-305.285 74,-313 98.844,-323.681 129.44,-323.613 153.251,-321.041"/>
<polygon fill="midnightblue" stroke="midnightblue" points="34.3644,-273.066 25.8333,-266.784 28.5845,-277.015 34.3644,-273.066"/>
</g>
<!-- Node21 -->
<g id="node21" class="node"><title>Node21</title>
<g id="a_node21"><a xlink:href="iutils_8h.html#a78c507c5fd82c0c4f5255213b3690b57" target="_top" xlink:title="igetnext_linked">
<polygon fill="white" stroke="black" points="152,-456.5 152,-475.5 234,-475.5 234,-456.5 152,-456.5"/>
<text text-anchor="middle" x="193" y="-463.5" font-family="Helvetica,sans-Serif" font-size="10.00">igetnext_linked</text>
</a>
</g>
</g>
<!-- Node1&#45;&gt;Node21 -->
<g id="edge46" class="edge"><title>Node1&#45;&gt;Node21</title>
<path fill="none" stroke="midnightblue" d="M22.8108,-277.088C28.0183,-307.797 41.7298,-366.859 74,-405 95.971,-430.968 131.797,-447.263 158.218,-456.41"/>
<polygon fill="midnightblue" stroke="midnightblue" points="26.2073,-276.152 21.2103,-266.809 19.2906,-277.229 26.2073,-276.152"/>
</g>
<!-- Node23 -->
<g id="node23" class="node"><title>Node23</title>
<g id="a_node23"><a xlink:href="iutils_8h.html#ab23b2e52f032125daf0977aba08bc1e6" target="_top" xlink:title="iremove_linked">
<polygon fill="white" stroke="black" points="152,-38.5 152,-57.5 234,-57.5 234,-38.5 152,-38.5"/>
<text text-anchor="middle" x="193" y="-45.5" font-family="Helvetica,sans-Serif" font-size="10.00">iremove_linked</text>
</a>
</g>
</g>
<!-- Node1&#45;&gt;Node23 -->
<g id="edge47" class="edge"><title>Node1&#45;&gt;Node23</title>
<path fill="none" stroke="midnightblue" d="M26.8649,-237.746C35.7491,-214.21 52.6528,-173.725 74,-143 100.9,-104.283 109.175,-93.7435 148,-67 153.208,-63.4128 159.201,-60.2809 165.055,-57.6502"/>
<polygon fill="midnightblue" stroke="midnightblue" points="23.5286,-236.678 23.3601,-247.271 30.098,-239.095 23.5286,-236.678"/>
</g>
<!-- Node2&#45;&gt;Node2 -->
<g id="edge2" class="edge"><title>Node2&#45;&gt;Node2</title>
<path fill="none" stroke="midnightblue" d="M79.3725,-295.766C80.4428,-300.497 84.9853,-304 93,-304 106.152,-304 109.954,-294.565 104.406,-285.757"/>
<polygon fill="midnightblue" stroke="midnightblue" points="82.844,-296.278 81.5945,-285.757 76.0104,-294.761 82.844,-296.278"/>
</g>
<!-- Node2&#45;&gt;Node3 -->
<g id="edge3" class="edge"><title>Node2&#45;&gt;Node3</title>
<path fill="none" stroke="midnightblue" d="M121.805,-265.219C136.15,-259.656 153.497,-252.93 167.357,-247.555"/>
<polygon fill="midnightblue" stroke="midnightblue" points="120.491,-261.974 112.433,-268.852 123.022,-268.5 120.491,-261.974"/>
</g>
<!-- Node2&#45;&gt;Node6 -->
<g id="edge6" class="edge"><title>Node2&#45;&gt;Node6</title>
<path fill="none" stroke="midnightblue" d="M100.64,-295.19C108.813,-316.292 124.554,-349.985 148,-371 152.213,-374.776 157.293,-377.887 162.481,-380.42"/>
<polygon fill="midnightblue" stroke="midnightblue" points="103.884,-293.871 97.1453,-285.695 97.3149,-296.288 103.884,-293.871"/>
</g>
<!-- Node2&#45;&gt;Node7 -->
<g id="edge8" class="edge"><title>Node2&#45;&gt;Node7</title>
<path fill="none" stroke="midnightblue" d="M97.1493,-295.683C102.663,-324.153 116.615,-376.918 148,-409 151.724,-412.807 156.336,-415.897 161.159,-418.392"/>
<polygon fill="midnightblue" stroke="midnightblue" points="100.577,-294.967 95.3784,-285.735 93.6852,-296.194 100.577,-294.967"/>
</g>
<!-- Node2&#45;&gt;Node8 -->
<g id="edge10" class="edge"><title>Node2&#45;&gt;Node8</title>
<path fill="none" stroke="midnightblue" d="M107.576,-293.765C117.671,-306.041 132.356,-322.066 148,-333 153.183,-336.623 159.167,-339.769 165.019,-342.403"/>
<polygon fill="midnightblue" stroke="midnightblue" points="110.055,-291.259 101.088,-285.616 104.578,-295.619 110.055,-291.259"/>
</g>
<!-- Node2&#45;&gt;Node9 -->
<g id="edge11" class="edge"><title>Node2&#45;&gt;Node9</title>
<path fill="none" stroke="midnightblue" d="M107.576,-258.235C117.671,-245.959 132.356,-229.934 148,-219 153.183,-215.377 159.167,-212.231 165.019,-209.597"/>
<polygon fill="midnightblue" stroke="midnightblue" points="104.578,-256.381 101.088,-266.384 110.055,-260.741 104.578,-256.381"/>
</g>
<!-- Node2&#45;&gt;Node13 -->
<g id="edge18" class="edge"><title>Node2&#45;&gt;Node13</title>
<path fill="none" stroke="midnightblue" d="M122.505,-276C134.68,-276 148.915,-276 161.32,-276"/>
<polygon fill="midnightblue" stroke="midnightblue" points="122.433,-272.5 112.433,-276 122.433,-279.5 122.433,-272.5"/>
</g>
<!-- Node2&#45;&gt;Node14 -->
<g id="edge19" class="edge"><title>Node2&#45;&gt;Node14</title>
<path fill="none" stroke="midnightblue" d="M100.64,-256.81C108.813,-235.708 124.554,-202.015 148,-181 152.213,-177.224 157.293,-174.113 162.481,-171.58"/>
<polygon fill="midnightblue" stroke="midnightblue" points="97.3149,-255.712 97.1453,-266.305 103.884,-258.129 97.3149,-255.712"/>
</g>
<!-- Node2&#45;&gt;Node16 -->
<g id="edge23" class="edge"><title>Node2&#45;&gt;Node16</title>
<path fill="none" stroke="midnightblue" d="M100.025,-256.593C108.689,-229.997 126.066,-181.172 148,-143 158.339,-125.007 173.77,-106.382 183.343,-95.5098"/>
<polygon fill="midnightblue" stroke="midnightblue" points="96.6541,-255.644 96.9508,-266.235 103.323,-257.771 96.6541,-255.644"/>
</g>
<!-- Node2&#45;&gt;Node20 -->
<g id="edge31" class="edge"><title>Node2&#45;&gt;Node20</title>
<path fill="none" stroke="midnightblue" d="M121.805,-286.781C136.15,-292.344 153.497,-299.07 167.357,-304.445"/>
<polygon fill="midnightblue" stroke="midnightblue" points="123.022,-283.5 112.433,-283.148 120.491,-290.026 123.022,-283.5"/>
</g>
<!-- Node2&#45;&gt;Node21 -->
<g id="edge33" class="edge"><title>Node2&#45;&gt;Node21</title>
<path fill="none" stroke="midnightblue" d="M95.0715,-296.216C97.9611,-331.188 108.632,-403.407 148,-447 151.458,-450.829 155.821,-453.917 160.449,-456.4"/>
<polygon fill="midnightblue" stroke="midnightblue" points="98.5385,-295.615 94.3596,-285.88 91.555,-296.096 98.5385,-295.615"/>
</g>
<!-- Node2&#45;&gt;Node23 -->
<g id="edge36" class="edge"><title>Node2&#45;&gt;Node23</title>
<path fill="none" stroke="midnightblue" d="M93.636,-256.199C93.9482,-215.766 100.207,-122.829 148,-67 151.247,-63.2075 155.388,-60.149 159.827,-57.6888"/>
<polygon fill="midnightblue" stroke="midnightblue" points="90.1366,-256.36 93.6795,-266.345 97.1365,-256.33 90.1366,-256.36"/>
</g>
<!-- Node4 -->
<g id="node4" class="node"><title>Node4</title>
<g id="a_node4"><a xlink:href="iprimitives_8h.html#a32c313b4080f6b2ce22b65bbd1ad9236" target="_top" xlink:title="iobject_add_triplet">
<polygon fill="white" stroke="black" points="287.5,-231.5 287.5,-250.5 382.5,-250.5 382.5,-231.5 287.5,-231.5"/>
<text text-anchor="middle" x="335" y="-238.5" font-family="Helvetica,sans-Serif" font-size="10.00">iobject_add_triplet</text>
</a>
</g>
</g>
<!-- Node3&#45;&gt;Node4 -->
<g id="edge4" class="edge"><title>Node3&#45;&gt;Node4</title>
<path fill="none" stroke="midnightblue" d="M247.728,-239.151C260.701,-239.429 274.464,-239.724 287.096,-239.995"/>
<polygon fill="midnightblue" stroke="midnightblue" points="247.602,-235.648 237.529,-238.933 247.452,-242.646 247.602,-235.648"/>
</g>
<!-- Node5 -->
<g id="node5" class="node"><title>Node5</title>
<g id="a_node5"><a xlink:href="inferno_8c.html#a0ddf1224851353fc92bfbff6f499fa97" target="_top" xlink:title="main">
<polygon fill="white" stroke="black" points="562,-212.5 562,-231.5 600,-231.5 600,-212.5 562,-212.5"/>
<text text-anchor="middle" x="581" y="-219.5" font-family="Helvetica,sans-Serif" font-size="10.00">main</text>
</a>
</g>
</g>
<!-- Node4&#45;&gt;Node5 -->
<g id="edge5" class="edge"><title>Node4&#45;&gt;Node5</title>
<path fill="none" stroke="midnightblue" d="M392.977,-236.563C447.506,-232.317 526.521,-226.164 561.801,-223.417"/>
<polygon fill="midnightblue" stroke="midnightblue" points="392.455,-233.093 382.757,-237.359 392.999,-240.072 392.455,-233.093"/>
</g>
<!-- Node6&#45;&gt;Node4 -->
<g id="edge7" class="edge"><title>Node6&#45;&gt;Node4</title>
<path fill="none" stroke="midnightblue" d="M231.43,-375.553C233.734,-374.147 235.948,-372.63 238,-371 282.82,-335.405 317.169,-273.988 329.274,-250.506"/>
<polygon fill="midnightblue" stroke="midnightblue" points="229.431,-372.652 222.246,-380.438 232.718,-378.832 229.431,-372.652"/>
</g>
<!-- Node7&#45;&gt;Node5 -->
<g id="edge9" class="edge"><title>Node7&#45;&gt;Node5</title>
<path fill="none" stroke="midnightblue" d="M226.801,-414.236C230.601,-412.523 234.401,-410.756 238,-409 366.018,-346.527 514.74,-260.358 563.562,-231.701"/>
<polygon fill="midnightblue" stroke="midnightblue" points="225.218,-411.109 217.475,-418.341 228.038,-417.516 225.218,-411.109"/>
</g>
<!-- Node9&#45;&gt;Node4 -->
<g id="edge17" class="edge"><title>Node9&#45;&gt;Node4</title>
<path fill="none" stroke="midnightblue" d="M236.338,-212.399C257.156,-218.496 281.865,-225.732 301.22,-231.4"/>
<polygon fill="midnightblue" stroke="midnightblue" points="237.051,-208.961 226.471,-209.509 235.084,-215.679 237.051,-208.961"/>
</g>
<!-- Node10 -->
<g id="node10" class="node"><title>Node10</title>
<g id="a_node10"><a xlink:href="icoordinates_8h.html#a4507e51c1f2470e19e8ff5a77adf54bd" target="_top" xlink:title="icreate_region">
<polygon fill="white" stroke="black" points="296.5,-190.5 296.5,-209.5 373.5,-209.5 373.5,-190.5 296.5,-190.5"/>
<text text-anchor="middle" x="335" y="-197.5" font-family="Helvetica,sans-Serif" font-size="10.00">icreate_region</text>
</a>
</g>
</g>
<!-- Node9&#45;&gt;Node10 -->
<g id="edge12" class="edge"><title>Node9&#45;&gt;Node10</title>
<path fill="none" stroke="midnightblue" d="M237.319,-200C256.216,-200 278.163,-200 296.366,-200"/>
<polygon fill="midnightblue" stroke="midnightblue" points="237.178,-196.5 227.178,-200 237.178,-203.5 237.178,-196.5"/>
</g>
<!-- Node11 -->
<g id="node11" class="node"><title>Node11</title>
<g id="a_node11"><a xlink:href="frontend__opengl__linux_8c.html#aeac975aee6becbb83f7fac162d290fe0" target="_top" xlink:title="frontend_initialize\l_viewspace">
<polygon fill="white" stroke="black" points="433,-185 433,-215 525,-215 525,-185 433,-185"/>
<text text-anchor="start" x="441" y="-203" font-family="Helvetica,sans-Serif" font-size="10.00">frontend_initialize</text>
<text text-anchor="middle" x="479" y="-192" font-family="Helvetica,sans-Serif" font-size="10.00">_viewspace</text>
</a>
</g>
</g>
<!-- Node10&#45;&gt;Node11 -->
<g id="edge13" class="edge"><title>Node10&#45;&gt;Node11</title>
<path fill="none" stroke="midnightblue" d="M383.795,-200C399.623,-200 417.181,-200 432.807,-200"/>
<polygon fill="midnightblue" stroke="midnightblue" points="383.681,-196.5 373.681,-200 383.681,-203.5 383.681,-196.5"/>
</g>
<!-- Node12 -->
<g id="node12" class="node"><title>Node12</title>
<g id="a_node12"><a xlink:href="icoordinates_8h.html#a045ac96ebb3a6309f1fc2fd44381c45f" target="_top" xlink:title="inew_point">
<polygon fill="white" stroke="black" points="447.5,-146.5 447.5,-165.5 510.5,-165.5 510.5,-146.5 447.5,-146.5"/>
<text text-anchor="middle" x="479" y="-153.5" font-family="Helvetica,sans-Serif" font-size="10.00">inew_point</text>
</a>
</g>
</g>
<!-- Node10&#45;&gt;Node12 -->
<g id="edge15" class="edge"><title>Node10&#45;&gt;Node12</title>
<path fill="none" stroke="midnightblue" d="M376.433,-187.472C398.94,-180.497 426.514,-171.954 447.248,-165.529"/>
<polygon fill="midnightblue" stroke="midnightblue" points="375.328,-184.15 366.812,-190.453 377.4,-190.836 375.328,-184.15"/>
</g>
<!-- Node11&#45;&gt;Node5 -->
<g id="edge14" class="edge"><title>Node11&#45;&gt;Node5</title>
<path fill="none" stroke="midnightblue" d="M534.854,-212.068C544.654,-214.224 554.203,-216.325 561.976,-218.035"/>
<polygon fill="midnightblue" stroke="midnightblue" points="535.545,-208.636 525.027,-209.906 534.041,-215.473 535.545,-208.636"/>
</g>
<!-- Node12&#45;&gt;Node5 -->
<g id="edge16" class="edge"><title>Node12&#45;&gt;Node5</title>
<path fill="none" stroke="midnightblue" d="M516.651,-169.844C519.882,-171.449 523.045,-173.172 526,-175 543.335,-185.723 560.621,-201.996 570.807,-212.307"/>
<polygon fill="midnightblue" stroke="midnightblue" points="518.027,-166.625 507.478,-165.641 515.111,-172.988 518.027,-166.625"/>
</g>
<!-- Node14&#45;&gt;Node4 -->
<g id="edge21" class="edge"><title>Node14&#45;&gt;Node4</title>
<path fill="none" stroke="midnightblue" d="M230.011,-176.075C232.791,-177.602 235.489,-179.245 238,-181 257.068,-194.328 254.565,-206.213 274,-219 281.786,-224.122 290.922,-228.252 299.684,-231.489"/>
<polygon fill="midnightblue" stroke="midnightblue" points="231.495,-172.905 220.981,-171.597 228.385,-179.176 231.495,-172.905"/>
</g>
<!-- Node14&#45;&gt;Node10 -->
<g id="edge20" class="edge"><title>Node14&#45;&gt;Node10</title>
<path fill="none" stroke="midnightblue" d="M235.618,-173.296C255.772,-178.767 279.704,-185.262 298.918,-190.478"/>
<polygon fill="midnightblue" stroke="midnightblue" points="236.336,-169.865 225.768,-170.623 234.502,-176.62 236.336,-169.865"/>
</g>
<!-- Node15 -->
<g id="node15" class="node"><title>Node15</title>
<g id="a_node15"><a xlink:href="iutils_8h.html#aadd9a7c0a870d973f29968dfb6ed8480" target="_top" xlink:title="iaddunique_linked">
<polygon fill="white" stroke="black" points="432,-92.5 432,-111.5 526,-111.5 526,-92.5 432,-92.5"/>
<text text-anchor="middle" x="479" y="-99.5" font-family="Helvetica,sans-Serif" font-size="10.00">iaddunique_linked</text>
</a>
</g>
</g>
<!-- Node14&#45;&gt;Node15 -->
<g id="edge22" class="edge"><title>Node14&#45;&gt;Node15</title>
<path fill="none" stroke="midnightblue" d="M235.768,-153.176C288.463,-142.043 378.733,-122.972 432.94,-111.52"/>
<polygon fill="midnightblue" stroke="midnightblue" points="234.812,-149.8 225.752,-155.292 236.259,-156.649 234.812,-149.8"/>
</g>
<!-- Node16&#45;&gt;Node10 -->
<g id="edge25" class="edge"><title>Node16&#45;&gt;Node10</title>
<path fill="none" stroke="midnightblue" d="M213.904,-102.208C243.46,-126.275 298.046,-170.723 322.094,-190.305"/>
<polygon fill="midnightblue" stroke="midnightblue" points="215.901,-99.3198 205.936,-95.7196 211.481,-104.748 215.901,-99.3198"/>
</g>
<!-- Node16&#45;&gt;Node12 -->
<g id="edge24" class="edge"><title>Node16&#45;&gt;Node12</title>
<path fill="none" stroke="midnightblue" d="M242.372,-97.9227C301.014,-112.377 398.087,-136.303 447.325,-148.439"/>
<polygon fill="midnightblue" stroke="midnightblue" points="243.144,-94.5083 232.597,-95.5134 241.469,-101.305 243.144,-94.5083"/>
</g>
<!-- Node17 -->
<g id="node17" class="node"><title>Node17</title>
<g id="a_node17"><a xlink:href="iprimitives_8h.html#ad14816b7b9d9bc34ae7098efadf43add" target="_top" xlink:title="iprint_object">
<polygon fill="white" stroke="black" points="444.5,-46.5 444.5,-65.5 513.5,-65.5 513.5,-46.5 444.5,-46.5"/>
<text text-anchor="middle" x="479" y="-53.5" font-family="Helvetica,sans-Serif" font-size="10.00">iprint_object</text>
</a>
</g>
</g>
<!-- Node16&#45;&gt;Node17 -->
<g id="edge26" class="edge"><title>Node16&#45;&gt;Node17</title>
<path fill="none" stroke="midnightblue" d="M238.26,-73.9946C249.814,-71.2726 262.308,-68.6898 274,-67 333.5,-58.4011 403.641,-56.3668 444.247,-55.9737"/>
<polygon fill="midnightblue" stroke="midnightblue" points="237.277,-70.6318 228.392,-76.4034 238.937,-77.4321 237.277,-70.6318"/>
</g>
<!-- Node18 -->
<g id="node18" class="node"><title>Node18</title>
<g id="a_node18"><a xlink:href="iutils_8h.html#af19f54fefe2f16b8a7fba23fc7f67de5" target="_top" xlink:title="igetclosest_point_linked">
<polygon fill="white" stroke="black" points="274.5,-0.5 274.5,-19.5 395.5,-19.5 395.5,-0.5 274.5,-0.5"/>
<text text-anchor="middle" x="335" y="-7.5" font-family="Helvetica,sans-Serif" font-size="10.00">igetclosest_point_linked</text>
</a>
</g>
</g>
<!-- Node16&#45;&gt;Node18 -->
<g id="edge28" class="edge"><title>Node16&#45;&gt;Node18</title>
<path fill="none" stroke="midnightblue" d="M229.377,-71.9914C232.361,-70.4318 235.276,-68.7642 238,-67 256.217,-55.1999 255.624,-45.552 274,-34 283.213,-28.208 294.059,-23.3596 303.977,-19.5713"/>
<polygon fill="midnightblue" stroke="midnightblue" points="227.833,-68.8498 220.334,-76.3342 230.864,-75.1598 227.833,-68.8498"/>
</g>
<!-- Node19 -->
<g id="node19" class="node"><title>Node19</title>
<g id="a_node19"><a xlink:href="iutils_8h.html#a0ebe4fcebc989b963635264358e68403" target="_top" xlink:title="icontains_linked">
<polygon fill="white" stroke="black" points="292,-76.5 292,-95.5 378,-95.5 378,-76.5 292,-76.5"/>
<text text-anchor="middle" x="335" y="-83.5" font-family="Helvetica,sans-Serif" font-size="10.00">icontains_linked</text>
</a>
</g>
</g>
<!-- Node16&#45;&gt;Node19 -->
<g id="edge29" class="edge"><title>Node16&#45;&gt;Node19</title>
<path fill="none" stroke="midnightblue" d="M243.521,-86C259.362,-86 276.738,-86 291.991,-86"/>
<polygon fill="midnightblue" stroke="midnightblue" points="243.37,-82.5001 233.37,-86 243.37,-89.5001 243.37,-82.5001"/>
</g>
<!-- Node17&#45;&gt;Node5 -->
<g id="edge27" class="edge"><title>Node17&#45;&gt;Node5</title>
<path fill="none" stroke="midnightblue" d="M512.012,-70.9542C517.16,-74.3782 522.077,-78.3926 526,-83 560.404,-123.411 574.335,-188.235 578.521,-212.46"/>
<polygon fill="midnightblue" stroke="midnightblue" points="513.648,-67.8547 503.264,-65.7489 510.068,-73.8703 513.648,-67.8547"/>
</g>
<!-- Node19&#45;&gt;Node15 -->
<g id="edge30" class="edge"><title>Node19&#45;&gt;Node15</title>
<path fill="none" stroke="midnightblue" d="M388.4,-91.9042C402.693,-93.5147 418.068,-95.2471 431.977,-96.8143"/>
<polygon fill="midnightblue" stroke="midnightblue" points="388.549,-88.399 378.22,-90.7572 387.765,-95.355 388.549,-88.399"/>
</g>
<!-- Node20&#45;&gt;Node4 -->
<g id="edge32" class="edge"><title>Node20&#45;&gt;Node4</title>
<path fill="none" stroke="midnightblue" d="M226.822,-300.278C230.618,-298.559 234.412,-296.778 238,-295 266.786,-280.738 299.134,-261.939 317.972,-250.7"/>
<polygon fill="midnightblue" stroke="midnightblue" points="225.236,-297.153 217.5,-304.392 228.062,-303.557 225.236,-297.153"/>
</g>
<!-- Node22 -->
<g id="node22" class="node"><title>Node22</title>
<g id="a_node22"><a xlink:href="igraphics_8h.html#a59e056b979c3532457c54692f5af63b4" target="_top" xlink:title="draw_object">
<polygon fill="white" stroke="black" points="444.5,-416.5 444.5,-435.5 513.5,-435.5 513.5,-416.5 444.5,-416.5"/>
<text text-anchor="middle" x="479" y="-423.5" font-family="Helvetica,sans-Serif" font-size="10.00">draw_object</text>
</a>
</g>
</g>
<!-- Node21&#45;&gt;Node22 -->
<g id="edge34" class="edge"><title>Node21&#45;&gt;Node22</title>
<path fill="none" stroke="midnightblue" d="M244.066,-458.948C301.684,-450.833 394.722,-437.729 444.324,-430.743"/>
<polygon fill="midnightblue" stroke="midnightblue" points="243.502,-455.493 234.088,-460.354 244.478,-462.425 243.502,-455.493"/>
</g>
<!-- Node22&#45;&gt;Node5 -->
<g id="edge35" class="edge"><title>Node22&#45;&gt;Node5</title>
<path fill="none" stroke="midnightblue" d="M495.598,-408.555C505.288,-397.07 517.477,-381.366 526,-366 552.42,-318.369 571.024,-255.208 577.491,-231.515"/>
<polygon fill="midnightblue" stroke="midnightblue" points="492.673,-406.588 488.778,-416.441 497.967,-411.167 492.673,-406.588"/>
</g>
</g>
</svg>
