<?xml version="1.0" encoding="UTF-8" standalone="no"?>
<!DOCTYPE svg PUBLIC "-//W3C//DTD SVG 1.1//EN"
 "http://www.w3.org/Graphics/SVG/1.1/DTD/svg11.dtd">
<!-- Generated by graphviz version 2.36.0 (20140111.2315)
 -->
<!-- Title: src/error.h Pages: 1 -->
<svg width="351pt" height="84pt"
 viewBox="0.00 0.00 351.00 84.00" xmlns="http://www.w3.org/2000/svg" xmlns:xlink="http://www.w3.org/1999/xlink">
<g id="graph0" class="graph" transform="scale(1 1) rotate(0) translate(4 80)">
<title>src/error.h</title>
<polygon fill="white" stroke="none" points="-4,4 -4,-80 347,-80 347,4 -4,4"/>
<!-- Node1 -->
<g id="node1" class="node"><title>Node1</title>
<polygon fill="#bfbfbf" stroke="black" points="145.5,-56.5 145.5,-75.5 206.5,-75.5 206.5,-56.5 145.5,-56.5"/>
<text text-anchor="middle" x="176" y="-63.5" font-family="Helvetica,sans-Serif" font-size="10.00">src/error.h</text>
</g>
<!-- Node2 -->
<g id="node2" class="node"><title>Node2</title>
<g id="a_node2"><a xlink:href="error_8c.html" target="_top" xlink:title="src/error.c">
<polygon fill="white" stroke="black" points="-0.5,-0.5 -0.5,-19.5 60.5,-19.5 60.5,-0.5 -0.5,-0.5"/>
<text text-anchor="middle" x="30" y="-7.5" font-family="Helvetica,sans-Serif" font-size="10.00">src/error.c</text>
</a>
</g>
</g>
<!-- Node1&#45;&gt;Node2 -->
<g id="edge1" class="edge"><title>Node1&#45;&gt;Node2</title>
<path fill="none" stroke="midnightblue" d="M143.301,-52.9058C115.852,-42.7536 77.3318,-28.5063 53.0259,-19.5164"/>
<polygon fill="midnightblue" stroke="midnightblue" points="142.273,-56.2572 152.866,-56.4435 144.701,-49.6919 142.273,-56.2572"/>
</g>
<!-- Node3 -->
<g id="node3" class="node"><title>Node3</title>
<g id="a_node3"><a xlink:href="icoordinates_8c.html" target="_top" xlink:title="src/icoordinates.c">
<polygon fill="white" stroke="black" points="79,-0.5 79,-19.5 173,-19.5 173,-0.5 79,-0.5"/>
<text text-anchor="middle" x="126" y="-7.5" font-family="Helvetica,sans-Serif" font-size="10.00">src/icoordinates.c</text>
</a>
</g>
</g>
<!-- Node1&#45;&gt;Node3 -->
<g id="edge2" class="edge"><title>Node1&#45;&gt;Node3</title>
<path fill="none" stroke="midnightblue" d="M160.924,-48.7175C152.111,-39.1997 141.334,-27.5608 134.103,-19.7511"/>
<polygon fill="midnightblue" stroke="midnightblue" points="158.381,-51.1233 167.744,-56.083 163.518,-46.3674 158.381,-51.1233"/>
</g>
<!-- Node4 -->
<g id="node4" class="node"><title>Node4</title>
<g id="a_node4"><a xlink:href="inferno_8c.html" target="_top" xlink:title="src/inferno.c">
<polygon fill="white" stroke="black" points="191.5,-0.5 191.5,-19.5 262.5,-19.5 262.5,-0.5 191.5,-0.5"/>
<text text-anchor="middle" x="227" y="-7.5" font-family="Helvetica,sans-Serif" font-size="10.00">src/inferno.c</text>
</a>
</g>
</g>
<!-- Node1&#45;&gt;Node4 -->
<g id="edge3" class="edge"><title>Node1&#45;&gt;Node4</title>
<path fill="none" stroke="midnightblue" d="M191.378,-48.7175C200.367,-39.1997 211.359,-27.5608 218.735,-19.7511"/>
<polygon fill="midnightblue" stroke="midnightblue" points="188.743,-46.4096 184.422,-56.083 193.832,-51.216 188.743,-46.4096"/>
</g>
<!-- Node5 -->
<g id="node5" class="node"><title>Node5</title>
<g id="a_node5"><a xlink:href="iutils_8c.html" target="_top" xlink:title="src/iutils.c">
<polygon fill="white" stroke="black" points="281,-0.5 281,-19.5 343,-19.5 343,-0.5 281,-0.5"/>
<text text-anchor="middle" x="312" y="-7.5" font-family="Helvetica,sans-Serif" font-size="10.00">src/iutils.c</text>
</a>
</g>
</g>
<!-- Node1&#45;&gt;Node5 -->
<g id="edge4" class="edge"><title>Node1&#45;&gt;Node5</title>
<path fill="none" stroke="midnightblue" d="M207.135,-52.6377C232.657,-42.504 268.109,-28.4274 290.551,-19.5164"/>
<polygon fill="midnightblue" stroke="midnightblue" points="205.552,-49.5002 197.55,-56.4435 208.135,-56.0061 205.552,-49.5002"/>
</g>
</g>
</svg>
