<?xml version="1.0" encoding="UTF-8" standalone="no"?>
<!DOCTYPE svg PUBLIC "-//W3C//DTD SVG 1.1//EN"
 "http://www.w3.org/Graphics/SVG/1.1/DTD/svg11.dtd">
<!-- Generated by graphviz version 2.36.0 (20140111.2315)
 -->
<!-- Title: print_error Pages: 1 -->
<!--zoomable 422 -->
<svg id="main" version="1.1" xmlns="http://www.w3.org/2000/svg" xmlns:xlink="http://www.w3.org/1999/xlink" xml:space="preserve" onload="init(evt)">
<style type="text/css"><![CDATA[
.edge:hover path { stroke: red; }
.edge:hover polygon { stroke: red; fill: red; }
]]></style>
<script type="text/javascript"><![CDATA[
var edges = document.getElementsByTagName('g');
if (edges && edges.length) {
  for (var i=0;i<edges.length;i++) {
    if (edges[i].id.substr(0,4)=='edge') {
      edges[i].setAttribute('class','edge');
    }
  }
}
]]></script>
        <defs>
                <circle id="rim" cx="0" cy="0" r="7"/>
                <circle id="rim2" cx="0" cy="0" r="3.5"/>
                <g id="zoomPlus">
                        <use xlink:href="#rim" fill="#404040">
                                <set attributeName="fill" to="#808080" begin="zoomplus.mouseover" end="zoomplus.mouseout"/>
                        </use>
                        <path d="M-4,0h8M0,-4v8" fill="none" stroke="white" stroke-width="1.5" pointer-events="none"/>
                </g>
                <g id="zoomMin">
                        <use xlink:href="#rim" fill="#404040">
                                <set attributeName="fill" to="#808080" begin="zoomminus.mouseover" end="zoomminus.mouseout"/>
                        </use>
                        <path d="M-4,0h8" fill="none" stroke="white" stroke-width="1.5" pointer-events="none"/>
                </g>
                <g id="dirArrow">
                        <path fill="none" stroke="white" stroke-width="1.5" d="M0,-3.0v7 M-2.5,-0.5L0,-3.0L2.5,-0.5"/>
                </g>
               <g id="resetDef">
                       <use xlink:href="#rim2" fill="#404040">
                               <set attributeName="fill" to="#808080" begin="reset.mouseover" end="reset.mouseout"/>
                       </use>
               </g>
        </defs>

<script type="text/javascript">
var viewWidth = 630;
var viewHeight = 422;
var sectionId = 'dynsection-3';
</script>
<script xlink:href="svgpan.js"/>
<svg id="graph" class="graph">
<g id="viewport">
<title>print_error</title>
<polygon fill="white" stroke="none" points="-4,4 -4,-418.411 626,-418.411 626,4 -4,4"/>
<!-- Node1 -->
<g id="node1" class="node"><title>Node1</title>
<polygon fill="#bfbfbf" stroke="black" points="0,-190.5 0,-209.5 60,-209.5 60,-190.5 0,-190.5"/>
<text text-anchor="middle" x="30" y="-197.5" font-family="Helvetica,sans-Serif" font-size="10.00">print_error</text>
</g>
<!-- Node2 -->
<g id="node2" class="node"><title>Node2</title>
<g id="a_node2"><a xlink:href="error_8h.html#ab10bea042bb9daa7a0e027197b8080e5" target="_top" xlink:title="ierror">
<polygon fill="white" stroke="black" points="96,-190.5 96,-209.5 134,-209.5 134,-190.5 96,-190.5"/>
<text text-anchor="middle" x="115" y="-197.5" font-family="Helvetica,sans-Serif" font-size="10.00">ierror</text>
</a>
</g>
</g>
<!-- Node1&#45;&gt;Node2 -->
<g id="edge1" class="edge"><title>Node1&#45;&gt;Node2</title>
<path fill="none" stroke="midnightblue" d="M70.0962,-200C79.1519,-200 88.3607,-200 95.9902,-200"/>
<polygon fill="midnightblue" stroke="midnightblue" points="70.0294,-196.5 60.0294,-200 70.0293,-203.5 70.0294,-196.5"/>
</g>
<!-- Node2&#45;&gt;Node2 -->
<g id="edge2" class="edge"><title>Node2&#45;&gt;Node2</title>
<path fill="none" stroke="midnightblue" d="M99.5309,-219.766C100.746,-224.497 105.902,-228 115,-228 129.93,-228 134.245,-218.565 127.947,-209.757"/>
<polygon fill="midnightblue" stroke="midnightblue" points="103.003,-220.309 102.053,-209.757 96.2156,-218.599 103.003,-220.309"/>
</g>
<!-- Node3 -->
<g id="node3" class="node"><title>Node3</title>
<g id="a_node3"><a xlink:href="icoordinates_8h.html#a7c978730cf6130f65e3ca306b83d953b" target="_top" xlink:title="inew_linkedpoint">
<polygon fill="white" stroke="black" points="170.5,-266.5 170.5,-285.5 259.5,-285.5 259.5,-266.5 170.5,-266.5"/>
<text text-anchor="middle" x="215" y="-273.5" font-family="Helvetica,sans-Serif" font-size="10.00">inew_linkedpoint</text>
</a>
</g>
</g>
<!-- Node2&#45;&gt;Node3 -->
<g id="edge3" class="edge"><title>Node2&#45;&gt;Node3</title>
<path fill="none" stroke="midnightblue" d="M129.576,-217.765C139.671,-230.041 154.356,-246.066 170,-257 175.183,-260.623 181.167,-263.769 187.019,-266.403"/>
<polygon fill="midnightblue" stroke="midnightblue" points="132.055,-215.259 123.088,-209.616 126.578,-219.619 132.055,-215.259"/>
</g>
<!-- Node6 -->
<g id="node6" class="node"><title>Node6</title>
<g id="a_node6"><a xlink:href="icoordinates_8h.html#a1576e4429e977b28e65001af937bcf3e" target="_top" xlink:title="iadd_linkedpoint">
<polygon fill="white" stroke="black" points="172,-228.5 172,-247.5 258,-247.5 258,-228.5 172,-228.5"/>
<text text-anchor="middle" x="215" y="-235.5" font-family="Helvetica,sans-Serif" font-size="10.00">iadd_linkedpoint</text>
</a>
</g>
</g>
<!-- Node2&#45;&gt;Node6 -->
<g id="edge6" class="edge"><title>Node2&#45;&gt;Node6</title>
<path fill="none" stroke="midnightblue" d="M143.805,-210.781C158.15,-216.344 175.497,-223.07 189.357,-228.445"/>
<polygon fill="midnightblue" stroke="midnightblue" points="145.022,-207.5 134.433,-207.148 142.491,-214.026 145.022,-207.5"/>
</g>
<!-- Node7 -->
<g id="node7" class="node"><title>Node7</title>
<g id="a_node7"><a xlink:href="inferno_8c.html#ac367369074184100d42ced4c3f1025ca" target="_top" xlink:title="random_function">
<polygon fill="white" stroke="black" points="456.5,-374.5 456.5,-393.5 545.5,-393.5 545.5,-374.5 456.5,-374.5"/>
<text text-anchor="middle" x="501" y="-381.5" font-family="Helvetica,sans-Serif" font-size="10.00">random_function</text>
</a>
</g>
</g>
<!-- Node2&#45;&gt;Node7 -->
<g id="edge8" class="edge"><title>Node2&#45;&gt;Node7</title>
<path fill="none" stroke="midnightblue" d="M115.534,-220.322C115.92,-257.245 122.666,-334.856 170,-371 259.089,-439.028 404.563,-410.735 468.346,-393.563"/>
<polygon fill="midnightblue" stroke="midnightblue" points="119.036,-219.886 115.588,-209.868 112.036,-219.85 119.036,-219.886"/>
</g>
<!-- Node8 -->
<g id="node8" class="node"><title>Node8</title>
<g id="a_node8"><a xlink:href="iutils_8c.html#ad0ad5e5cbedd00755591bbb6a2862d97" target="_top" xlink:title="infastsort">
<polygon fill="white" stroke="black" points="186.5,-76.5 186.5,-95.5 243.5,-95.5 243.5,-76.5 186.5,-76.5"/>
<text text-anchor="middle" x="215" y="-83.5" font-family="Helvetica,sans-Serif" font-size="10.00">infastsort</text>
</a>
</g>
</g>
<!-- Node2&#45;&gt;Node8 -->
<g id="edge10" class="edge"><title>Node2&#45;&gt;Node8</title>
<path fill="none" stroke="midnightblue" d="M122.64,-180.81C130.813,-159.708 146.554,-126.015 170,-105 174.709,-100.779 180.5,-97.39 186.315,-94.7106"/>
<polygon fill="midnightblue" stroke="midnightblue" points="119.315,-179.712 119.145,-190.305 125.884,-182.129 119.315,-179.712"/>
</g>
<!-- Node9 -->
<g id="node9" class="node"><title>Node9</title>
<g id="a_node9"><a xlink:href="iutils_8h.html#a361efdc52b42b541f7f0db7288b1b4f5" target="_top" xlink:title="inew_linked">
<polygon fill="white" stroke="black" points="181,-190.5 181,-209.5 249,-209.5 249,-190.5 181,-190.5"/>
<text text-anchor="middle" x="215" y="-197.5" font-family="Helvetica,sans-Serif" font-size="10.00">inew_linked</text>
</a>
</g>
</g>
<!-- Node2&#45;&gt;Node9 -->
<g id="edge11" class="edge"><title>Node2&#45;&gt;Node9</title>
<path fill="none" stroke="midnightblue" d="M144.689,-200C156.061,-200 169.206,-200 180.971,-200"/>
<polygon fill="midnightblue" stroke="midnightblue" points="144.433,-196.5 134.433,-200 144.433,-203.5 144.433,-196.5"/>
</g>
<!-- Node13 -->
<g id="node13" class="node"><title>Node13</title>
<g id="a_node13"><a xlink:href="iutils_8h.html#a87ccc53b520060810c7be2e2243e6397" target="_top" xlink:title="iset_linked">
<polygon fill="white" stroke="black" points="183.5,-38.5 183.5,-57.5 246.5,-57.5 246.5,-38.5 183.5,-38.5"/>
<text text-anchor="middle" x="215" y="-45.5" font-family="Helvetica,sans-Serif" font-size="10.00">iset_linked</text>
</a>
</g>
</g>
<!-- Node2&#45;&gt;Node13 -->
<g id="edge18" class="edge"><title>Node2&#45;&gt;Node13</title>
<path fill="none" stroke="midnightblue" d="M119.149,-180.317C124.663,-151.847 138.615,-99.082 170,-67 173.724,-63.1934 178.336,-60.1026 183.159,-57.6076"/>
<polygon fill="midnightblue" stroke="midnightblue" points="115.685,-179.806 117.378,-190.265 122.577,-181.033 115.685,-179.806"/>
</g>
<!-- Node14 -->
<g id="node14" class="node"><title>Node14</title>
<g id="a_node14"><a xlink:href="iutils_8h.html#a67413257923db7c88d91a7e706024e98" target="_top" xlink:title="iadd_linked">
<polygon fill="white" stroke="black" points="182.5,-152.5 182.5,-171.5 247.5,-171.5 247.5,-152.5 182.5,-152.5"/>
<text text-anchor="middle" x="215" y="-159.5" font-family="Helvetica,sans-Serif" font-size="10.00">iadd_linked</text>
</a>
</g>
</g>
<!-- Node2&#45;&gt;Node14 -->
<g id="edge19" class="edge"><title>Node2&#45;&gt;Node14</title>
<path fill="none" stroke="midnightblue" d="M143.805,-189.219C158.15,-183.656 175.497,-176.93 189.357,-171.555"/>
<polygon fill="midnightblue" stroke="midnightblue" points="142.491,-185.974 134.433,-192.852 145.022,-192.5 142.491,-185.974"/>
</g>
<!-- Node16 -->
<g id="node16" class="node"><title>Node16</title>
<g id="a_node16"><a xlink:href="iutils_8h.html#acf8aca63685fbd6b4c995516baedab14" target="_top" xlink:title="igetfirst_linked">
<polygon fill="white" stroke="black" points="175,-114.5 175,-133.5 255,-133.5 255,-114.5 175,-114.5"/>
<text text-anchor="middle" x="215" y="-121.5" font-family="Helvetica,sans-Serif" font-size="10.00">igetfirst_linked</text>
</a>
</g>
</g>
<!-- Node2&#45;&gt;Node16 -->
<g id="edge23" class="edge"><title>Node2&#45;&gt;Node16</title>
<path fill="none" stroke="midnightblue" d="M129.576,-182.235C139.671,-169.959 154.356,-153.934 170,-143 175.183,-139.377 181.167,-136.231 187.019,-133.597"/>
<polygon fill="midnightblue" stroke="midnightblue" points="126.578,-180.381 123.088,-190.384 132.055,-184.741 126.578,-180.381"/>
</g>
<!-- Node20 -->
<g id="node20" class="node"><title>Node20</title>
<g id="a_node20"><a xlink:href="iutils_8h.html#af8939cbd050e1b0099ca01f4ff127e9c" target="_top" xlink:title="igetlast_linked">
<polygon fill="white" stroke="black" points="175.5,-304.5 175.5,-323.5 254.5,-323.5 254.5,-304.5 175.5,-304.5"/>
<text text-anchor="middle" x="215" y="-311.5" font-family="Helvetica,sans-Serif" font-size="10.00">igetlast_linked</text>
</a>
</g>
</g>
<!-- Node2&#45;&gt;Node20 -->
<g id="edge31" class="edge"><title>Node2&#45;&gt;Node20</title>
<path fill="none" stroke="midnightblue" d="M122.64,-219.19C130.813,-240.292 146.554,-273.985 170,-295 174.213,-298.776 179.293,-301.887 184.481,-304.42"/>
<polygon fill="midnightblue" stroke="midnightblue" points="125.884,-217.871 119.145,-209.695 119.315,-220.288 125.884,-217.871"/>
</g>
<!-- Node21 -->
<g id="node21" class="node"><title>Node21</title>
<g id="a_node21"><a xlink:href="iutils_8h.html#a78c507c5fd82c0c4f5255213b3690b57" target="_top" xlink:title="igetnext_linked">
<polygon fill="white" stroke="black" points="174,-342.5 174,-361.5 256,-361.5 256,-342.5 174,-342.5"/>
<text text-anchor="middle" x="215" y="-349.5" font-family="Helvetica,sans-Serif" font-size="10.00">igetnext_linked</text>
</a>
</g>
</g>
<!-- Node2&#45;&gt;Node21 -->
<g id="edge33" class="edge"><title>Node2&#45;&gt;Node21</title>
<path fill="none" stroke="midnightblue" d="M119.149,-219.683C124.663,-248.153 138.615,-300.918 170,-333 173.724,-336.807 178.336,-339.897 183.159,-342.392"/>
<polygon fill="midnightblue" stroke="midnightblue" points="122.577,-218.967 117.378,-209.735 115.685,-220.194 122.577,-218.967"/>
</g>
<!-- Node23 -->
<g id="node23" class="node"><title>Node23</title>
<g id="a_node23"><a xlink:href="iutils_8h.html#ab23b2e52f032125daf0977aba08bc1e6" target="_top" xlink:title="iremove_linked">
<polygon fill="white" stroke="black" points="174,-0.5 174,-19.5 256,-19.5 256,-0.5 174,-0.5"/>
<text text-anchor="middle" x="215" y="-7.5" font-family="Helvetica,sans-Serif" font-size="10.00">iremove_linked</text>
</a>
</g>
</g>
<!-- Node2&#45;&gt;Node23 -->
<g id="edge36" class="edge"><title>Node2&#45;&gt;Node23</title>
<path fill="none" stroke="midnightblue" d="M117.071,-179.784C119.961,-144.812 130.632,-72.5928 170,-29 173.458,-25.1714 177.821,-22.0828 182.449,-19.6004"/>
<polygon fill="midnightblue" stroke="midnightblue" points="113.555,-179.904 116.36,-190.12 120.538,-180.385 113.555,-179.904"/>
</g>
<!-- Node4 -->
<g id="node4" class="node"><title>Node4</title>
<g id="a_node4"><a xlink:href="iprimitives_8h.html#a32c313b4080f6b2ce22b65bbd1ad9236" target="_top" xlink:title="iobject_add_triplet">
<polygon fill="white" stroke="black" points="309.5,-266.5 309.5,-285.5 404.5,-285.5 404.5,-266.5 309.5,-266.5"/>
<text text-anchor="middle" x="357" y="-273.5" font-family="Helvetica,sans-Serif" font-size="10.00">iobject_add_triplet</text>
</a>
</g>
</g>
<!-- Node3&#45;&gt;Node4 -->
<g id="edge4" class="edge"><title>Node3&#45;&gt;Node4</title>
<path fill="none" stroke="midnightblue" d="M269.728,-276C282.701,-276 296.464,-276 309.096,-276"/>
<polygon fill="midnightblue" stroke="midnightblue" points="269.529,-272.5 259.529,-276 269.529,-279.5 269.529,-272.5"/>
</g>
<!-- Node5 -->
<g id="node5" class="node"><title>Node5</title>
<g id="a_node5"><a xlink:href="inferno_8c.html#a0ddf1224851353fc92bfbff6f499fa97" target="_top" xlink:title="main">
<polygon fill="white" stroke="black" points="584,-256.5 584,-275.5 622,-275.5 622,-256.5 584,-256.5"/>
<text text-anchor="middle" x="603" y="-263.5" font-family="Helvetica,sans-Serif" font-size="10.00">main</text>
</a>
</g>
</g>
<!-- Node4&#45;&gt;Node5 -->
<g id="edge5" class="edge"><title>Node4&#45;&gt;Node5</title>
<path fill="none" stroke="midnightblue" d="M414.977,-273.665C469.506,-271.43 548.521,-268.192 583.801,-266.746"/>
<polygon fill="midnightblue" stroke="midnightblue" points="414.605,-270.177 404.757,-274.084 414.892,-277.171 414.605,-270.177"/>
</g>
<!-- Node6&#45;&gt;Node4 -->
<g id="edge7" class="edge"><title>Node6&#45;&gt;Node4</title>
<path fill="none" stroke="midnightblue" d="M261.118,-250.246C280.415,-255.484 302.612,-261.509 320.683,-266.414"/>
<polygon fill="midnightblue" stroke="midnightblue" points="261.896,-246.831 251.328,-247.589 260.062,-253.586 261.896,-246.831"/>
</g>
<!-- Node7&#45;&gt;Node5 -->
<g id="edge9" class="edge"><title>Node7&#45;&gt;Node5</title>
<path fill="none" stroke="midnightblue" d="M524.407,-368.197C532.322,-362.06 540.991,-354.665 548,-347 569.213,-323.801 588.107,-291.553 596.854,-275.653"/>
<polygon fill="midnightblue" stroke="midnightblue" points="522.138,-365.524 516.227,-374.317 526.331,-371.129 522.138,-365.524"/>
</g>
<!-- Node9&#45;&gt;Node4 -->
<g id="edge17" class="edge"><title>Node9&#45;&gt;Node4</title>
<path fill="none" stroke="midnightblue" d="M252.011,-214.075C254.791,-215.602 257.489,-217.245 260,-219 279.068,-232.328 276.283,-244.651 296,-257 302.112,-260.828 309.06,-263.945 316.008,-266.463"/>
<polygon fill="midnightblue" stroke="midnightblue" points="253.495,-210.905 242.981,-209.597 250.385,-217.176 253.495,-210.905"/>
</g>
<!-- Node10 -->
<g id="node10" class="node"><title>Node10</title>
<g id="a_node10"><a xlink:href="icoordinates_8h.html#a4507e51c1f2470e19e8ff5a77adf54bd" target="_top" xlink:title="icreate_region">
<polygon fill="white" stroke="black" points="318.5,-228.5 318.5,-247.5 395.5,-247.5 395.5,-228.5 318.5,-228.5"/>
<text text-anchor="middle" x="357" y="-235.5" font-family="Helvetica,sans-Serif" font-size="10.00">icreate_region</text>
</a>
</g>
</g>
<!-- Node9&#45;&gt;Node10 -->
<g id="edge12" class="edge"><title>Node9&#45;&gt;Node10</title>
<path fill="none" stroke="midnightblue" d="M258.872,-211.637C278.652,-217.005 301.849,-223.302 320.613,-228.395"/>
<polygon fill="midnightblue" stroke="midnightblue" points="259.746,-208.247 249.178,-209.005 257.912,-215.003 259.746,-208.247"/>
</g>
<!-- Node11 -->
<g id="node11" class="node"><title>Node11</title>
<g id="a_node11"><a xlink:href="frontend__opengl__linux_8c.html#aeac975aee6becbb83f7fac162d290fe0" target="_top" xlink:title="frontend_initialize\l_viewspace">
<polygon fill="white" stroke="black" points="455,-229 455,-259 547,-259 547,-229 455,-229"/>
<text text-anchor="start" x="463" y="-247" font-family="Helvetica,sans-Serif" font-size="10.00">frontend_initialize</text>
<text text-anchor="middle" x="501" y="-236" font-family="Helvetica,sans-Serif" font-size="10.00">_viewspace</text>
</a>
</g>
</g>
<!-- Node10&#45;&gt;Node11 -->
<g id="edge13" class="edge"><title>Node10&#45;&gt;Node11</title>
<path fill="none" stroke="midnightblue" d="M405.795,-240.02C421.623,-240.688 439.181,-241.43 454.807,-242.09"/>
<polygon fill="midnightblue" stroke="midnightblue" points="405.819,-236.518 395.681,-239.592 405.524,-243.511 405.819,-236.518"/>
</g>
<!-- Node12 -->
<g id="node12" class="node"><title>Node12</title>
<g id="a_node12"><a xlink:href="icoordinates_8h.html#a045ac96ebb3a6309f1fc2fd44381c45f" target="_top" xlink:title="inew_point">
<polygon fill="white" stroke="black" points="469.5,-190.5 469.5,-209.5 532.5,-209.5 532.5,-190.5 469.5,-190.5"/>
<text text-anchor="middle" x="501" y="-197.5" font-family="Helvetica,sans-Serif" font-size="10.00">inew_point</text>
</a>
</g>
</g>
<!-- Node10&#45;&gt;Node12 -->
<g id="edge15" class="edge"><title>Node10&#45;&gt;Node12</title>
<path fill="none" stroke="midnightblue" d="M403.746,-225.758C425.252,-220.003 450.314,-213.296 469.472,-208.169"/>
<polygon fill="midnightblue" stroke="midnightblue" points="402.588,-222.445 393.833,-228.411 404.397,-229.207 402.588,-222.445"/>
</g>
<!-- Node11&#45;&gt;Node5 -->
<g id="edge14" class="edge"><title>Node11&#45;&gt;Node5</title>
<path fill="none" stroke="midnightblue" d="M556.854,-256.068C566.654,-258.224 576.203,-260.325 583.976,-262.035"/>
<polygon fill="midnightblue" stroke="midnightblue" points="557.545,-252.636 547.027,-253.906 556.041,-259.473 557.545,-252.636"/>
</g>
<!-- Node12&#45;&gt;Node5 -->
<g id="edge16" class="edge"><title>Node12&#45;&gt;Node5</title>
<path fill="none" stroke="midnightblue" d="M536.64,-213.727C540.56,-215.669 544.426,-217.77 548,-220 564.926,-230.561 582.055,-246.177 592.351,-256.22"/>
<polygon fill="midnightblue" stroke="midnightblue" points="538.054,-210.524 527.508,-209.501 535.114,-216.877 538.054,-210.524"/>
</g>
<!-- Node14&#45;&gt;Node4 -->
<g id="edge21" class="edge"><title>Node14&#45;&gt;Node4</title>
<path fill="none" stroke="midnightblue" d="M254.795,-176.692C256.644,-178.016 258.395,-179.45 260,-181 286.884,-206.966 267.84,-232.424 296,-257 300.445,-260.88 305.685,-263.968 311.186,-266.426"/>
<polygon fill="midnightblue" stroke="midnightblue" points="256.586,-173.685 246.207,-171.558 252.994,-179.693 256.586,-173.685"/>
</g>
<!-- Node14&#45;&gt;Node10 -->
<g id="edge20" class="edge"><title>Node14&#45;&gt;Node10</title>
<path fill="none" stroke="midnightblue" d="M251.377,-176.009C254.361,-177.568 257.276,-179.236 260,-181 278.217,-192.8 277.624,-202.448 296,-214 305.213,-219.792 316.059,-224.64 325.977,-228.429"/>
<polygon fill="midnightblue" stroke="midnightblue" points="252.864,-172.84 242.334,-171.666 249.833,-179.15 252.864,-172.84"/>
</g>
<!-- Node15 -->
<g id="node15" class="node"><title>Node15</title>
<g id="a_node15"><a xlink:href="iutils_8h.html#aadd9a7c0a870d973f29968dfb6ed8480" target="_top" xlink:title="iaddunique_linked">
<polygon fill="white" stroke="black" points="454,-133.5 454,-152.5 548,-152.5 548,-133.5 454,-133.5"/>
<text text-anchor="middle" x="501" y="-140.5" font-family="Helvetica,sans-Serif" font-size="10.00">iaddunique_linked</text>
</a>
</g>
</g>
<!-- Node14&#45;&gt;Node15 -->
<g id="edge22" class="edge"><title>Node14&#45;&gt;Node15</title>
<path fill="none" stroke="midnightblue" d="M258.035,-159.188C310.446,-155.681 399.723,-149.709 453.942,-146.081"/>
<polygon fill="midnightblue" stroke="midnightblue" points="257.496,-155.716 247.752,-159.876 257.963,-162.7 257.496,-155.716"/>
</g>
<!-- Node16&#45;&gt;Node10 -->
<g id="edge25" class="edge"><title>Node16&#45;&gt;Node10</title>
<path fill="none" stroke="midnightblue" d="M254.745,-138.744C256.607,-140.055 258.375,-141.472 260,-143 285.776,-167.235 269.897,-190.117 296,-214 302.787,-220.21 311.383,-224.904 319.931,-228.417"/>
<polygon fill="midnightblue" stroke="midnightblue" points="256.512,-135.723 246.123,-133.646 252.949,-141.748 256.512,-135.723"/>
</g>
<!-- Node16&#45;&gt;Node12 -->
<g id="edge24" class="edge"><title>Node16&#45;&gt;Node12</title>
<path fill="none" stroke="midnightblue" d="M261.371,-136.142C319.697,-151.75 419.402,-178.431 469.448,-191.824"/>
<polygon fill="midnightblue" stroke="midnightblue" points="262.246,-132.753 251.681,-133.548 260.437,-139.515 262.246,-132.753"/>
</g>
<!-- Node17 -->
<g id="node17" class="node"><title>Node17</title>
<g id="a_node17"><a xlink:href="iprimitives_8h.html#ad14816b7b9d9bc34ae7098efadf43add" target="_top" xlink:title="iprint_object">
<polygon fill="white" stroke="black" points="466.5,-57.5 466.5,-76.5 535.5,-76.5 535.5,-57.5 466.5,-57.5"/>
<text text-anchor="middle" x="501" y="-64.5" font-family="Helvetica,sans-Serif" font-size="10.00">iprint_object</text>
</a>
</g>
</g>
<!-- Node16&#45;&gt;Node17 -->
<g id="edge26" class="edge"><title>Node16&#45;&gt;Node17</title>
<path fill="none" stroke="midnightblue" d="M252.011,-109.925C254.791,-108.398 257.489,-106.755 260,-105 279.068,-91.6721 274.629,-76.1925 296,-67 351.797,-43 424.389,-51.1562 466.232,-59.1555"/>
<polygon fill="midnightblue" stroke="midnightblue" points="250.385,-106.824 242.981,-114.403 253.495,-113.095 250.385,-106.824"/>
</g>
<!-- Node18 -->
<g id="node18" class="node"><title>Node18</title>
<g id="a_node18"><a xlink:href="iutils_8h.html#af19f54fefe2f16b8a7fba23fc7f67de5" target="_top" xlink:title="igetclosest_point_linked">
<polygon fill="white" stroke="black" points="296.5,-114.5 296.5,-133.5 417.5,-133.5 417.5,-114.5 296.5,-114.5"/>
<text text-anchor="middle" x="357" y="-121.5" font-family="Helvetica,sans-Serif" font-size="10.00">igetclosest_point_linked</text>
</a>
</g>
</g>
<!-- Node16&#45;&gt;Node18 -->
<g id="edge28" class="edge"><title>Node16&#45;&gt;Node18</title>
<path fill="none" stroke="midnightblue" d="M265.487,-124C275.442,-124 286.005,-124 296.267,-124"/>
<polygon fill="midnightblue" stroke="midnightblue" points="265.37,-120.5 255.37,-124 265.37,-127.5 265.37,-120.5"/>
</g>
<!-- Node19 -->
<g id="node19" class="node"><title>Node19</title>
<g id="a_node19"><a xlink:href="iutils_8h.html#a0ebe4fcebc989b963635264358e68403" target="_top" xlink:title="icontains_linked">
<polygon fill="white" stroke="black" points="314,-76.5 314,-95.5 400,-95.5 400,-76.5 314,-76.5"/>
<text text-anchor="middle" x="357" y="-83.5" font-family="Helvetica,sans-Serif" font-size="10.00">icontains_linked</text>
</a>
</g>
</g>
<!-- Node16&#45;&gt;Node19 -->
<g id="edge29" class="edge"><title>Node16&#45;&gt;Node19</title>
<path fill="none" stroke="midnightblue" d="M261.118,-111.754C280.415,-106.516 302.612,-100.491 320.683,-95.5859"/>
<polygon fill="midnightblue" stroke="midnightblue" points="260.062,-108.414 251.328,-114.411 261.896,-115.169 260.062,-108.414"/>
</g>
<!-- Node17&#45;&gt;Node5 -->
<g id="edge27" class="edge"><title>Node17&#45;&gt;Node5</title>
<path fill="none" stroke="midnightblue" d="M518.328,-84.2426C527.911,-95.0358 539.725,-109.588 548,-124 574.659,-170.433 592.994,-232.515 599.443,-256.232"/>
<polygon fill="midnightblue" stroke="midnightblue" points="520.853,-81.8179 511.529,-76.7862 515.68,-86.5341 520.853,-81.8179"/>
</g>
<!-- Node19&#45;&gt;Node15 -->
<g id="edge30" class="edge"><title>Node19&#45;&gt;Node15</title>
<path fill="none" stroke="midnightblue" d="M400.491,-98.7134C406.413,-100.7 412.388,-102.821 418,-105 440.087,-113.575 464.647,-125.255 481.079,-133.393"/>
<polygon fill="midnightblue" stroke="midnightblue" points="401.239,-95.2764 390.647,-95.509 399.072,-101.933 401.239,-95.2764"/>
</g>
<!-- Node20&#45;&gt;Node4 -->
<g id="edge32" class="edge"><title>Node20&#45;&gt;Node4</title>
<path fill="none" stroke="midnightblue" d="M261.118,-301.754C280.415,-296.516 302.612,-290.491 320.683,-285.586"/>
<polygon fill="midnightblue" stroke="midnightblue" points="260.062,-298.414 251.328,-304.411 261.896,-305.169 260.062,-298.414"/>
</g>
<!-- Node22 -->
<g id="node22" class="node"><title>Node22</title>
<g id="a_node22"><a xlink:href="igraphics_8h.html#a59e056b979c3532457c54692f5af63b4" target="_top" xlink:title="draw_object">
<polygon fill="white" stroke="black" points="322.5,-342.5 322.5,-361.5 391.5,-361.5 391.5,-342.5 322.5,-342.5"/>
<text text-anchor="middle" x="357" y="-349.5" font-family="Helvetica,sans-Serif" font-size="10.00">draw_object</text>
</a>
</g>
</g>
<!-- Node21&#45;&gt;Node22 -->
<g id="edge34" class="edge"><title>Node21&#45;&gt;Node22</title>
<path fill="none" stroke="midnightblue" d="M266.252,-352C284.939,-352 305.671,-352 322.497,-352"/>
<polygon fill="midnightblue" stroke="midnightblue" points="266.118,-348.5 256.118,-352 266.118,-355.5 266.118,-348.5"/>
</g>
<!-- Node22&#45;&gt;Node5 -->
<g id="edge35" class="edge"><title>Node22&#45;&gt;Node5</title>
<path fill="none" stroke="midnightblue" d="M394.739,-339.051C447.787,-320.354 543.848,-286.496 583.804,-272.413"/>
<polygon fill="midnightblue" stroke="midnightblue" points="393.312,-335.843 385.045,-342.468 395.639,-342.445 393.312,-335.843"/>
</g>
</g>
</svg>
        <g id="navigator" transform="translate(0 0)" fill="#404254">
                <rect fill="#f2f5e9" fill-opacity="0.5" stroke="#606060" stroke-width=".5" x="0" y="0" width="60" height="60"/>
                <use id="zoomplus" xlink:href="#zoomPlus" x="17" y="9" onmousedown="handleZoom(evt,'in')"/>
                <use id="zoomminus" xlink:href="#zoomMin" x="42" y="9" onmousedown="handleZoom(evt,'out')"/>
                <use id="reset" xlink:href="#resetDef" x="30" y="36" onmousedown="handleReset()"/>
                <g id="arrowUp" xlink:href="#dirArrow" transform="translate(30 24)" onmousedown="handlePan(0,-1)">
                  <use xlink:href="#rim" fill="#404040">
                        <set attributeName="fill" to="#808080" begin="arrowUp.mouseover" end="arrowUp.mouseout"/>
                  </use>
                  <path fill="none" stroke="white" stroke-width="1.5" d="M0,-3.0v7 M-2.5,-0.5L0,-3.0L2.5,-0.5"/>
                </g>
                <g id="arrowRight" xlink:href="#dirArrow" transform="rotate(90) translate(36 -43)" onmousedown="handlePan(1,0)">
                  <use xlink:href="#rim" fill="#404040">
                        <set attributeName="fill" to="#808080" begin="arrowRight.mouseover" end="arrowRight.mouseout"/>
                  </use>
                  <path fill="none" stroke="white" stroke-width="1.5" d="M0,-3.0v7 M-2.5,-0.5L0,-3.0L2.5,-0.5"/>
                </g>
                <g id="arrowDown" xlink:href="#dirArrow" transform="rotate(180) translate(-30 -48)" onmousedown="handlePan(0,1)">
                  <use xlink:href="#rim" fill="#404040">
                        <set attributeName="fill" to="#808080" begin="arrowDown.mouseover" end="arrowDown.mouseout"/>
                  </use>
                  <path fill="none" stroke="white" stroke-width="1.5" d="M0,-3.0v7 M-2.5,-0.5L0,-3.0L2.5,-0.5"/>
                </g>
                <g id="arrowLeft" xlink:href="#dirArrow" transform="rotate(270) translate(-36 17)" onmousedown="handlePan(-1,0)">
                  <use xlink:href="#rim" fill="#404040">
                        <set attributeName="fill" to="#808080" begin="arrowLeft.mouseover" end="arrowLeft.mouseout"/>
                  </use>
                  <path fill="none" stroke="white" stroke-width="1.5" d="M0,-3.0v7 M-2.5,-0.5L0,-3.0L2.5,-0.5"/>
                </g>
        </g>
        <svg viewBox="0 0 15 15" width="100%" height="30px" preserveAspectRatio="xMaxYMin meet">
         <g id="arrow_out" transform="scale(0.3 0.3)">
          <a xlink:href="error_8c_ac1727d6e8e99b92957a0a7099d19d6f4_icgraph_org.svg" target="_base">
           <rect id="button" ry="5" rx="5" y="6" x="6" height="38" width="38"
                fill="#f2f5e9" fill-opacity="0.5" stroke="#606060" stroke-width="1.0"/>
           <path id="arrow"
             d="M 11.500037,31.436501 C 11.940474,20.09759 22.043105,11.32322 32.158766,21.979434 L 37.068811,17.246167 C 37.068811,17.246167 37.088388,32 37.088388,32 L 22.160133,31.978069 C 22.160133,31.978069 26.997745,27.140456 26.997745,27.140456 C 18.528582,18.264221 13.291696,25.230495 11.500037,31.436501 z"
             style="fill:#404040;"/>
          </a>
         </g>
        </svg>
</svg>
