<?xml version="1.0" encoding="UTF-8" standalone="no"?>
<!DOCTYPE svg PUBLIC "-//W3C//DTD SVG 1.1//EN"
 "http://www.w3.org/Graphics/SVG/1.1/DTD/svg11.dtd">
<!-- Generated by graphviz version 2.36.0 (20140111.2315)
 -->
<!-- Title: ierror Pages: 1 -->
<svg width="142pt" height="46pt"
 viewBox="0.00 0.00 142.00 46.00" xmlns="http://www.w3.org/2000/svg" xmlns:xlink="http://www.w3.org/1999/xlink">
<g id="graph0" class="graph" transform="scale(1 1) rotate(0) translate(4 42)">
<title>ierror</title>
<polygon fill="white" stroke="none" points="-4,4 -4,-42 138,-42 138,4 -4,4"/>
<!-- Node1 -->
<g id="node1" class="node"><title>Node1</title>
<polygon fill="#bfbfbf" stroke="black" points="0,-0.5 0,-19.5 38,-19.5 38,-0.5 0,-0.5"/>
<text text-anchor="middle" x="19" y="-7.5" font-family="Helvetica,sans-Serif" font-size="10.00">ierror</text>
</g>
<!-- Node1&#45;&gt;Node1 -->
<g id="edge2" class="edge"><title>Node1&#45;&gt;Node1</title>
<path fill="none" stroke="midnightblue" d="M6.05316,-19.7571C-0.2453,-28.5653 4.07031,-38 19,-38 28.0978,-38 33.2541,-34.4965 34.4691,-29.7663"/>
<polygon fill="midnightblue" stroke="midnightblue" points="37.7844,-28.5986 31.9468,-19.7571 30.9966,-30.3092 37.7844,-28.5986"/>
</g>
<!-- Node2 -->
<g id="node2" class="node"><title>Node2</title>
<g id="a_node2"><a xlink:href="error_8c.html#ac1727d6e8e99b92957a0a7099d19d6f4" target="_top" xlink:title="print_error">
<polygon fill="white" stroke="black" points="74,-0.5 74,-19.5 134,-19.5 134,-0.5 74,-0.5"/>
<text text-anchor="middle" x="104" y="-7.5" font-family="Helvetica,sans-Serif" font-size="10.00">print_error</text>
</a>
</g>
</g>
<!-- Node1&#45;&gt;Node2 -->
<g id="edge1" class="edge"><title>Node1&#45;&gt;Node2</title>
<path fill="none" stroke="midnightblue" d="M38.0098,-10C45.6307,-10 54.8276,-10 63.8735,-10"/>
<polygon fill="midnightblue" stroke="midnightblue" points="63.9306,-13.5001 73.9306,-10 63.9305,-6.5001 63.9306,-13.5001"/>
</g>
</g>
</svg>
