<?xml version="1.0" encoding="UTF-8" standalone="no"?>
<!DOCTYPE svg PUBLIC "-//W3C//DTD SVG 1.1//EN"
 "http://www.w3.org/Graphics/SVG/1.1/DTD/svg11.dtd">
<!-- Generated by graphviz version 2.36.0 (20140111.2315)
 -->
<!-- Title: frontend_free Pages: 1 -->
<svg width="156pt" height="66pt"
 viewBox="0.00 0.00 156.00 66.00" xmlns="http://www.w3.org/2000/svg" xmlns:xlink="http://www.w3.org/1999/xlink">
<g id="graph0" class="graph" transform="scale(1 1) rotate(0) translate(4 62)">
<title>frontend_free</title>
<polygon fill="white" stroke="none" points="-4,4 -4,-62 152,-62 152,4 -4,4"/>
<!-- Node1 -->
<g id="node1" class="node"><title>Node1</title>
<polygon fill="#bfbfbf" stroke="black" points="0,-19.5 0,-38.5 74,-38.5 74,-19.5 0,-19.5"/>
<text text-anchor="middle" x="37" y="-26.5" font-family="Helvetica,sans-Serif" font-size="10.00">frontend_free</text>
</g>
<!-- Node2 -->
<g id="node2" class="node"><title>Node2</title>
<g id="a_node2"><a xlink:href="frontend__opengl__linux_8c.html#a606f78ac8a9bdf59c7a520da2b2052e0" target="_top" xlink:title="step">
<polygon fill="white" stroke="black" points="111.5,-38.5 111.5,-57.5 146.5,-57.5 146.5,-38.5 111.5,-38.5"/>
<text text-anchor="middle" x="129" y="-45.5" font-family="Helvetica,sans-Serif" font-size="10.00">step</text>
</a>
</g>
</g>
<!-- Node1&#45;&gt;Node2 -->
<g id="edge1" class="edge"><title>Node1&#45;&gt;Node2</title>
<path fill="none" stroke="midnightblue" d="M83.8919,-38.6883C93.747,-40.7688 103.545,-42.8373 111.394,-44.4944"/>
<polygon fill="midnightblue" stroke="midnightblue" points="84.5952,-35.2597 74.0879,-36.6185 83.1492,-42.1087 84.5952,-35.2597"/>
</g>
<!-- Node3 -->
<g id="node3" class="node"><title>Node3</title>
<g id="a_node3"><a xlink:href="inferno_8c.html#a0ddf1224851353fc92bfbff6f499fa97" target="_top" xlink:title="main">
<polygon fill="white" stroke="black" points="110,-0.5 110,-19.5 148,-19.5 148,-0.5 110,-0.5"/>
<text text-anchor="middle" x="129" y="-7.5" font-family="Helvetica,sans-Serif" font-size="10.00">main</text>
</a>
</g>
</g>
<!-- Node1&#45;&gt;Node3 -->
<g id="edge2" class="edge"><title>Node1&#45;&gt;Node3</title>
<path fill="none" stroke="midnightblue" d="M84.0319,-19.2822C93.2425,-17.3377 102.395,-15.4054 109.946,-13.8114"/>
<polygon fill="midnightblue" stroke="midnightblue" points="83.1492,-15.8913 74.0879,-21.3815 84.5952,-22.7403 83.1492,-15.8913"/>
</g>
</g>
</svg>
