<?xml version="1.0" encoding="UTF-8" standalone="no"?>
<!DOCTYPE svg PUBLIC "-//W3C//DTD SVG 1.1//EN"
 "http://www.w3.org/Graphics/SVG/1.1/DTD/svg11.dtd">
<!-- Generated by graphviz version 2.36.0 (20140111.2315)
 -->
<!-- Title: frontend_draw_coloredtriplet Pages: 1 -->
<svg width="328pt" height="28pt"
 viewBox="0.00 0.00 328.00 28.00" xmlns="http://www.w3.org/2000/svg" xmlns:xlink="http://www.w3.org/1999/xlink">
<g id="graph0" class="graph" transform="scale(1 1) rotate(0) translate(4 24)">
<title>frontend_draw_coloredtriplet</title>
<polygon fill="white" stroke="none" points="-4,4 -4,-24 324,-24 324,4 -4,4"/>
<!-- Node1 -->
<g id="node1" class="node"><title>Node1</title>
<polygon fill="#bfbfbf" stroke="black" points="0.5,-0.5 0.5,-19.5 139.5,-19.5 139.5,-0.5 0.5,-0.5"/>
<text text-anchor="middle" x="70" y="-7.5" font-family="Helvetica,sans-Serif" font-size="10.00">frontend_draw_coloredtriplet</text>
</g>
<!-- Node2 -->
<g id="node2" class="node"><title>Node2</title>
<g id="a_node2"><a xlink:href="igraphics_8h.html#a59e056b979c3532457c54692f5af63b4" target="_top" xlink:title="draw_object">
<polygon fill="white" stroke="black" points="176.5,-0.5 176.5,-19.5 245.5,-19.5 245.5,-0.5 176.5,-0.5"/>
<text text-anchor="middle" x="211" y="-7.5" font-family="Helvetica,sans-Serif" font-size="10.00">draw_object</text>
</a>
</g>
</g>
<!-- Node1&#45;&gt;Node2 -->
<g id="edge1" class="edge"><title>Node1&#45;&gt;Node2</title>
<path fill="none" stroke="midnightblue" d="M149.799,-10C159.068,-10 168.111,-10 176.255,-10"/>
<polygon fill="midnightblue" stroke="midnightblue" points="149.686,-6.5001 139.686,-10 149.686,-13.5001 149.686,-6.5001"/>
</g>
<!-- Node3 -->
<g id="node3" class="node"><title>Node3</title>
<g id="a_node3"><a xlink:href="inferno_8c.html#a0ddf1224851353fc92bfbff6f499fa97" target="_top" xlink:title="main">
<polygon fill="white" stroke="black" points="282,-0.5 282,-19.5 320,-19.5 320,-0.5 282,-0.5"/>
<text text-anchor="middle" x="301" y="-7.5" font-family="Helvetica,sans-Serif" font-size="10.00">main</text>
</a>
</g>
</g>
<!-- Node2&#45;&gt;Node3 -->
<g id="edge2" class="edge"><title>Node2&#45;&gt;Node3</title>
<path fill="none" stroke="midnightblue" d="M255.735,-10C264.862,-10 274.004,-10 281.591,-10"/>
<polygon fill="midnightblue" stroke="midnightblue" points="255.52,-6.5001 245.52,-10 255.52,-13.5001 255.52,-6.5001"/>
</g>
</g>
</svg>
