<?xml version="1.0" encoding="UTF-8" standalone="no"?>
<!DOCTYPE svg PUBLIC "-//W3C//DTD SVG 1.1//EN"
 "http://www.w3.org/Graphics/SVG/1.1/DTD/svg11.dtd">
<!-- Generated by graphviz version 2.36.0 (20140111.2315)
 -->
<!-- Title: src/frontends/frontend_opengl_linux.h Pages: 1 -->
<svg width="209pt" height="108pt"
 viewBox="0.00 0.00 209.00 108.00" xmlns="http://www.w3.org/2000/svg" xmlns:xlink="http://www.w3.org/1999/xlink">
<g id="graph0" class="graph" transform="scale(1 1) rotate(0) translate(4 104)">
<title>src/frontends/frontend_opengl_linux.h</title>
<polygon fill="white" stroke="none" points="-4,4 -4,-104 205,-104 205,4 -4,4"/>
<!-- Node1 -->
<g id="node1" class="node"><title>Node1</title>
<polygon fill="#bfbfbf" stroke="black" points="34,-69 34,-99 146,-99 146,-69 34,-69"/>
<text text-anchor="start" x="42" y="-87" font-family="Helvetica,sans-Serif" font-size="10.00">src/frontends/frontend</text>
<text text-anchor="middle" x="90" y="-76" font-family="Helvetica,sans-Serif" font-size="10.00">_opengl_linux.h</text>
</g>
<!-- Node2 -->
<g id="node2" class="node"><title>Node2</title>
<g id="a_node2"><a xlink:href="inferno_8c.html" target="_top" xlink:title="src/inferno.c">
<polygon fill="white" stroke="black" points="-0.5,-6.5 -0.5,-25.5 70.5,-25.5 70.5,-6.5 -0.5,-6.5"/>
<text text-anchor="middle" x="35" y="-13.5" font-family="Helvetica,sans-Serif" font-size="10.00">src/inferno.c</text>
</a>
</g>
</g>
<!-- Node1&#45;&gt;Node2 -->
<g id="edge1" class="edge"><title>Node1&#45;&gt;Node2</title>
<path fill="none" stroke="midnightblue" d="M71.5175,-60.821C61.5393,-48.8471 49.7799,-34.7359 42.3569,-25.8283"/>
<polygon fill="midnightblue" stroke="midnightblue" points="68.9752,-63.2374 78.0658,-68.679 74.3527,-58.7561 68.9752,-63.2374"/>
</g>
<!-- Node3 -->
<g id="node3" class="node"><title>Node3</title>
<g id="a_node3"><a xlink:href="frontend__opengl__linux_8c.html" target="_top" xlink:title="src/frontends/frontend\l_opengl_linux.c">
<polygon fill="white" stroke="black" points="89,-1 89,-31 201,-31 201,-1 89,-1"/>
<text text-anchor="start" x="97" y="-19" font-family="Helvetica,sans-Serif" font-size="10.00">src/frontends/frontend</text>
<text text-anchor="middle" x="145" y="-8" font-family="Helvetica,sans-Serif" font-size="10.00">_opengl_linux.c</text>
</a>
</g>
</g>
<!-- Node1&#45;&gt;Node3 -->
<g id="edge2" class="edge"><title>Node1&#45;&gt;Node3</title>
<path fill="none" stroke="midnightblue" d="M108.416,-60.9013C116.553,-51.1362 125.886,-39.9363 133.089,-31.2931"/>
<polygon fill="midnightblue" stroke="midnightblue" points="105.647,-58.7561 101.934,-68.679 111.025,-63.2374 105.647,-58.7561"/>
</g>
</g>
</svg>
