<?xml version="1.0" encoding="UTF-8" standalone="no"?>
<!DOCTYPE svg PUBLIC "-//W3C//DTD SVG 1.1//EN"
 "http://www.w3.org/Graphics/SVG/1.1/DTD/svg11.dtd">
<!-- Generated by graphviz version 2.36.0 (20140111.2315)
 -->
<!-- Title: inew_eventhandler Pages: 1 -->
<svg width="308pt" height="55pt"
 viewBox="0.00 0.00 308.00 55.00" xmlns="http://www.w3.org/2000/svg" xmlns:xlink="http://www.w3.org/1999/xlink">
<g id="graph0" class="graph" transform="scale(1 1) rotate(0) translate(4 51)">
<title>inew_eventhandler</title>
<polygon fill="white" stroke="none" points="-4,4 -4,-51 304,-51 304,4 -4,4"/>
<!-- Node1 -->
<g id="node1" class="node"><title>Node1</title>
<polygon fill="#bfbfbf" stroke="black" points="0,-0.5 0,-19.5 98,-19.5 98,-0.5 0,-0.5"/>
<text text-anchor="middle" x="49" y="-7.5" font-family="Helvetica,sans-Serif" font-size="10.00">inew_eventhandler</text>
</g>
<!-- Node2 -->
<g id="node2" class="node"><title>Node2</title>
<g id="a_node2"><a xlink:href="frontend__opengl__linux_8c.html#aeac975aee6becbb83f7fac162d290fe0" target="_top" xlink:title="frontend_initialize\l_viewspace">
<polygon fill="white" stroke="black" points="134,-17 134,-47 226,-47 226,-17 134,-17"/>
<text text-anchor="start" x="142" y="-35" font-family="Helvetica,sans-Serif" font-size="10.00">frontend_initialize</text>
<text text-anchor="middle" x="180" y="-24" font-family="Helvetica,sans-Serif" font-size="10.00">_viewspace</text>
</a>
</g>
</g>
<!-- Node1&#45;&gt;Node2 -->
<g id="edge1" class="edge"><title>Node1&#45;&gt;Node2</title>
<path fill="none" stroke="midnightblue" d="M108.095,-19.9076C116.757,-21.3849 125.575,-22.8888 133.916,-24.3113"/>
<polygon fill="midnightblue" stroke="midnightblue" points="108.481,-16.423 98.0348,-18.192 107.304,-23.3234 108.481,-16.423"/>
</g>
<!-- Node3 -->
<g id="node3" class="node"><title>Node3</title>
<g id="a_node3"><a xlink:href="inferno_8c.html#a0ddf1224851353fc92bfbff6f499fa97" target="_top" xlink:title="main">
<polygon fill="white" stroke="black" points="262,-0.5 262,-19.5 300,-19.5 300,-0.5 262,-0.5"/>
<text text-anchor="middle" x="281" y="-7.5" font-family="Helvetica,sans-Serif" font-size="10.00">main</text>
</a>
</g>
</g>
<!-- Node1&#45;&gt;Node3 -->
<g id="edge3" class="edge"><title>Node1&#45;&gt;Node3</title>
<path fill="none" stroke="midnightblue" d="M108.669,-8.42482C117.167,-8.24851 125.808,-8.09751 134,-8 174.886,-7.51333 185.118,-7.24319 226,-8 237.819,-8.21879 251.085,-8.7067 261.51,-9.14582"/>
<polygon fill="midnightblue" stroke="midnightblue" points="108.334,-4.93124 98.4132,-8.65054 108.488,-11.9295 108.334,-4.93124"/>
</g>
<!-- Node2&#45;&gt;Node3 -->
<g id="edge2" class="edge"><title>Node2&#45;&gt;Node3</title>
<path fill="none" stroke="midnightblue" d="M235.955,-19.7878C245.323,-17.706 254.427,-15.6829 261.903,-14.0215"/>
<polygon fill="midnightblue" stroke="midnightblue" points="235.157,-16.3797 226.154,-21.9657 236.676,-23.213 235.157,-16.3797"/>
</g>
</g>
</svg>
