<?xml version="1.0" encoding="UTF-8" standalone="no"?>
<!DOCTYPE svg PUBLIC "-//W3C//DTD SVG 1.1//EN"
 "http://www.w3.org/Graphics/SVG/1.1/DTD/svg11.dtd">
<!-- Generated by graphviz version 2.36.0 (20140111.2315)
 -->
<!-- Title: frontend_reset_viewspace Pages: 1 -->
<svg width="218pt" height="104pt"
 viewBox="0.00 0.00 218.00 104.00" xmlns="http://www.w3.org/2000/svg" xmlns:xlink="http://www.w3.org/1999/xlink">
<g id="graph0" class="graph" transform="scale(1 1) rotate(0) translate(4 100)">
<title>frontend_reset_viewspace</title>
<polygon fill="white" stroke="none" points="-4,4 -4,-100 214,-100 214,4 -4,4"/>
<!-- Node1 -->
<g id="node1" class="node"><title>Node1</title>
<polygon fill="#bfbfbf" stroke="black" points="0.5,-38.5 0.5,-57.5 131.5,-57.5 131.5,-38.5 0.5,-38.5"/>
<text text-anchor="middle" x="66" y="-45.5" font-family="Helvetica,sans-Serif" font-size="10.00">frontend_reset_viewspace</text>
</g>
<!-- Node2 -->
<g id="node2" class="node"><title>Node2</title>
<g id="a_node2"><a xlink:href="iprimitives_8c.html#afc34677b05531522408374dc02a31f40" target="_top" xlink:title="red">
<polygon fill="white" stroke="black" points="174,-76.5 174,-95.5 204,-95.5 204,-76.5 174,-76.5"/>
<text text-anchor="middle" x="189" y="-83.5" font-family="Helvetica,sans-Serif" font-size="10.00">red</text>
</a>
</g>
</g>
<!-- Node1&#45;&gt;Node2 -->
<g id="edge1" class="edge"><title>Node1&#45;&gt;Node2</title>
<path fill="none" stroke="midnightblue" d="M97.5334,-57.589C118.208,-64.0819 145.13,-72.5366 164.214,-78.5299"/>
<polygon fill="midnightblue" stroke="midnightblue" points="163.331,-81.9211 173.92,-81.5782 165.428,-75.2427 163.331,-81.9211"/>
</g>
<!-- Node3 -->
<g id="node3" class="node"><title>Node3</title>
<g id="a_node3"><a xlink:href="iprimitives_8c.html#abc6932dd227752af4dbf7fac0b6e3291" target="_top" xlink:title="green">
<polygon fill="white" stroke="black" points="168.5,-38.5 168.5,-57.5 209.5,-57.5 209.5,-38.5 168.5,-38.5"/>
<text text-anchor="middle" x="189" y="-45.5" font-family="Helvetica,sans-Serif" font-size="10.00">green</text>
</a>
</g>
</g>
<!-- Node1&#45;&gt;Node3 -->
<g id="edge2" class="edge"><title>Node1&#45;&gt;Node3</title>
<path fill="none" stroke="midnightblue" d="M131.751,-48C141.049,-48 150.213,-48 158.358,-48"/>
<polygon fill="midnightblue" stroke="midnightblue" points="158.404,-51.5001 168.404,-48 158.404,-44.5001 158.404,-51.5001"/>
</g>
<!-- Node4 -->
<g id="node4" class="node"><title>Node4</title>
<g id="a_node4"><a xlink:href="iprimitives_8c.html#a03066bd036a134534caeec08526b7269" target="_top" xlink:title="blue">
<polygon fill="white" stroke="black" points="171.5,-0.5 171.5,-19.5 206.5,-19.5 206.5,-0.5 171.5,-0.5"/>
<text text-anchor="middle" x="189" y="-7.5" font-family="Helvetica,sans-Serif" font-size="10.00">blue</text>
</a>
</g>
</g>
<!-- Node1&#45;&gt;Node4 -->
<g id="edge3" class="edge"><title>Node1&#45;&gt;Node4</title>
<path fill="none" stroke="midnightblue" d="M97.5334,-38.411C117.263,-32.2149 142.681,-24.2323 161.549,-18.3071"/>
<polygon fill="midnightblue" stroke="midnightblue" points="162.787,-21.5868 171.279,-15.2513 160.689,-14.9084 162.787,-21.5868"/>
</g>
</g>
</svg>
