<?xml version="1.0" encoding="UTF-8" standalone="no"?>
<!DOCTYPE svg PUBLIC "-//W3C//DTD SVG 1.1//EN"
 "http://www.w3.org/Graphics/SVG/1.1/DTD/svg11.dtd">
<!-- Generated by graphviz version 2.36.0 (20140111.2315)
 -->
<!-- Title: src/frontends/frontend.c Pages: 1 -->
<svg width="297pt" height="308pt"
 viewBox="0.00 0.00 297.00 308.00" xmlns="http://www.w3.org/2000/svg" xmlns:xlink="http://www.w3.org/1999/xlink">
<g id="graph0" class="graph" transform="scale(1 1) rotate(0) translate(4 304)">
<title>src/frontends/frontend.c</title>
<polygon fill="white" stroke="none" points="-4,4 -4,-304 293,-304 293,4 -4,4"/>
<!-- Node1 -->
<g id="node1" class="node"><title>Node1</title>
<polygon fill="#bfbfbf" stroke="black" points="24,-280.5 24,-299.5 144,-299.5 144,-280.5 24,-280.5"/>
<text text-anchor="middle" x="84" y="-287.5" font-family="Helvetica,sans-Serif" font-size="10.00">src/frontends/frontend.c</text>
</g>
<!-- Node2 -->
<g id="node2" class="node"><title>Node2</title>
<polygon fill="white" stroke="#bfbfbf" points="24,-224.5 24,-243.5 72,-243.5 72,-224.5 24,-224.5"/>
<text text-anchor="middle" x="48" y="-231.5" font-family="Helvetica,sans-Serif" font-size="10.00">stdlib.h</text>
</g>
<!-- Node1&#45;&gt;Node2 -->
<g id="edge1" class="edge"><title>Node1&#45;&gt;Node2</title>
<path fill="none" stroke="midnightblue" d="M78.0553,-280.083C73.0227,-272.534 65.6632,-261.495 59.4865,-252.23"/>
<polygon fill="midnightblue" stroke="midnightblue" points="62.2933,-250.13 53.8341,-243.751 56.4689,-254.013 62.2933,-250.13"/>
</g>
<!-- Node3 -->
<g id="node3" class="node"><title>Node3</title>
<g id="a_node3"><a xlink:href="frontend_8h.html" target="_top" xlink:title="frontend.h">
<polygon fill="white" stroke="black" points="90,-224.5 90,-243.5 150,-243.5 150,-224.5 90,-224.5"/>
<text text-anchor="middle" x="120" y="-231.5" font-family="Helvetica,sans-Serif" font-size="10.00">frontend.h</text>
</a>
</g>
</g>
<!-- Node1&#45;&gt;Node3 -->
<g id="edge2" class="edge"><title>Node1&#45;&gt;Node3</title>
<path fill="none" stroke="midnightblue" d="M89.9447,-280.083C94.9773,-272.534 102.337,-261.495 108.513,-252.23"/>
<polygon fill="midnightblue" stroke="midnightblue" points="111.531,-254.013 114.166,-243.751 105.707,-250.13 111.531,-254.013"/>
</g>
<!-- Node4 -->
<g id="node4" class="node"><title>Node4</title>
<g id="a_node4"><a xlink:href="iprimitives_8h.html" target="_top" xlink:title="../iprimitives.h">
<polygon fill="white" stroke="black" points="5,-168.5 5,-187.5 83,-187.5 83,-168.5 5,-168.5"/>
<text text-anchor="middle" x="44" y="-175.5" font-family="Helvetica,sans-Serif" font-size="10.00">../iprimitives.h</text>
</a>
</g>
</g>
<!-- Node3&#45;&gt;Node4 -->
<g id="edge3" class="edge"><title>Node3&#45;&gt;Node4</title>
<path fill="none" stroke="midnightblue" d="M102.674,-224.324C89.4572,-216.185 71.7444,-203.839 59.1057,-194.087"/>
<polygon fill="midnightblue" stroke="midnightblue" points="61.2803,-191.345 51.2842,-187.834 56.909,-196.812 61.2803,-191.345"/>
</g>
<!-- Node6 -->
<g id="node6" class="node"><title>Node6</title>
<g id="a_node6"><a xlink:href="icoordinates_8h.html" target="_top" xlink:title="icoordinates.h">
<polygon fill="white" stroke="black" points="50.5,-56.5 50.5,-75.5 127.5,-75.5 127.5,-56.5 50.5,-56.5"/>
<text text-anchor="middle" x="89" y="-63.5" font-family="Helvetica,sans-Serif" font-size="10.00">icoordinates.h</text>
</a>
</g>
</g>
<!-- Node3&#45;&gt;Node6 -->
<g id="edge11" class="edge"><title>Node3&#45;&gt;Node6</title>
<path fill="none" stroke="midnightblue" d="M115.07,-224.075C105.978,-197.945 91.2523,-121.211 88.0195,-85.577"/>
<polygon fill="midnightblue" stroke="midnightblue" points="91.511,-85.3309 87.3954,-75.5681 84.5246,-85.7666 91.511,-85.3309"/>
</g>
<!-- Node8 -->
<g id="node8" class="node"><title>Node8</title>
<polygon fill="white" stroke="#bfbfbf" points="157,-168.5 157,-187.5 209,-187.5 209,-168.5 157,-168.5"/>
<text text-anchor="middle" x="183" y="-175.5" font-family="Helvetica,sans-Serif" font-size="10.00">X11/X.h</text>
</g>
<!-- Node3&#45;&gt;Node8 -->
<g id="edge12" class="edge"><title>Node3&#45;&gt;Node8</title>
<path fill="none" stroke="midnightblue" d="M130.122,-224.324C139.526,-216.263 153.744,-204.077 165.069,-194.369"/>
<polygon fill="midnightblue" stroke="midnightblue" points="167.379,-196.999 172.694,-187.834 162.823,-191.684 167.379,-196.999"/>
</g>
<!-- Node9 -->
<g id="node9" class="node"><title>Node9</title>
<polygon fill="white" stroke="#bfbfbf" points="227,-168.5 227,-187.5 289,-187.5 289,-168.5 227,-168.5"/>
<text text-anchor="middle" x="258" y="-175.5" font-family="Helvetica,sans-Serif" font-size="10.00">X11/Xlib.h</text>
</g>
<!-- Node3&#45;&gt;Node9 -->
<g id="edge13" class="edge"><title>Node3&#45;&gt;Node9</title>
<path fill="none" stroke="midnightblue" d="M141.867,-224.444C164.779,-215.478 200.975,-201.314 226.866,-191.183"/>
<polygon fill="midnightblue" stroke="midnightblue" points="228.199,-194.42 236.236,-187.516 225.648,-187.901 228.199,-194.42"/>
</g>
<!-- Node4&#45;&gt;Node3 -->
<g id="edge4" class="edge"><title>Node4&#45;&gt;Node3</title>
<path fill="none" stroke="midnightblue" d="M61.2906,-187.655C74.5785,-195.835 92.4243,-208.277 105.086,-218.061"/>
<polygon fill="midnightblue" stroke="midnightblue" points="102.911,-220.803 112.904,-224.324 107.288,-215.34 102.911,-220.803"/>
</g>
<!-- Node5 -->
<g id="node5" class="node"><title>Node5</title>
<g id="a_node5"><a xlink:href="iutils_8h.html" target="_top" xlink:title="iutils.h">
<polygon fill="white" stroke="black" points="-0.5,-112.5 -0.5,-131.5 44.5,-131.5 44.5,-112.5 -0.5,-112.5"/>
<text text-anchor="middle" x="22" y="-119.5" font-family="Helvetica,sans-Serif" font-size="10.00">iutils.h</text>
</a>
</g>
</g>
<!-- Node4&#45;&gt;Node5 -->
<g id="edge5" class="edge"><title>Node4&#45;&gt;Node5</title>
<path fill="none" stroke="midnightblue" d="M40.3671,-168.083C37.3878,-160.77 33.0739,-150.181 29.3755,-141.103"/>
<polygon fill="midnightblue" stroke="midnightblue" points="32.5796,-139.691 25.5653,-131.751 26.097,-142.333 32.5796,-139.691"/>
</g>
<!-- Node4&#45;&gt;Node6 -->
<g id="edge10" class="edge"><title>Node4&#45;&gt;Node6</title>
<path fill="none" stroke="midnightblue" d="M47.5311,-168.368C54.8588,-150.456 71.8496,-108.923 81.6576,-84.9482"/>
<polygon fill="midnightblue" stroke="midnightblue" points="84.9384,-86.1721 85.4853,-75.5914 78.4595,-83.5217 84.9384,-86.1721"/>
</g>
<!-- Node5&#45;&gt;Node6 -->
<g id="edge6" class="edge"><title>Node5&#45;&gt;Node6</title>
<path fill="none" stroke="midnightblue" d="M32.7647,-112.324C42.7661,-104.263 57.8865,-92.0765 69.9305,-82.3695"/>
<polygon fill="midnightblue" stroke="midnightblue" points="72.4498,-84.8343 78.0394,-75.8339 68.0571,-79.3841 72.4498,-84.8343"/>
</g>
<!-- Node7 -->
<g id="node7" class="node"><title>Node7</title>
<g id="a_node7"><a xlink:href="itypes_8h.html" target="_top" xlink:title="itypes.h">
<polygon fill="white" stroke="black" points="29.5,-0.5 29.5,-19.5 80.5,-19.5 80.5,-0.5 29.5,-0.5"/>
<text text-anchor="middle" x="55" y="-7.5" font-family="Helvetica,sans-Serif" font-size="10.00">itypes.h</text>
</a>
</g>
</g>
<!-- Node5&#45;&gt;Node7 -->
<g id="edge9" class="edge"><title>Node5&#45;&gt;Node7</title>
<path fill="none" stroke="midnightblue" d="M24.5333,-112.154C28.131,-99.634 34.9556,-76.0355 41,-56 43.6619,-47.1767 46.6917,-37.4058 49.2504,-29.2295"/>
<polygon fill="midnightblue" stroke="midnightblue" points="52.6132,-30.2026 52.2719,-19.6133 45.9352,-28.1042 52.6132,-30.2026"/>
</g>
<!-- Node6&#45;&gt;Node3 -->
<g id="edge7" class="edge"><title>Node6&#45;&gt;Node3</title>
<path fill="none" stroke="midnightblue" d="M93.8047,-75.5681C102.845,-101.231 117.597,-177.92 120.935,-213.93"/>
<polygon fill="midnightblue" stroke="midnightblue" points="117.453,-214.324 121.596,-224.075 124.439,-213.869 117.453,-214.324"/>
</g>
<!-- Node6&#45;&gt;Node7 -->
<g id="edge8" class="edge"><title>Node6&#45;&gt;Node7</title>
<path fill="none" stroke="midnightblue" d="M83.3856,-56.083C78.6326,-48.5341 71.6819,-37.4948 65.8484,-28.2298"/>
<polygon fill="midnightblue" stroke="midnightblue" points="68.7999,-26.3486 60.5099,-19.7511 62.8763,-30.0783 68.7999,-26.3486"/>
</g>
</g>
</svg>
