<?xml version="1.0" encoding="UTF-8" standalone="no"?>
<!DOCTYPE svg PUBLIC "-//W3C//DTD SVG 1.1//EN"
 "http://www.w3.org/Graphics/SVG/1.1/DTD/svg11.dtd">
<!-- Generated by graphviz version 2.36.0 (20140111.2315)
 -->
<!-- Title: src/frontends/frontend_opengl_linux.c Pages: 1 -->
<svg width="693pt" height="376pt"
 viewBox="0.00 0.00 693.00 376.00" xmlns="http://www.w3.org/2000/svg" xmlns:xlink="http://www.w3.org/1999/xlink">
<g id="graph0" class="graph" transform="scale(1 1) rotate(0) translate(4 372)">
<title>src/frontends/frontend_opengl_linux.c</title>
<polygon fill="white" stroke="none" points="-4,4 -4,-372 689,-372 689,4 -4,4"/>
<!-- Node1 -->
<g id="node1" class="node"><title>Node1</title>
<polygon fill="#bfbfbf" stroke="black" points="243,-337 243,-367 355,-367 355,-337 243,-337"/>
<text text-anchor="start" x="251" y="-355" font-family="Helvetica,sans-Serif" font-size="10.00">src/frontends/frontend</text>
<text text-anchor="middle" x="299" y="-344" font-family="Helvetica,sans-Serif" font-size="10.00">_opengl_linux.c</text>
</g>
<!-- Node2 -->
<g id="node2" class="node"><title>Node2</title>
<polygon fill="white" stroke="#bfbfbf" points="0,-280.5 0,-299.5 46,-299.5 46,-280.5 0,-280.5"/>
<text text-anchor="middle" x="23" y="-287.5" font-family="Helvetica,sans-Serif" font-size="10.00">stdio.h</text>
</g>
<!-- Node1&#45;&gt;Node2 -->
<g id="edge1" class="edge"><title>Node1&#45;&gt;Node2</title>
<path fill="none" stroke="midnightblue" d="M242.545,-340.333C195.161,-331.123 125.496,-316.984 55.8477,-300.081"/>
<polygon fill="midnightblue" stroke="midnightblue" points="56.5678,-296.654 46.0225,-297.677 54.9045,-303.453 56.5678,-296.654"/>
</g>
<!-- Node3 -->
<g id="node3" class="node"><title>Node3</title>
<polygon fill="white" stroke="#bfbfbf" points="64,-280.5 64,-299.5 112,-299.5 112,-280.5 64,-280.5"/>
<text text-anchor="middle" x="88" y="-287.5" font-family="Helvetica,sans-Serif" font-size="10.00">stdlib.h</text>
</g>
<!-- Node1&#45;&gt;Node3 -->
<g id="edge2" class="edge"><title>Node1&#45;&gt;Node3</title>
<path fill="none" stroke="midnightblue" d="M249.53,-336.933C210.342,-325.789 156.625,-310.514 122.11,-300.7"/>
<polygon fill="midnightblue" stroke="midnightblue" points="122.629,-297.208 112.053,-297.84 120.714,-303.941 122.629,-297.208"/>
</g>
<!-- Node4 -->
<g id="node4" class="node"><title>Node4</title>
<polygon fill="white" stroke="#bfbfbf" points="605,-168.5 605,-187.5 657,-187.5 657,-168.5 605,-168.5"/>
<text text-anchor="middle" x="631" y="-175.5" font-family="Helvetica,sans-Serif" font-size="10.00">X11/X.h</text>
</g>
<!-- Node1&#45;&gt;Node4 -->
<g id="edge3" class="edge"><title>Node1&#45;&gt;Node4</title>
<path fill="none" stroke="midnightblue" d="M355.332,-344.485C397.461,-337.833 455.411,-324.813 501,-300 551.122,-272.72 596.719,-221.641 618.136,-195.434"/>
<polygon fill="midnightblue" stroke="midnightblue" points="620.917,-197.56 624.444,-187.569 615.457,-193.18 620.917,-197.56"/>
</g>
<!-- Node5 -->
<g id="node5" class="node"><title>Node5</title>
<polygon fill="white" stroke="#bfbfbf" points="335,-168.5 335,-187.5 397,-187.5 397,-168.5 335,-168.5"/>
<text text-anchor="middle" x="366" y="-175.5" font-family="Helvetica,sans-Serif" font-size="10.00">X11/Xlib.h</text>
</g>
<!-- Node1&#45;&gt;Node5 -->
<g id="edge4" class="edge"><title>Node1&#45;&gt;Node5</title>
<path fill="none" stroke="midnightblue" d="M261.274,-336.956C208.093,-315.074 121.521,-270.502 159,-224 179.434,-198.646 270.65,-186.836 324.943,-181.964"/>
<polygon fill="midnightblue" stroke="midnightblue" points="325.287,-185.448 334.952,-181.107 324.69,-178.473 325.287,-185.448"/>
</g>
<!-- Node6 -->
<g id="node6" class="node"><title>Node6</title>
<polygon fill="white" stroke="#bfbfbf" points="168,-224.5 168,-243.5 216,-243.5 216,-224.5 168,-224.5"/>
<text text-anchor="middle" x="192" y="-231.5" font-family="Helvetica,sans-Serif" font-size="10.00">GL/gl.h</text>
</g>
<!-- Node1&#45;&gt;Node6 -->
<g id="edge5" class="edge"><title>Node1&#45;&gt;Node6</title>
<path fill="none" stroke="midnightblue" d="M285.88,-336.776C265.9,-315.116 227.957,-273.981 206.943,-251.2"/>
<polygon fill="midnightblue" stroke="midnightblue" points="209.384,-248.684 200.031,-243.707 204.239,-253.431 209.384,-248.684"/>
</g>
<!-- Node7 -->
<g id="node7" class="node"><title>Node7</title>
<polygon fill="white" stroke="#bfbfbf" points="234.5,-224.5 234.5,-243.5 287.5,-243.5 287.5,-224.5 234.5,-224.5"/>
<text text-anchor="middle" x="261" y="-231.5" font-family="Helvetica,sans-Serif" font-size="10.00">GL/glx.h</text>
</g>
<!-- Node1&#45;&gt;Node7 -->
<g id="edge6" class="edge"><title>Node1&#45;&gt;Node7</title>
<path fill="none" stroke="midnightblue" d="M294.34,-336.776C287.463,-315.781 274.591,-276.488 267.011,-253.349"/>
<polygon fill="midnightblue" stroke="midnightblue" points="270.292,-252.12 263.852,-243.707 263.639,-254.3 270.292,-252.12"/>
</g>
<!-- Node8 -->
<g id="node8" class="node"><title>Node8</title>
<polygon fill="white" stroke="#bfbfbf" points="305.5,-224.5 305.5,-243.5 358.5,-243.5 358.5,-224.5 305.5,-224.5"/>
<text text-anchor="middle" x="332" y="-231.5" font-family="Helvetica,sans-Serif" font-size="10.00">GL/glu.h</text>
</g>
<!-- Node1&#45;&gt;Node8 -->
<g id="edge7" class="edge"><title>Node1&#45;&gt;Node8</title>
<path fill="none" stroke="midnightblue" d="M302.957,-336.848C306.972,-322.512 313.379,-299.704 319,-280 321.513,-271.192 324.331,-261.422 326.7,-253.243"/>
<polygon fill="midnightblue" stroke="midnightblue" points="330.066,-254.201 329.491,-243.622 323.343,-252.251 330.066,-254.201"/>
</g>
<!-- Node9 -->
<g id="node9" class="node"><title>Node9</title>
<g id="a_node9"><a xlink:href="frontend_8h.html" target="_top" xlink:title="frontend.h">
<polygon fill="white" stroke="black" points="453,-224.5 453,-243.5 513,-243.5 513,-224.5 453,-224.5"/>
<text text-anchor="middle" x="483" y="-231.5" font-family="Helvetica,sans-Serif" font-size="10.00">frontend.h</text>
</a>
</g>
</g>
<!-- Node1&#45;&gt;Node9 -->
<g id="edge8" class="edge"><title>Node1&#45;&gt;Node9</title>
<path fill="none" stroke="midnightblue" d="M355.292,-344.25C387.845,-337.739 427.646,-324.977 455,-300 468.304,-287.852 475.554,-268.296 479.32,-253.804"/>
<polygon fill="midnightblue" stroke="midnightblue" points="482.764,-254.442 481.563,-243.915 475.937,-252.893 482.764,-254.442"/>
</g>
<!-- Node10 -->
<g id="node10" class="node"><title>Node10</title>
<g id="a_node10"><a xlink:href="iprimitives_8h.html" target="_top" xlink:title="../iprimitives.h">
<polygon fill="white" stroke="black" points="509,-168.5 509,-187.5 587,-187.5 587,-168.5 509,-168.5"/>
<text text-anchor="middle" x="548" y="-175.5" font-family="Helvetica,sans-Serif" font-size="10.00">../iprimitives.h</text>
</a>
</g>
</g>
<!-- Node1&#45;&gt;Node10 -->
<g id="edge29" class="edge"><title>Node1&#45;&gt;Node10</title>
<path fill="none" stroke="midnightblue" d="M355.347,-343.771C392.102,-336.984 439.793,-324.096 476,-300 513.023,-275.36 533.788,-224.63 542.704,-197.337"/>
<polygon fill="midnightblue" stroke="midnightblue" points="546.129,-198.108 545.726,-187.521 539.439,-196.048 546.129,-198.108"/>
</g>
<!-- Node12 -->
<g id="node12" class="node"><title>Node12</title>
<g id="a_node12"><a xlink:href="icoordinates_8h.html" target="_top" xlink:title="icoordinates.h">
<polygon fill="white" stroke="black" points="464.5,-56.5 464.5,-75.5 541.5,-75.5 541.5,-56.5 464.5,-56.5"/>
<text text-anchor="middle" x="503" y="-63.5" font-family="Helvetica,sans-Serif" font-size="10.00">icoordinates.h</text>
</a>
</g>
</g>
<!-- Node1&#45;&gt;Node12 -->
<g id="edge20" class="edge"><title>Node1&#45;&gt;Node12</title>
<path fill="none" stroke="midnightblue" d="M355.128,-345.915C462.184,-334.656 685,-303.05 685,-235 685,-235 685,-235 685,-177 685,-114.568 605.588,-86.6187 551.675,-74.8381"/>
<polygon fill="midnightblue" stroke="midnightblue" points="552.099,-71.3517 541.598,-72.7569 550.683,-78.2071 552.099,-71.3517"/>
</g>
<!-- Node14 -->
<g id="node14" class="node"><title>Node14</title>
<g id="a_node14"><a xlink:href="frontend__opengl__linux_8h.html" target="_top" xlink:title="frontend_opengl_linux.h">
<polygon fill="white" stroke="black" points="327.5,-280.5 327.5,-299.5 446.5,-299.5 446.5,-280.5 327.5,-280.5"/>
<text text-anchor="middle" x="387" y="-287.5" font-family="Helvetica,sans-Serif" font-size="10.00">frontend_opengl_linux.h</text>
</a>
</g>
</g>
<!-- Node1&#45;&gt;Node14 -->
<g id="edge21" class="edge"><title>Node1&#45;&gt;Node14</title>
<path fill="none" stroke="midnightblue" d="M319.855,-336.781C333.78,-327.286 352.03,-314.843 365.988,-305.327"/>
<polygon fill="midnightblue" stroke="midnightblue" points="368.161,-308.081 374.452,-299.556 364.218,-302.297 368.161,-308.081"/>
</g>
<!-- Node9&#45;&gt;Node4 -->
<g id="edge18" class="edge"><title>Node9&#45;&gt;Node4</title>
<path fill="none" stroke="midnightblue" d="M506.451,-224.444C531.133,-215.438 570.185,-201.189 597.977,-191.049"/>
<polygon fill="midnightblue" stroke="midnightblue" points="599.464,-194.232 607.659,-187.516 597.065,-187.656 599.464,-194.232"/>
</g>
<!-- Node9&#45;&gt;Node5 -->
<g id="edge19" class="edge"><title>Node9&#45;&gt;Node5</title>
<path fill="none" stroke="midnightblue" d="M464.461,-224.444C445.377,-215.636 415.425,-201.812 393.564,-191.722"/>
<polygon fill="midnightblue" stroke="midnightblue" points="394.999,-188.529 384.452,-187.516 392.065,-194.885 394.999,-188.529"/>
</g>
<!-- Node9&#45;&gt;Node10 -->
<g id="edge9" class="edge"><title>Node9&#45;&gt;Node10</title>
<path fill="none" stroke="midnightblue" d="M488.567,-224.083C496.764,-215.826 511.423,-203.394 524.254,-193.675"/>
<polygon fill="midnightblue" stroke="midnightblue" points="526.339,-196.486 532.335,-187.751 522.201,-190.841 526.339,-196.486"/>
</g>
<!-- Node9&#45;&gt;Node12 -->
<g id="edge17" class="edge"><title>Node9&#45;&gt;Node12</title>
<path fill="none" stroke="midnightblue" d="M480.812,-224.075C479.748,-197.945 488.597,-121.211 496.312,-85.577"/>
<polygon fill="midnightblue" stroke="midnightblue" points="499.784,-86.1136 498.763,-75.5681 492.985,-84.4486 499.784,-86.1136"/>
</g>
<!-- Node10&#45;&gt;Node9 -->
<g id="edge10" class="edge"><title>Node10&#45;&gt;Node9</title>
<path fill="none" stroke="midnightblue" d="M542.515,-187.834C534.319,-196.106 519.564,-208.62 506.673,-218.38"/>
<polygon fill="midnightblue" stroke="midnightblue" points="504.557,-215.591 498.558,-224.324 508.694,-221.238 504.557,-215.591"/>
</g>
<!-- Node11 -->
<g id="node11" class="node"><title>Node11</title>
<g id="a_node11"><a xlink:href="iutils_8h.html" target="_top" xlink:title="iutils.h">
<polygon fill="white" stroke="black" points="547.5,-112.5 547.5,-131.5 592.5,-131.5 592.5,-112.5 547.5,-112.5"/>
<text text-anchor="middle" x="570" y="-119.5" font-family="Helvetica,sans-Serif" font-size="10.00">iutils.h</text>
</a>
</g>
</g>
<!-- Node10&#45;&gt;Node11 -->
<g id="edge11" class="edge"><title>Node10&#45;&gt;Node11</title>
<path fill="none" stroke="midnightblue" d="M551.633,-168.083C554.612,-160.77 558.926,-150.181 562.625,-141.103"/>
<polygon fill="midnightblue" stroke="midnightblue" points="565.903,-142.333 566.435,-131.751 559.42,-139.691 565.903,-142.333"/>
</g>
<!-- Node10&#45;&gt;Node12 -->
<g id="edge16" class="edge"><title>Node10&#45;&gt;Node12</title>
<path fill="none" stroke="midnightblue" d="M544.469,-168.368C537.141,-150.456 520.15,-108.923 510.342,-84.9482"/>
<polygon fill="midnightblue" stroke="midnightblue" points="513.54,-83.5217 506.515,-75.5914 507.062,-86.1721 513.54,-83.5217"/>
</g>
<!-- Node11&#45;&gt;Node12 -->
<g id="edge12" class="edge"><title>Node11&#45;&gt;Node12</title>
<path fill="none" stroke="midnightblue" d="M559.235,-112.324C549.234,-104.263 534.113,-92.0765 522.07,-82.3695"/>
<polygon fill="midnightblue" stroke="midnightblue" points="523.943,-79.3841 513.961,-75.8339 519.55,-84.8343 523.943,-79.3841"/>
</g>
<!-- Node13 -->
<g id="node13" class="node"><title>Node13</title>
<g id="a_node13"><a xlink:href="itypes_8h.html" target="_top" xlink:title="itypes.h">
<polygon fill="white" stroke="black" points="510.5,-0.5 510.5,-19.5 561.5,-19.5 561.5,-0.5 510.5,-0.5"/>
<text text-anchor="middle" x="536" y="-7.5" font-family="Helvetica,sans-Serif" font-size="10.00">itypes.h</text>
</a>
</g>
</g>
<!-- Node11&#45;&gt;Node13 -->
<g id="edge15" class="edge"><title>Node11&#45;&gt;Node13</title>
<path fill="none" stroke="midnightblue" d="M567.291,-112.166C563.455,-99.6594 556.212,-76.0771 550,-56 547.276,-47.1957 544.239,-37.4271 541.691,-29.2474"/>
<polygon fill="midnightblue" stroke="midnightblue" points="545.009,-28.1299 538.692,-19.6243 538.326,-30.2128 545.009,-28.1299"/>
</g>
<!-- Node12&#45;&gt;Node9 -->
<g id="edge13" class="edge"><title>Node12&#45;&gt;Node9</title>
<path fill="none" stroke="midnightblue" d="M505.172,-75.5681C506.328,-101.231 497.519,-177.92 489.794,-213.93"/>
<polygon fill="midnightblue" stroke="midnightblue" points="486.289,-213.532 487.338,-224.075 493.093,-215.179 486.289,-213.532"/>
</g>
<!-- Node12&#45;&gt;Node13 -->
<g id="edge14" class="edge"><title>Node12&#45;&gt;Node13</title>
<path fill="none" stroke="midnightblue" d="M508.449,-56.083C513.014,-48.6127 519.668,-37.7244 525.293,-28.5199"/>
<polygon fill="midnightblue" stroke="midnightblue" points="528.424,-30.109 530.652,-19.7511 522.451,-26.4588 528.424,-30.109"/>
</g>
<!-- Node14&#45;&gt;Node4 -->
<g id="edge22" class="edge"><title>Node14&#45;&gt;Node4</title>
<path fill="none" stroke="midnightblue" d="M418.581,-280.434C446.197,-272.467 487.076,-259.511 521,-244 553.479,-229.15 588.613,-207.269 610.217,-193.075"/>
<polygon fill="midnightblue" stroke="midnightblue" points="612.207,-195.954 618.599,-187.505 608.333,-190.124 612.207,-195.954"/>
</g>
<!-- Node14&#45;&gt;Node5 -->
<g id="edge23" class="edge"><title>Node14&#45;&gt;Node5</title>
<path fill="none" stroke="midnightblue" d="M385.352,-280.368C381.963,-262.617 374.145,-221.666 369.55,-197.597"/>
<polygon fill="midnightblue" stroke="midnightblue" points="372.953,-196.758 367.64,-187.591 366.078,-198.07 372.953,-196.758"/>
</g>
<!-- Node14&#45;&gt;Node6 -->
<g id="edge24" class="edge"><title>Node14&#45;&gt;Node6</title>
<path fill="none" stroke="midnightblue" d="M356.102,-280.444C320.665,-270.63 262.744,-254.591 226.039,-244.426"/>
<polygon fill="midnightblue" stroke="midnightblue" points="226.856,-241.021 216.285,-241.725 224.988,-247.767 226.856,-241.021"/>
</g>
<!-- Node14&#45;&gt;Node7 -->
<g id="edge25" class="edge"><title>Node14&#45;&gt;Node7</title>
<path fill="none" stroke="midnightblue" d="M367.035,-280.444C346.391,-271.596 313.937,-257.687 290.368,-247.586"/>
<polygon fill="midnightblue" stroke="midnightblue" points="291.442,-244.239 280.872,-243.516 288.684,-250.673 291.442,-244.239"/>
</g>
<!-- Node14&#45;&gt;Node8 -->
<g id="edge26" class="edge"><title>Node14&#45;&gt;Node8</title>
<path fill="none" stroke="midnightblue" d="M377.918,-280.083C369.829,-272.141 357.805,-260.335 348.09,-250.797"/>
<polygon fill="midnightblue" stroke="midnightblue" points="350.501,-248.26 340.913,-243.751 345.597,-253.254 350.501,-248.26"/>
</g>
<!-- Node14&#45;&gt;Node9 -->
<g id="edge27" class="edge"><title>Node14&#45;&gt;Node9</title>
<path fill="none" stroke="midnightblue" d="M402.424,-280.324C417.54,-271.822 440.815,-258.729 458.471,-248.797"/>
<polygon fill="midnightblue" stroke="midnightblue" points="460.614,-251.608 467.614,-243.655 457.183,-245.507 460.614,-251.608"/>
</g>
<!-- Node14&#45;&gt;Node12 -->
<g id="edge28" class="edge"><title>Node14&#45;&gt;Node12</title>
<path fill="none" stroke="midnightblue" d="M391.547,-280.297C408.76,-247.356 470.134,-129.898 493.696,-84.8052"/>
<polygon fill="midnightblue" stroke="midnightblue" points="496.829,-86.3677 498.358,-75.8837 490.625,-83.1258 496.829,-86.3677"/>
</g>
</g>
</svg>
