<?xml version="1.0" encoding="UTF-8" standalone="no"?>
<!DOCTYPE svg PUBLIC "-//W3C//DTD SVG 1.1//EN"
 "http://www.w3.org/Graphics/SVG/1.1/DTD/svg11.dtd">
<!-- Generated by graphviz version 2.36.0 (20140111.2315)
 -->
<!-- Title: src/frontends/frontend.h Pages: 1 -->
<svg width="1109pt" height="332pt"
 viewBox="0.00 0.00 1109.00 332.00" xmlns="http://www.w3.org/2000/svg" xmlns:xlink="http://www.w3.org/1999/xlink">
<g id="graph0" class="graph" transform="scale(1 1) rotate(0) translate(4 328)">
<title>src/frontends/frontend.h</title>
<polygon fill="white" stroke="none" points="-4,4 -4,-328 1105,-328 1105,4 -4,4"/>
<!-- Node1 -->
<g id="node1" class="node"><title>Node1</title>
<polygon fill="#bfbfbf" stroke="black" points="406,-304.5 406,-323.5 526,-323.5 526,-304.5 406,-304.5"/>
<text text-anchor="middle" x="466" y="-311.5" font-family="Helvetica,sans-Serif" font-size="10.00">src/frontends/frontend.h</text>
</g>
<!-- Node2 -->
<g id="node2" class="node"><title>Node2</title>
<g id="a_node2"><a xlink:href="icoordinates_8c.html" target="_top" xlink:title="src/icoordinates.c">
<polygon fill="white" stroke="black" points="142,-124.5 142,-143.5 236,-143.5 236,-124.5 142,-124.5"/>
<text text-anchor="middle" x="189" y="-131.5" font-family="Helvetica,sans-Serif" font-size="10.00">src/icoordinates.c</text>
</a>
</g>
</g>
<!-- Node1&#45;&gt;Node2 -->
<g id="edge1" class="edge"><title>Node1&#45;&gt;Node2</title>
<path fill="none" stroke="midnightblue" d="M442.57,-299.027C427.953,-290.242 408.791,-278.602 392,-268 319.322,-222.112 233.568,-164.902 201.729,-143.553"/>
<polygon fill="midnightblue" stroke="midnightblue" points="441.071,-302.209 451.448,-304.348 444.67,-296.205 441.071,-302.209"/>
</g>
<!-- Node3 -->
<g id="node3" class="node"><title>Node3</title>
<g id="a_node3"><a xlink:href="icoordinates_8h.html" target="_top" xlink:title="src/icoordinates.h">
<polygon fill="white" stroke="black" points="419,-248.5 419,-267.5 513,-267.5 513,-248.5 419,-248.5"/>
<text text-anchor="middle" x="466" y="-255.5" font-family="Helvetica,sans-Serif" font-size="10.00">src/icoordinates.h</text>
</a>
</g>
</g>
<!-- Node1&#45;&gt;Node3 -->
<g id="edge2" class="edge"><title>Node1&#45;&gt;Node3</title>
<path fill="none" stroke="midnightblue" d="M459.528,-294.101C458.896,-285.136 459.343,-274.858 460.869,-267.751"/>
<polygon fill="midnightblue" stroke="midnightblue" points="456.066,-294.622 460.834,-304.083 463.007,-293.713 456.066,-294.622"/>
</g>
<!-- Node5 -->
<g id="node5" class="node"><title>Node5</title>
<g id="a_node5"><a xlink:href="igraphics_8h.html" target="_top" xlink:title="src/igraphics.h">
<polygon fill="white" stroke="black" points="66,-62.5 66,-81.5 146,-81.5 146,-62.5 66,-62.5"/>
<text text-anchor="middle" x="106" y="-69.5" font-family="Helvetica,sans-Serif" font-size="10.00">src/igraphics.h</text>
</a>
</g>
</g>
<!-- Node1&#45;&gt;Node5 -->
<g id="edge37" class="edge"><title>Node1&#45;&gt;Node5</title>
<path fill="none" stroke="midnightblue" d="M395.657,-310.17C320.869,-303.412 203.818,-281.526 133,-212 96.337,-176.006 101.542,-106.137 104.689,-81.6956"/>
<polygon fill="midnightblue" stroke="midnightblue" points="395.664,-313.683 405.92,-311.026 396.246,-306.707 395.664,-313.683"/>
</g>
<!-- Node6 -->
<g id="node6" class="node"><title>Node6</title>
<g id="a_node6"><a xlink:href="igraphics_8c.html" target="_top" xlink:title="src/igraphics.c">
<polygon fill="white" stroke="black" points="145,-0.5 145,-19.5 225,-19.5 225,-0.5 145,-0.5"/>
<text text-anchor="middle" x="185" y="-7.5" font-family="Helvetica,sans-Serif" font-size="10.00">src/igraphics.c</text>
</a>
</g>
</g>
<!-- Node1&#45;&gt;Node6 -->
<g id="edge39" class="edge"><title>Node1&#45;&gt;Node6</title>
<path fill="none" stroke="midnightblue" d="M395.271,-310.002C264.925,-302.536 0,-277.463 0,-197 0,-197 0,-197 0,-133 0,-64.133 90.4478,-31.9256 144.858,-18.7811"/>
<polygon fill="midnightblue" stroke="midnightblue" points="395.378,-313.513 405.556,-310.571 395.765,-306.524 395.378,-313.513"/>
</g>
<!-- Node7 -->
<g id="node7" class="node"><title>Node7</title>
<g id="a_node7"><a xlink:href="inferno_8c.html" target="_top" xlink:title="src/inferno.c">
<polygon fill="white" stroke="black" points="656.5,-0.5 656.5,-19.5 727.5,-19.5 727.5,-0.5 656.5,-0.5"/>
<text text-anchor="middle" x="692" y="-7.5" font-family="Helvetica,sans-Serif" font-size="10.00">src/inferno.c</text>
</a>
</g>
</g>
<!-- Node1&#45;&gt;Node7 -->
<g id="edge40" class="edge"><title>Node1&#45;&gt;Node7</title>
<path fill="none" stroke="midnightblue" d="M536.443,-310.784C671.367,-304.614 953,-281.601 953,-197 953,-197 953,-197 953,-133 953,-34.7139 799.225,-15.4328 727.744,-11.7795"/>
<polygon fill="midnightblue" stroke="midnightblue" points="536.041,-307.298 526.204,-311.233 536.348,-314.291 536.041,-307.298"/>
</g>
<!-- Node8 -->
<g id="node8" class="node"><title>Node8</title>
<g id="a_node8"><a xlink:href="iprimitives_8h.html" target="_top" xlink:title="src/iprimitives.h">
<polygon fill="white" stroke="black" points="292,-124.5 292,-143.5 378,-143.5 378,-124.5 292,-124.5"/>
<text text-anchor="middle" x="335" y="-131.5" font-family="Helvetica,sans-Serif" font-size="10.00">src/iprimitives.h</text>
</a>
</g>
</g>
<!-- Node1&#45;&gt;Node8 -->
<g id="edge38" class="edge"><title>Node1&#45;&gt;Node8</title>
<path fill="none" stroke="midnightblue" d="M436.907,-298.994C424.616,-290.846 411.065,-279.861 401,-268 365.839,-226.565 338.897,-166.205 334.179,-143.799"/>
<polygon fill="midnightblue" stroke="midnightblue" points="435.23,-302.073 445.567,-304.397 438.935,-296.134 435.23,-302.073"/>
</g>
<!-- Node13 -->
<g id="node13" class="node"><title>Node13</title>
<g id="a_node13"><a xlink:href="frontend__opengl__linux_8c.html" target="_top" xlink:title="src/frontends/frontend\l_opengl_linux.c">
<polygon fill="white" stroke="black" points="747,-57 747,-87 859,-87 859,-57 747,-57"/>
<text text-anchor="start" x="755" y="-75" font-family="Helvetica,sans-Serif" font-size="10.00">src/frontends/frontend</text>
<text text-anchor="middle" x="803" y="-64" font-family="Helvetica,sans-Serif" font-size="10.00">_opengl_linux.c</text>
</a>
</g>
</g>
<!-- Node1&#45;&gt;Node13 -->
<g id="edge42" class="edge"><title>Node1&#45;&gt;Node13</title>
<path fill="none" stroke="midnightblue" d="M536.169,-306.85C646.121,-295.598 851.031,-267.569 895,-212 929.207,-168.768 861.56,-112.907 824.704,-87.1517"/>
<polygon fill="midnightblue" stroke="midnightblue" points="535.757,-303.374 526.157,-307.855 536.457,-310.339 535.757,-303.374"/>
</g>
<!-- Node15 -->
<g id="node15" class="node"><title>Node15</title>
<g id="a_node15"><a xlink:href="frontend__opengl__linux_8h.html" target="_top" xlink:title="src/frontends/frontend\l_opengl_linux.h">
<polygon fill="white" stroke="black" points="775,-181 775,-211 887,-211 887,-181 775,-181"/>
<text text-anchor="start" x="783" y="-199" font-family="Helvetica,sans-Serif" font-size="10.00">src/frontends/frontend</text>
<text text-anchor="middle" x="831" y="-188" font-family="Helvetica,sans-Serif" font-size="10.00">_opengl_linux.h</text>
</a>
</g>
</g>
<!-- Node1&#45;&gt;Node15 -->
<g id="edge43" class="edge"><title>Node1&#45;&gt;Node15</title>
<path fill="none" stroke="midnightblue" d="M502.61,-301.365C570.102,-279.916 713.88,-234.222 786.728,-211.07"/>
<polygon fill="midnightblue" stroke="midnightblue" points="501.31,-298.106 492.839,-304.47 503.43,-304.777 501.31,-298.106"/>
</g>
<!-- Node16 -->
<g id="node16" class="node"><title>Node16</title>
<g id="a_node16"><a xlink:href="frontend_8c.html" target="_top" xlink:title="src/frontends/frontend.c">
<polygon fill="white" stroke="black" points="981,-248.5 981,-267.5 1101,-267.5 1101,-248.5 981,-248.5"/>
<text text-anchor="middle" x="1041" y="-255.5" font-family="Helvetica,sans-Serif" font-size="10.00">src/frontends/frontend.c</text>
</a>
</g>
</g>
<!-- Node1&#45;&gt;Node16 -->
<g id="edge41" class="edge"><title>Node1&#45;&gt;Node16</title>
<path fill="none" stroke="midnightblue" d="M536.188,-307.396C633.149,-299.495 813.505,-284.224 967,-268 971.505,-267.524 976.161,-267.01 980.843,-266.477"/>
<polygon fill="midnightblue" stroke="midnightblue" points="535.896,-303.908 526.212,-308.207 536.463,-310.885 535.896,-303.908"/>
</g>
<!-- Node3&#45;&gt;Node1 -->
<g id="edge32" class="edge"><title>Node3&#45;&gt;Node1</title>
<path fill="none" stroke="midnightblue" d="M472.458,-277.691C473.106,-286.635 472.676,-296.927 471.166,-304.083"/>
<polygon fill="midnightblue" stroke="midnightblue" points="475.923,-277.2 471.131,-267.751 468.985,-278.126 475.923,-277.2"/>
</g>
<!-- Node3&#45;&gt;Node2 -->
<g id="edge3" class="edge"><title>Node3&#45;&gt;Node2</title>
<path fill="none" stroke="midnightblue" d="M438.423,-243.828C421.867,-235.491 400.662,-224.04 383,-212 364.756,-199.563 364.478,-190.398 345,-180 310.685,-161.681 268.034,-150.035 236.006,-143.192"/>
<polygon fill="midnightblue" stroke="midnightblue" points="437.057,-247.057 447.572,-248.358 440.163,-240.784 437.057,-247.057"/>
</g>
<!-- Node4 -->
<g id="node4" class="node"><title>Node4</title>
<g id="a_node4"><a xlink:href="iutils_8h.html" target="_top" xlink:title="src/iutils.h">
<polygon fill="white" stroke="black" points="435,-186.5 435,-205.5 497,-205.5 497,-186.5 435,-186.5"/>
<text text-anchor="middle" x="466" y="-193.5" font-family="Helvetica,sans-Serif" font-size="10.00">src/iutils.h</text>
</a>
</g>
</g>
<!-- Node3&#45;&gt;Node4 -->
<g id="edge4" class="edge"><title>Node3&#45;&gt;Node4</title>
<path fill="none" stroke="midnightblue" d="M466,-238.16C466,-227.248 466,-214.04 466,-205.581"/>
<polygon fill="midnightblue" stroke="midnightblue" points="462.5,-238.403 466,-248.403 469.5,-238.403 462.5,-238.403"/>
</g>
<!-- Node3&#45;&gt;Node5 -->
<g id="edge26" class="edge"><title>Node3&#45;&gt;Node5</title>
<path fill="none" stroke="midnightblue" d="M408.602,-254.156C332.888,-249.441 204.699,-237.83 166,-212 119.872,-181.211 109.023,-106.748 106.634,-81.5209"/>
<polygon fill="midnightblue" stroke="midnightblue" points="408.73,-257.67 418.922,-254.777 409.151,-250.683 408.73,-257.67"/>
</g>
<!-- Node3&#45;&gt;Node7 -->
<g id="edge28" class="edge"><title>Node3&#45;&gt;Node7</title>
<path fill="none" stroke="midnightblue" d="M522.97,-249.627C554.322,-243.448 592.693,-232.226 622,-212 653.092,-190.542 658.543,-178.902 673,-144 691.209,-100.04 692.463,-41.6848 692.221,-19.7919"/>
<polygon fill="midnightblue" stroke="midnightblue" points="522.254,-246.2 513.057,-251.461 523.527,-253.083 522.254,-246.2"/>
</g>
<!-- Node3&#45;&gt;Node8 -->
<g id="edge27" class="edge"><title>Node3&#45;&gt;Node8</title>
<path fill="none" stroke="midnightblue" d="M449.158,-241.315C421.231,-215.307 366.249,-164.102 344.336,-143.694"/>
<polygon fill="midnightblue" stroke="midnightblue" points="446.875,-243.972 456.579,-248.226 451.646,-238.85 446.875,-243.972"/>
</g>
<!-- Node10 -->
<g id="node10" class="node"><title>Node10</title>
<g id="a_node10"><a xlink:href="isimulation_8c.html" target="_top" xlink:title="src/isimulation.c">
<polygon fill="white" stroke="black" points="474,-0.5 474,-19.5 562,-19.5 562,-0.5 474,-0.5"/>
<text text-anchor="middle" x="518" y="-7.5" font-family="Helvetica,sans-Serif" font-size="10.00">src/isimulation.c</text>
</a>
</g>
</g>
<!-- Node3&#45;&gt;Node10 -->
<g id="edge30" class="edge"><title>Node3&#45;&gt;Node10</title>
<path fill="none" stroke="midnightblue" d="M510.203,-245.379C556.491,-230.522 626.477,-199.777 656,-144 686.743,-85.918 587.914,-38.2947 541.141,-19.5624"/>
<polygon fill="midnightblue" stroke="midnightblue" points="508.945,-242.104 500.422,-248.397 511.009,-248.793 508.945,-242.104"/>
</g>
<!-- Node11 -->
<g id="node11" class="node"><title>Node11</title>
<g id="a_node11"><a xlink:href="inferno_8h.html" target="_top" xlink:title="src/inferno.h">
<polygon fill="white" stroke="black" points="164.5,-62.5 164.5,-81.5 235.5,-81.5 235.5,-62.5 164.5,-62.5"/>
<text text-anchor="middle" x="200" y="-69.5" font-family="Helvetica,sans-Serif" font-size="10.00">src/inferno.h</text>
</a>
</g>
</g>
<!-- Node3&#45;&gt;Node11 -->
<g id="edge29" class="edge"><title>Node3&#45;&gt;Node11</title>
<path fill="none" stroke="midnightblue" d="M408.8,-256.472C331.481,-252.295 196.05,-231.976 133,-144 115.229,-119.204 155.572,-94.1758 181.092,-81.501"/>
<polygon fill="midnightblue" stroke="midnightblue" points="408.699,-259.971 418.852,-256.942 409.026,-252.979 408.699,-259.971"/>
</g>
<!-- Node3&#45;&gt;Node13 -->
<g id="edge33" class="edge"><title>Node3&#45;&gt;Node13</title>
<path fill="none" stroke="midnightblue" d="M523.226,-252.62C588.875,-246.635 691.523,-234.044 723,-212 767.701,-180.695 790.848,-115.846 799.243,-87.1684"/>
<polygon fill="midnightblue" stroke="midnightblue" points="522.675,-249.155 513.024,-253.524 523.294,-256.128 522.675,-249.155"/>
</g>
<!-- Node14 -->
<g id="node14" class="node"><title>Node14</title>
<g id="a_node14"><a xlink:href="iutils_8c.html" target="_top" xlink:title="src/iutils.c">
<polygon fill="white" stroke="black" points="586,-124.5 586,-143.5 648,-143.5 648,-124.5 586,-124.5"/>
<text text-anchor="middle" x="617" y="-131.5" font-family="Helvetica,sans-Serif" font-size="10.00">src/iutils.c</text>
</a>
</g>
</g>
<!-- Node3&#45;&gt;Node14 -->
<g id="edge31" class="edge"><title>Node3&#45;&gt;Node14</title>
<path fill="none" stroke="midnightblue" d="M485.001,-241.648C517.059,-215.747 580.872,-164.19 606.239,-143.694"/>
<polygon fill="midnightblue" stroke="midnightblue" points="482.438,-239.219 476.86,-248.226 486.838,-244.664 482.438,-239.219"/>
</g>
<!-- Node3&#45;&gt;Node15 -->
<g id="edge34" class="edge"><title>Node3&#45;&gt;Node15</title>
<path fill="none" stroke="midnightblue" d="M523.109,-249.319C582.659,-241.069 678.625,-227.095 761,-212 765.523,-211.171 770.201,-210.269 774.895,-209.331"/>
<polygon fill="midnightblue" stroke="midnightblue" points="522.578,-245.859 513.15,-250.693 523.534,-252.794 522.578,-245.859"/>
</g>
<!-- Node4&#45;&gt;Node2 -->
<g id="edge5" class="edge"><title>Node4&#45;&gt;Node2</title>
<path fill="none" stroke="midnightblue" d="M424.71,-186.056C371.787,-174.593 280.664,-154.855 228.579,-143.573"/>
<polygon fill="midnightblue" stroke="midnightblue" points="424.249,-189.537 434.763,-188.234 425.731,-182.696 424.249,-189.537"/>
</g>
<!-- Node4&#45;&gt;Node5 -->
<g id="edge6" class="edge"><title>Node4&#45;&gt;Node5</title>
<path fill="none" stroke="midnightblue" d="M424.825,-186.174C387.189,-177.489 330.349,-162.81 283,-144 265.263,-136.954 262.442,-131.749 245,-124 206.709,-106.989 160.827,-90.9646 132.545,-81.5668"/>
<polygon fill="midnightblue" stroke="midnightblue" points="424.381,-189.662 434.907,-188.463 425.931,-182.836 424.381,-189.662"/>
</g>
<!-- Node4&#45;&gt;Node6 -->
<g id="edge20" class="edge"><title>Node4&#45;&gt;Node6</title>
<path fill="none" stroke="midnightblue" d="M466.262,-176.213C465.591,-146.103 459.6,-87.2558 425,-56 396.216,-29.9982 285.944,-18.1758 225.395,-13.5476"/>
<polygon fill="midnightblue" stroke="midnightblue" points="462.762,-176.245 466.307,-186.229 469.762,-176.213 462.762,-176.245"/>
</g>
<!-- Node4&#45;&gt;Node7 -->
<g id="edge21" class="edge"><title>Node4&#45;&gt;Node7</title>
<path fill="none" stroke="midnightblue" d="M486.275,-180.273C513.851,-160.071 564.502,-122.349 606,-88 634.715,-64.2322 667.102,-34.3542 682.667,-19.7918"/>
<polygon fill="midnightblue" stroke="midnightblue" points="483.866,-177.698 477.855,-186.422 487.995,-183.352 483.866,-177.698"/>
</g>
<!-- Node4&#45;&gt;Node8 -->
<g id="edge9" class="edge"><title>Node4&#45;&gt;Node8</title>
<path fill="none" stroke="midnightblue" d="M438.098,-182.221C412.667,-170.573 375.801,-153.687 353.734,-143.581"/>
<polygon fill="midnightblue" stroke="midnightblue" points="436.682,-185.421 447.231,-186.403 439.597,-179.057 436.682,-185.421"/>
</g>
<!-- Node9 -->
<g id="node9" class="node"><title>Node9</title>
<g id="a_node9"><a xlink:href="isimulation_8h.html" target="_top" xlink:title="src/isimulation.h">
<polygon fill="white" stroke="black" points="510,-62.5 510,-81.5 598,-81.5 598,-62.5 510,-62.5"/>
<text text-anchor="middle" x="554" y="-69.5" font-family="Helvetica,sans-Serif" font-size="10.00">src/isimulation.h</text>
</a>
</g>
</g>
<!-- Node4&#45;&gt;Node9 -->
<g id="edge22" class="edge"><title>Node4&#45;&gt;Node9</title>
<path fill="none" stroke="midnightblue" d="M478.296,-177.953C497.335,-151.558 533.261,-101.752 547.729,-81.6944"/>
<polygon fill="midnightblue" stroke="midnightblue" points="475.34,-176.068 472.329,-186.226 481.017,-180.163 475.34,-176.068"/>
</g>
<!-- Node4&#45;&gt;Node10 -->
<g id="edge24" class="edge"><title>Node4&#45;&gt;Node10</title>
<path fill="none" stroke="midnightblue" d="M469.939,-176.543C475.819,-149.74 487.641,-98.5919 501,-56 505.049,-43.0908 510.781,-28.4995 514.445,-19.5245"/>
<polygon fill="midnightblue" stroke="midnightblue" points="466.491,-175.93 467.796,-186.444 473.333,-177.411 466.491,-175.93"/>
</g>
<!-- Node12 -->
<g id="node12" class="node"><title>Node12</title>
<g id="a_node12"><a xlink:href="iprimitives_8c.html" target="_top" xlink:title="src/iprimitives.c">
<polygon fill="white" stroke="black" points="330,-62.5 330,-81.5 416,-81.5 416,-62.5 330,-62.5"/>
<text text-anchor="middle" x="373" y="-69.5" font-family="Helvetica,sans-Serif" font-size="10.00">src/iprimitives.c</text>
</a>
</g>
</g>
<!-- Node4&#45;&gt;Node12 -->
<g id="edge23" class="edge"><title>Node4&#45;&gt;Node12</title>
<path fill="none" stroke="midnightblue" d="M453.005,-177.953C432.884,-151.558 394.917,-101.752 379.628,-81.6944"/>
<polygon fill="midnightblue" stroke="midnightblue" points="450.466,-180.395 459.312,-186.226 456.033,-176.151 450.466,-180.395"/>
</g>
<!-- Node4&#45;&gt;Node14 -->
<g id="edge25" class="edge"><title>Node4&#45;&gt;Node14</title>
<path fill="none" stroke="midnightblue" d="M497.006,-182.68C526.35,-171.02 569.634,-153.821 595.406,-143.581"/>
<polygon fill="midnightblue" stroke="midnightblue" points="495.635,-179.458 487.635,-186.403 498.22,-185.963 495.635,-179.458"/>
</g>
<!-- Node5&#45;&gt;Node6 -->
<g id="edge7" class="edge"><title>Node5&#45;&gt;Node6</title>
<path fill="none" stroke="midnightblue" d="M125.526,-56.1702C140.68,-44.6608 161.157,-29.1086 173.702,-19.5806"/>
<polygon fill="midnightblue" stroke="midnightblue" points="123.165,-53.5679 117.319,-62.4035 127.399,-59.1424 123.165,-53.5679"/>
</g>
<!-- Node5&#45;&gt;Node7 -->
<g id="edge8" class="edge"><title>Node5&#45;&gt;Node7</title>
<path fill="none" stroke="midnightblue" d="M140.084,-59.5513C145.045,-58.1822 150.124,-56.9394 155,-56 179.632,-51.2543 539.993,-22.8686 656.181,-13.7902"/>
<polygon fill="midnightblue" stroke="midnightblue" points="138.765,-56.2916 130.167,-62.4827 140.749,-63.0044 138.765,-56.2916"/>
</g>
<!-- Node8&#45;&gt;Node1 -->
<g id="edge18" class="edge"><title>Node8&#45;&gt;Node1</title>
<path fill="none" stroke="midnightblue" d="M347.977,-152.439C362.889,-179.182 387.685,-231.097 419,-268 431.427,-282.645 449.168,-295.955 459.373,-304.236"/>
<polygon fill="midnightblue" stroke="midnightblue" points="350.998,-150.673 342.936,-143.799 344.952,-154.2 350.998,-150.673"/>
</g>
<!-- Node8&#45;&gt;Node5 -->
<g id="edge10" class="edge"><title>Node8&#45;&gt;Node5</title>
<path fill="none" stroke="midnightblue" d="M288.459,-122.069C252.012,-113.339 200.106,-100.533 155,-88 147.8,-85.9993 140.049,-83.6966 132.884,-81.5054"/>
<polygon fill="midnightblue" stroke="midnightblue" points="287.771,-125.503 298.31,-124.42 289.396,-118.694 287.771,-125.503"/>
</g>
<!-- Node8&#45;&gt;Node6 -->
<g id="edge11" class="edge"><title>Node8&#45;&gt;Node6</title>
<path fill="none" stroke="midnightblue" d="M317.043,-117.341C298.849,-101.586 269.786,-76.7214 244,-56 227.933,-43.0888 208.903,-28.7385 196.89,-19.7914"/>
<polygon fill="midnightblue" stroke="midnightblue" points="315.194,-120.371 325.04,-124.285 319.784,-115.086 315.194,-120.371"/>
</g>
<!-- Node8&#45;&gt;Node9 -->
<g id="edge12" class="edge"><title>Node8&#45;&gt;Node9</title>
<path fill="none" stroke="midnightblue" d="M376.141,-121.729C418.682,-110.073 484.166,-92.1326 522.681,-81.5806"/>
<polygon fill="midnightblue" stroke="midnightblue" points="375.097,-118.385 366.377,-124.403 376.947,-125.137 375.097,-118.385"/>
</g>
<!-- Node8&#45;&gt;Node10 -->
<g id="edge17" class="edge"><title>Node8&#45;&gt;Node10</title>
<path fill="none" stroke="midnightblue" d="M324.665,-115.433C316.176,-98.4486 307.546,-72.8733 321,-56 339.754,-32.4785 421.794,-20.2763 473.909,-14.7837"/>
<polygon fill="midnightblue" stroke="midnightblue" points="321.635,-117.188 329.479,-124.31 327.788,-113.851 321.635,-117.188"/>
</g>
<!-- Node8&#45;&gt;Node11 -->
<g id="edge15" class="edge"><title>Node8&#45;&gt;Node11</title>
<path fill="none" stroke="midnightblue" d="M306.247,-120.221C280.038,-108.573 242.047,-91.6874 219.306,-81.5806"/>
<polygon fill="midnightblue" stroke="midnightblue" points="305.098,-123.54 315.658,-124.403 307.941,-117.144 305.098,-123.54"/>
</g>
<!-- Node8&#45;&gt;Node12 -->
<g id="edge16" class="edge"><title>Node8&#45;&gt;Node12</title>
<path fill="none" stroke="midnightblue" d="M345.854,-115.862C352.954,-104.652 361.926,-90.4852 367.566,-81.5806"/>
<polygon fill="midnightblue" stroke="midnightblue" points="342.838,-114.083 340.444,-124.403 348.752,-117.828 342.838,-114.083"/>
</g>
<!-- Node8&#45;&gt;Node13 -->
<g id="edge19" class="edge"><title>Node8&#45;&gt;Node13</title>
<path fill="none" stroke="midnightblue" d="M388.339,-126.162C477.406,-114.743 655.594,-91.8981 746.636,-80.2262"/>
<polygon fill="midnightblue" stroke="midnightblue" points="387.663,-122.72 378.189,-127.463 388.553,-129.663 387.663,-122.72"/>
</g>
<!-- Node9&#45;&gt;Node7 -->
<g id="edge13" class="edge"><title>Node9&#45;&gt;Node7</title>
<path fill="none" stroke="midnightblue" d="M583.039,-58.3743C609.841,-46.7215 648.917,-29.7319 672.265,-19.5806"/>
<polygon fill="midnightblue" stroke="midnightblue" points="581.547,-55.2064 573.772,-62.4035 584.338,-61.6259 581.547,-55.2064"/>
</g>
<!-- Node9&#45;&gt;Node10 -->
<g id="edge14" class="edge"><title>Node9&#45;&gt;Node10</title>
<path fill="none" stroke="midnightblue" d="M543.515,-53.5251C536.821,-42.3689 528.438,-28.3962 523.148,-19.5806"/>
<polygon fill="midnightblue" stroke="midnightblue" points="540.696,-55.6293 548.842,-62.4035 546.698,-52.0278 540.696,-55.6293"/>
</g>
<!-- Node15&#45;&gt;Node7 -->
<g id="edge35" class="edge"><title>Node15&#45;&gt;Node7</title>
<path fill="none" stroke="midnightblue" d="M847.591,-172.365C867.122,-142.715 893.717,-90.4563 867,-56 850.084,-34.184 773.713,-21.0955 727.633,-15.0456"/>
<polygon fill="midnightblue" stroke="midnightblue" points="844.581,-170.567 841.824,-180.797 850.359,-174.519 844.581,-170.567"/>
</g>
<!-- Node15&#45;&gt;Node13 -->
<g id="edge36" class="edge"><title>Node15&#45;&gt;Node13</title>
<path fill="none" stroke="midnightblue" d="M825.421,-170.691C819.676,-145.658 810.92,-107.508 806.231,-87.0787"/>
<polygon fill="midnightblue" stroke="midnightblue" points="822.03,-171.562 827.678,-180.526 828.852,-169.996 822.03,-171.562"/>
</g>
</g>
</svg>
