<?xml version="1.0" encoding="UTF-8" standalone="no"?>
<!DOCTYPE svg PUBLIC "-//W3C//DTD SVG 1.1//EN"
 "http://www.w3.org/Graphics/SVG/1.1/DTD/svg11.dtd">
<!-- Generated by graphviz version 2.36.0 (20140111.2315)
 -->
<!-- Title: frontend_initialize_viewspace Pages: 1 -->
<svg width="520pt" height="104pt"
 viewBox="0.00 0.00 520.00 104.00" xmlns="http://www.w3.org/2000/svg" xmlns:xlink="http://www.w3.org/1999/xlink">
<g id="graph0" class="graph" transform="scale(1 1) rotate(0) translate(4 100)">
<title>frontend_initialize_viewspace</title>
<polygon fill="white" stroke="none" points="-4,4 -4,-100 516,-100 516,4 -4,4"/>
<!-- Node1 -->
<g id="node1" class="node"><title>Node1</title>
<polygon fill="#bfbfbf" stroke="black" points="0,-14 0,-44 92,-44 92,-14 0,-14"/>
<text text-anchor="start" x="8" y="-32" font-family="Helvetica,sans-Serif" font-size="10.00">frontend_initialize</text>
<text text-anchor="middle" x="46" y="-21" font-family="Helvetica,sans-Serif" font-size="10.00">_viewspace</text>
</g>
<!-- Node2 -->
<g id="node2" class="node"><title>Node2</title>
<g id="a_node2"><a xlink:href="icoordinates_8c.html#a4507e51c1f2470e19e8ff5a77adf54bd" target="_top" xlink:title="icreate_region">
<polygon fill="white" stroke="black" points="138.5,-38.5 138.5,-57.5 215.5,-57.5 215.5,-38.5 138.5,-38.5"/>
<text text-anchor="middle" x="177" y="-45.5" font-family="Helvetica,sans-Serif" font-size="10.00">icreate_region</text>
</a>
</g>
</g>
<!-- Node1&#45;&gt;Node2 -->
<g id="edge1" class="edge"><title>Node1&#45;&gt;Node2</title>
<path fill="none" stroke="midnightblue" d="M92.1179,-35.6453C103.806,-37.3668 116.431,-39.2263 128.25,-40.967"/>
<polygon fill="midnightblue" stroke="midnightblue" points="127.981,-44.4651 138.384,-42.4597 129.001,-37.5399 127.981,-44.4651"/>
</g>
<!-- Node8 -->
<g id="node8" class="node"><title>Node8</title>
<g id="a_node8"><a xlink:href="frontend_8c.html#af20744b431ee1afa0043f15e5e2f9207" target="_top" xlink:title="inew_eventhandler">
<polygon fill="white" stroke="black" points="128,-0.5 128,-19.5 226,-19.5 226,-0.5 128,-0.5"/>
<text text-anchor="middle" x="177" y="-7.5" font-family="Helvetica,sans-Serif" font-size="10.00">inew_eventhandler</text>
</a>
</g>
</g>
<!-- Node1&#45;&gt;Node8 -->
<g id="edge10" class="edge"><title>Node1&#45;&gt;Node8</title>
<path fill="none" stroke="midnightblue" d="M92.1179,-22.3547C100.369,-21.1395 109.086,-19.8555 117.658,-18.5931"/>
<polygon fill="midnightblue" stroke="midnightblue" points="118.232,-22.0463 127.615,-17.1264 117.212,-15.121 118.232,-22.0463"/>
</g>
<!-- Node3 -->
<g id="node3" class="node"><title>Node3</title>
<g id="a_node3"><a xlink:href="iutils_8c.html#a168fc457c8928038cb3c471bc5fdf170" target="_top" xlink:title="inew_linked">
<polygon fill="white" stroke="black" points="268,-76.5 268,-95.5 336,-95.5 336,-76.5 268,-76.5"/>
<text text-anchor="middle" x="302" y="-83.5" font-family="Helvetica,sans-Serif" font-size="10.00">inew_linked</text>
</a>
</g>
</g>
<!-- Node2&#45;&gt;Node3 -->
<g id="edge2" class="edge"><title>Node2&#45;&gt;Node3</title>
<path fill="none" stroke="midnightblue" d="M209.038,-57.589C224.479,-62.3594 243.348,-68.1888 259.966,-73.3229"/>
<polygon fill="midnightblue" stroke="midnightblue" points="259.384,-76.8063 269.972,-76.4141 261.451,-70.1182 259.384,-76.8063"/>
</g>
<!-- Node6 -->
<g id="node6" class="node"><title>Node6</title>
<g id="a_node6"><a xlink:href="iutils_8c.html#acf8aca63685fbd6b4c995516baedab14" target="_top" xlink:title="igetfirst_linked">
<polygon fill="white" stroke="black" points="262,-38.5 262,-57.5 342,-57.5 342,-38.5 262,-38.5"/>
<text text-anchor="middle" x="302" y="-45.5" font-family="Helvetica,sans-Serif" font-size="10.00">igetfirst_linked</text>
</a>
</g>
</g>
<!-- Node2&#45;&gt;Node6 -->
<g id="edge6" class="edge"><title>Node2&#45;&gt;Node6</title>
<path fill="none" stroke="midnightblue" d="M215.572,-48C226.938,-48 239.595,-48 251.61,-48"/>
<polygon fill="midnightblue" stroke="midnightblue" points="251.955,-51.5001 261.955,-48 251.955,-44.5001 251.955,-51.5001"/>
</g>
<!-- Node7 -->
<g id="node7" class="node"><title>Node7</title>
<g id="a_node7"><a xlink:href="iutils_8c.html#a67413257923db7c88d91a7e706024e98" target="_top" xlink:title="iadd_linked">
<polygon fill="white" stroke="black" points="269.5,-0.5 269.5,-19.5 334.5,-19.5 334.5,-0.5 269.5,-0.5"/>
<text text-anchor="middle" x="302" y="-7.5" font-family="Helvetica,sans-Serif" font-size="10.00">iadd_linked</text>
</a>
</g>
</g>
<!-- Node2&#45;&gt;Node7 -->
<g id="edge8" class="edge"><title>Node2&#45;&gt;Node7</title>
<path fill="none" stroke="midnightblue" d="M209.038,-38.411C224.479,-33.6406 243.348,-27.8112 259.966,-22.6771"/>
<polygon fill="midnightblue" stroke="midnightblue" points="261.451,-25.8818 269.972,-19.5859 259.384,-19.1937 261.451,-25.8818"/>
</g>
<!-- Node4 -->
<g id="node4" class="node"><title>Node4</title>
<g id="a_node4"><a xlink:href="error_8c.html#ab10bea042bb9daa7a0e027197b8080e5" target="_top" xlink:title="ierror">
<polygon fill="white" stroke="black" points="378,-38.5 378,-57.5 416,-57.5 416,-38.5 378,-38.5"/>
<text text-anchor="middle" x="397" y="-45.5" font-family="Helvetica,sans-Serif" font-size="10.00">ierror</text>
</a>
</g>
</g>
<!-- Node3&#45;&gt;Node4 -->
<g id="edge3" class="edge"><title>Node3&#45;&gt;Node4</title>
<path fill="none" stroke="midnightblue" d="M326.468,-76.411C339.16,-71.2249 354.915,-64.7873 368.217,-59.352"/>
<polygon fill="midnightblue" stroke="midnightblue" points="369.887,-62.4508 377.82,-55.4283 367.239,-55.9708 369.887,-62.4508"/>
</g>
<!-- Node4&#45;&gt;Node4 -->
<g id="edge5" class="edge"><title>Node4&#45;&gt;Node4</title>
<path fill="none" stroke="midnightblue" d="M384.053,-57.7571C377.755,-66.5653 382.07,-76 397,-76 406.098,-76 411.254,-72.4965 412.469,-67.7663"/>
<polygon fill="midnightblue" stroke="midnightblue" points="415.784,-66.5986 409.947,-57.7571 408.997,-68.3092 415.784,-66.5986"/>
</g>
<!-- Node5 -->
<g id="node5" class="node"><title>Node5</title>
<g id="a_node5"><a xlink:href="error_8c.html#ac1727d6e8e99b92957a0a7099d19d6f4" target="_top" xlink:title="print_error">
<polygon fill="white" stroke="black" points="452,-38.5 452,-57.5 512,-57.5 512,-38.5 452,-38.5"/>
<text text-anchor="middle" x="482" y="-45.5" font-family="Helvetica,sans-Serif" font-size="10.00">print_error</text>
</a>
</g>
</g>
<!-- Node4&#45;&gt;Node5 -->
<g id="edge4" class="edge"><title>Node4&#45;&gt;Node5</title>
<path fill="none" stroke="midnightblue" d="M416.01,-48C423.631,-48 432.828,-48 441.874,-48"/>
<polygon fill="midnightblue" stroke="midnightblue" points="441.931,-51.5001 451.931,-48 441.931,-44.5001 441.931,-51.5001"/>
</g>
<!-- Node6&#45;&gt;Node4 -->
<g id="edge7" class="edge"><title>Node6&#45;&gt;Node4</title>
<path fill="none" stroke="midnightblue" d="M342.171,-48C350.635,-48 359.431,-48 367.399,-48"/>
<polygon fill="midnightblue" stroke="midnightblue" points="367.644,-51.5001 377.644,-48 367.644,-44.5001 367.644,-51.5001"/>
</g>
<!-- Node7&#45;&gt;Node4 -->
<g id="edge9" class="edge"><title>Node7&#45;&gt;Node4</title>
<path fill="none" stroke="midnightblue" d="M326.468,-19.589C339.16,-24.7751 354.915,-31.2127 368.217,-36.648"/>
<polygon fill="midnightblue" stroke="midnightblue" points="367.239,-40.0292 377.82,-40.5717 369.887,-33.5492 367.239,-40.0292"/>
</g>
</g>
</svg>
