<?xml version="1.0" encoding="UTF-8" standalone="no"?>
<!DOCTYPE svg PUBLIC "-//W3C//DTD SVG 1.1//EN"
 "http://www.w3.org/Graphics/SVG/1.1/DTD/svg11.dtd">
<!-- Generated by graphviz version 2.36.0 (20140111.2315)
 -->
<!-- Title: step Pages: 1 -->
<svg width="290pt" height="142pt"
 viewBox="0.00 0.00 290.00 142.00" xmlns="http://www.w3.org/2000/svg" xmlns:xlink="http://www.w3.org/1999/xlink">
<g id="graph0" class="graph" transform="scale(1 1) rotate(0) translate(4 138)">
<title>step</title>
<polygon fill="white" stroke="none" points="-4,4 -4,-138 286,-138 286,4 -4,4"/>
<!-- Node1 -->
<g id="node1" class="node"><title>Node1</title>
<polygon fill="#bfbfbf" stroke="black" points="0.5,-76.5 0.5,-95.5 35.5,-95.5 35.5,-76.5 0.5,-76.5"/>
<text text-anchor="middle" x="18" y="-83.5" font-family="Helvetica,sans-Serif" font-size="10.00">step</text>
</g>
<!-- Node2 -->
<g id="node2" class="node"><title>Node2</title>
<g id="a_node2"><a xlink:href="frontend__opengl__linux_8c.html#a740fe64ba30a741771700f190e164a9c" target="_top" xlink:title="frontend_update">
<polygon fill="white" stroke="black" points="95,-114.5 95,-133.5 181,-133.5 181,-114.5 95,-114.5"/>
<text text-anchor="middle" x="138" y="-121.5" font-family="Helvetica,sans-Serif" font-size="10.00">frontend_update</text>
</a>
</g>
</g>
<!-- Node1&#45;&gt;Node2 -->
<g id="edge1" class="edge"><title>Node1&#45;&gt;Node2</title>
<path fill="none" stroke="midnightblue" d="M35.6214,-92.2472C46.0218,-96.0842 59.7294,-101.011 72,-105 78.6859,-107.173 85.7948,-109.368 92.7643,-111.456"/>
<polygon fill="midnightblue" stroke="midnightblue" points="92.2284,-114.947 102.81,-114.422 94.211,-108.233 92.2284,-114.947"/>
</g>
<!-- Node3 -->
<g id="node3" class="node"><title>Node3</title>
<g id="a_node3"><a xlink:href="frontend__opengl__linux_8c.html#a5f1d2e26db40b3636fb218810a872a03" target="_top" xlink:title="frontend_free">
<polygon fill="white" stroke="black" points="101,-76.5 101,-95.5 175,-95.5 175,-76.5 101,-76.5"/>
<text text-anchor="middle" x="138" y="-83.5" font-family="Helvetica,sans-Serif" font-size="10.00">frontend_free</text>
</a>
</g>
</g>
<!-- Node1&#45;&gt;Node3 -->
<g id="edge2" class="edge"><title>Node1&#45;&gt;Node3</title>
<path fill="none" stroke="midnightblue" d="M35.6562,-86C49.9805,-86 71.3428,-86 90.7663,-86"/>
<polygon fill="midnightblue" stroke="midnightblue" points="90.9989,-89.5001 100.999,-86 90.9988,-82.5001 90.9989,-89.5001"/>
</g>
<!-- Node4 -->
<g id="node4" class="node"><title>Node4</title>
<g id="a_node4"><a xlink:href="frontend__opengl__linux_8c.html#ad8a729cc49f33a0037227c75e1979ada" target="_top" xlink:title="frontend_reset_viewspace">
<polygon fill="white" stroke="black" points="72.5,-38.5 72.5,-57.5 203.5,-57.5 203.5,-38.5 72.5,-38.5"/>
<text text-anchor="middle" x="138" y="-45.5" font-family="Helvetica,sans-Serif" font-size="10.00">frontend_reset_viewspace</text>
</a>
</g>
</g>
<!-- Node1&#45;&gt;Node4 -->
<g id="edge3" class="edge"><title>Node1&#45;&gt;Node4</title>
<path fill="none" stroke="midnightblue" d="M35.6214,-79.7528C46.0218,-75.9158 59.7294,-70.9889 72,-67 78.6859,-64.8266 85.7948,-62.6318 92.7643,-60.5443"/>
<polygon fill="midnightblue" stroke="midnightblue" points="94.211,-63.7666 102.81,-57.5776 92.2284,-57.0532 94.211,-63.7666"/>
</g>
<!-- Node5 -->
<g id="node5" class="node"><title>Node5</title>
<g id="a_node5"><a xlink:href="iprimitives_8c.html#afc34677b05531522408374dc02a31f40" target="_top" xlink:title="red">
<polygon fill="white" stroke="black" points="246,-76.5 246,-95.5 276,-95.5 276,-76.5 246,-76.5"/>
<text text-anchor="middle" x="261" y="-83.5" font-family="Helvetica,sans-Serif" font-size="10.00">red</text>
</a>
</g>
</g>
<!-- Node4&#45;&gt;Node5 -->
<g id="edge4" class="edge"><title>Node4&#45;&gt;Node5</title>
<path fill="none" stroke="midnightblue" d="M172.819,-57.5886C182.88,-60.5212 193.909,-63.815 204,-67 214.609,-70.3486 226.27,-74.2665 236.192,-77.6719"/>
<polygon fill="midnightblue" stroke="midnightblue" points="235.19,-81.0288 245.785,-80.9897 237.478,-74.4133 235.19,-81.0288"/>
</g>
<!-- Node6 -->
<g id="node6" class="node"><title>Node6</title>
<g id="a_node6"><a xlink:href="iprimitives_8c.html#abc6932dd227752af4dbf7fac0b6e3291" target="_top" xlink:title="green">
<polygon fill="white" stroke="black" points="240.5,-38.5 240.5,-57.5 281.5,-57.5 281.5,-38.5 240.5,-38.5"/>
<text text-anchor="middle" x="261" y="-45.5" font-family="Helvetica,sans-Serif" font-size="10.00">green</text>
</a>
</g>
</g>
<!-- Node4&#45;&gt;Node6 -->
<g id="edge5" class="edge"><title>Node4&#45;&gt;Node6</title>
<path fill="none" stroke="midnightblue" d="M203.751,-48C213.049,-48 222.213,-48 230.358,-48"/>
<polygon fill="midnightblue" stroke="midnightblue" points="230.404,-51.5001 240.404,-48 230.404,-44.5001 230.404,-51.5001"/>
</g>
<!-- Node7 -->
<g id="node7" class="node"><title>Node7</title>
<g id="a_node7"><a xlink:href="iprimitives_8c.html#a03066bd036a134534caeec08526b7269" target="_top" xlink:title="blue">
<polygon fill="white" stroke="black" points="243.5,-0.5 243.5,-19.5 278.5,-19.5 278.5,-0.5 243.5,-0.5"/>
<text text-anchor="middle" x="261" y="-7.5" font-family="Helvetica,sans-Serif" font-size="10.00">blue</text>
</a>
</g>
</g>
<!-- Node4&#45;&gt;Node7 -->
<g id="edge6" class="edge"><title>Node4&#45;&gt;Node7</title>
<path fill="none" stroke="midnightblue" d="M169.533,-38.411C189.263,-32.2149 214.681,-24.2323 233.549,-18.3071"/>
<polygon fill="midnightblue" stroke="midnightblue" points="234.787,-21.5868 243.279,-15.2513 232.689,-14.9084 234.787,-21.5868"/>
</g>
</g>
</svg>
