<?xml version="1.0" encoding="UTF-8" standalone="no"?>
<!DOCTYPE svg PUBLIC "-//W3C//DTD SVG 1.1//EN"
 "http://www.w3.org/Graphics/SVG/1.1/DTD/svg11.dtd">
<!-- Generated by graphviz version 2.36.0 (20140111.2315)
 -->
<!-- Title: iprint_point Pages: 1 -->
<svg width="252pt" height="28pt"
 viewBox="0.00 0.00 252.00 28.00" xmlns="http://www.w3.org/2000/svg" xmlns:xlink="http://www.w3.org/1999/xlink">
<g id="graph0" class="graph" transform="scale(1 1) rotate(0) translate(4 24)">
<title>iprint_point</title>
<polygon fill="white" stroke="none" points="-4,4 -4,-24 248,-24 248,4 -4,4"/>
<!-- Node1 -->
<g id="node1" class="node"><title>Node1</title>
<polygon fill="#bfbfbf" stroke="black" points="0,-0.5 0,-19.5 64,-19.5 64,-0.5 0,-0.5"/>
<text text-anchor="middle" x="32" y="-7.5" font-family="Helvetica,sans-Serif" font-size="10.00">iprint_point</text>
</g>
<!-- Node2 -->
<g id="node2" class="node"><title>Node2</title>
<g id="a_node2"><a xlink:href="iprimitives_8h.html#ad14816b7b9d9bc34ae7098efadf43add" target="_top" xlink:title="iprint_object">
<polygon fill="white" stroke="black" points="100.5,-0.5 100.5,-19.5 169.5,-19.5 169.5,-0.5 100.5,-0.5"/>
<text text-anchor="middle" x="135" y="-7.5" font-family="Helvetica,sans-Serif" font-size="10.00">iprint_object</text>
</a>
</g>
</g>
<!-- Node1&#45;&gt;Node2 -->
<g id="edge1" class="edge"><title>Node1&#45;&gt;Node2</title>
<path fill="none" stroke="midnightblue" d="M74.4031,-10C83.0345,-10 92.0325,-10 100.343,-10"/>
<polygon fill="midnightblue" stroke="midnightblue" points="74.1275,-6.5001 64.1275,-10 74.1274,-13.5001 74.1275,-6.5001"/>
</g>
<!-- Node3 -->
<g id="node3" class="node"><title>Node3</title>
<g id="a_node3"><a xlink:href="inferno_8c.html#a0ddf1224851353fc92bfbff6f499fa97" target="_top" xlink:title="main">
<polygon fill="white" stroke="black" points="206,-0.5 206,-19.5 244,-19.5 244,-0.5 206,-0.5"/>
<text text-anchor="middle" x="225" y="-7.5" font-family="Helvetica,sans-Serif" font-size="10.00">main</text>
</a>
</g>
</g>
<!-- Node2&#45;&gt;Node3 -->
<g id="edge2" class="edge"><title>Node2&#45;&gt;Node3</title>
<path fill="none" stroke="midnightblue" d="M179.735,-10C188.862,-10 198.004,-10 205.591,-10"/>
<polygon fill="midnightblue" stroke="midnightblue" points="179.52,-6.5001 169.52,-10 179.52,-13.5001 179.52,-6.5001"/>
</g>
</g>
</svg>
