<?xml version="1.0" encoding="UTF-8" standalone="no"?>
<!DOCTYPE svg PUBLIC "-//W3C//DTD SVG 1.1//EN"
 "http://www.w3.org/Graphics/SVG/1.1/DTD/svg11.dtd">
<!-- Generated by graphviz version 2.36.0 (20140111.2315)
 -->
<!-- Title: src/icoordinates.c Pages: 1 -->
<!--zoomable 308 -->
<svg id="main" version="1.1" xmlns="http://www.w3.org/2000/svg" xmlns:xlink="http://www.w3.org/1999/xlink" xml:space="preserve" onload="init(evt)">
<style type="text/css"><![CDATA[
.edge:hover path { stroke: red; }
.edge:hover polygon { stroke: red; fill: red; }
]]></style>
<script type="text/javascript"><![CDATA[
var edges = document.getElementsByTagName('g');
if (edges && edges.length) {
  for (var i=0;i<edges.length;i++) {
    if (edges[i].id.substr(0,4)=='edge') {
      edges[i].setAttribute('class','edge');
    }
  }
}
]]></script>
        <defs>
                <circle id="rim" cx="0" cy="0" r="7"/>
                <circle id="rim2" cx="0" cy="0" r="3.5"/>
                <g id="zoomPlus">
                        <use xlink:href="#rim" fill="#404040">
                                <set attributeName="fill" to="#808080" begin="zoomplus.mouseover" end="zoomplus.mouseout"/>
                        </use>
                        <path d="M-4,0h8M0,-4v8" fill="none" stroke="white" stroke-width="1.5" pointer-events="none"/>
                </g>
                <g id="zoomMin">
                        <use xlink:href="#rim" fill="#404040">
                                <set attributeName="fill" to="#808080" begin="zoomminus.mouseover" end="zoomminus.mouseout"/>
                        </use>
                        <path d="M-4,0h8" fill="none" stroke="white" stroke-width="1.5" pointer-events="none"/>
                </g>
                <g id="dirArrow">
                        <path fill="none" stroke="white" stroke-width="1.5" d="M0,-3.0v7 M-2.5,-0.5L0,-3.0L2.5,-0.5"/>
                </g>
               <g id="resetDef">
                       <use xlink:href="#rim2" fill="#404040">
                               <set attributeName="fill" to="#808080" begin="reset.mouseover" end="reset.mouseout"/>
                       </use>
               </g>
        </defs>

<script type="text/javascript">
var viewWidth = 692;
var viewHeight = 308;
var sectionId = 'dynsection-0';
</script>
<script xlink:href="svgpan.js"/>
<svg id="graph" class="graph">
<g id="viewport">
<title>src/icoordinates.c</title>
<polygon fill="white" stroke="none" points="-4,4 -4,-304 688,-304 688,4 -4,4"/>
<!-- Node1 -->
<g id="node1" class="node"><title>Node1</title>
<polygon fill="#bfbfbf" stroke="black" points="356,-280.5 356,-299.5 450,-299.5 450,-280.5 356,-280.5"/>
<text text-anchor="middle" x="403" y="-287.5" font-family="Helvetica,sans-Serif" font-size="10.00">src/icoordinates.c</text>
</g>
<!-- Node2 -->
<g id="node2" class="node"><title>Node2</title>
<g id="a_node2"><a xlink:href="frontend_8h.html" target="_top" xlink:title="frontend.h">
<polygon fill="white" stroke="black" points="193,-224.5 193,-243.5 253,-243.5 253,-224.5 193,-224.5"/>
<text text-anchor="middle" x="223" y="-231.5" font-family="Helvetica,sans-Serif" font-size="10.00">frontend.h</text>
</a>
</g>
</g>
<!-- Node1&#45;&gt;Node2 -->
<g id="edge1" class="edge"><title>Node1&#45;&gt;Node2</title>
<path fill="none" stroke="midnightblue" d="M374.478,-280.444C343.934,-271.28 295.292,-256.688 261.397,-246.519"/>
<polygon fill="midnightblue" stroke="midnightblue" points="261.972,-243.038 251.388,-243.516 259.961,-249.742 261.972,-243.038"/>
</g>
<!-- Node4 -->
<g id="node4" class="node"><title>Node4</title>
<g id="a_node4"><a xlink:href="iutils_8h.html" target="_top" xlink:title="iutils.h">
<polygon fill="white" stroke="black" points="273.5,-112.5 273.5,-131.5 318.5,-131.5 318.5,-112.5 273.5,-112.5"/>
<text text-anchor="middle" x="296" y="-119.5" font-family="Helvetica,sans-Serif" font-size="10.00">iutils.h</text>
</a>
</g>
</g>
<!-- Node1&#45;&gt;Node4 -->
<g id="edge15" class="edge"><title>Node1&#45;&gt;Node4</title>
<path fill="none" stroke="midnightblue" d="M401.653,-280.235C398.033,-259.046 386.449,-204.132 359,-168 349.251,-155.167 334.815,-144.484 322.22,-136.752"/>
<polygon fill="midnightblue" stroke="midnightblue" points="323.871,-133.663 313.468,-131.655 320.348,-139.712 323.871,-133.663"/>
</g>
<!-- Node5 -->
<g id="node5" class="node"><title>Node5</title>
<g id="a_node5"><a xlink:href="icoordinates_8h.html" target="_top" xlink:title="icoordinates.h">
<polygon fill="white" stroke="black" points="116.5,-56.5 116.5,-75.5 193.5,-75.5 193.5,-56.5 116.5,-56.5"/>
<text text-anchor="middle" x="155" y="-63.5" font-family="Helvetica,sans-Serif" font-size="10.00">icoordinates.h</text>
</a>
</g>
</g>
<!-- Node1&#45;&gt;Node5 -->
<g id="edge13" class="edge"><title>Node1&#45;&gt;Node5</title>
<path fill="none" stroke="midnightblue" d="M355.767,-282.753C268.958,-270.139 89.8939,-238.454 57,-188 29.9157,-146.457 91.9758,-102.317 129.325,-80.6355"/>
<polygon fill="midnightblue" stroke="midnightblue" points="131.226,-83.5818 138.219,-75.6225 127.789,-77.4838 131.226,-83.5818"/>
</g>
<!-- Node6 -->
<g id="node6" class="node"><title>Node6</title>
<g id="a_node6"><a xlink:href="itypes_8h.html" target="_top" xlink:title="itypes.h">
<polygon fill="white" stroke="black" points="129.5,-0.5 129.5,-19.5 180.5,-19.5 180.5,-0.5 129.5,-0.5"/>
<text text-anchor="middle" x="155" y="-7.5" font-family="Helvetica,sans-Serif" font-size="10.00">itypes.h</text>
</a>
</g>
</g>
<!-- Node1&#45;&gt;Node6 -->
<g id="edge16" class="edge"><title>Node1&#45;&gt;Node6</title>
<path fill="none" stroke="midnightblue" d="M355.982,-286.101C249.675,-278.261 0,-252.069 0,-179 0,-179 0,-179 0,-121 0,-62.713 73.796,-32.4909 119.549,-19.3547"/>
<polygon fill="midnightblue" stroke="midnightblue" points="120.681,-22.674 129.405,-16.6627 118.836,-15.9214 120.681,-22.674"/>
</g>
<!-- Node9 -->
<g id="node9" class="node"><title>Node9</title>
<g id="a_node9"><a xlink:href="error_8h.html" target="_top" xlink:title="error.h">
<polygon fill="white" stroke="black" points="406,-224.5 406,-243.5 450,-243.5 450,-224.5 406,-224.5"/>
<text text-anchor="middle" x="428" y="-231.5" font-family="Helvetica,sans-Serif" font-size="10.00">error.h</text>
</a>
</g>
</g>
<!-- Node1&#45;&gt;Node9 -->
<g id="edge14" class="edge"><title>Node1&#45;&gt;Node9</title>
<path fill="none" stroke="midnightblue" d="M407.128,-280.083C410.514,-272.77 415.416,-262.181 419.619,-253.103"/>
<polygon fill="midnightblue" stroke="midnightblue" points="422.923,-254.296 423.949,-243.751 416.571,-251.355 422.923,-254.296"/>
</g>
<!-- Node10 -->
<g id="node10" class="node"><title>Node10</title>
<g id="a_node10"><a xlink:href="iprettyconsole_8h.html" target="_top" xlink:title="iprettyconsole.h">
<polygon fill="white" stroke="black" points="468,-224.5 468,-243.5 554,-243.5 554,-224.5 468,-224.5"/>
<text text-anchor="middle" x="511" y="-231.5" font-family="Helvetica,sans-Serif" font-size="10.00">iprettyconsole.h</text>
</a>
</g>
</g>
<!-- Node1&#45;&gt;Node10 -->
<g id="edge17" class="edge"><title>Node1&#45;&gt;Node10</title>
<path fill="none" stroke="midnightblue" d="M420.352,-280.324C437.672,-271.664 464.515,-258.242 484.502,-248.249"/>
<polygon fill="midnightblue" stroke="midnightblue" points="486.312,-251.257 493.691,-243.655 483.181,-244.996 486.312,-251.257"/>
</g>
<!-- Node11 -->
<g id="node11" class="node"><title>Node11</title>
<polygon fill="white" stroke="#bfbfbf" points="572,-224.5 572,-243.5 620,-243.5 620,-224.5 572,-224.5"/>
<text text-anchor="middle" x="596" y="-231.5" font-family="Helvetica,sans-Serif" font-size="10.00">stdlib.h</text>
</g>
<!-- Node1&#45;&gt;Node11 -->
<g id="edge18" class="edge"><title>Node1&#45;&gt;Node11</title>
<path fill="none" stroke="midnightblue" d="M433.581,-280.444C468.655,-270.63 525.982,-254.591 562.31,-244.426"/>
<polygon fill="midnightblue" stroke="midnightblue" points="563.277,-247.79 571.964,-241.725 561.391,-241.049 563.277,-247.79"/>
</g>
<!-- Node12 -->
<g id="node12" class="node"><title>Node12</title>
<polygon fill="white" stroke="#bfbfbf" points="638,-224.5 638,-243.5 684,-243.5 684,-224.5 638,-224.5"/>
<text text-anchor="middle" x="661" y="-231.5" font-family="Helvetica,sans-Serif" font-size="10.00">stdio.h</text>
</g>
<!-- Node1&#45;&gt;Node12 -->
<g id="edge19" class="edge"><title>Node1&#45;&gt;Node12</title>
<path fill="none" stroke="midnightblue" d="M450.414,-280.666C494.153,-272.73 561.087,-259.961 628.099,-244.071"/>
<polygon fill="midnightblue" stroke="midnightblue" points="629.074,-247.436 637.984,-241.704 627.444,-240.629 629.074,-247.436"/>
</g>
<!-- Node3 -->
<g id="node3" class="node"><title>Node3</title>
<g id="a_node3"><a xlink:href="iprimitives_8h.html" target="_top" xlink:title="../iprimitives.h">
<polygon fill="white" stroke="black" points="272,-168.5 272,-187.5 350,-187.5 350,-168.5 272,-168.5"/>
<text text-anchor="middle" x="311" y="-175.5" font-family="Helvetica,sans-Serif" font-size="10.00">../iprimitives.h</text>
</a>
</g>
</g>
<!-- Node2&#45;&gt;Node3 -->
<g id="edge2" class="edge"><title>Node2&#45;&gt;Node3</title>
<path fill="none" stroke="midnightblue" d="M232.024,-224.324C244.15,-215.743 265.479,-202.486 283.025,-192.522"/>
<polygon fill="midnightblue" stroke="midnightblue" points="284.745,-195.571 291.786,-187.655 281.345,-189.452 284.745,-195.571"/>
</g>
<!-- Node2&#45;&gt;Node5 -->
<g id="edge10" class="edge"><title>Node2&#45;&gt;Node5</title>
<path fill="none" stroke="midnightblue" d="M205.922,-224.396C194.703,-216.027 181.487,-202.486 174,-188 156.736,-154.597 150,-110.556 150.304,-85.869"/>
<polygon fill="midnightblue" stroke="midnightblue" points="153.808,-85.9214 150.964,-75.7153 146.822,-85.4671 153.808,-85.9214"/>
</g>
<!-- Node7 -->
<g id="node7" class="node"><title>Node7</title>
<polygon fill="white" stroke="#bfbfbf" points="66,-168.5 66,-187.5 118,-187.5 118,-168.5 66,-168.5"/>
<text text-anchor="middle" x="92" y="-175.5" font-family="Helvetica,sans-Serif" font-size="10.00">X11/X.h</text>
</g>
<!-- Node2&#45;&gt;Node7 -->
<g id="edge11" class="edge"><title>Node2&#45;&gt;Node7</title>
<path fill="none" stroke="midnightblue" d="M202.243,-224.444C180.684,-215.557 146.737,-201.563 122.206,-191.451"/>
<polygon fill="midnightblue" stroke="midnightblue" points="123.239,-188.092 112.66,-187.516 120.572,-194.563 123.239,-188.092"/>
</g>
<!-- Node8 -->
<g id="node8" class="node"><title>Node8</title>
<polygon fill="white" stroke="#bfbfbf" points="192,-168.5 192,-187.5 254,-187.5 254,-168.5 192,-168.5"/>
<text text-anchor="middle" x="223" y="-175.5" font-family="Helvetica,sans-Serif" font-size="10.00">X11/Xlib.h</text>
</g>
<!-- Node2&#45;&gt;Node8 -->
<g id="edge12" class="edge"><title>Node2&#45;&gt;Node8</title>
<path fill="none" stroke="midnightblue" d="M223,-224.083C223,-217.006 223,-206.861 223,-197.986"/>
<polygon fill="midnightblue" stroke="midnightblue" points="226.5,-197.751 223,-187.751 219.5,-197.751 226.5,-197.751"/>
</g>
<!-- Node3&#45;&gt;Node2 -->
<g id="edge3" class="edge"><title>Node3&#45;&gt;Node2</title>
<path fill="none" stroke="midnightblue" d="M301.753,-187.834C289.699,-196.342 268.793,-209.339 251.446,-219.21"/>
<polygon fill="midnightblue" stroke="midnightblue" points="249.291,-216.404 242.254,-224.324 252.694,-222.521 249.291,-216.404"/>
</g>
<!-- Node3&#45;&gt;Node4 -->
<g id="edge4" class="edge"><title>Node3&#45;&gt;Node4</title>
<path fill="none" stroke="midnightblue" d="M308.523,-168.083C306.514,-160.849 303.614,-150.409 301.11,-141.397"/>
<polygon fill="midnightblue" stroke="midnightblue" points="304.48,-140.449 298.431,-131.751 297.735,-142.323 304.48,-140.449"/>
</g>
<!-- Node3&#45;&gt;Node5 -->
<g id="edge9" class="edge"><title>Node3&#45;&gt;Node5</title>
<path fill="none" stroke="midnightblue" d="M298.759,-168.368C272.103,-149.573 208.562,-104.768 175.611,-81.5334"/>
<polygon fill="midnightblue" stroke="midnightblue" points="177.374,-78.4938 167.184,-75.5914 173.34,-84.2146 177.374,-78.4938"/>
</g>
<!-- Node4&#45;&gt;Node5 -->
<g id="edge5" class="edge"><title>Node4&#45;&gt;Node5</title>
<path fill="none" stroke="midnightblue" d="M273.658,-112.444C250.247,-103.478 213.264,-89.314 186.81,-79.1827"/>
<polygon fill="midnightblue" stroke="midnightblue" points="187.828,-75.8245 177.237,-75.5164 185.324,-82.3615 187.828,-75.8245"/>
</g>
<!-- Node4&#45;&gt;Node6 -->
<g id="edge8" class="edge"><title>Node4&#45;&gt;Node6</title>
<path fill="none" stroke="midnightblue" d="M284.936,-112.368C260.946,-93.6531 203.902,-49.1509 174.012,-25.8324"/>
<polygon fill="midnightblue" stroke="midnightblue" points="176.05,-22.9829 166.013,-19.5914 171.744,-28.502 176.05,-22.9829"/>
</g>
<!-- Node5&#45;&gt;Node2 -->
<g id="edge6" class="edge"><title>Node5&#45;&gt;Node2</title>
<path fill="none" stroke="midnightblue" d="M160.121,-75.7153C166.13,-96.3394 172.002,-149.307 192,-188 197.498,-198.638 206.086,-208.767 213.09,-216.712"/>
<polygon fill="midnightblue" stroke="midnightblue" points="210.616,-219.198 219.848,-224.396 215.873,-214.576 210.616,-219.198"/>
</g>
<!-- Node5&#45;&gt;Node6 -->
<g id="edge7" class="edge"><title>Node5&#45;&gt;Node6</title>
<path fill="none" stroke="midnightblue" d="M155,-56.083C155,-49.0059 155,-38.8611 155,-29.9865"/>
<polygon fill="midnightblue" stroke="midnightblue" points="158.5,-29.751 155,-19.7511 151.5,-29.7511 158.5,-29.751"/>
</g>
</g>
</svg>
        <g id="navigator" transform="translate(0 0)" fill="#404254">
                <rect fill="#f2f5e9" fill-opacity="0.5" stroke="#606060" stroke-width=".5" x="0" y="0" width="60" height="60"/>
                <use id="zoomplus" xlink:href="#zoomPlus" x="17" y="9" onmousedown="handleZoom(evt,'in')"/>
                <use id="zoomminus" xlink:href="#zoomMin" x="42" y="9" onmousedown="handleZoom(evt,'out')"/>
                <use id="reset" xlink:href="#resetDef" x="30" y="36" onmousedown="handleReset()"/>
                <g id="arrowUp" xlink:href="#dirArrow" transform="translate(30 24)" onmousedown="handlePan(0,-1)">
                  <use xlink:href="#rim" fill="#404040">
                        <set attributeName="fill" to="#808080" begin="arrowUp.mouseover" end="arrowUp.mouseout"/>
                  </use>
                  <path fill="none" stroke="white" stroke-width="1.5" d="M0,-3.0v7 M-2.5,-0.5L0,-3.0L2.5,-0.5"/>
                </g>
                <g id="arrowRight" xlink:href="#dirArrow" transform="rotate(90) translate(36 -43)" onmousedown="handlePan(1,0)">
                  <use xlink:href="#rim" fill="#404040">
                        <set attributeName="fill" to="#808080" begin="arrowRight.mouseover" end="arrowRight.mouseout"/>
                  </use>
                  <path fill="none" stroke="white" stroke-width="1.5" d="M0,-3.0v7 M-2.5,-0.5L0,-3.0L2.5,-0.5"/>
                </g>
                <g id="arrowDown" xlink:href="#dirArrow" transform="rotate(180) translate(-30 -48)" onmousedown="handlePan(0,1)">
                  <use xlink:href="#rim" fill="#404040">
                        <set attributeName="fill" to="#808080" begin="arrowDown.mouseover" end="arrowDown.mouseout"/>
                  </use>
                  <path fill="none" stroke="white" stroke-width="1.5" d="M0,-3.0v7 M-2.5,-0.5L0,-3.0L2.5,-0.5"/>
                </g>
                <g id="arrowLeft" xlink:href="#dirArrow" transform="rotate(270) translate(-36 17)" onmousedown="handlePan(-1,0)">
                  <use xlink:href="#rim" fill="#404040">
                        <set attributeName="fill" to="#808080" begin="arrowLeft.mouseover" end="arrowLeft.mouseout"/>
                  </use>
                  <path fill="none" stroke="white" stroke-width="1.5" d="M0,-3.0v7 M-2.5,-0.5L0,-3.0L2.5,-0.5"/>
                </g>
        </g>
        <svg viewBox="0 0 15 15" width="100%" height="30px" preserveAspectRatio="xMaxYMin meet">
         <g id="arrow_out" transform="scale(0.3 0.3)">
          <a xlink:href="icoordinates_8c__incl_org.svg" target="_base">
           <rect id="button" ry="5" rx="5" y="6" x="6" height="38" width="38"
                fill="#f2f5e9" fill-opacity="0.5" stroke="#606060" stroke-width="1.0"/>
           <path id="arrow"
             d="M 11.500037,31.436501 C 11.940474,20.09759 22.043105,11.32322 32.158766,21.979434 L 37.068811,17.246167 C 37.068811,17.246167 37.088388,32 37.088388,32 L 22.160133,31.978069 C 22.160133,31.978069 26.997745,27.140456 26.997745,27.140456 C 18.528582,18.264221 13.291696,25.230495 11.500037,31.436501 z"
             style="fill:#404040;"/>
          </a>
         </g>
        </svg>
</svg>
