<?xml version="1.0" encoding="UTF-8" standalone="no"?>
<!DOCTYPE svg PUBLIC "-//W3C//DTD SVG 1.1//EN"
 "http://www.w3.org/Graphics/SVG/1.1/DTD/svg11.dtd">
<!-- Generated by graphviz version 2.36.0 (20140111.2315)
 -->
<!-- Title: icreate_region Pages: 1 -->
<svg width="372pt" height="104pt"
 viewBox="0.00 0.00 372.00 104.00" xmlns="http://www.w3.org/2000/svg" xmlns:xlink="http://www.w3.org/1999/xlink">
<g id="graph0" class="graph" transform="scale(1 1) rotate(0) translate(4 100)">
<title>icreate_region</title>
<polygon fill="white" stroke="none" points="-4,4 -4,-100 368,-100 368,4 -4,4"/>
<!-- Node1 -->
<g id="node1" class="node"><title>Node1</title>
<polygon fill="#bfbfbf" stroke="black" points="0.5,-38.5 0.5,-57.5 77.5,-57.5 77.5,-38.5 0.5,-38.5"/>
<text text-anchor="middle" x="39" y="-45.5" font-family="Helvetica,sans-Serif" font-size="10.00">icreate_region</text>
</g>
<!-- Node2 -->
<g id="node2" class="node"><title>Node2</title>
<g id="a_node2"><a xlink:href="iutils_8c.html#a168fc457c8928038cb3c471bc5fdf170" target="_top" xlink:title="inew_linked">
<polygon fill="white" stroke="black" points="120,-76.5 120,-95.5 188,-95.5 188,-76.5 120,-76.5"/>
<text text-anchor="middle" x="154" y="-83.5" font-family="Helvetica,sans-Serif" font-size="10.00">inew_linked</text>
</a>
</g>
</g>
<!-- Node1&#45;&gt;Node2 -->
<g id="edge1" class="edge"><title>Node1&#45;&gt;Node2</title>
<path fill="none" stroke="midnightblue" d="M68.5147,-57.589C82.5666,-62.3144 99.7082,-68.0789 114.87,-73.1774"/>
<polygon fill="midnightblue" stroke="midnightblue" points="113.9,-76.544 124.494,-76.4141 116.132,-69.9091 113.9,-76.544"/>
</g>
<!-- Node5 -->
<g id="node5" class="node"><title>Node5</title>
<g id="a_node5"><a xlink:href="iutils_8c.html#acf8aca63685fbd6b4c995516baedab14" target="_top" xlink:title="igetfirst_linked">
<polygon fill="white" stroke="black" points="114,-38.5 114,-57.5 194,-57.5 194,-38.5 114,-38.5"/>
<text text-anchor="middle" x="154" y="-45.5" font-family="Helvetica,sans-Serif" font-size="10.00">igetfirst_linked</text>
</a>
</g>
</g>
<!-- Node1&#45;&gt;Node5 -->
<g id="edge5" class="edge"><title>Node1&#45;&gt;Node5</title>
<path fill="none" stroke="midnightblue" d="M77.6274,-48C86.0259,-48 95.0529,-48 103.839,-48"/>
<polygon fill="midnightblue" stroke="midnightblue" points="103.991,-51.5001 113.991,-48 103.991,-44.5001 103.991,-51.5001"/>
</g>
<!-- Node6 -->
<g id="node6" class="node"><title>Node6</title>
<g id="a_node6"><a xlink:href="iutils_8c.html#a67413257923db7c88d91a7e706024e98" target="_top" xlink:title="iadd_linked">
<polygon fill="white" stroke="black" points="121.5,-0.5 121.5,-19.5 186.5,-19.5 186.5,-0.5 121.5,-0.5"/>
<text text-anchor="middle" x="154" y="-7.5" font-family="Helvetica,sans-Serif" font-size="10.00">iadd_linked</text>
</a>
</g>
</g>
<!-- Node1&#45;&gt;Node6 -->
<g id="edge7" class="edge"><title>Node1&#45;&gt;Node6</title>
<path fill="none" stroke="midnightblue" d="M68.5147,-38.411C82.5666,-33.6856 99.7082,-27.9211 114.87,-22.8226"/>
<polygon fill="midnightblue" stroke="midnightblue" points="116.132,-26.0909 124.494,-19.5859 113.9,-19.456 116.132,-26.0909"/>
</g>
<!-- Node3 -->
<g id="node3" class="node"><title>Node3</title>
<g id="a_node3"><a xlink:href="error_8c.html#ab10bea042bb9daa7a0e027197b8080e5" target="_top" xlink:title="ierror">
<polygon fill="white" stroke="black" points="230,-38.5 230,-57.5 268,-57.5 268,-38.5 230,-38.5"/>
<text text-anchor="middle" x="249" y="-45.5" font-family="Helvetica,sans-Serif" font-size="10.00">ierror</text>
</a>
</g>
</g>
<!-- Node2&#45;&gt;Node3 -->
<g id="edge2" class="edge"><title>Node2&#45;&gt;Node3</title>
<path fill="none" stroke="midnightblue" d="M178.468,-76.411C191.16,-71.2249 206.915,-64.7873 220.217,-59.352"/>
<polygon fill="midnightblue" stroke="midnightblue" points="221.887,-62.4508 229.82,-55.4283 219.239,-55.9708 221.887,-62.4508"/>
</g>
<!-- Node3&#45;&gt;Node3 -->
<g id="edge4" class="edge"><title>Node3&#45;&gt;Node3</title>
<path fill="none" stroke="midnightblue" d="M236.053,-57.7571C229.755,-66.5653 234.07,-76 249,-76 258.098,-76 263.254,-72.4965 264.469,-67.7663"/>
<polygon fill="midnightblue" stroke="midnightblue" points="267.784,-66.5986 261.947,-57.7571 260.997,-68.3092 267.784,-66.5986"/>
</g>
<!-- Node4 -->
<g id="node4" class="node"><title>Node4</title>
<g id="a_node4"><a xlink:href="error_8c.html#ac1727d6e8e99b92957a0a7099d19d6f4" target="_top" xlink:title="print_error">
<polygon fill="white" stroke="black" points="304,-38.5 304,-57.5 364,-57.5 364,-38.5 304,-38.5"/>
<text text-anchor="middle" x="334" y="-45.5" font-family="Helvetica,sans-Serif" font-size="10.00">print_error</text>
</a>
</g>
</g>
<!-- Node3&#45;&gt;Node4 -->
<g id="edge3" class="edge"><title>Node3&#45;&gt;Node4</title>
<path fill="none" stroke="midnightblue" d="M268.01,-48C275.631,-48 284.828,-48 293.874,-48"/>
<polygon fill="midnightblue" stroke="midnightblue" points="293.931,-51.5001 303.931,-48 293.931,-44.5001 293.931,-51.5001"/>
</g>
<!-- Node5&#45;&gt;Node3 -->
<g id="edge6" class="edge"><title>Node5&#45;&gt;Node3</title>
<path fill="none" stroke="midnightblue" d="M194.171,-48C202.635,-48 211.431,-48 219.399,-48"/>
<polygon fill="midnightblue" stroke="midnightblue" points="219.644,-51.5001 229.644,-48 219.644,-44.5001 219.644,-51.5001"/>
</g>
<!-- Node6&#45;&gt;Node3 -->
<g id="edge8" class="edge"><title>Node6&#45;&gt;Node3</title>
<path fill="none" stroke="midnightblue" d="M178.468,-19.589C191.16,-24.7751 206.915,-31.2127 220.217,-36.648"/>
<polygon fill="midnightblue" stroke="midnightblue" points="219.239,-40.0292 229.82,-40.5717 221.887,-33.5492 219.239,-40.0292"/>
</g>
</g>
</svg>
