<?xml version="1.0" encoding="UTF-8" standalone="no"?>
<!DOCTYPE svg PUBLIC "-//W3C//DTD SVG 1.1//EN"
 "http://www.w3.org/Graphics/SVG/1.1/DTD/svg11.dtd">
<!-- Generated by graphviz version 2.36.0 (20140111.2315)
 -->
<!-- Title: iprint_vector Pages: 1 -->
<svg width="258pt" height="28pt"
 viewBox="0.00 0.00 258.00 28.00" xmlns="http://www.w3.org/2000/svg" xmlns:xlink="http://www.w3.org/1999/xlink">
<g id="graph0" class="graph" transform="scale(1 1) rotate(0) translate(4 24)">
<title>iprint_vector</title>
<polygon fill="white" stroke="none" points="-4,4 -4,-24 254,-24 254,4 -4,4"/>
<!-- Node1 -->
<g id="node1" class="node"><title>Node1</title>
<polygon fill="#bfbfbf" stroke="black" points="0,-0.5 0,-19.5 70,-19.5 70,-0.5 0,-0.5"/>
<text text-anchor="middle" x="35" y="-7.5" font-family="Helvetica,sans-Serif" font-size="10.00">iprint_vector</text>
</g>
<!-- Node2 -->
<g id="node2" class="node"><title>Node2</title>
<g id="a_node2"><a xlink:href="iprimitives_8h.html#ad14816b7b9d9bc34ae7098efadf43add" target="_top" xlink:title="iprint_object">
<polygon fill="white" stroke="black" points="106.5,-0.5 106.5,-19.5 175.5,-19.5 175.5,-0.5 106.5,-0.5"/>
<text text-anchor="middle" x="141" y="-7.5" font-family="Helvetica,sans-Serif" font-size="10.00">iprint_object</text>
</a>
</g>
</g>
<!-- Node1&#45;&gt;Node2 -->
<g id="edge1" class="edge"><title>Node1&#45;&gt;Node2</title>
<path fill="none" stroke="midnightblue" d="M80.1121,-10C88.8517,-10 97.8956,-10 106.225,-10"/>
<polygon fill="midnightblue" stroke="midnightblue" points="80.0535,-6.5001 70.0535,-10 80.0535,-13.5001 80.0535,-6.5001"/>
</g>
<!-- Node3 -->
<g id="node3" class="node"><title>Node3</title>
<g id="a_node3"><a xlink:href="inferno_8c.html#a0ddf1224851353fc92bfbff6f499fa97" target="_top" xlink:title="main">
<polygon fill="white" stroke="black" points="212,-0.5 212,-19.5 250,-19.5 250,-0.5 212,-0.5"/>
<text text-anchor="middle" x="231" y="-7.5" font-family="Helvetica,sans-Serif" font-size="10.00">main</text>
</a>
</g>
</g>
<!-- Node2&#45;&gt;Node3 -->
<g id="edge2" class="edge"><title>Node2&#45;&gt;Node3</title>
<path fill="none" stroke="midnightblue" d="M185.735,-10C194.862,-10 204.004,-10 211.591,-10"/>
<polygon fill="midnightblue" stroke="midnightblue" points="185.52,-6.5001 175.52,-10 185.52,-13.5001 185.52,-6.5001"/>
</g>
</g>
</svg>
