<?xml version="1.0" encoding="UTF-8" standalone="no"?>
<!DOCTYPE svg PUBLIC "-//W3C//DTD SVG 1.1//EN"
 "http://www.w3.org/Graphics/SVG/1.1/DTD/svg11.dtd">
<!-- Generated by graphviz version 2.36.0 (20140111.2315)
 -->
<!-- Title: inew_linkedpoint Pages: 1 -->
<svg width="304pt" height="28pt"
 viewBox="0.00 0.00 304.00 28.00" xmlns="http://www.w3.org/2000/svg" xmlns:xlink="http://www.w3.org/1999/xlink">
<g id="graph0" class="graph" transform="scale(1 1) rotate(0) translate(4 24)">
<title>inew_linkedpoint</title>
<polygon fill="white" stroke="none" points="-4,4 -4,-24 300,-24 300,4 -4,4"/>
<!-- Node1 -->
<g id="node1" class="node"><title>Node1</title>
<polygon fill="#bfbfbf" stroke="black" points="0.5,-0.5 0.5,-19.5 89.5,-19.5 89.5,-0.5 0.5,-0.5"/>
<text text-anchor="middle" x="45" y="-7.5" font-family="Helvetica,sans-Serif" font-size="10.00">inew_linkedpoint</text>
</g>
<!-- Node2 -->
<g id="node2" class="node"><title>Node2</title>
<g id="a_node2"><a xlink:href="iprimitives_8h.html#a32c313b4080f6b2ce22b65bbd1ad9236" target="_top" xlink:title="iobject_add_triplet">
<polygon fill="white" stroke="black" points="126.5,-0.5 126.5,-19.5 221.5,-19.5 221.5,-0.5 126.5,-0.5"/>
<text text-anchor="middle" x="174" y="-7.5" font-family="Helvetica,sans-Serif" font-size="10.00">iobject_add_triplet</text>
</a>
</g>
</g>
<!-- Node1&#45;&gt;Node2 -->
<g id="edge1" class="edge"><title>Node1&#45;&gt;Node2</title>
<path fill="none" stroke="midnightblue" d="M99.8326,-10C108.592,-10 117.603,-10 126.178,-10"/>
<polygon fill="midnightblue" stroke="midnightblue" points="99.7062,-6.5001 89.7062,-10 99.7062,-13.5001 99.7062,-6.5001"/>
</g>
<!-- Node3 -->
<g id="node3" class="node"><title>Node3</title>
<g id="a_node3"><a xlink:href="inferno_8c.html#a0ddf1224851353fc92bfbff6f499fa97" target="_top" xlink:title="main">
<polygon fill="white" stroke="black" points="258,-0.5 258,-19.5 296,-19.5 296,-0.5 258,-0.5"/>
<text text-anchor="middle" x="277" y="-7.5" font-family="Helvetica,sans-Serif" font-size="10.00">main</text>
</a>
</g>
</g>
<!-- Node2&#45;&gt;Node3 -->
<g id="edge2" class="edge"><title>Node2&#45;&gt;Node3</title>
<path fill="none" stroke="midnightblue" d="M231.879,-10C241.25,-10 250.323,-10 257.779,-10"/>
<polygon fill="midnightblue" stroke="midnightblue" points="231.657,-6.5001 221.657,-10 231.657,-13.5001 231.657,-6.5001"/>
</g>
</g>
</svg>
