<?xml version="1.0" encoding="UTF-8" standalone="no"?>
<!DOCTYPE svg PUBLIC "-//W3C//DTD SVG 1.1//EN"
 "http://www.w3.org/Graphics/SVG/1.1/DTD/svg11.dtd">
<!-- Generated by graphviz version 2.36.0 (20140111.2315)
 -->
<!-- Title: inew_linkedpoint Pages: 1 -->
<svg width="268pt" height="46pt"
 viewBox="0.00 0.00 268.00 46.00" xmlns="http://www.w3.org/2000/svg" xmlns:xlink="http://www.w3.org/1999/xlink">
<g id="graph0" class="graph" transform="scale(1 1) rotate(0) translate(4 42)">
<title>inew_linkedpoint</title>
<polygon fill="white" stroke="none" points="-4,4 -4,-42 264,-42 264,4 -4,4"/>
<!-- Node1 -->
<g id="node1" class="node"><title>Node1</title>
<polygon fill="#bfbfbf" stroke="black" points="0.5,-0.5 0.5,-19.5 89.5,-19.5 89.5,-0.5 0.5,-0.5"/>
<text text-anchor="middle" x="45" y="-7.5" font-family="Helvetica,sans-Serif" font-size="10.00">inew_linkedpoint</text>
</g>
<!-- Node2 -->
<g id="node2" class="node"><title>Node2</title>
<g id="a_node2"><a xlink:href="error_8c.html#ab10bea042bb9daa7a0e027197b8080e5" target="_top" xlink:title="ierror">
<polygon fill="white" stroke="black" points="126,-0.5 126,-19.5 164,-19.5 164,-0.5 126,-0.5"/>
<text text-anchor="middle" x="145" y="-7.5" font-family="Helvetica,sans-Serif" font-size="10.00">ierror</text>
</a>
</g>
</g>
<!-- Node1&#45;&gt;Node2 -->
<g id="edge1" class="edge"><title>Node1&#45;&gt;Node2</title>
<path fill="none" stroke="midnightblue" d="M89.5549,-10C98.3699,-10 107.423,-10 115.554,-10"/>
<polygon fill="midnightblue" stroke="midnightblue" points="115.614,-13.5001 125.614,-10 115.614,-6.5001 115.614,-13.5001"/>
</g>
<!-- Node2&#45;&gt;Node2 -->
<g id="edge3" class="edge"><title>Node2&#45;&gt;Node2</title>
<path fill="none" stroke="midnightblue" d="M132.053,-19.7571C125.755,-28.5653 130.07,-38 145,-38 154.098,-38 159.254,-34.4965 160.469,-29.7663"/>
<polygon fill="midnightblue" stroke="midnightblue" points="163.784,-28.5986 157.947,-19.7571 156.997,-30.3092 163.784,-28.5986"/>
</g>
<!-- Node3 -->
<g id="node3" class="node"><title>Node3</title>
<g id="a_node3"><a xlink:href="error_8c.html#ac1727d6e8e99b92957a0a7099d19d6f4" target="_top" xlink:title="print_error">
<polygon fill="white" stroke="black" points="200,-0.5 200,-19.5 260,-19.5 260,-0.5 200,-0.5"/>
<text text-anchor="middle" x="230" y="-7.5" font-family="Helvetica,sans-Serif" font-size="10.00">print_error</text>
</a>
</g>
</g>
<!-- Node2&#45;&gt;Node3 -->
<g id="edge2" class="edge"><title>Node2&#45;&gt;Node3</title>
<path fill="none" stroke="midnightblue" d="M164.01,-10C171.631,-10 180.828,-10 189.874,-10"/>
<polygon fill="midnightblue" stroke="midnightblue" points="189.931,-13.5001 199.931,-10 189.931,-6.5001 189.931,-13.5001"/>
</g>
</g>
</svg>
