<?xml version="1.0" encoding="UTF-8" standalone="no"?>
<!DOCTYPE svg PUBLIC "-//W3C//DTD SVG 1.1//EN"
 "http://www.w3.org/Graphics/SVG/1.1/DTD/svg11.dtd">
<!-- Generated by graphviz version 2.36.0 (20140111.2315)
 -->
<!-- Title: src/icoordinates.h Pages: 1 -->
<!--zoomable 332 -->
<svg id="main" version="1.1" xmlns="http://www.w3.org/2000/svg" xmlns:xlink="http://www.w3.org/1999/xlink" xml:space="preserve" onload="init(evt)">
<style type="text/css"><![CDATA[
.edge:hover path { stroke: red; }
.edge:hover polygon { stroke: red; fill: red; }
]]></style>
<script type="text/javascript"><![CDATA[
var edges = document.getElementsByTagName('g');
if (edges && edges.length) {
  for (var i=0;i<edges.length;i++) {
    if (edges[i].id.substr(0,4)=='edge') {
      edges[i].setAttribute('class','edge');
    }
  }
}
]]></script>
        <defs>
                <circle id="rim" cx="0" cy="0" r="7"/>
                <circle id="rim2" cx="0" cy="0" r="3.5"/>
                <g id="zoomPlus">
                        <use xlink:href="#rim" fill="#404040">
                                <set attributeName="fill" to="#808080" begin="zoomplus.mouseover" end="zoomplus.mouseout"/>
                        </use>
                        <path d="M-4,0h8M0,-4v8" fill="none" stroke="white" stroke-width="1.5" pointer-events="none"/>
                </g>
                <g id="zoomMin">
                        <use xlink:href="#rim" fill="#404040">
                                <set attributeName="fill" to="#808080" begin="zoomminus.mouseover" end="zoomminus.mouseout"/>
                        </use>
                        <path d="M-4,0h8" fill="none" stroke="white" stroke-width="1.5" pointer-events="none"/>
                </g>
                <g id="dirArrow">
                        <path fill="none" stroke="white" stroke-width="1.5" d="M0,-3.0v7 M-2.5,-0.5L0,-3.0L2.5,-0.5"/>
                </g>
               <g id="resetDef">
                       <use xlink:href="#rim2" fill="#404040">
                               <set attributeName="fill" to="#808080" begin="reset.mouseover" end="reset.mouseout"/>
                       </use>
               </g>
        </defs>

<script type="text/javascript">
var viewWidth = 1040;
var viewHeight = 332;
var sectionId = 'dynsection-1';
</script>
<script xlink:href="svgpan.js"/>
<svg id="graph" class="graph">
<g id="viewport">
<title>src/icoordinates.h</title>
<polygon fill="white" stroke="none" points="-4,4 -4,-328 1036.08,-328 1036.08,4 -4,4"/>
<!-- Node1 -->
<g id="node1" class="node"><title>Node1</title>
<polygon fill="#bfbfbf" stroke="black" points="595.894,-304.5 595.894,-323.5 689.894,-323.5 689.894,-304.5 595.894,-304.5"/>
<text text-anchor="middle" x="642.894" y="-311.5" font-family="Helvetica,sans-Serif" font-size="10.00">src/icoordinates.h</text>
</g>
<!-- Node2 -->
<g id="node2" class="node"><title>Node2</title>
<g id="a_node2"><a xlink:href="icoordinates_8c.html" target="_top" xlink:title="src/icoordinates.c">
<polygon fill="white" stroke="black" points="740.894,-74.5 740.894,-93.5 834.894,-93.5 834.894,-74.5 740.894,-74.5"/>
<text text-anchor="middle" x="787.894" y="-81.5" font-family="Helvetica,sans-Serif" font-size="10.00">src/icoordinates.c</text>
</a>
</g>
</g>
<!-- Node1&#45;&gt;Node2 -->
<g id="edge1" class="edge"><title>Node1&#45;&gt;Node2</title>
<path fill="none" stroke="midnightblue" d="M666.889,-299.074C704.932,-275.393 777.578,-223.236 804.894,-156 813.673,-134.394 801.05,-107.168 793.255,-93.5622"/>
<polygon fill="midnightblue" stroke="midnightblue" points="664.736,-296.286 658.011,-304.473 668.373,-302.267 664.736,-296.286"/>
</g>
<!-- Node3 -->
<g id="node3" class="node"><title>Node3</title>
<g id="a_node3"><a xlink:href="iutils_8h.html" target="_top" xlink:title="src/iutils.h">
<polygon fill="white" stroke="black" points="232.894,-248.5 232.894,-267.5 294.894,-267.5 294.894,-248.5 232.894,-248.5"/>
<text text-anchor="middle" x="263.894" y="-255.5" font-family="Helvetica,sans-Serif" font-size="10.00">src/iutils.h</text>
</a>
</g>
</g>
<!-- Node1&#45;&gt;Node3 -->
<g id="edge2" class="edge"><title>Node1&#45;&gt;Node3</title>
<path fill="none" stroke="midnightblue" d="M585.614,-304.839C504.475,-293.278 358.865,-272.531 295.166,-263.456"/>
<polygon fill="midnightblue" stroke="midnightblue" points="585.266,-308.324 595.66,-306.27 586.254,-301.394 585.266,-308.324"/>
</g>
<!-- Node4 -->
<g id="node4" class="node"><title>Node4</title>
<g id="a_node4"><a xlink:href="igraphics_8h.html" target="_top" xlink:title="src/igraphics.h">
<polygon fill="white" stroke="black" points="352.894,-74.5 352.894,-93.5 432.894,-93.5 432.894,-74.5 352.894,-74.5"/>
<text text-anchor="middle" x="392.894" y="-81.5" font-family="Helvetica,sans-Serif" font-size="10.00">src/igraphics.h</text>
</a>
</g>
</g>
<!-- Node1&#45;&gt;Node4 -->
<g id="edge35" class="edge"><title>Node1&#45;&gt;Node4</title>
<path fill="none" stroke="midnightblue" d="M636.426,-294.876C626.603,-269.392 605.846,-222.661 575.894,-192 527.931,-142.901 452.727,-108.552 415.429,-93.5206"/>
<polygon fill="midnightblue" stroke="midnightblue" points="633.197,-296.234 639.961,-304.388 639.758,-293.795 633.197,-296.234"/>
</g>
<!-- Node6 -->
<g id="node6" class="node"><title>Node6</title>
<g id="a_node6"><a xlink:href="inferno_8c.html" target="_top" xlink:title="src/inferno.c">
<polygon fill="white" stroke="black" points="442.394,-6.5 442.394,-25.5 513.394,-25.5 513.394,-6.5 442.394,-6.5"/>
<text text-anchor="middle" x="477.894" y="-13.5" font-family="Helvetica,sans-Serif" font-size="10.00">src/inferno.c</text>
</a>
</g>
</g>
<!-- Node1&#45;&gt;Node6 -->
<g id="edge37" class="edge"><title>Node1&#45;&gt;Node6</title>
<path fill="none" stroke="midnightblue" d="M700.255,-308.733C765.439,-300.394 862.894,-275.759 862.894,-203 862.894,-203 862.894,-203 862.894,-145 862.894,-109.751 870.074,-91.6024 843.894,-68 795.768,-24.6121 595.712,-17.9421 513.455,-17.0588"/>
<polygon fill="midnightblue" stroke="midnightblue" points="699.609,-305.285 690.09,-309.937 700.432,-312.237 699.609,-305.285"/>
</g>
<!-- Node7 -->
<g id="node7" class="node"><title>Node7</title>
<g id="a_node7"><a xlink:href="iprimitives_8h.html" target="_top" xlink:title="src/iprimitives.h">
<polygon fill="white" stroke="black" points="363.894,-192.5 363.894,-211.5 449.894,-211.5 449.894,-192.5 363.894,-192.5"/>
<text text-anchor="middle" x="406.894" y="-199.5" font-family="Helvetica,sans-Serif" font-size="10.00">src/iprimitives.h</text>
</a>
</g>
</g>
<!-- Node1&#45;&gt;Node7 -->
<g id="edge36" class="edge"><title>Node1&#45;&gt;Node7</title>
<path fill="none" stroke="midnightblue" d="M615.049,-300.021C566.241,-277.272 466.519,-230.791 425.327,-211.591"/>
<polygon fill="midnightblue" stroke="midnightblue" points="613.833,-303.316 624.376,-304.368 616.791,-296.971 613.833,-303.316"/>
</g>
<!-- Node9 -->
<g id="node9" class="node"><title>Node9</title>
<g id="a_node9"><a xlink:href="isimulation_8c.html" target="_top" xlink:title="src/isimulation.c">
<polygon fill="white" stroke="black" points="121.894,-74.5 121.894,-93.5 209.894,-93.5 209.894,-74.5 121.894,-74.5"/>
<text text-anchor="middle" x="165.894" y="-81.5" font-family="Helvetica,sans-Serif" font-size="10.00">src/isimulation.c</text>
</a>
</g>
</g>
<!-- Node1&#45;&gt;Node9 -->
<g id="edge39" class="edge"><title>Node1&#45;&gt;Node9</title>
<path fill="none" stroke="midnightblue" d="M585.663,-312.307C455.965,-309.299 146.722,-293.55 92.8943,-212 85.8745,-201.365 78.2102,-167.145 94.8943,-136 105.716,-115.799 128.473,-101.685 145.321,-93.5058"/>
<polygon fill="midnightblue" stroke="midnightblue" points="585.724,-315.809 595.797,-312.524 585.874,-308.81 585.724,-315.809"/>
</g>
<!-- Node10 -->
<g id="node10" class="node"><title>Node10</title>
<g id="a_node10"><a xlink:href="inferno_8h.html" target="_top" xlink:title="src/inferno.h">
<polygon fill="white" stroke="black" points="725.394,-136.5 725.394,-155.5 796.394,-155.5 796.394,-136.5 725.394,-136.5"/>
<text text-anchor="middle" x="760.894" y="-143.5" font-family="Helvetica,sans-Serif" font-size="10.00">src/inferno.h</text>
</a>
</g>
</g>
<!-- Node1&#45;&gt;Node10 -->
<g id="edge38" class="edge"><title>Node1&#45;&gt;Node10</title>
<path fill="none" stroke="midnightblue" d="M655.147,-295.763C680.148,-260.592 736.245,-181.676 754.804,-155.568"/>
<polygon fill="midnightblue" stroke="midnightblue" points="652.18,-293.897 649.238,-304.075 657.885,-297.952 652.18,-293.897"/>
</g>
<!-- Node12 -->
<g id="node12" class="node"><title>Node12</title>
<g id="a_node12"><a xlink:href="frontend_8h.html" target="_top" xlink:title="src/frontends/frontend.h">
<polygon fill="white" stroke="black" points="548.894,-136.5 548.894,-155.5 668.894,-155.5 668.894,-136.5 548.894,-136.5"/>
<text text-anchor="middle" x="608.894" y="-143.5" font-family="Helvetica,sans-Serif" font-size="10.00">src/frontends/frontend.h</text>
</a>
</g>
</g>
<!-- Node1&#45;&gt;Node12 -->
<g id="edge41" class="edge"><title>Node1&#45;&gt;Node12</title>
<path fill="none" stroke="midnightblue" d="M634.631,-294.395C623.862,-258.585 608.457,-181.342 607.445,-155.568"/>
<polygon fill="midnightblue" stroke="midnightblue" points="631.363,-295.662 637.803,-304.075 638.015,-293.482 631.363,-295.662"/>
</g>
<!-- Node14 -->
<g id="node14" class="node"><title>Node14</title>
<g id="a_node14"><a xlink:href="frontend__opengl__linux_8c.html" target="_top" xlink:title="src/frontends/frontend\l_opengl_linux.c">
<polygon fill="white" stroke="black" points="773.894,-1 773.894,-31 885.894,-31 885.894,-1 773.894,-1"/>
<text text-anchor="start" x="781.894" y="-19" font-family="Helvetica,sans-Serif" font-size="10.00">src/frontends/frontend</text>
<text text-anchor="middle" x="829.894" y="-8" font-family="Helvetica,sans-Serif" font-size="10.00">_opengl_linux.c</text>
</a>
</g>
</g>
<!-- Node1&#45;&gt;Node14 -->
<g id="edge42" class="edge"><title>Node1&#45;&gt;Node14</title>
<path fill="none" stroke="midnightblue" d="M700.158,-308.719C808.092,-299.065 1030.89,-270.913 1030.89,-203 1030.89,-203 1030.89,-203 1030.89,-145 1030.89,-109.642 1035.64,-93.257 1010.89,-68 978.452,-34.8846 926.31,-22.815 886.305,-18.6324"/>
<polygon fill="midnightblue" stroke="midnightblue" points="699.742,-305.242 690.083,-309.596 700.349,-312.215 699.742,-305.242"/>
</g>
<!-- Node15 -->
<g id="node15" class="node"><title>Node15</title>
<g id="a_node15"><a xlink:href="frontend__opengl__linux_8h.html" target="_top" xlink:title="src/frontends/frontend\l_opengl_linux.h">
<polygon fill="white" stroke="black" points="890.894,-69 890.894,-99 1002.89,-99 1002.89,-69 890.894,-69"/>
<text text-anchor="start" x="898.894" y="-87" font-family="Helvetica,sans-Serif" font-size="10.00">src/frontends/frontend</text>
<text text-anchor="middle" x="946.894" y="-76" font-family="Helvetica,sans-Serif" font-size="10.00">_opengl_linux.h</text>
</a>
</g>
</g>
<!-- Node1&#45;&gt;Node15 -->
<g id="edge43" class="edge"><title>Node1&#45;&gt;Node15</title>
<path fill="none" stroke="midnightblue" d="M700.191,-308.343C760.625,-302.347 850.672,-289.985 876.894,-268 930.07,-223.417 942.948,-133.681 945.985,-99.0658"/>
<polygon fill="midnightblue" stroke="midnightblue" points="699.637,-304.88 690.018,-309.32 700.307,-311.848 699.637,-304.88"/>
</g>
<!-- Node16 -->
<g id="node16" class="node"><title>Node16</title>
<g id="a_node16"><a xlink:href="iutils_8c.html" target="_top" xlink:title="src/iutils.c">
<polygon fill="white" stroke="black" points="505.894,-192.5 505.894,-211.5 567.894,-211.5 567.894,-192.5 505.894,-192.5"/>
<text text-anchor="middle" x="536.894" y="-199.5" font-family="Helvetica,sans-Serif" font-size="10.00">src/iutils.c</text>
</a>
</g>
</g>
<!-- Node1&#45;&gt;Node16 -->
<g id="edge40" class="edge"><title>Node1&#45;&gt;Node16</title>
<path fill="none" stroke="midnightblue" d="M619.887,-298.691C607.811,-290.549 593.214,-279.665 581.894,-268 564.498,-250.073 549.093,-224.783 541.64,-211.66"/>
<polygon fill="midnightblue" stroke="midnightblue" points="618.251,-301.803 628.535,-304.349 622.084,-295.945 618.251,-301.803"/>
</g>
<!-- Node3&#45;&gt;Node2 -->
<g id="edge3" class="edge"><title>Node3&#45;&gt;Node2</title>
<path fill="none" stroke="midnightblue" d="M304.948,-250.698C345.037,-243.812 407.36,-231.141 458.894,-212 476.785,-205.355 478.908,-198.382 496.894,-192 573.783,-164.721 601.228,-186.506 676.894,-156 697.58,-147.66 751.156,-110.83 775.514,-93.752"/>
<polygon fill="midnightblue" stroke="midnightblue" points="304.29,-247.26 295.007,-252.365 305.448,-254.163 304.29,-247.26"/>
</g>
<!-- Node3&#45;&gt;Node4 -->
<g id="edge4" class="edge"><title>Node3&#45;&gt;Node4</title>
<path fill="none" stroke="midnightblue" d="M232.978,-244.418C185.716,-223.411 104.514,-179.224 139.894,-136 166.324,-103.711 288.213,-91.41 352.67,-87.104"/>
<polygon fill="midnightblue" stroke="midnightblue" points="231.647,-247.655 242.214,-248.422 234.431,-241.233 231.647,-247.655"/>
</g>
<!-- Node5 -->
<g id="node5" class="node"><title>Node5</title>
<g id="a_node5"><a xlink:href="igraphics_8c.html" target="_top" xlink:title="src/igraphics.c">
<polygon fill="white" stroke="black" points="313.894,-6.5 313.894,-25.5 393.894,-25.5 393.894,-6.5 313.894,-6.5"/>
<text text-anchor="middle" x="353.894" y="-13.5" font-family="Helvetica,sans-Serif" font-size="10.00">src/igraphics.c</text>
</a>
</g>
</g>
<!-- Node3&#45;&gt;Node5 -->
<g id="edge29" class="edge"><title>Node3&#45;&gt;Node5</title>
<path fill="none" stroke="midnightblue" d="M222.324,-255.117C161.98,-251.414 54.706,-240.851 30.8943,-212 -9.84439,-162.641 -10.682,-116.656 30.8943,-68 66.8525,-25.9187 235.44,-18.3547 313.741,-17.1392"/>
<polygon fill="midnightblue" stroke="midnightblue" points="222.473,-258.631 232.658,-255.712 222.876,-251.643 222.473,-258.631"/>
</g>
<!-- Node3&#45;&gt;Node6 -->
<g id="edge30" class="edge"><title>Node3&#45;&gt;Node6</title>
<path fill="none" stroke="midnightblue" d="M222.684,-251.934C177.296,-245.408 108.63,-232.413 92.8943,-212 53.445,-160.826 64.2218,-110.497 112.894,-68 161.811,-25.2893 338.789,-42.3749 402.894,-32 415.74,-29.921 429.742,-27.2355 442.132,-24.7126"/>
<polygon fill="midnightblue" stroke="midnightblue" points="222.444,-255.434 232.831,-253.342 223.406,-248.501 222.444,-255.434"/>
</g>
<!-- Node3&#45;&gt;Node7 -->
<g id="edge7" class="edge"><title>Node3&#45;&gt;Node7</title>
<path fill="none" stroke="midnightblue" d="M295.921,-244.906C322.806,-234.754 360.535,-220.506 384.342,-211.516"/>
<polygon fill="midnightblue" stroke="midnightblue" points="294.672,-241.636 286.553,-248.444 297.145,-248.185 294.672,-241.636"/>
</g>
<!-- Node8 -->
<g id="node8" class="node"><title>Node8</title>
<g id="a_node8"><a xlink:href="isimulation_8h.html" target="_top" xlink:title="src/isimulation.h">
<polygon fill="white" stroke="black" points="290.894,-136.5 290.894,-155.5 378.894,-155.5 378.894,-136.5 290.894,-136.5"/>
<text text-anchor="middle" x="334.894" y="-143.5" font-family="Helvetica,sans-Serif" font-size="10.00">src/isimulation.h</text>
</a>
</g>
</g>
<!-- Node3&#45;&gt;Node8 -->
<g id="edge31" class="edge"><title>Node3&#45;&gt;Node8</title>
<path fill="none" stroke="midnightblue" d="M274.895,-239.957C290.282,-216.118 317.655,-173.709 329.349,-155.591"/>
<polygon fill="midnightblue" stroke="midnightblue" points="271.948,-238.069 269.466,-248.368 277.829,-241.865 271.948,-238.069"/>
</g>
<!-- Node3&#45;&gt;Node9 -->
<g id="edge33" class="edge"><title>Node3&#45;&gt;Node9</title>
<path fill="none" stroke="midnightblue" d="M222.692,-250.873C181.03,-243.736 120.847,-230.513 106.894,-212 86.5648,-185.025 92.8441,-166.717 106.894,-136 115.624,-116.916 135.411,-102.245 149.666,-93.6396"/>
<polygon fill="midnightblue" stroke="midnightblue" points="222.145,-254.33 232.583,-252.514 223.291,-247.425 222.145,-254.33"/>
</g>
<!-- Node11 -->
<g id="node11" class="node"><title>Node11</title>
<g id="a_node11"><a xlink:href="iprimitives_8c.html" target="_top" xlink:title="src/iprimitives.c">
<polygon fill="white" stroke="black" points="148.894,-136.5 148.894,-155.5 234.894,-155.5 234.894,-136.5 148.894,-136.5"/>
<text text-anchor="middle" x="191.894" y="-143.5" font-family="Helvetica,sans-Serif" font-size="10.00">src/iprimitives.c</text>
</a>
</g>
</g>
<!-- Node3&#45;&gt;Node11 -->
<g id="edge32" class="edge"><title>Node3&#45;&gt;Node11</title>
<path fill="none" stroke="midnightblue" d="M252.739,-239.957C237.135,-216.118 209.376,-173.709 197.518,-155.591"/>
<polygon fill="midnightblue" stroke="midnightblue" points="249.839,-241.918 258.245,-248.368 255.696,-238.085 249.839,-241.918"/>
</g>
<!-- Node3&#45;&gt;Node16 -->
<g id="edge34" class="edge"><title>Node3&#45;&gt;Node16</title>
<path fill="none" stroke="midnightblue" d="M305.073,-248.905C350.739,-239.921 426.59,-224.975 491.894,-212 496.27,-211.131 500.885,-210.211 505.425,-209.304"/>
<polygon fill="midnightblue" stroke="midnightblue" points="304.384,-245.474 295.247,-250.838 305.735,-252.342 304.384,-245.474"/>
</g>
<!-- Node4&#45;&gt;Node5 -->
<g id="edge5" class="edge"><title>Node4&#45;&gt;Node5</title>
<path fill="none" stroke="midnightblue" d="M382.591,-65.563C375.038,-52.7815 365.098,-35.9599 359.119,-25.8411"/>
<polygon fill="midnightblue" stroke="midnightblue" points="379.695,-67.5429 387.796,-74.3717 385.722,-63.9818 379.695,-67.5429"/>
</g>
<!-- Node4&#45;&gt;Node6 -->
<g id="edge6" class="edge"><title>Node4&#45;&gt;Node6</title>
<path fill="none" stroke="midnightblue" d="M412.089,-68.0961C428.953,-55.0012 452.906,-36.4028 466.779,-25.6305"/>
<polygon fill="midnightblue" stroke="midnightblue" points="409.759,-65.4742 404.007,-74.3717 414.052,-71.0031 409.759,-65.4742"/>
</g>
<!-- Node7&#45;&gt;Node4 -->
<g id="edge8" class="edge"><title>Node7&#45;&gt;Node4</title>
<path fill="none" stroke="midnightblue" d="M415.338,-182.826C420.316,-169.743 424.922,-151.705 420.894,-136 416.779,-119.954 406.445,-103.536 399.549,-93.8088"/>
<polygon fill="midnightblue" stroke="midnightblue" points="412.08,-181.543 411.423,-192.118 418.531,-184.261 412.08,-181.543"/>
</g>
<!-- Node7&#45;&gt;Node5 -->
<g id="edge9" class="edge"><title>Node7&#45;&gt;Node5</title>
<path fill="none" stroke="midnightblue" d="M404.056,-182.174C401.321,-168.487 396.18,-149.986 386.894,-136 373.107,-115.236 354.44,-122.583 343.894,-100 332.226,-75.0137 343.386,-41.3965 349.916,-25.7234"/>
<polygon fill="midnightblue" stroke="midnightblue" points="400.662,-183.083 405.827,-192.334 407.558,-181.881 400.662,-183.083"/>
</g>
<!-- Node7&#45;&gt;Node8 -->
<g id="edge10" class="edge"><title>Node7&#45;&gt;Node8</title>
<path fill="none" stroke="midnightblue" d="M387.029,-186.101C374.071,-176.382 357.597,-164.027 346.673,-155.834"/>
<polygon fill="midnightblue" stroke="midnightblue" points="385.226,-189.124 395.326,-192.324 389.426,-183.524 385.226,-189.124"/>
</g>
<!-- Node7&#45;&gt;Node9 -->
<g id="edge15" class="edge"><title>Node7&#45;&gt;Node9</title>
<path fill="none" stroke="midnightblue" d="M368.37,-189.385C343.228,-181.261 309.982,-169.478 281.894,-156 242.086,-136.898 198.539,-107.818 177.957,-93.5302"/>
<polygon fill="midnightblue" stroke="midnightblue" points="367.333,-192.728 377.923,-192.422 369.454,-186.057 367.333,-192.728"/>
</g>
<!-- Node7&#45;&gt;Node10 -->
<g id="edge13" class="edge"><title>Node7&#45;&gt;Node10</title>
<path fill="none" stroke="midnightblue" d="M459.873,-192.918C532.974,-181.767 662.81,-161.962 725.32,-152.427"/>
<polygon fill="midnightblue" stroke="midnightblue" points="459.306,-189.464 449.948,-194.433 460.361,-196.384 459.306,-189.464"/>
</g>
<!-- Node7&#45;&gt;Node11 -->
<g id="edge14" class="edge"><title>Node7&#45;&gt;Node11</title>
<path fill="none" stroke="midnightblue" d="M362.935,-189.959C322.327,-179.76 262.851,-164.822 225.802,-155.516"/>
<polygon fill="midnightblue" stroke="midnightblue" points="362.276,-193.402 372.827,-192.444 363.981,-186.613 362.276,-193.402"/>
</g>
<!-- Node7&#45;&gt;Node12 -->
<g id="edge16" class="edge"><title>Node7&#45;&gt;Node12</title>
<path fill="none" stroke="midnightblue" d="M443.558,-189.699C480.004,-179.507 535.41,-164.743 571.957,-155.516"/>
<polygon fill="midnightblue" stroke="midnightblue" points="442.49,-186.363 433.813,-192.444 444.387,-193.101 442.49,-186.363"/>
</g>
<!-- Node7&#45;&gt;Node14 -->
<g id="edge28" class="edge"><title>Node7&#45;&gt;Node14</title>
<path fill="none" stroke="midnightblue" d="M419.929,-184.558C443.659,-155.863 496.94,-96.9429 555.894,-68 625.932,-33.6155 716.449,-22.3131 773.858,-18.6568"/>
<polygon fill="midnightblue" stroke="midnightblue" points="417.126,-182.457 413.539,-192.427 422.56,-186.87 417.126,-182.457"/>
</g>
<!-- Node8&#45;&gt;Node6 -->
<g id="edge11" class="edge"><title>Node8&#45;&gt;Node6</title>
<path fill="none" stroke="midnightblue" d="M331.987,-125.981C330.485,-109.015 331.127,-84.3918 343.894,-68 356.552,-51.7497 408.848,-35.1955 444.241,-25.522"/>
<polygon fill="midnightblue" stroke="midnightblue" points="328.562,-126.805 333.247,-136.308 335.51,-125.958 328.562,-126.805"/>
</g>
<!-- Node8&#45;&gt;Node9 -->
<g id="edge12" class="edge"><title>Node8&#45;&gt;Node9</title>
<path fill="none" stroke="midnightblue" d="M301.045,-132.983C268.195,-121.32 219.157,-103.91 190.063,-93.5806"/>
<polygon fill="midnightblue" stroke="midnightblue" points="300.086,-136.356 310.681,-136.403 302.428,-129.759 300.086,-136.356"/>
</g>
<!-- Node12&#45;&gt;Node1 -->
<g id="edge18" class="edge"><title>Node12&#45;&gt;Node1</title>
<path fill="none" stroke="midnightblue" d="M617.01,-165.117C627.736,-200.545 643.185,-277.832 644.329,-304.075"/>
<polygon fill="midnightblue" stroke="midnightblue" points="620.315,-163.964 613.854,-155.568 613.669,-166.161 620.315,-163.964"/>
</g>
<!-- Node12&#45;&gt;Node2 -->
<g id="edge17" class="edge"><title>Node12&#45;&gt;Node2</title>
<path fill="none" stroke="midnightblue" d="M644.297,-133.133C679.092,-121.47 731.347,-103.955 762.296,-93.5806"/>
<polygon fill="midnightblue" stroke="midnightblue" points="642.91,-129.907 634.541,-136.403 645.135,-136.544 642.91,-129.907"/>
</g>
<!-- Node12&#45;&gt;Node4 -->
<g id="edge19" class="edge"><title>Node12&#45;&gt;Node4</title>
<path fill="none" stroke="midnightblue" d="M568.051,-133.655C526.086,-121.998 461.692,-104.11 423.784,-93.5806"/>
<polygon fill="midnightblue" stroke="midnightblue" points="567.375,-137.099 577.947,-136.403 569.248,-130.355 567.375,-137.099"/>
</g>
<!-- Node12&#45;&gt;Node5 -->
<g id="edge21" class="edge"><title>Node12&#45;&gt;Node5</title>
<path fill="none" stroke="midnightblue" d="M582.794,-131.899C530.593,-105.696 414.597,-47.4703 370.947,-25.5598"/>
<polygon fill="midnightblue" stroke="midnightblue" points="581.26,-135.045 591.767,-136.403 584.4,-128.789 581.26,-135.045"/>
</g>
<!-- Node12&#45;&gt;Node6 -->
<g id="edge22" class="edge"><title>Node12&#45;&gt;Node6</title>
<path fill="none" stroke="midnightblue" d="M590.053,-129.877C579.721,-121.369 566.829,-110.397 555.894,-100 528.667,-74.1113 498.889,-40.9312 485.345,-25.5435"/>
<polygon fill="midnightblue" stroke="midnightblue" points="588.066,-132.773 598.029,-136.376 592.488,-127.346 588.066,-132.773"/>
</g>
<!-- Node12&#45;&gt;Node7 -->
<g id="edge20" class="edge"><title>Node12&#45;&gt;Node7</title>
<path fill="none" stroke="midnightblue" d="M572.388,-158.257C535.997,-168.436 480.591,-183.201 443.991,-192.444"/>
<polygon fill="midnightblue" stroke="midnightblue" points="573.44,-161.597 582.117,-155.516 571.542,-154.859 573.44,-161.597"/>
</g>
<!-- Node13 -->
<g id="node13" class="node"><title>Node13</title>
<g id="a_node13"><a xlink:href="frontend_8c.html" target="_top" xlink:title="src/frontends/frontend.c">
<polygon fill="white" stroke="black" points="564.894,-74.5 564.894,-93.5 684.894,-93.5 684.894,-74.5 564.894,-74.5"/>
<text text-anchor="middle" x="624.894" y="-81.5" font-family="Helvetica,sans-Serif" font-size="10.00">src/frontends/frontend.c</text>
</a>
</g>
</g>
<!-- Node12&#45;&gt;Node13 -->
<g id="edge23" class="edge"><title>Node12&#45;&gt;Node13</title>
<path fill="none" stroke="midnightblue" d="M613.827,-126.503C616.754,-115.527 620.327,-102.129 622.606,-93.5806"/>
<polygon fill="midnightblue" stroke="midnightblue" points="610.382,-125.839 611.187,-136.403 617.145,-127.643 610.382,-125.839"/>
</g>
<!-- Node12&#45;&gt;Node14 -->
<g id="edge24" class="edge"><title>Node12&#45;&gt;Node14</title>
<path fill="none" stroke="midnightblue" d="M636.44,-131.955C653.226,-123.592 674.846,-112.071 692.894,-100 711.532,-87.5356 713.183,-80.3527 731.894,-68 753.343,-53.8404 779.188,-40.5308 798.951,-31.0609"/>
<polygon fill="midnightblue" stroke="midnightblue" points="634.617,-128.95 627.178,-136.494 637.698,-135.236 634.617,-128.95"/>
</g>
<!-- Node12&#45;&gt;Node15 -->
<g id="edge25" class="edge"><title>Node12&#45;&gt;Node15</title>
<path fill="none" stroke="midnightblue" d="M667.087,-134.67C729.81,-123.536 828.948,-105.937 890.832,-94.9519"/>
<polygon fill="midnightblue" stroke="midnightblue" points="666.197,-131.273 656.962,-136.467 667.42,-138.165 666.197,-131.273"/>
</g>
<!-- Node15&#45;&gt;Node6 -->
<g id="edge26" class="edge"><title>Node15&#45;&gt;Node6</title>
<path fill="none" stroke="midnightblue" d="M880.752,-68.6734C879.456,-68.4425 878.169,-68.2177 876.894,-68 743.52,-45.2274 583.483,-27.7122 513.539,-20.5406"/>
<polygon fill="midnightblue" stroke="midnightblue" points="880.338,-72.1565 890.81,-70.5487 881.621,-65.2751 880.338,-72.1565"/>
</g>
<!-- Node15&#45;&gt;Node14 -->
<g id="edge27" class="edge"><title>Node15&#45;&gt;Node14</title>
<path fill="none" stroke="midnightblue" d="M913.056,-63.912C894.507,-53.4481 871.908,-40.6999 854.952,-31.1352"/>
<polygon fill="midnightblue" stroke="midnightblue" points="911.365,-66.9765 921.795,-68.8413 914.805,-60.8797 911.365,-66.9765"/>
</g>
</g>
</svg>
        <g id="navigator" transform="translate(0 0)" fill="#404254">
                <rect fill="#f2f5e9" fill-opacity="0.5" stroke="#606060" stroke-width=".5" x="0" y="0" width="60" height="60"/>
                <use id="zoomplus" xlink:href="#zoomPlus" x="17" y="9" onmousedown="handleZoom(evt,'in')"/>
                <use id="zoomminus" xlink:href="#zoomMin" x="42" y="9" onmousedown="handleZoom(evt,'out')"/>
                <use id="reset" xlink:href="#resetDef" x="30" y="36" onmousedown="handleReset()"/>
                <g id="arrowUp" xlink:href="#dirArrow" transform="translate(30 24)" onmousedown="handlePan(0,-1)">
                  <use xlink:href="#rim" fill="#404040">
                        <set attributeName="fill" to="#808080" begin="arrowUp.mouseover" end="arrowUp.mouseout"/>
                  </use>
                  <path fill="none" stroke="white" stroke-width="1.5" d="M0,-3.0v7 M-2.5,-0.5L0,-3.0L2.5,-0.5"/>
                </g>
                <g id="arrowRight" xlink:href="#dirArrow" transform="rotate(90) translate(36 -43)" onmousedown="handlePan(1,0)">
                  <use xlink:href="#rim" fill="#404040">
                        <set attributeName="fill" to="#808080" begin="arrowRight.mouseover" end="arrowRight.mouseout"/>
                  </use>
                  <path fill="none" stroke="white" stroke-width="1.5" d="M0,-3.0v7 M-2.5,-0.5L0,-3.0L2.5,-0.5"/>
                </g>
                <g id="arrowDown" xlink:href="#dirArrow" transform="rotate(180) translate(-30 -48)" onmousedown="handlePan(0,1)">
                  <use xlink:href="#rim" fill="#404040">
                        <set attributeName="fill" to="#808080" begin="arrowDown.mouseover" end="arrowDown.mouseout"/>
                  </use>
                  <path fill="none" stroke="white" stroke-width="1.5" d="M0,-3.0v7 M-2.5,-0.5L0,-3.0L2.5,-0.5"/>
                </g>
                <g id="arrowLeft" xlink:href="#dirArrow" transform="rotate(270) translate(-36 17)" onmousedown="handlePan(-1,0)">
                  <use xlink:href="#rim" fill="#404040">
                        <set attributeName="fill" to="#808080" begin="arrowLeft.mouseover" end="arrowLeft.mouseout"/>
                  </use>
                  <path fill="none" stroke="white" stroke-width="1.5" d="M0,-3.0v7 M-2.5,-0.5L0,-3.0L2.5,-0.5"/>
                </g>
        </g>
        <svg viewBox="0 0 15 15" width="100%" height="30px" preserveAspectRatio="xMaxYMin meet">
         <g id="arrow_out" transform="scale(0.3 0.3)">
          <a xlink:href="icoordinates_8h__dep__incl_org.svg" target="_base">
           <rect id="button" ry="5" rx="5" y="6" x="6" height="38" width="38"
                fill="#f2f5e9" fill-opacity="0.5" stroke="#606060" stroke-width="1.0"/>
           <path id="arrow"
             d="M 11.500037,31.436501 C 11.940474,20.09759 22.043105,11.32322 32.158766,21.979434 L 37.068811,17.246167 C 37.068811,17.246167 37.088388,32 37.088388,32 L 22.160133,31.978069 C 22.160133,31.978069 26.997745,27.140456 26.997745,27.140456 C 18.528582,18.264221 13.291696,25.230495 11.500037,31.436501 z"
             style="fill:#404040;"/>
          </a>
         </g>
        </svg>
</svg>
