<?xml version="1.0" encoding="UTF-8" standalone="no"?>
<!DOCTYPE svg PUBLIC "-//W3C//DTD SVG 1.1//EN"
 "http://www.w3.org/Graphics/SVG/1.1/DTD/svg11.dtd">
<!-- Generated by graphviz version 2.36.0 (20140111.2315)
 -->
<!-- Title: src/icoordinates.h Pages: 1 -->
<svg width="301pt" height="252pt"
 viewBox="0.00 0.00 301.00 252.00" xmlns="http://www.w3.org/2000/svg" xmlns:xlink="http://www.w3.org/1999/xlink">
<g id="graph0" class="graph" transform="scale(1 1) rotate(0) translate(4 248)">
<title>src/icoordinates.h</title>
<polygon fill="white" stroke="none" points="-4,4 -4,-248 297,-248 297,4 -4,4"/>
<!-- Node1 -->
<g id="node1" class="node"><title>Node1</title>
<polygon fill="#bfbfbf" stroke="black" points="171,-224.5 171,-243.5 265,-243.5 265,-224.5 171,-224.5"/>
<text text-anchor="middle" x="218" y="-231.5" font-family="Helvetica,sans-Serif" font-size="10.00">src/icoordinates.h</text>
</g>
<!-- Node2 -->
<g id="node2" class="node"><title>Node2</title>
<g id="a_node2"><a xlink:href="frontend_8h.html" target="_top" xlink:title="frontend.h">
<polygon fill="white" stroke="black" points="130,-168.5 130,-187.5 190,-187.5 190,-168.5 130,-168.5"/>
<text text-anchor="middle" x="160" y="-175.5" font-family="Helvetica,sans-Serif" font-size="10.00">frontend.h</text>
</a>
</g>
</g>
<!-- Node1&#45;&gt;Node2 -->
<g id="edge1" class="edge"><title>Node1&#45;&gt;Node2</title>
<path fill="none" stroke="midnightblue" d="M203.566,-224.324C193.466,-216.498 180.506,-204.783 171.178,-195.224"/>
<polygon fill="midnightblue" stroke="midnightblue" points="173.7,-192.796 164.34,-187.834 168.563,-197.551 173.7,-192.796"/>
</g>
<!-- Node5 -->
<g id="node5" class="node"><title>Node5</title>
<g id="a_node5"><a xlink:href="itypes_8h.html" target="_top" xlink:title="itypes.h">
<polygon fill="white" stroke="black" points="242.5,-0.5 242.5,-19.5 293.5,-19.5 293.5,-0.5 242.5,-0.5"/>
<text text-anchor="middle" x="268" y="-7.5" font-family="Helvetica,sans-Serif" font-size="10.00">itypes.h</text>
</a>
</g>
</g>
<!-- Node1&#45;&gt;Node5 -->
<g id="edge11" class="edge"><title>Node1&#45;&gt;Node5</title>
<path fill="none" stroke="midnightblue" d="M223.895,-224.388C229.699,-215.581 238.474,-201.337 244,-188 263.726,-140.392 267.276,-127.092 274,-76 276.036,-60.5315 274.147,-42.9018 271.965,-29.909"/>
<polygon fill="midnightblue" stroke="midnightblue" points="275.362,-29.0313 270.065,-19.8556 268.483,-30.3318 275.362,-29.0313"/>
</g>
<!-- Node2&#45;&gt;Node1 -->
<g id="edge8" class="edge"><title>Node2&#45;&gt;Node1</title>
<path fill="none" stroke="midnightblue" d="M174.53,-187.751C184.596,-195.561 197.471,-207.2 206.765,-216.718"/>
<polygon fill="midnightblue" stroke="midnightblue" points="204.225,-219.126 213.589,-224.083 209.36,-214.369 204.225,-219.126"/>
</g>
<!-- Node3 -->
<g id="node3" class="node"><title>Node3</title>
<g id="a_node3"><a xlink:href="iprimitives_8h.html" target="_top" xlink:title="../iprimitives.h">
<polygon fill="white" stroke="black" points="150,-112.5 150,-131.5 228,-131.5 228,-112.5 150,-112.5"/>
<text text-anchor="middle" x="189" y="-119.5" font-family="Helvetica,sans-Serif" font-size="10.00">../iprimitives.h</text>
</a>
</g>
</g>
<!-- Node2&#45;&gt;Node3 -->
<g id="edge2" class="edge"><title>Node2&#45;&gt;Node3</title>
<path fill="none" stroke="midnightblue" d="M159.622,-168.083C162.084,-160.534 167.621,-149.495 173.406,-140.23"/>
<polygon fill="midnightblue" stroke="midnightblue" points="176.442,-141.989 179.169,-131.751 170.653,-138.054 176.442,-141.989"/>
</g>
<!-- Node6 -->
<g id="node6" class="node"><title>Node6</title>
<polygon fill="white" stroke="#bfbfbf" points="80,-112.5 80,-131.5 132,-131.5 132,-112.5 80,-112.5"/>
<text text-anchor="middle" x="106" y="-119.5" font-family="Helvetica,sans-Serif" font-size="10.00">X11/X.h</text>
</g>
<!-- Node2&#45;&gt;Node6 -->
<g id="edge9" class="edge"><title>Node2&#45;&gt;Node6</title>
<path fill="none" stroke="midnightblue" d="M151.083,-168.083C143.22,-160.22 131.569,-148.569 122.081,-139.081"/>
<polygon fill="midnightblue" stroke="midnightblue" points="124.297,-136.347 114.751,-131.751 119.347,-141.297 124.297,-136.347"/>
</g>
<!-- Node7 -->
<g id="node7" class="node"><title>Node7</title>
<polygon fill="white" stroke="#bfbfbf" points="0,-112.5 0,-131.5 62,-131.5 62,-112.5 0,-112.5"/>
<text text-anchor="middle" x="31" y="-119.5" font-family="Helvetica,sans-Serif" font-size="10.00">X11/Xlib.h</text>
</g>
<!-- Node2&#45;&gt;Node7 -->
<g id="edge10" class="edge"><title>Node2&#45;&gt;Node7</title>
<path fill="none" stroke="midnightblue" d="M139.56,-168.444C118.33,-159.557 84.901,-145.563 60.745,-135.451"/>
<polygon fill="midnightblue" stroke="midnightblue" points="61.9207,-132.149 51.3448,-131.516 59.2177,-138.606 61.9207,-132.149"/>
</g>
<!-- Node3&#45;&gt;Node1 -->
<g id="edge7" class="edge"><title>Node3&#45;&gt;Node1</title>
<path fill="none" stroke="midnightblue" d="M191.265,-131.591C195.957,-149.388 206.828,-190.625 213.169,-214.674"/>
<polygon fill="midnightblue" stroke="midnightblue" points="209.791,-215.591 215.724,-224.368 216.559,-213.807 209.791,-215.591"/>
</g>
<!-- Node3&#45;&gt;Node2 -->
<g id="edge3" class="edge"><title>Node3&#45;&gt;Node2</title>
<path fill="none" stroke="midnightblue" d="M189.431,-131.751C187.015,-139.248 181.503,-150.275 175.721,-159.566"/>
<polygon fill="midnightblue" stroke="midnightblue" points="172.663,-157.84 169.955,-168.083 178.46,-161.764 172.663,-157.84"/>
</g>
<!-- Node4 -->
<g id="node4" class="node"><title>Node4</title>
<g id="a_node4"><a xlink:href="iutils_8h.html" target="_top" xlink:title="iutils.h">
<polygon fill="white" stroke="black" points="220.5,-56.5 220.5,-75.5 265.5,-75.5 265.5,-56.5 220.5,-56.5"/>
<text text-anchor="middle" x="243" y="-63.5" font-family="Helvetica,sans-Serif" font-size="10.00">iutils.h</text>
</a>
</g>
</g>
<!-- Node3&#45;&gt;Node4 -->
<g id="edge4" class="edge"><title>Node3&#45;&gt;Node4</title>
<path fill="none" stroke="midnightblue" d="M197.917,-112.083C205.78,-104.22 217.431,-92.5688 226.919,-83.0813"/>
<polygon fill="midnightblue" stroke="midnightblue" points="229.653,-85.2971 234.249,-75.7511 224.703,-80.3473 229.653,-85.2971"/>
</g>
<!-- Node4&#45;&gt;Node1 -->
<g id="edge5" class="edge"><title>Node4&#45;&gt;Node1</title>
<path fill="none" stroke="midnightblue" d="M242.447,-75.8618C241.604,-88.4013 239.795,-112.022 237,-132 232.952,-160.938 226.307,-194.186 222.045,-214.386"/>
<polygon fill="midnightblue" stroke="midnightblue" points="218.573,-213.887 219.901,-224.398 225.417,-215.353 218.573,-213.887"/>
</g>
<!-- Node4&#45;&gt;Node5 -->
<g id="edge6" class="edge"><title>Node4&#45;&gt;Node5</title>
<path fill="none" stroke="midnightblue" d="M247.128,-56.083C250.514,-48.77 255.416,-38.1814 259.619,-29.1034"/>
<polygon fill="midnightblue" stroke="midnightblue" points="262.923,-30.2962 263.949,-19.7511 256.571,-27.3553 262.923,-30.2962"/>
</g>
</g>
</svg>
