<?xml version="1.0" encoding="UTF-8" standalone="no"?>
<!DOCTYPE svg PUBLIC "-//W3C//DTD SVG 1.1//EN"
 "http://www.w3.org/Graphics/SVG/1.1/DTD/svg11.dtd">
<!-- Generated by graphviz version 2.36.0 (20140111.2315)
 -->
<!-- Title: inew_point Pages: 1 -->
<svg width="472pt" height="104pt"
 viewBox="0.00 0.00 472.00 104.00" xmlns="http://www.w3.org/2000/svg" xmlns:xlink="http://www.w3.org/1999/xlink">
<g id="graph0" class="graph" transform="scale(1 1) rotate(0) translate(4 100)">
<title>inew_point</title>
<polygon fill="white" stroke="none" points="-4,4 -4,-100 468,-100 468,4 -4,4"/>
<!-- Node1 -->
<g id="node1" class="node"><title>Node1</title>
<polygon fill="#bfbfbf" stroke="black" points="0.5,-57.5 0.5,-76.5 63.5,-76.5 63.5,-57.5 0.5,-57.5"/>
<text text-anchor="middle" x="32" y="-64.5" font-family="Helvetica,sans-Serif" font-size="10.00">inew_point</text>
</g>
<!-- Node2 -->
<g id="node2" class="node"><title>Node2</title>
<g id="a_node2"><a xlink:href="iutils_8c.html#acf8aca63685fbd6b4c995516baedab14" target="_top" xlink:title="igetfirst_linked">
<polygon fill="white" stroke="black" points="214,-76.5 214,-95.5 294,-95.5 294,-76.5 214,-76.5"/>
<text text-anchor="middle" x="254" y="-83.5" font-family="Helvetica,sans-Serif" font-size="10.00">igetfirst_linked</text>
</a>
</g>
</g>
<!-- Node1&#45;&gt;Node2 -->
<g id="edge1" class="edge"><title>Node1&#45;&gt;Node2</title>
<path fill="none" stroke="midnightblue" d="M63.5901,-69.6419C99.8023,-72.7693 160.6,-78.02 203.532,-81.7278"/>
<polygon fill="midnightblue" stroke="midnightblue" points="203.499,-85.2379 213.764,-82.6114 204.102,-78.2639 203.499,-85.2379"/>
</g>
<!-- Node5 -->
<g id="node5" class="node"><title>Node5</title>
<g id="a_node5"><a xlink:href="icoordinates_8c.html#a4507e51c1f2470e19e8ff5a77adf54bd" target="_top" xlink:title="icreate_region">
<polygon fill="white" stroke="black" points="100.5,-38.5 100.5,-57.5 177.5,-57.5 177.5,-38.5 100.5,-38.5"/>
<text text-anchor="middle" x="139" y="-45.5" font-family="Helvetica,sans-Serif" font-size="10.00">icreate_region</text>
</a>
</g>
</g>
<!-- Node1&#45;&gt;Node5 -->
<g id="edge5" class="edge"><title>Node1&#45;&gt;Node5</title>
<path fill="none" stroke="midnightblue" d="M63.6526,-61.4533C72.0088,-59.9413 81.2638,-58.2666 90.3253,-56.6268"/>
<polygon fill="midnightblue" stroke="midnightblue" points="91.1988,-60.0257 100.416,-54.801 89.9524,-53.1376 91.1988,-60.0257"/>
</g>
<!-- Node3 -->
<g id="node3" class="node"><title>Node3</title>
<g id="a_node3"><a xlink:href="error_8c.html#ab10bea042bb9daa7a0e027197b8080e5" target="_top" xlink:title="ierror">
<polygon fill="white" stroke="black" points="330,-38.5 330,-57.5 368,-57.5 368,-38.5 330,-38.5"/>
<text text-anchor="middle" x="349" y="-45.5" font-family="Helvetica,sans-Serif" font-size="10.00">ierror</text>
</a>
</g>
</g>
<!-- Node2&#45;&gt;Node3 -->
<g id="edge2" class="edge"><title>Node2&#45;&gt;Node3</title>
<path fill="none" stroke="midnightblue" d="M278.468,-76.411C291.16,-71.2249 306.915,-64.7873 320.217,-59.352"/>
<polygon fill="midnightblue" stroke="midnightblue" points="321.887,-62.4508 329.82,-55.4283 319.239,-55.9708 321.887,-62.4508"/>
</g>
<!-- Node3&#45;&gt;Node3 -->
<g id="edge4" class="edge"><title>Node3&#45;&gt;Node3</title>
<path fill="none" stroke="midnightblue" d="M336.053,-57.7571C329.755,-66.5653 334.07,-76 349,-76 358.098,-76 363.254,-72.4965 364.469,-67.7663"/>
<polygon fill="midnightblue" stroke="midnightblue" points="367.784,-66.5986 361.947,-57.7571 360.997,-68.3092 367.784,-66.5986"/>
</g>
<!-- Node4 -->
<g id="node4" class="node"><title>Node4</title>
<g id="a_node4"><a xlink:href="error_8c.html#ac1727d6e8e99b92957a0a7099d19d6f4" target="_top" xlink:title="print_error">
<polygon fill="white" stroke="black" points="404,-38.5 404,-57.5 464,-57.5 464,-38.5 404,-38.5"/>
<text text-anchor="middle" x="434" y="-45.5" font-family="Helvetica,sans-Serif" font-size="10.00">print_error</text>
</a>
</g>
</g>
<!-- Node3&#45;&gt;Node4 -->
<g id="edge3" class="edge"><title>Node3&#45;&gt;Node4</title>
<path fill="none" stroke="midnightblue" d="M368.01,-48C375.631,-48 384.828,-48 393.874,-48"/>
<polygon fill="midnightblue" stroke="midnightblue" points="393.931,-51.5001 403.931,-48 393.931,-44.5001 393.931,-51.5001"/>
</g>
<!-- Node5&#45;&gt;Node2 -->
<g id="edge8" class="edge"><title>Node5&#45;&gt;Node2</title>
<path fill="none" stroke="midnightblue" d="M168.515,-57.589C182.567,-62.3144 199.708,-68.0789 214.87,-73.1774"/>
<polygon fill="midnightblue" stroke="midnightblue" points="213.9,-76.544 224.494,-76.4141 216.132,-69.9091 213.9,-76.544"/>
</g>
<!-- Node6 -->
<g id="node6" class="node"><title>Node6</title>
<g id="a_node6"><a xlink:href="iutils_8c.html#a168fc457c8928038cb3c471bc5fdf170" target="_top" xlink:title="inew_linked">
<polygon fill="white" stroke="black" points="220,-38.5 220,-57.5 288,-57.5 288,-38.5 220,-38.5"/>
<text text-anchor="middle" x="254" y="-45.5" font-family="Helvetica,sans-Serif" font-size="10.00">inew_linked</text>
</a>
</g>
</g>
<!-- Node5&#45;&gt;Node6 -->
<g id="edge6" class="edge"><title>Node5&#45;&gt;Node6</title>
<path fill="none" stroke="midnightblue" d="M177.627,-48C187.836,-48 198.972,-48 209.477,-48"/>
<polygon fill="midnightblue" stroke="midnightblue" points="209.712,-51.5001 219.712,-48 209.712,-44.5001 209.712,-51.5001"/>
</g>
<!-- Node7 -->
<g id="node7" class="node"><title>Node7</title>
<g id="a_node7"><a xlink:href="iutils_8c.html#a67413257923db7c88d91a7e706024e98" target="_top" xlink:title="iadd_linked">
<polygon fill="white" stroke="black" points="221.5,-0.5 221.5,-19.5 286.5,-19.5 286.5,-0.5 221.5,-0.5"/>
<text text-anchor="middle" x="254" y="-7.5" font-family="Helvetica,sans-Serif" font-size="10.00">iadd_linked</text>
</a>
</g>
</g>
<!-- Node5&#45;&gt;Node7 -->
<g id="edge9" class="edge"><title>Node5&#45;&gt;Node7</title>
<path fill="none" stroke="midnightblue" d="M168.515,-38.411C182.567,-33.6856 199.708,-27.9211 214.87,-22.8226"/>
<polygon fill="midnightblue" stroke="midnightblue" points="216.132,-26.0909 224.494,-19.5859 213.9,-19.456 216.132,-26.0909"/>
</g>
<!-- Node6&#45;&gt;Node3 -->
<g id="edge7" class="edge"><title>Node6&#45;&gt;Node3</title>
<path fill="none" stroke="midnightblue" d="M288.05,-48C298.402,-48 309.727,-48 319.719,-48"/>
<polygon fill="midnightblue" stroke="midnightblue" points="319.929,-51.5001 329.929,-48 319.929,-44.5001 319.929,-51.5001"/>
</g>
<!-- Node7&#45;&gt;Node3 -->
<g id="edge10" class="edge"><title>Node7&#45;&gt;Node3</title>
<path fill="none" stroke="midnightblue" d="M278.468,-19.589C291.16,-24.7751 306.915,-31.2127 320.217,-36.648"/>
<polygon fill="midnightblue" stroke="midnightblue" points="319.239,-40.0292 329.82,-40.5717 321.887,-33.5492 319.239,-40.0292"/>
</g>
</g>
</svg>
