<?xml version="1.0" encoding="UTF-8" standalone="no"?>
<!DOCTYPE svg PUBLIC "-//W3C//DTD SVG 1.1//EN"
 "http://www.w3.org/Graphics/SVG/1.1/DTD/svg11.dtd">
<!-- Generated by graphviz version 2.36.0 (20140111.2315)
 -->
<!-- Title: icreate_region Pages: 1 -->
<svg width="288pt" height="77pt"
 viewBox="0.00 0.00 288.00 77.00" xmlns="http://www.w3.org/2000/svg" xmlns:xlink="http://www.w3.org/1999/xlink">
<g id="graph0" class="graph" transform="scale(1 1) rotate(0) translate(4 73)">
<title>icreate_region</title>
<polygon fill="white" stroke="none" points="-4,4 -4,-73 284,-73 284,4 -4,4"/>
<!-- Node1 -->
<g id="node1" class="node"><title>Node1</title>
<polygon fill="#bfbfbf" stroke="black" points="0.5,-22.5 0.5,-41.5 77.5,-41.5 77.5,-22.5 0.5,-22.5"/>
<text text-anchor="middle" x="39" y="-29.5" font-family="Helvetica,sans-Serif" font-size="10.00">icreate_region</text>
</g>
<!-- Node2 -->
<g id="node2" class="node"><title>Node2</title>
<g id="a_node2"><a xlink:href="frontend__opengl__linux_8c.html#aeac975aee6becbb83f7fac162d290fe0" target="_top" xlink:title="frontend_initialize\l_viewspace">
<polygon fill="white" stroke="black" points="114,-39 114,-69 206,-69 206,-39 114,-39"/>
<text text-anchor="start" x="122" y="-57" font-family="Helvetica,sans-Serif" font-size="10.00">frontend_initialize</text>
<text text-anchor="middle" x="160" y="-46" font-family="Helvetica,sans-Serif" font-size="10.00">_viewspace</text>
</a>
</g>
</g>
<!-- Node1&#45;&gt;Node2 -->
<g id="edge1" class="edge"><title>Node1&#45;&gt;Node2</title>
<path fill="none" stroke="midnightblue" d="M87.5557,-40.7918C96.167,-42.3838 105.126,-44.0402 113.672,-45.62"/>
<polygon fill="midnightblue" stroke="midnightblue" points="88.122,-37.3373 77.6523,-38.9609 86.8494,-44.2206 88.122,-37.3373"/>
</g>
<!-- Node4 -->
<g id="node4" class="node"><title>Node4</title>
<g id="a_node4"><a xlink:href="icoordinates_8h.html#a045ac96ebb3a6309f1fc2fd44381c45f" target="_top" xlink:title="inew_point">
<polygon fill="white" stroke="black" points="128.5,-0.5 128.5,-19.5 191.5,-19.5 191.5,-0.5 128.5,-0.5"/>
<text text-anchor="middle" x="160" y="-7.5" font-family="Helvetica,sans-Serif" font-size="10.00">inew_point</text>
</a>
</g>
</g>
<!-- Node1&#45;&gt;Node4 -->
<g id="edge3" class="edge"><title>Node1&#45;&gt;Node4</title>
<path fill="none" stroke="midnightblue" d="M87.8768,-23.1488C101.529,-20.6248 116.031,-17.9438 128.355,-15.6655"/>
<polygon fill="midnightblue" stroke="midnightblue" points="86.8494,-19.7794 77.6523,-25.0391 88.122,-26.6627 86.8494,-19.7794"/>
</g>
<!-- Node3 -->
<g id="node3" class="node"><title>Node3</title>
<g id="a_node3"><a xlink:href="inferno_8c.html#a0ddf1224851353fc92bfbff6f499fa97" target="_top" xlink:title="main">
<polygon fill="white" stroke="black" points="242,-22.5 242,-41.5 280,-41.5 280,-22.5 242,-22.5"/>
<text text-anchor="middle" x="261" y="-29.5" font-family="Helvetica,sans-Serif" font-size="10.00">main</text>
</a>
</g>
</g>
<!-- Node2&#45;&gt;Node3 -->
<g id="edge2" class="edge"><title>Node2&#45;&gt;Node3</title>
<path fill="none" stroke="midnightblue" d="M215.955,-41.7878C225.323,-39.706 234.427,-37.6829 241.903,-36.0215"/>
<polygon fill="midnightblue" stroke="midnightblue" points="215.157,-38.3797 206.154,-43.9657 216.676,-45.213 215.157,-38.3797"/>
</g>
<!-- Node4&#45;&gt;Node3 -->
<g id="edge4" class="edge"><title>Node4&#45;&gt;Node3</title>
<path fill="none" stroke="midnightblue" d="M201.476,-18.9947C215.497,-22.1104 230.517,-25.4482 241.83,-27.9623"/>
<polygon fill="midnightblue" stroke="midnightblue" points="202.032,-15.533 191.511,-16.7802 200.514,-22.3663 202.032,-15.533"/>
</g>
</g>
</svg>
