<?xml version="1.0" encoding="UTF-8" standalone="no"?>
<!DOCTYPE svg PUBLIC "-//W3C//DTD SVG 1.1//EN"
 "http://www.w3.org/Graphics/SVG/1.1/DTD/svg11.dtd">
<!-- Generated by graphviz version 2.36.0 (20140111.2315)
 -->
<!-- Title: src/igraphics.c Pages: 1 -->
<svg width="354pt" height="364pt"
 viewBox="0.00 0.00 353.84 364.00" xmlns="http://www.w3.org/2000/svg" xmlns:xlink="http://www.w3.org/1999/xlink">
<g id="graph0" class="graph" transform="scale(1 1) rotate(0) translate(4 360)">
<title>src/igraphics.c</title>
<polygon fill="white" stroke="none" points="-4,4 -4,-360 349.843,-360 349.843,4 -4,4"/>
<!-- Node1 -->
<g id="node1" class="node"><title>Node1</title>
<polygon fill="#bfbfbf" stroke="black" points="73,-336.5 73,-355.5 153,-355.5 153,-336.5 73,-336.5"/>
<text text-anchor="middle" x="113" y="-343.5" font-family="Helvetica,sans-Serif" font-size="10.00">src/igraphics.c</text>
</g>
<!-- Node2 -->
<g id="node2" class="node"><title>Node2</title>
<g id="a_node2"><a xlink:href="igraphics_8h.html" target="_top" xlink:title="igraphics.h">
<polygon fill="white" stroke="black" points="51,-280.5 51,-299.5 115,-299.5 115,-280.5 51,-280.5"/>
<text text-anchor="middle" x="83" y="-287.5" font-family="Helvetica,sans-Serif" font-size="10.00">igraphics.h</text>
</a>
</g>
</g>
<!-- Node1&#45;&gt;Node2 -->
<g id="edge1" class="edge"><title>Node1&#45;&gt;Node2</title>
<path fill="none" stroke="midnightblue" d="M108.046,-336.083C103.896,-328.613 97.8469,-317.724 92.7333,-308.52"/>
<polygon fill="midnightblue" stroke="midnightblue" points="95.7777,-306.793 87.8617,-299.751 89.6586,-310.192 95.7777,-306.793"/>
</g>
<!-- Node3 -->
<g id="node3" class="node"><title>Node3</title>
<g id="a_node3"><a xlink:href="frontend_8h.html" target="_top" xlink:title="frontend.h">
<polygon fill="white" stroke="black" points="181,-224.5 181,-243.5 241,-243.5 241,-224.5 181,-224.5"/>
<text text-anchor="middle" x="211" y="-231.5" font-family="Helvetica,sans-Serif" font-size="10.00">frontend.h</text>
</a>
</g>
</g>
<!-- Node1&#45;&gt;Node3 -->
<g id="edge17" class="edge"><title>Node1&#45;&gt;Node3</title>
<path fill="none" stroke="midnightblue" d="M121.983,-336.239C131.033,-327.316 145.294,-312.984 157,-300 171.506,-283.911 187.243,-264.758 197.965,-251.427"/>
<polygon fill="midnightblue" stroke="midnightblue" points="200.713,-253.595 204.223,-243.599 195.245,-249.224 200.713,-253.595"/>
</g>
<!-- Node4 -->
<g id="node4" class="node"><title>Node4</title>
<g id="a_node4"><a xlink:href="iprimitives_8h.html" target="_top" xlink:title="../iprimitives.h">
<polygon fill="white" stroke="black" points="95,-168.5 95,-187.5 173,-187.5 173,-168.5 95,-168.5"/>
<text text-anchor="middle" x="134" y="-175.5" font-family="Helvetica,sans-Serif" font-size="10.00">../iprimitives.h</text>
</a>
</g>
</g>
<!-- Node1&#45;&gt;Node4 -->
<g id="edge19" class="edge"><title>Node1&#45;&gt;Node4</title>
<path fill="none" stroke="midnightblue" d="M115.515,-336.456C118.06,-327.465 121.91,-312.86 124,-300 129.84,-264.062 132.352,-221.533 133.368,-197.669"/>
<polygon fill="midnightblue" stroke="midnightblue" points="136.87,-197.691 133.755,-187.565 129.875,-197.423 136.87,-197.691"/>
</g>
<!-- Node5 -->
<g id="node5" class="node"><title>Node5</title>
<g id="a_node5"><a xlink:href="iutils_8h.html" target="_top" xlink:title="iutils.h">
<polygon fill="white" stroke="black" points="-0.5,-112.5 -0.5,-131.5 44.5,-131.5 44.5,-112.5 -0.5,-112.5"/>
<text text-anchor="middle" x="22" y="-119.5" font-family="Helvetica,sans-Serif" font-size="10.00">iutils.h</text>
</a>
</g>
</g>
<!-- Node1&#45;&gt;Node5 -->
<g id="edge18" class="edge"><title>Node1&#45;&gt;Node5</title>
<path fill="none" stroke="midnightblue" d="M89.6527,-336.377C73.5754,-329.177 53.1714,-317.28 42,-300 9.87091,-250.301 14.6007,-175.998 19.0369,-141.646"/>
<polygon fill="midnightblue" stroke="midnightblue" points="22.5194,-142.018 20.4764,-131.622 15.5905,-141.023 22.5194,-142.018"/>
</g>
<!-- Node2&#45;&gt;Node3 -->
<g id="edge2" class="edge"><title>Node2&#45;&gt;Node3</title>
<path fill="none" stroke="midnightblue" d="M103.282,-280.444C124.347,-271.557 157.517,-257.563 181.486,-247.451"/>
<polygon fill="midnightblue" stroke="midnightblue" points="182.96,-250.628 190.813,-243.516 180.239,-244.179 182.96,-250.628"/>
</g>
<!-- Node2&#45;&gt;Node4 -->
<g id="edge16" class="edge"><title>Node2&#45;&gt;Node4</title>
<path fill="none" stroke="midnightblue" d="M87.0019,-280.368C95.3066,-262.456 114.563,-220.923 125.679,-196.948"/>
<polygon fill="midnightblue" stroke="midnightblue" points="128.986,-198.136 130.017,-187.591 122.635,-195.192 128.986,-198.136"/>
</g>
<!-- Node2&#45;&gt;Node5 -->
<g id="edge14" class="edge"><title>Node2&#45;&gt;Node5</title>
<path fill="none" stroke="midnightblue" d="M75.8328,-280.222C69.0529,-271.515 59.0412,-257.55 53,-244 37.6009,-209.462 28.7967,-165.832 24.7481,-141.523"/>
<polygon fill="midnightblue" stroke="midnightblue" points="28.189,-140.873 23.175,-131.54 21.2743,-141.963 28.189,-140.873"/>
</g>
<!-- Node6 -->
<g id="node6" class="node"><title>Node6</title>
<g id="a_node6"><a xlink:href="icoordinates_8h.html" target="_top" xlink:title="icoordinates.h">
<polygon fill="white" stroke="black" points="73.5,-56.5 73.5,-75.5 150.5,-75.5 150.5,-56.5 73.5,-56.5"/>
<text text-anchor="middle" x="112" y="-63.5" font-family="Helvetica,sans-Serif" font-size="10.00">icoordinates.h</text>
</a>
</g>
</g>
<!-- Node2&#45;&gt;Node6 -->
<g id="edge15" class="edge"><title>Node2&#45;&gt;Node6</title>
<path fill="none" stroke="midnightblue" d="M82.5492,-280.437C81.6473,-260.568 80.1742,-209.833 86,-168 90.109,-138.494 99.676,-105.196 105.988,-85.1674"/>
<polygon fill="midnightblue" stroke="midnightblue" points="109.363,-86.1059 109.104,-75.5143 102.701,-83.9553 109.363,-86.1059"/>
</g>
<!-- Node3&#45;&gt;Node4 -->
<g id="edge3" class="edge"><title>Node3&#45;&gt;Node4</title>
<path fill="none" stroke="midnightblue" d="M193.514,-224.324C180.146,-216.185 162.204,-203.839 149.385,-194.087"/>
<polygon fill="midnightblue" stroke="midnightblue" points="151.469,-191.273 141.448,-187.834 147.137,-196.772 151.469,-191.273"/>
</g>
<!-- Node3&#45;&gt;Node6 -->
<g id="edge11" class="edge"><title>Node3&#45;&gt;Node6</title>
<path fill="none" stroke="midnightblue" d="M241.011,-228.016C281.45,-220.404 345.398,-202.928 323,-168 287.025,-111.899 211.205,-86.5463 160.845,-75.3745"/>
<polygon fill="midnightblue" stroke="midnightblue" points="161.327,-71.8994 150.82,-73.2621 159.883,-78.7489 161.327,-71.8994"/>
</g>
<!-- Node8 -->
<g id="node8" class="node"><title>Node8</title>
<polygon fill="white" stroke="#bfbfbf" points="271,-168.5 271,-187.5 323,-187.5 323,-168.5 271,-168.5"/>
<text text-anchor="middle" x="297" y="-175.5" font-family="Helvetica,sans-Serif" font-size="10.00">X11/X.h</text>
</g>
<!-- Node3&#45;&gt;Node8 -->
<g id="edge12" class="edge"><title>Node3&#45;&gt;Node8</title>
<path fill="none" stroke="midnightblue" d="M224.817,-224.324C238.233,-215.9 258.824,-202.971 274.586,-193.074"/>
<polygon fill="midnightblue" stroke="midnightblue" points="276.609,-195.936 283.217,-187.655 272.887,-190.008 276.609,-195.936"/>
</g>
<!-- Node9 -->
<g id="node9" class="node"><title>Node9</title>
<polygon fill="white" stroke="#bfbfbf" points="191,-168.5 191,-187.5 253,-187.5 253,-168.5 191,-168.5"/>
<text text-anchor="middle" x="222" y="-175.5" font-family="Helvetica,sans-Serif" font-size="10.00">X11/Xlib.h</text>
</g>
<!-- Node3&#45;&gt;Node9 -->
<g id="edge13" class="edge"><title>Node3&#45;&gt;Node9</title>
<path fill="none" stroke="midnightblue" d="M212.816,-224.083C214.274,-216.927 216.371,-206.635 218.193,-197.691"/>
<polygon fill="midnightblue" stroke="midnightblue" points="221.651,-198.248 220.217,-187.751 214.792,-196.851 221.651,-198.248"/>
</g>
<!-- Node4&#45;&gt;Node3 -->
<g id="edge4" class="edge"><title>Node4&#45;&gt;Node3</title>
<path fill="none" stroke="midnightblue" d="M151.451,-187.655C164.89,-195.835 182.966,-208.277 195.809,-218.061"/>
<polygon fill="midnightblue" stroke="midnightblue" points="193.726,-220.875 203.743,-224.324 198.063,-215.381 193.726,-220.875"/>
</g>
<!-- Node4&#45;&gt;Node5 -->
<g id="edge5" class="edge"><title>Node4&#45;&gt;Node5</title>
<path fill="none" stroke="midnightblue" d="M116.005,-168.324C97.9623,-159.625 69.9531,-146.12 49.1973,-136.113"/>
<polygon fill="midnightblue" stroke="midnightblue" points="50.4778,-132.845 39.9501,-131.655 47.4377,-139.15 50.4778,-132.845"/>
</g>
<!-- Node4&#45;&gt;Node6 -->
<g id="edge10" class="edge"><title>Node4&#45;&gt;Node6</title>
<path fill="none" stroke="midnightblue" d="M132.274,-168.368C128.723,-150.617 120.533,-109.666 115.719,-85.5974"/>
<polygon fill="midnightblue" stroke="midnightblue" points="119.112,-84.7108 113.718,-75.5914 112.247,-86.0837 119.112,-84.7108"/>
</g>
<!-- Node5&#45;&gt;Node6 -->
<g id="edge6" class="edge"><title>Node5&#45;&gt;Node6</title>
<path fill="none" stroke="midnightblue" d="M36.4601,-112.324C50.4996,-103.9 72.0485,-90.9709 88.5431,-81.0741"/>
<polygon fill="midnightblue" stroke="midnightblue" points="90.8016,-83.8007 97.5758,-75.6545 87.2001,-77.7983 90.8016,-83.8007"/>
</g>
<!-- Node7 -->
<g id="node7" class="node"><title>Node7</title>
<g id="a_node7"><a xlink:href="itypes_8h.html" target="_top" xlink:title="itypes.h">
<polygon fill="white" stroke="black" points="48.5,-0.5 48.5,-19.5 99.5,-19.5 99.5,-0.5 48.5,-0.5"/>
<text text-anchor="middle" x="74" y="-7.5" font-family="Helvetica,sans-Serif" font-size="10.00">itypes.h</text>
</a>
</g>
</g>
<!-- Node5&#45;&gt;Node7 -->
<g id="edge9" class="edge"><title>Node5&#45;&gt;Node7</title>
<path fill="none" stroke="midnightblue" d="M26.0804,-112.368C34.5479,-94.4563 54.1817,-52.9233 65.5154,-28.9482"/>
<polygon fill="midnightblue" stroke="midnightblue" points="68.829,-30.128 69.9386,-19.5914 62.5005,-27.1363 68.829,-30.128"/>
</g>
<!-- Node6&#45;&gt;Node3 -->
<g id="edge7" class="edge"><title>Node6&#45;&gt;Node3</title>
<path fill="none" stroke="midnightblue" d="M150.609,-71.0933C204.385,-79.336 299.37,-103.081 341,-168 363.738,-203.458 297.489,-220.93 251.273,-228.356"/>
<polygon fill="midnightblue" stroke="midnightblue" points="250.547,-224.925 241.178,-229.872 251.587,-231.848 250.547,-224.925"/>
</g>
<!-- Node6&#45;&gt;Node7 -->
<g id="edge8" class="edge"><title>Node6&#45;&gt;Node7</title>
<path fill="none" stroke="midnightblue" d="M105.725,-56.083C100.358,-48.4554 92.4824,-37.2645 85.9213,-27.9408"/>
<polygon fill="midnightblue" stroke="midnightblue" points="88.7755,-25.9149 80.1582,-19.7511 83.0508,-29.9434 88.7755,-25.9149"/>
</g>
</g>
</svg>
