<?xml version="1.0" encoding="UTF-8" standalone="no"?>
<!DOCTYPE svg PUBLIC "-//W3C//DTD SVG 1.1//EN"
 "http://www.w3.org/Graphics/SVG/1.1/DTD/svg11.dtd">
<!-- Generated by graphviz version 2.36.0 (20140111.2315)
 -->
<!-- Title: src/igraphics.h Pages: 1 -->
<svg width="291pt" height="308pt"
 viewBox="0.00 0.00 291.09 308.00" xmlns="http://www.w3.org/2000/svg" xmlns:xlink="http://www.w3.org/1999/xlink">
<g id="graph0" class="graph" transform="scale(1 1) rotate(0) translate(4 304)">
<title>src/igraphics.h</title>
<polygon fill="white" stroke="none" points="-4,4 -4,-304 287.089,-304 287.089,4 -4,4"/>
<!-- Node1 -->
<g id="node1" class="node"><title>Node1</title>
<polygon fill="#bfbfbf" stroke="black" points="140,-280.5 140,-299.5 220,-299.5 220,-280.5 140,-280.5"/>
<text text-anchor="middle" x="180" y="-287.5" font-family="Helvetica,sans-Serif" font-size="10.00">src/igraphics.h</text>
</g>
<!-- Node2 -->
<g id="node2" class="node"><title>Node2</title>
<g id="a_node2"><a xlink:href="frontend_8h.html" target="_top" xlink:title="frontend.h">
<polygon fill="white" stroke="black" points="114,-224.5 114,-243.5 174,-243.5 174,-224.5 114,-224.5"/>
<text text-anchor="middle" x="144" y="-231.5" font-family="Helvetica,sans-Serif" font-size="10.00">frontend.h</text>
</a>
</g>
</g>
<!-- Node1&#45;&gt;Node2 -->
<g id="edge1" class="edge"><title>Node1&#45;&gt;Node2</title>
<path fill="none" stroke="midnightblue" d="M174.055,-280.083C169.023,-272.534 161.663,-261.495 155.487,-252.23"/>
<polygon fill="midnightblue" stroke="midnightblue" points="158.293,-250.13 149.834,-243.751 152.469,-254.013 158.293,-250.13"/>
</g>
<!-- Node3 -->
<g id="node3" class="node"><title>Node3</title>
<g id="a_node3"><a xlink:href="iprimitives_8h.html" target="_top" xlink:title="../iprimitives.h">
<polygon fill="white" stroke="black" points="193,-168.5 193,-187.5 271,-187.5 271,-168.5 193,-168.5"/>
<text text-anchor="middle" x="232" y="-175.5" font-family="Helvetica,sans-Serif" font-size="10.00">../iprimitives.h</text>
</a>
</g>
</g>
<!-- Node1&#45;&gt;Node3 -->
<g id="edge15" class="edge"><title>Node1&#45;&gt;Node3</title>
<path fill="none" stroke="midnightblue" d="M184.08,-280.368C192.548,-262.456 212.182,-220.923 223.515,-196.948"/>
<polygon fill="midnightblue" stroke="midnightblue" points="226.829,-198.128 227.939,-187.591 220.5,-195.136 226.829,-198.128"/>
</g>
<!-- Node4 -->
<g id="node4" class="node"><title>Node4</title>
<g id="a_node4"><a xlink:href="iutils_8h.html" target="_top" xlink:title="iutils.h">
<polygon fill="white" stroke="black" points="177.5,-112.5 177.5,-131.5 222.5,-131.5 222.5,-112.5 177.5,-112.5"/>
<text text-anchor="middle" x="200" y="-119.5" font-family="Helvetica,sans-Serif" font-size="10.00">iutils.h</text>
</a>
</g>
</g>
<!-- Node1&#45;&gt;Node4 -->
<g id="edge13" class="edge"><title>Node1&#45;&gt;Node4</title>
<path fill="none" stroke="midnightblue" d="M193.684,-280.488C216.695,-265.262 262.354,-230.903 280,-188 283.381,-179.779 284.488,-175.673 280,-168 269.778,-150.522 249.995,-139.308 232.66,-132.446"/>
<polygon fill="midnightblue" stroke="midnightblue" points="233.422,-129 222.827,-128.894 231.043,-135.583 233.422,-129"/>
</g>
<!-- Node5 -->
<g id="node5" class="node"><title>Node5</title>
<g id="a_node5"><a xlink:href="icoordinates_8h.html" target="_top" xlink:title="icoordinates.h">
<polygon fill="white" stroke="black" points="-0.5,-56.5 -0.5,-75.5 76.5,-75.5 76.5,-56.5 -0.5,-56.5"/>
<text text-anchor="middle" x="38" y="-63.5" font-family="Helvetica,sans-Serif" font-size="10.00">icoordinates.h</text>
</a>
</g>
</g>
<!-- Node1&#45;&gt;Node5 -->
<g id="edge14" class="edge"><title>Node1&#45;&gt;Node5</title>
<path fill="none" stroke="midnightblue" d="M152.261,-280.406C115.06,-267.228 50.4014,-238.139 22,-188 5.33893,-158.587 12.2922,-145.132 19,-112 20.8931,-102.649 24.7916,-92.8267 28.5674,-84.7526"/>
<polygon fill="midnightblue" stroke="midnightblue" points="31.7876,-86.1381 33.1241,-75.6279 25.5251,-83.0106 31.7876,-86.1381"/>
</g>
<!-- Node2&#45;&gt;Node3 -->
<g id="edge2" class="edge"><title>Node2&#45;&gt;Node3</title>
<path fill="none" stroke="midnightblue" d="M153.024,-224.324C165.15,-215.743 186.479,-202.486 204.025,-192.522"/>
<polygon fill="midnightblue" stroke="midnightblue" points="205.745,-195.571 212.786,-187.655 202.345,-189.452 205.745,-195.571"/>
</g>
<!-- Node2&#45;&gt;Node5 -->
<g id="edge10" class="edge"><title>Node2&#45;&gt;Node5</title>
<path fill="none" stroke="midnightblue" d="M113.821,-230.838C85.1653,-227.042 44.2065,-216.609 25,-188 3.99455,-156.712 14.3747,-109.897 25.5727,-84.6518"/>
<polygon fill="midnightblue" stroke="midnightblue" points="28.7888,-86.0474 30.1679,-75.5427 22.539,-82.8946 28.7888,-86.0474"/>
</g>
<!-- Node7 -->
<g id="node7" class="node"><title>Node7</title>
<polygon fill="white" stroke="#bfbfbf" points="43,-168.5 43,-187.5 95,-187.5 95,-168.5 43,-168.5"/>
<text text-anchor="middle" x="69" y="-175.5" font-family="Helvetica,sans-Serif" font-size="10.00">X11/X.h</text>
</g>
<!-- Node2&#45;&gt;Node7 -->
<g id="edge11" class="edge"><title>Node2&#45;&gt;Node7</title>
<path fill="none" stroke="midnightblue" d="M131.95,-224.324C120.537,-216.107 103.169,-203.602 89.5651,-193.807"/>
<polygon fill="midnightblue" stroke="midnightblue" points="91.4297,-190.837 81.2693,-187.834 87.3396,-196.517 91.4297,-190.837"/>
</g>
<!-- Node8 -->
<g id="node8" class="node"><title>Node8</title>
<polygon fill="white" stroke="#bfbfbf" points="113,-168.5 113,-187.5 175,-187.5 175,-168.5 113,-168.5"/>
<text text-anchor="middle" x="144" y="-175.5" font-family="Helvetica,sans-Serif" font-size="10.00">X11/Xlib.h</text>
</g>
<!-- Node2&#45;&gt;Node8 -->
<g id="edge12" class="edge"><title>Node2&#45;&gt;Node8</title>
<path fill="none" stroke="midnightblue" d="M144,-224.083C144,-217.006 144,-206.861 144,-197.986"/>
<polygon fill="midnightblue" stroke="midnightblue" points="147.5,-197.751 144,-187.751 140.5,-197.751 147.5,-197.751"/>
</g>
<!-- Node3&#45;&gt;Node2 -->
<g id="edge3" class="edge"><title>Node3&#45;&gt;Node2</title>
<path fill="none" stroke="midnightblue" d="M222.753,-187.834C210.699,-196.342 189.793,-209.339 172.446,-219.21"/>
<polygon fill="midnightblue" stroke="midnightblue" points="170.291,-216.404 163.254,-224.324 173.694,-222.521 170.291,-216.404"/>
</g>
<!-- Node3&#45;&gt;Node4 -->
<g id="edge4" class="edge"><title>Node3&#45;&gt;Node4</title>
<path fill="none" stroke="midnightblue" d="M226.716,-168.083C222.289,-160.613 215.837,-149.724 210.382,-140.52"/>
<polygon fill="midnightblue" stroke="midnightblue" points="213.295,-138.57 205.186,-131.751 207.273,-142.138 213.295,-138.57"/>
</g>
<!-- Node3&#45;&gt;Node5 -->
<g id="edge9" class="edge"><title>Node3&#45;&gt;Node5</title>
<path fill="none" stroke="midnightblue" d="M216.777,-168.368C183.203,-149.332 102.576,-103.615 62.0744,-80.6505"/>
<polygon fill="midnightblue" stroke="midnightblue" points="63.5774,-77.4792 53.1521,-75.5914 60.1247,-83.5685 63.5774,-77.4792"/>
</g>
<!-- Node4&#45;&gt;Node5 -->
<g id="edge5" class="edge"><title>Node4&#45;&gt;Node5</title>
<path fill="none" stroke="midnightblue" d="M177.475,-113.492C150.488,-104.496 104.959,-89.3196 73.2895,-78.7632"/>
<polygon fill="midnightblue" stroke="midnightblue" points="74.129,-75.3537 63.5353,-75.5118 71.9154,-81.9945 74.129,-75.3537"/>
</g>
<!-- Node6 -->
<g id="node6" class="node"><title>Node6</title>
<g id="a_node6"><a xlink:href="itypes_8h.html" target="_top" xlink:title="itypes.h">
<polygon fill="white" stroke="black" points="77.5,-0.5 77.5,-19.5 128.5,-19.5 128.5,-0.5 77.5,-0.5"/>
<text text-anchor="middle" x="103" y="-7.5" font-family="Helvetica,sans-Serif" font-size="10.00">itypes.h</text>
</a>
</g>
</g>
<!-- Node4&#45;&gt;Node6 -->
<g id="edge8" class="edge"><title>Node4&#45;&gt;Node6</title>
<path fill="none" stroke="midnightblue" d="M192.389,-112.368C176.239,-94.0547 138.316,-51.0489 117.429,-27.3624"/>
<polygon fill="midnightblue" stroke="midnightblue" points="119.815,-24.7769 110.576,-19.5914 114.565,-29.4067 119.815,-24.7769"/>
</g>
<!-- Node5&#45;&gt;Node2 -->
<g id="edge6" class="edge"><title>Node5&#45;&gt;Node2</title>
<path fill="none" stroke="midnightblue" d="M39.0595,-75.5427C35.8309,-96.7017 19.1005,-152.401 43,-188 56.9129,-208.724 82.2401,-219.91 104.137,-225.945"/>
<polygon fill="midnightblue" stroke="midnightblue" points="103.355,-229.357 113.904,-228.371 105.042,-222.564 103.355,-229.357"/>
</g>
<!-- Node5&#45;&gt;Node6 -->
<g id="edge7" class="edge"><title>Node5&#45;&gt;Node6</title>
<path fill="none" stroke="midnightblue" d="M48.4434,-56.324C58.1462,-48.2631 72.8153,-36.0765 84.4997,-26.3695"/>
<polygon fill="midnightblue" stroke="midnightblue" points="86.9113,-28.9163 92.3666,-19.8339 82.4381,-23.532 86.9113,-28.9163"/>
</g>
</g>
</svg>
