<?xml version="1.0" encoding="UTF-8" standalone="no"?>
<!DOCTYPE svg PUBLIC "-//W3C//DTD SVG 1.1//EN"
 "http://www.w3.org/Graphics/SVG/1.1/DTD/svg11.dtd">
<!-- Generated by graphviz version 2.36.0 (20140111.2315)
 -->
<!-- Title: draw_object Pages: 1 -->
<svg width="424pt" height="66pt"
 viewBox="0.00 0.00 424.00 66.00" xmlns="http://www.w3.org/2000/svg" xmlns:xlink="http://www.w3.org/1999/xlink">
<g id="graph0" class="graph" transform="scale(1 1) rotate(0) translate(4 62)">
<title>draw_object</title>
<polygon fill="white" stroke="none" points="-4,4 -4,-62 420,-62 420,4 -4,4"/>
<!-- Node1 -->
<g id="node1" class="node"><title>Node1</title>
<polygon fill="#bfbfbf" stroke="black" points="0.5,-19.5 0.5,-38.5 69.5,-38.5 69.5,-19.5 0.5,-19.5"/>
<text text-anchor="middle" x="35" y="-26.5" font-family="Helvetica,sans-Serif" font-size="10.00">draw_object</text>
</g>
<!-- Node2 -->
<g id="node2" class="node"><title>Node2</title>
<g id="a_node2"><a xlink:href="frontend_8h.html#a0443993e9b09570d3b9ab2a6353be8c0" target="_top" xlink:title="frontend_draw_coloredtriplet">
<polygon fill="white" stroke="black" points="106.5,-38.5 106.5,-57.5 245.5,-57.5 245.5,-38.5 106.5,-38.5"/>
<text text-anchor="middle" x="176" y="-45.5" font-family="Helvetica,sans-Serif" font-size="10.00">frontend_draw_coloredtriplet</text>
</a>
</g>
</g>
<!-- Node1&#45;&gt;Node2 -->
<g id="edge1" class="edge"><title>Node1&#45;&gt;Node2</title>
<path fill="none" stroke="midnightblue" d="M69.648,-33.5994C77.7906,-34.7124 86.8374,-35.949 96.1114,-37.2167"/>
<polygon fill="midnightblue" stroke="midnightblue" points="95.8498,-40.7134 106.232,-38.6 96.7979,-33.7779 95.8498,-40.7134"/>
</g>
<!-- Node3 -->
<g id="node3" class="node"><title>Node3</title>
<g id="a_node3"><a xlink:href="iutils_8c.html#a78c507c5fd82c0c4f5255213b3690b57" target="_top" xlink:title="igetnext_linked">
<polygon fill="white" stroke="black" points="135,-0.5 135,-19.5 217,-19.5 217,-0.5 135,-0.5"/>
<text text-anchor="middle" x="176" y="-7.5" font-family="Helvetica,sans-Serif" font-size="10.00">igetnext_linked</text>
</a>
</g>
</g>
<!-- Node1&#45;&gt;Node3 -->
<g id="edge2" class="edge"><title>Node1&#45;&gt;Node3</title>
<path fill="none" stroke="midnightblue" d="M69.648,-24.4006C86.2572,-22.1303 106.628,-19.3458 125.016,-16.8324"/>
<polygon fill="midnightblue" stroke="midnightblue" points="125.557,-20.2911 134.991,-15.4689 124.609,-13.3555 125.557,-20.2911"/>
</g>
<!-- Node4 -->
<g id="node4" class="node"><title>Node4</title>
<g id="a_node4"><a xlink:href="error_8c.html#ab10bea042bb9daa7a0e027197b8080e5" target="_top" xlink:title="ierror">
<polygon fill="white" stroke="black" points="282,-0.5 282,-19.5 320,-19.5 320,-0.5 282,-0.5"/>
<text text-anchor="middle" x="301" y="-7.5" font-family="Helvetica,sans-Serif" font-size="10.00">ierror</text>
</a>
</g>
</g>
<!-- Node3&#45;&gt;Node4 -->
<g id="edge3" class="edge"><title>Node3&#45;&gt;Node4</title>
<path fill="none" stroke="midnightblue" d="M217.275,-10C235.036,-10 255.488,-10 271.614,-10"/>
<polygon fill="midnightblue" stroke="midnightblue" points="272,-13.5001 282,-10 271.999,-6.5001 272,-13.5001"/>
</g>
<!-- Node4&#45;&gt;Node4 -->
<g id="edge5" class="edge"><title>Node4&#45;&gt;Node4</title>
<path fill="none" stroke="midnightblue" d="M288.053,-19.7571C281.755,-28.5653 286.07,-38 301,-38 310.098,-38 315.254,-34.4965 316.469,-29.7663"/>
<polygon fill="midnightblue" stroke="midnightblue" points="319.784,-28.5986 313.947,-19.7571 312.997,-30.3092 319.784,-28.5986"/>
</g>
<!-- Node5 -->
<g id="node5" class="node"><title>Node5</title>
<g id="a_node5"><a xlink:href="error_8c.html#ac1727d6e8e99b92957a0a7099d19d6f4" target="_top" xlink:title="print_error">
<polygon fill="white" stroke="black" points="356,-0.5 356,-19.5 416,-19.5 416,-0.5 356,-0.5"/>
<text text-anchor="middle" x="386" y="-7.5" font-family="Helvetica,sans-Serif" font-size="10.00">print_error</text>
</a>
</g>
</g>
<!-- Node4&#45;&gt;Node5 -->
<g id="edge4" class="edge"><title>Node4&#45;&gt;Node5</title>
<path fill="none" stroke="midnightblue" d="M320.01,-10C327.631,-10 336.828,-10 345.874,-10"/>
<polygon fill="midnightblue" stroke="midnightblue" points="345.931,-13.5001 355.931,-10 345.931,-6.5001 345.931,-13.5001"/>
</g>
</g>
</svg>
