<?xml version="1.0" encoding="UTF-8" standalone="no"?>
<!DOCTYPE svg PUBLIC "-//W3C//DTD SVG 1.1//EN"
 "http://www.w3.org/Graphics/SVG/1.1/DTD/svg11.dtd">
<!-- Generated by graphviz version 2.36.0 (20140111.2315)
 -->
<!-- Title: src/inferno.h Pages: 1 -->
<svg width="301pt" height="308pt"
 viewBox="0.00 0.00 301.00 308.00" xmlns="http://www.w3.org/2000/svg" xmlns:xlink="http://www.w3.org/1999/xlink">
<g id="graph0" class="graph" transform="scale(1 1) rotate(0) translate(4 304)">
<title>src/inferno.h</title>
<polygon fill="white" stroke="none" points="-4,4 -4,-304 297,-304 297,4 -4,4"/>
<!-- Node1 -->
<g id="node1" class="node"><title>Node1</title>
<polygon fill="#bfbfbf" stroke="black" points="45.5,-280.5 45.5,-299.5 116.5,-299.5 116.5,-280.5 45.5,-280.5"/>
<text text-anchor="middle" x="81" y="-287.5" font-family="Helvetica,sans-Serif" font-size="10.00">src/inferno.h</text>
</g>
<!-- Node2 -->
<g id="node2" class="node"><title>Node2</title>
<g id="a_node2"><a xlink:href="icoordinates_8h.html" target="_top" xlink:title="icoordinates.h">
<polygon fill="white" stroke="black" points="90.5,-224.5 90.5,-243.5 167.5,-243.5 167.5,-224.5 90.5,-224.5"/>
<text text-anchor="middle" x="129" y="-231.5" font-family="Helvetica,sans-Serif" font-size="10.00">icoordinates.h</text>
</a>
</g>
</g>
<!-- Node1&#45;&gt;Node2 -->
<g id="edge1" class="edge"><title>Node1&#45;&gt;Node2</title>
<path fill="none" stroke="midnightblue" d="M88.9262,-280.083C95.8461,-272.298 106.065,-260.801 114.452,-251.367"/>
<polygon fill="midnightblue" stroke="midnightblue" points="117.194,-253.55 121.221,-243.751 111.962,-248.9 117.194,-253.55"/>
</g>
<!-- Node4 -->
<g id="node4" class="node"><title>Node4</title>
<g id="a_node4"><a xlink:href="iprimitives_8h.html" target="_top" xlink:title="../iprimitives.h">
<polygon fill="white" stroke="black" points="0,-112.5 0,-131.5 78,-131.5 78,-112.5 0,-112.5"/>
<text text-anchor="middle" x="39" y="-119.5" font-family="Helvetica,sans-Serif" font-size="10.00">../iprimitives.h</text>
</a>
</g>
</g>
<!-- Node1&#45;&gt;Node4 -->
<g id="edge13" class="edge"><title>Node1&#45;&gt;Node4</title>
<path fill="none" stroke="midnightblue" d="M78.7419,-280.075C72.1307,-253.945 52.7159,-177.211 43.7002,-141.577"/>
<polygon fill="midnightblue" stroke="midnightblue" points="47.0138,-140.404 41.1678,-131.568 40.2277,-142.121 47.0138,-140.404"/>
</g>
<!-- Node3 -->
<g id="node3" class="node"><title>Node3</title>
<g id="a_node3"><a xlink:href="frontend_8h.html" target="_top" xlink:title="frontend.h">
<polygon fill="white" stroke="black" points="99,-168.5 99,-187.5 159,-187.5 159,-168.5 99,-168.5"/>
<text text-anchor="middle" x="129" y="-175.5" font-family="Helvetica,sans-Serif" font-size="10.00">frontend.h</text>
</a>
</g>
</g>
<!-- Node2&#45;&gt;Node3 -->
<g id="edge2" class="edge"><title>Node2&#45;&gt;Node3</title>
<path fill="none" stroke="midnightblue" d="M123.834,-224.083C122.324,-216.927 121.894,-206.635 122.542,-197.691"/>
<polygon fill="midnightblue" stroke="midnightblue" points="126.015,-198.126 123.869,-187.751 119.077,-197.2 126.015,-198.126"/>
</g>
<!-- Node6 -->
<g id="node6" class="node"><title>Node6</title>
<g id="a_node6"><a xlink:href="itypes_8h.html" target="_top" xlink:title="itypes.h">
<polygon fill="white" stroke="black" points="242.5,-0.5 242.5,-19.5 293.5,-19.5 293.5,-0.5 242.5,-0.5"/>
<text text-anchor="middle" x="268" y="-7.5" font-family="Helvetica,sans-Serif" font-size="10.00">itypes.h</text>
</a>
</g>
</g>
<!-- Node2&#45;&gt;Node6 -->
<g id="edge12" class="edge"><title>Node2&#45;&gt;Node6</title>
<path fill="none" stroke="midnightblue" d="M152.442,-224.44C170.901,-216.879 196.514,-204.488 215,-188 237.447,-167.979 239.178,-158.714 253,-132 269.104,-100.876 276.321,-90.9666 274,-56 273.425,-47.3406 272.235,-37.8054 271.065,-29.7496"/>
<polygon fill="midnightblue" stroke="midnightblue" points="274.481,-28.9388 269.491,-19.5928 267.564,-30.0109 274.481,-28.9388"/>
</g>
<!-- Node3&#45;&gt;Node2 -->
<g id="edge9" class="edge"><title>Node3&#45;&gt;Node2</title>
<path fill="none" stroke="midnightblue" d="M134.131,-187.751C135.657,-194.858 136.104,-205.136 135.472,-214.101"/>
<polygon fill="midnightblue" stroke="midnightblue" points="131.993,-213.713 134.166,-224.083 138.934,-214.622 131.993,-213.713"/>
</g>
<!-- Node3&#45;&gt;Node4 -->
<g id="edge3" class="edge"><title>Node3&#45;&gt;Node4</title>
<path fill="none" stroke="midnightblue" d="M109.425,-168.324C93.71,-159.979 72.1225,-147.212 56.8774,-137.352"/>
<polygon fill="midnightblue" stroke="midnightblue" points="58.5784,-134.28 48.314,-131.655 54.7006,-140.108 58.5784,-134.28"/>
</g>
<!-- Node7 -->
<g id="node7" class="node"><title>Node7</title>
<polygon fill="white" stroke="#bfbfbf" points="96,-112.5 96,-131.5 148,-131.5 148,-112.5 96,-112.5"/>
<text text-anchor="middle" x="122" y="-119.5" font-family="Helvetica,sans-Serif" font-size="10.00">X11/X.h</text>
</g>
<!-- Node3&#45;&gt;Node7 -->
<g id="edge10" class="edge"><title>Node3&#45;&gt;Node7</title>
<path fill="none" stroke="midnightblue" d="M127.844,-168.083C126.916,-160.927 125.582,-150.635 124.423,-141.691"/>
<polygon fill="midnightblue" stroke="midnightblue" points="127.891,-141.218 123.134,-131.751 120.949,-142.118 127.891,-141.218"/>
</g>
<!-- Node8 -->
<g id="node8" class="node"><title>Node8</title>
<polygon fill="white" stroke="#bfbfbf" points="166,-112.5 166,-131.5 228,-131.5 228,-112.5 166,-112.5"/>
<text text-anchor="middle" x="197" y="-119.5" font-family="Helvetica,sans-Serif" font-size="10.00">X11/Xlib.h</text>
</g>
<!-- Node3&#45;&gt;Node8 -->
<g id="edge11" class="edge"><title>Node3&#45;&gt;Node8</title>
<path fill="none" stroke="midnightblue" d="M139.925,-168.324C150.175,-160.185 165.721,-147.839 178.001,-138.087"/>
<polygon fill="midnightblue" stroke="midnightblue" points="180.221,-140.794 185.876,-131.834 175.868,-135.312 180.221,-140.794"/>
</g>
<!-- Node4&#45;&gt;Node2 -->
<g id="edge8" class="edge"><title>Node4&#45;&gt;Node2</title>
<path fill="none" stroke="midnightblue" d="M45.4721,-131.519C55.032,-144.039 73.5717,-168.082 90,-188 97.9925,-197.69 107.183,-208.319 114.635,-216.812"/>
<polygon fill="midnightblue" stroke="midnightblue" points="112.158,-219.295 121.397,-224.48 117.408,-214.665 112.158,-219.295"/>
</g>
<!-- Node4&#45;&gt;Node3 -->
<g id="edge4" class="edge"><title>Node4&#45;&gt;Node3</title>
<path fill="none" stroke="midnightblue" d="M58.5343,-131.655C74.2394,-139.992 95.8272,-152.757 111.083,-162.622"/>
<polygon fill="midnightblue" stroke="midnightblue" points="109.39,-165.7 119.655,-168.324 113.267,-159.871 109.39,-165.7"/>
</g>
<!-- Node5 -->
<g id="node5" class="node"><title>Node5</title>
<g id="a_node5"><a xlink:href="iutils_8h.html" target="_top" xlink:title="iutils.h">
<polygon fill="white" stroke="black" points="220.5,-56.5 220.5,-75.5 265.5,-75.5 265.5,-56.5 220.5,-56.5"/>
<text text-anchor="middle" x="243" y="-63.5" font-family="Helvetica,sans-Serif" font-size="10.00">iutils.h</text>
</a>
</g>
</g>
<!-- Node4&#45;&gt;Node5 -->
<g id="edge5" class="edge"><title>Node4&#45;&gt;Node5</title>
<path fill="none" stroke="midnightblue" d="M71.3244,-112.444C109.321,-102.386 172.027,-85.7869 210.22,-75.677"/>
<polygon fill="midnightblue" stroke="midnightblue" points="211.53,-78.9509 220.302,-73.0084 209.739,-72.1839 211.53,-78.9509"/>
</g>
<!-- Node5&#45;&gt;Node2 -->
<g id="edge6" class="edge"><title>Node5&#45;&gt;Node2</title>
<path fill="none" stroke="midnightblue" d="M243.886,-75.5156C244.848,-88.45 245.185,-113.497 236,-132 217.084,-170.108 177.493,-201.38 152.134,-218.581"/>
<polygon fill="midnightblue" stroke="midnightblue" points="149.926,-215.845 143.5,-224.268 153.777,-221.69 149.926,-215.845"/>
</g>
<!-- Node5&#45;&gt;Node6 -->
<g id="edge7" class="edge"><title>Node5&#45;&gt;Node6</title>
<path fill="none" stroke="midnightblue" d="M247.128,-56.083C250.514,-48.77 255.416,-38.1814 259.619,-29.1034"/>
<polygon fill="midnightblue" stroke="midnightblue" points="262.923,-30.2962 263.949,-19.7511 256.571,-27.3553 262.923,-30.2962"/>
</g>
</g>
</svg>
