<?xml version="1.0" encoding="UTF-8" standalone="no"?>
<!DOCTYPE svg PUBLIC "-//W3C//DTD SVG 1.1//EN"
 "http://www.w3.org/Graphics/SVG/1.1/DTD/svg11.dtd">
<!-- Generated by graphviz version 2.36.0 (20140111.2315)
 -->
<!-- Title: src/inferno.c Pages: 1 -->
<!--zoomable 364 -->
<svg id="main" version="1.1" xmlns="http://www.w3.org/2000/svg" xmlns:xlink="http://www.w3.org/1999/xlink" xml:space="preserve" onload="init(evt)">
<style type="text/css"><![CDATA[
.edge:hover path { stroke: red; }
.edge:hover polygon { stroke: red; fill: red; }
]]></style>
<script type="text/javascript"><![CDATA[
var edges = document.getElementsByTagName('g');
if (edges && edges.length) {
  for (var i=0;i<edges.length;i++) {
    if (edges[i].id.substr(0,4)=='edge') {
      edges[i].setAttribute('class','edge');
    }
  }
}
]]></script>
        <defs>
                <circle id="rim" cx="0" cy="0" r="7"/>
                <circle id="rim2" cx="0" cy="0" r="3.5"/>
                <g id="zoomPlus">
                        <use xlink:href="#rim" fill="#404040">
                                <set attributeName="fill" to="#808080" begin="zoomplus.mouseover" end="zoomplus.mouseout"/>
                        </use>
                        <path d="M-4,0h8M0,-4v8" fill="none" stroke="white" stroke-width="1.5" pointer-events="none"/>
                </g>
                <g id="zoomMin">
                        <use xlink:href="#rim" fill="#404040">
                                <set attributeName="fill" to="#808080" begin="zoomminus.mouseover" end="zoomminus.mouseout"/>
                        </use>
                        <path d="M-4,0h8" fill="none" stroke="white" stroke-width="1.5" pointer-events="none"/>
                </g>
                <g id="dirArrow">
                        <path fill="none" stroke="white" stroke-width="1.5" d="M0,-3.0v7 M-2.5,-0.5L0,-3.0L2.5,-0.5"/>
                </g>
               <g id="resetDef">
                       <use xlink:href="#rim2" fill="#404040">
                               <set attributeName="fill" to="#808080" begin="reset.mouseover" end="reset.mouseout"/>
                       </use>
               </g>
        </defs>

<script type="text/javascript">
var viewWidth = 897;
var viewHeight = 364;
var sectionId = 'dynsection-0';
</script>
<script xlink:href="svgpan.js"/>
<svg id="graph" class="graph">
<g id="viewport">
<title>src/inferno.c</title>
<polygon fill="white" stroke="none" points="-4,4 -4,-360 893.329,-360 893.329,4 -4,4"/>
<!-- Node1 -->
<g id="node1" class="node"><title>Node1</title>
<polygon fill="#bfbfbf" stroke="black" points="435.829,-336.5 435.829,-355.5 506.829,-355.5 506.829,-336.5 435.829,-336.5"/>
<text text-anchor="middle" x="471.329" y="-343.5" font-family="Helvetica,sans-Serif" font-size="10.00">src/inferno.c</text>
</g>
<!-- Node2 -->
<g id="node2" class="node"><title>Node2</title>
<polygon fill="white" stroke="#bfbfbf" points="333.329,-168.5 333.329,-187.5 385.329,-187.5 385.329,-168.5 333.329,-168.5"/>
<text text-anchor="middle" x="359.329" y="-175.5" font-family="Helvetica,sans-Serif" font-size="10.00">X11/X.h</text>
</g>
<!-- Node1&#45;&gt;Node2 -->
<g id="edge1" class="edge"><title>Node1&#45;&gt;Node2</title>
<path fill="none" stroke="midnightblue" d="M452.25,-336.314C423.526,-321.956 370.685,-290.194 353.329,-244 347.723,-229.082 350.087,-210.939 353.356,-197.617"/>
<polygon fill="midnightblue" stroke="midnightblue" points="356.797,-198.312 356.159,-187.736 350.062,-196.401 356.797,-198.312"/>
</g>
<!-- Node3 -->
<g id="node3" class="node"><title>Node3</title>
<polygon fill="white" stroke="#bfbfbf" points="495.329,-168.5 495.329,-187.5 557.329,-187.5 557.329,-168.5 495.329,-168.5"/>
<text text-anchor="middle" x="526.329" y="-175.5" font-family="Helvetica,sans-Serif" font-size="10.00">X11/Xlib.h</text>
</g>
<!-- Node1&#45;&gt;Node3 -->
<g id="edge2" class="edge"><title>Node1&#45;&gt;Node3</title>
<path fill="none" stroke="midnightblue" d="M494.752,-336.394C528.042,-322.707 587.627,-292.461 611.329,-244 623.303,-219.518 593.639,-201.749 566.128,-191.04"/>
<polygon fill="midnightblue" stroke="midnightblue" points="567.152,-187.688 556.558,-187.547 564.752,-194.263 567.152,-187.688"/>
</g>
<!-- Node4 -->
<g id="node4" class="node"><title>Node4</title>
<g id="a_node4"><a xlink:href="frontend_8h.html" target="_top" xlink:title="frontend.h">
<polygon fill="white" stroke="black" points="219.329,-224.5 219.329,-243.5 279.329,-243.5 279.329,-224.5 219.329,-224.5"/>
<text text-anchor="middle" x="249.329" y="-231.5" font-family="Helvetica,sans-Serif" font-size="10.00">frontend.h</text>
</a>
</g>
</g>
<!-- Node1&#45;&gt;Node4 -->
<g id="edge3" class="edge"><title>Node1&#45;&gt;Node4</title>
<path fill="none" stroke="midnightblue" d="M435.817,-343.403C397.513,-340.105 336.256,-330.11 293.329,-300 276.469,-288.174 264.181,-267.659 256.943,-252.834"/>
<polygon fill="midnightblue" stroke="midnightblue" points="260.088,-251.295 252.745,-243.657 253.722,-254.207 260.088,-251.295"/>
</g>
<!-- Node6 -->
<g id="node6" class="node"><title>Node6</title>
<g id="a_node6"><a xlink:href="iutils_8h.html" target="_top" xlink:title="iutils.h">
<polygon fill="white" stroke="black" points="79.8287,-112.5 79.8287,-131.5 124.829,-131.5 124.829,-112.5 79.8287,-112.5"/>
<text text-anchor="middle" x="102.329" y="-119.5" font-family="Helvetica,sans-Serif" font-size="10.00">iutils.h</text>
</a>
</g>
</g>
<!-- Node1&#45;&gt;Node6 -->
<g id="edge23" class="edge"><title>Node1&#45;&gt;Node6</title>
<path fill="none" stroke="midnightblue" d="M435.616,-343.593C334.487,-338.711 50.6055,-318.471 6.32873,-244 -18.7052,-201.895 40.8706,-158.268 77.0521,-136.731"/>
<polygon fill="midnightblue" stroke="midnightblue" points="79.2012,-139.532 86.1143,-131.503 75.7033,-133.468 79.2012,-139.532"/>
</g>
<!-- Node7 -->
<g id="node7" class="node"><title>Node7</title>
<g id="a_node7"><a xlink:href="icoordinates_8h.html" target="_top" xlink:title="icoordinates.h">
<polygon fill="white" stroke="black" points="226.829,-56.5 226.829,-75.5 303.829,-75.5 303.829,-56.5 226.829,-56.5"/>
<text text-anchor="middle" x="265.329" y="-63.5" font-family="Helvetica,sans-Serif" font-size="10.00">icoordinates.h</text>
</a>
</g>
</g>
<!-- Node1&#45;&gt;Node7 -->
<g id="edge24" class="edge"><title>Node1&#45;&gt;Node7</title>
<path fill="none" stroke="midnightblue" d="M506.926,-337.322C531.71,-330.624 564.464,-318.942 588.329,-300 611.888,-281.301 617.495,-272.752 626.329,-244 636.947,-209.441 620.158,-196.034 597.329,-168 572.389,-137.375 564.301,-128.307 528.329,-112 458.371,-80.2864 368.702,-70.7765 314.206,-68.0119"/>
<polygon fill="midnightblue" stroke="midnightblue" points="314.269,-64.5113 304.122,-67.5573 313.954,-71.5042 314.269,-64.5113"/>
</g>
<!-- Node9 -->
<g id="node9" class="node"><title>Node9</title>
<g id="a_node9"><a xlink:href="frontend__opengl__linux_8h.html" target="_top" xlink:title="frontend_opengl_linux.h">
<polygon fill="white" stroke="black" points="411.829,-280.5 411.829,-299.5 530.829,-299.5 530.829,-280.5 411.829,-280.5"/>
<text text-anchor="middle" x="471.329" y="-287.5" font-family="Helvetica,sans-Serif" font-size="10.00">frontend_opengl_linux.h</text>
</a>
</g>
</g>
<!-- Node1&#45;&gt;Node9 -->
<g id="edge15" class="edge"><title>Node1&#45;&gt;Node9</title>
<path fill="none" stroke="midnightblue" d="M471.329,-336.083C471.329,-329.006 471.329,-318.861 471.329,-309.986"/>
<polygon fill="midnightblue" stroke="midnightblue" points="474.829,-309.751 471.329,-299.751 467.829,-309.751 474.829,-309.751"/>
</g>
<!-- Node13 -->
<g id="node13" class="node"><title>Node13</title>
<g id="a_node13"><a xlink:href="igraphics_8h.html" target="_top" xlink:title="igraphics.h">
<polygon fill="white" stroke="black" points="159.329,-280.5 159.329,-299.5 223.329,-299.5 223.329,-280.5 159.329,-280.5"/>
<text text-anchor="middle" x="191.329" y="-287.5" font-family="Helvetica,sans-Serif" font-size="10.00">igraphics.h</text>
</a>
</g>
</g>
<!-- Node1&#45;&gt;Node13 -->
<g id="edge25" class="edge"><title>Node1&#45;&gt;Node13</title>
<path fill="none" stroke="midnightblue" d="M435.582,-338.106C383.92,-328.143 288.562,-309.752 233.519,-299.137"/>
<polygon fill="midnightblue" stroke="midnightblue" points="233.884,-295.643 223.402,-297.186 232.558,-302.516 233.884,-295.643"/>
</g>
<!-- Node14 -->
<g id="node14" class="node"><title>Node14</title>
<g id="a_node14"><a xlink:href="error_8h.html" target="_top" xlink:title="error.h">
<polygon fill="white" stroke="black" points="715.329,-280.5 715.329,-299.5 759.329,-299.5 759.329,-280.5 715.329,-280.5"/>
<text text-anchor="middle" x="737.329" y="-287.5" font-family="Helvetica,sans-Serif" font-size="10.00">error.h</text>
</a>
</g>
</g>
<!-- Node1&#45;&gt;Node14 -->
<g id="edge30" class="edge"><title>Node1&#45;&gt;Node14</title>
<path fill="none" stroke="midnightblue" d="M506.909,-338.629C552.208,-330.383 632.82,-315.255 701.329,-300 702.602,-299.716 703.899,-299.421 705.209,-299.119"/>
<polygon fill="midnightblue" stroke="midnightblue" points="706.378,-302.437 715.287,-296.702 704.746,-295.63 706.378,-302.437"/>
</g>
<!-- Node15 -->
<g id="node15" class="node"><title>Node15</title>
<g id="a_node15"><a xlink:href="isimulation_8h.html" target="_top" xlink:title="isimulation.h">
<polygon fill="white" stroke="black" points="15.8287,-224.5 15.8287,-243.5 86.8287,-243.5 86.8287,-224.5 15.8287,-224.5"/>
<text text-anchor="middle" x="51.3287" y="-231.5" font-family="Helvetica,sans-Serif" font-size="10.00">isimulation.h</text>
</a>
</g>
</g>
<!-- Node1&#45;&gt;Node15 -->
<g id="edge31" class="edge"><title>Node1&#45;&gt;Node15</title>
<path fill="none" stroke="midnightblue" d="M435.404,-345.037C374.697,-344.002 248.811,-337.083 150.329,-300 119.125,-288.25 87.7285,-265.304 68.9043,-250.061"/>
<polygon fill="midnightblue" stroke="midnightblue" points="71.1196,-247.352 61.1858,-243.668 66.6542,-252.742 71.1196,-247.352"/>
</g>
<!-- Node16 -->
<g id="node16" class="node"><title>Node16</title>
<polygon fill="white" stroke="#bfbfbf" points="777.329,-280.5 777.329,-299.5 825.329,-299.5 825.329,-280.5 777.329,-280.5"/>
<text text-anchor="middle" x="801.329" y="-287.5" font-family="Helvetica,sans-Serif" font-size="10.00">stdlib.h</text>
</g>
<!-- Node1&#45;&gt;Node16 -->
<g id="edge34" class="edge"><title>Node1&#45;&gt;Node16</title>
<path fill="none" stroke="midnightblue" d="M507.09,-340.829C562.957,-334.029 674.195,-319.347 767.329,-300 767.43,-299.979 767.531,-299.958 767.632,-299.937"/>
<polygon fill="midnightblue" stroke="midnightblue" points="768.302,-303.374 777.259,-297.715 766.728,-296.553 768.302,-303.374"/>
</g>
<!-- Node17 -->
<g id="node17" class="node"><title>Node17</title>
<polygon fill="white" stroke="#bfbfbf" points="843.329,-280.5 843.329,-299.5 889.329,-299.5 889.329,-280.5 843.329,-280.5"/>
<text text-anchor="middle" x="866.329" y="-287.5" font-family="Helvetica,sans-Serif" font-size="10.00">stdio.h</text>
</g>
<!-- Node1&#45;&gt;Node17 -->
<g id="edge35" class="edge"><title>Node1&#45;&gt;Node17</title>
<path fill="none" stroke="midnightblue" d="M506.911,-342.381C570.535,-337.313 708.077,-324.611 832.898,-300.021"/>
<polygon fill="midnightblue" stroke="midnightblue" points="833.891,-303.392 843.009,-297.997 832.517,-296.528 833.891,-303.392"/>
</g>
<!-- Node4&#45;&gt;Node2 -->
<g id="edge13" class="edge"><title>Node4&#45;&gt;Node2</title>
<path fill="none" stroke="midnightblue" d="M267.002,-224.324C284.723,-215.625 312.232,-202.12 332.617,-192.113"/>
<polygon fill="midnightblue" stroke="midnightblue" points="334.265,-195.203 341.699,-187.655 331.18,-188.919 334.265,-195.203"/>
</g>
<!-- Node4&#45;&gt;Node3 -->
<g id="edge14" class="edge"><title>Node4&#45;&gt;Node3</title>
<path fill="none" stroke="midnightblue" d="M279.5,-227.118C329.265,-217.417 428.64,-198.044 484.934,-187.07"/>
<polygon fill="midnightblue" stroke="midnightblue" points="485.777,-190.471 494.923,-185.122 484.438,-183.601 485.777,-190.471"/>
</g>
<!-- Node5 -->
<g id="node5" class="node"><title>Node5</title>
<g id="a_node5"><a xlink:href="iprimitives_8h.html" target="_top" xlink:title="../iprimitives.h">
<polygon fill="white" stroke="black" points="181.329,-168.5 181.329,-187.5 259.329,-187.5 259.329,-168.5 181.329,-168.5"/>
<text text-anchor="middle" x="220.329" y="-175.5" font-family="Helvetica,sans-Serif" font-size="10.00">../iprimitives.h</text>
</a>
</g>
</g>
<!-- Node4&#45;&gt;Node5 -->
<g id="edge4" class="edge"><title>Node4&#45;&gt;Node5</title>
<path fill="none" stroke="midnightblue" d="M239.374,-224.083C233.904,-216.77 227.801,-206.181 223.638,-197.103"/>
<polygon fill="midnightblue" stroke="midnightblue" points="226.861,-195.736 219.897,-187.751 220.361,-198.336 226.861,-195.736"/>
</g>
<!-- Node4&#45;&gt;Node7 -->
<g id="edge12" class="edge"><title>Node4&#45;&gt;Node7</title>
<path fill="none" stroke="midnightblue" d="M247.402,-224.372C249.888,-215.552 256.636,-201.299 259.329,-188 266.531,-152.424 262.648,-109.769 262.125,-85.7845"/>
<polygon fill="midnightblue" stroke="midnightblue" points="265.626,-85.6491 262.201,-75.6231 258.626,-85.5964 265.626,-85.6491"/>
</g>
<!-- Node5&#45;&gt;Node4 -->
<g id="edge5" class="edge"><title>Node5&#45;&gt;Node4</title>
<path fill="none" stroke="midnightblue" d="M230.159,-187.751C235.62,-195.014 241.732,-205.589 245.925,-214.69"/>
<polygon fill="midnightblue" stroke="midnightblue" points="242.725,-216.114 249.706,-224.083 249.218,-213.499 242.725,-216.114"/>
</g>
<!-- Node5&#45;&gt;Node6 -->
<g id="edge6" class="edge"><title>Node5&#45;&gt;Node6</title>
<path fill="none" stroke="midnightblue" d="M201.631,-168.444C182.384,-159.636 152.176,-145.812 130.129,-135.722"/>
<polygon fill="midnightblue" stroke="midnightblue" points="131.488,-132.495 120.939,-131.516 128.575,-138.86 131.488,-132.495"/>
</g>
<!-- Node5&#45;&gt;Node7 -->
<g id="edge11" class="edge"><title>Node5&#45;&gt;Node7</title>
<path fill="none" stroke="midnightblue" d="M223.86,-168.368C231.188,-150.456 248.178,-108.923 257.986,-84.9482"/>
<polygon fill="midnightblue" stroke="midnightblue" points="261.267,-86.1721 261.814,-75.5914 254.788,-83.5217 261.267,-86.1721"/>
</g>
<!-- Node6&#45;&gt;Node7 -->
<g id="edge7" class="edge"><title>Node6&#45;&gt;Node7</title>
<path fill="none" stroke="midnightblue" d="M124.993,-113.492C152.146,-104.496 197.957,-89.3196 229.821,-78.7632"/>
<polygon fill="midnightblue" stroke="midnightblue" points="231.244,-81.9791 239.636,-75.5118 229.042,-75.3342 231.244,-81.9791"/>
</g>
<!-- Node8 -->
<g id="node8" class="node"><title>Node8</title>
<g id="a_node8"><a xlink:href="itypes_8h.html" target="_top" xlink:title="itypes.h">
<polygon fill="white" stroke="black" points="189.829,-0.5 189.829,-19.5 240.829,-19.5 240.829,-0.5 189.829,-0.5"/>
<text text-anchor="middle" x="215.329" y="-7.5" font-family="Helvetica,sans-Serif" font-size="10.00">itypes.h</text>
</a>
</g>
</g>
<!-- Node6&#45;&gt;Node8 -->
<g id="edge10" class="edge"><title>Node6&#45;&gt;Node8</title>
<path fill="none" stroke="midnightblue" d="M111.196,-112.368C130.174,-93.8941 174.965,-50.2926 199.156,-26.7436"/>
<polygon fill="midnightblue" stroke="midnightblue" points="201.779,-29.0747 206.503,-19.5914 196.896,-24.0588 201.779,-29.0747"/>
</g>
<!-- Node7&#45;&gt;Node4 -->
<g id="edge8" class="edge"><title>Node7&#45;&gt;Node4</title>
<path fill="none" stroke="midnightblue" d="M271.489,-75.6231C279.081,-95.6193 285.71,-146.603 277.329,-188 275.394,-197.558 271.363,-207.61 266.694,-215.783"/>
<polygon fill="midnightblue" stroke="midnightblue" points="263.61,-214.102 261.007,-224.372 269.446,-217.966 263.61,-214.102"/>
</g>
<!-- Node7&#45;&gt;Node8 -->
<g id="edge9" class="edge"><title>Node7&#45;&gt;Node8</title>
<path fill="none" stroke="midnightblue" d="M257.072,-56.083C249.864,-48.2982 239.219,-36.8015 230.483,-27.3665"/>
<polygon fill="midnightblue" stroke="midnightblue" points="232.794,-24.7108 223.432,-19.7511 227.658,-29.4666 232.794,-24.7108"/>
</g>
<!-- Node9&#45;&gt;Node2 -->
<g id="edge16" class="edge"><title>Node9&#45;&gt;Node2</title>
<path fill="none" stroke="midnightblue" d="M422.87,-280.44C401.453,-274.073 378.06,-263.043 364.329,-244 354.718,-230.671 354.4,-211.554 355.926,-197.501"/>
<polygon fill="midnightblue" stroke="midnightblue" points="359.401,-197.929 357.402,-187.524 352.476,-196.904 359.401,-197.929"/>
</g>
<!-- Node9&#45;&gt;Node3 -->
<g id="edge17" class="edge"><title>Node9&#45;&gt;Node3</title>
<path fill="none" stroke="midnightblue" d="M479.616,-280.364C487.47,-271.762 499.111,-257.872 506.329,-244 513.992,-229.271 519.272,-211.11 522.473,-197.732"/>
<polygon fill="midnightblue" stroke="midnightblue" points="525.928,-198.321 524.681,-187.8 519.094,-196.802 525.928,-198.321"/>
</g>
<!-- Node9&#45;&gt;Node4 -->
<g id="edge21" class="edge"><title>Node9&#45;&gt;Node4</title>
<path fill="none" stroke="midnightblue" d="M436.152,-280.444C396.168,-270.718 331.041,-254.876 289.204,-244.699"/>
<polygon fill="midnightblue" stroke="midnightblue" points="289.901,-241.267 279.357,-242.304 288.246,-248.069 289.901,-241.267"/>
</g>
<!-- Node9&#45;&gt;Node7 -->
<g id="edge22" class="edge"><title>Node9&#45;&gt;Node7</title>
<path fill="none" stroke="midnightblue" d="M530.87,-284.195C574.82,-277.549 624.834,-261.717 611.329,-224 569.117,-106.108 399.253,-76.7278 314.264,-69.416"/>
<polygon fill="midnightblue" stroke="midnightblue" points="314.333,-65.9106 304.088,-68.6115 313.781,-72.8889 314.333,-65.9106"/>
</g>
<!-- Node10 -->
<g id="node10" class="node"><title>Node10</title>
<polygon fill="white" stroke="#bfbfbf" points="554.329,-224.5 554.329,-243.5 602.329,-243.5 602.329,-224.5 554.329,-224.5"/>
<text text-anchor="middle" x="578.329" y="-231.5" font-family="Helvetica,sans-Serif" font-size="10.00">GL/gl.h</text>
</g>
<!-- Node9&#45;&gt;Node10 -->
<g id="edge18" class="edge"><title>Node9&#45;&gt;Node10</title>
<path fill="none" stroke="midnightblue" d="M488.52,-280.324C505.68,-271.664 532.274,-258.242 552.076,-248.249"/>
<polygon fill="midnightblue" stroke="midnightblue" points="553.829,-251.285 561.18,-243.655 550.676,-245.035 553.829,-251.285"/>
</g>
<!-- Node11 -->
<g id="node11" class="node"><title>Node11</title>
<polygon fill="white" stroke="#bfbfbf" points="373.829,-224.5 373.829,-243.5 426.829,-243.5 426.829,-224.5 373.829,-224.5"/>
<text text-anchor="middle" x="400.329" y="-231.5" font-family="Helvetica,sans-Serif" font-size="10.00">GL/glx.h</text>
</g>
<!-- Node9&#45;&gt;Node11 -->
<g id="edge19" class="edge"><title>Node9&#45;&gt;Node11</title>
<path fill="none" stroke="midnightblue" d="M459.921,-280.324C449.22,-272.185 432.988,-259.839 420.166,-250.087"/>
<polygon fill="midnightblue" stroke="midnightblue" points="422.022,-247.102 411.944,-243.834 417.784,-252.673 422.022,-247.102"/>
</g>
<!-- Node12 -->
<g id="node12" class="node"><title>Node12</title>
<polygon fill="white" stroke="#bfbfbf" points="444.829,-224.5 444.829,-243.5 497.829,-243.5 497.829,-224.5 444.829,-224.5"/>
<text text-anchor="middle" x="471.329" y="-231.5" font-family="Helvetica,sans-Serif" font-size="10.00">GL/glu.h</text>
</g>
<!-- Node9&#45;&gt;Node12 -->
<g id="edge20" class="edge"><title>Node9&#45;&gt;Node12</title>
<path fill="none" stroke="midnightblue" d="M471.329,-280.083C471.329,-273.006 471.329,-262.861 471.329,-253.986"/>
<polygon fill="midnightblue" stroke="midnightblue" points="474.829,-253.751 471.329,-243.751 467.829,-253.751 474.829,-253.751"/>
</g>
<!-- Node13&#45;&gt;Node4 -->
<g id="edge26" class="edge"><title>Node13&#45;&gt;Node4</title>
<path fill="none" stroke="midnightblue" d="M200.647,-280.324C209.221,-272.341 222.141,-260.313 232.516,-250.653"/>
<polygon fill="midnightblue" stroke="midnightblue" points="234.906,-253.21 239.84,-243.834 230.137,-248.086 234.906,-253.21"/>
</g>
<!-- Node13&#45;&gt;Node5 -->
<g id="edge29" class="edge"><title>Node13&#45;&gt;Node5</title>
<path fill="none" stroke="midnightblue" d="M193.604,-280.368C198.305,-262.537 209.178,-221.295 215.512,-197.272"/>
<polygon fill="midnightblue" stroke="midnightblue" points="218.899,-198.153 218.064,-187.591 212.13,-196.369 218.899,-198.153"/>
</g>
<!-- Node13&#45;&gt;Node6 -->
<g id="edge27" class="edge"><title>Node13&#45;&gt;Node6</title>
<path fill="none" stroke="midnightblue" d="M177.458,-280.284C165.705,-272.221 149.23,-259.208 139.329,-244 118.23,-211.592 108.653,-166.538 104.728,-141.555"/>
<polygon fill="midnightblue" stroke="midnightblue" points="108.185,-141.008 103.301,-131.606 101.256,-142.002 108.185,-141.008"/>
</g>
<!-- Node13&#45;&gt;Node7 -->
<g id="edge28" class="edge"><title>Node13&#45;&gt;Node7</title>
<path fill="none" stroke="midnightblue" d="M187.065,-280.461C177.57,-260.218 156.712,-208.015 172.329,-168 186.852,-130.787 222.216,-99.0118 244.911,-81.503"/>
<polygon fill="midnightblue" stroke="midnightblue" points="247.01,-84.3037 252.918,-75.5094 242.815,-78.6997 247.01,-84.3037"/>
</g>
<!-- Node15&#45;&gt;Node5 -->
<g id="edge33" class="edge"><title>Node15&#45;&gt;Node5</title>
<path fill="none" stroke="midnightblue" d="M78.1073,-224.444C106.662,-215.32 152.061,-200.813 183.866,-190.651"/>
<polygon fill="midnightblue" stroke="midnightblue" points="185.215,-193.894 193.675,-187.516 183.085,-187.226 185.215,-193.894"/>
</g>
<!-- Node15&#45;&gt;Node6 -->
<g id="edge32" class="edge"><title>Node15&#45;&gt;Node6</title>
<path fill="none" stroke="midnightblue" d="M55.3306,-224.368C63.6353,-206.456 82.8916,-164.923 94.0073,-140.948"/>
<polygon fill="midnightblue" stroke="midnightblue" points="97.3144,-142.136 98.3454,-131.591 90.9638,-139.192 97.3144,-142.136"/>
</g>
</g>
</svg>
        <g id="navigator" transform="translate(0 0)" fill="#404254">
                <rect fill="#f2f5e9" fill-opacity="0.5" stroke="#606060" stroke-width=".5" x="0" y="0" width="60" height="60"/>
                <use id="zoomplus" xlink:href="#zoomPlus" x="17" y="9" onmousedown="handleZoom(evt,'in')"/>
                <use id="zoomminus" xlink:href="#zoomMin" x="42" y="9" onmousedown="handleZoom(evt,'out')"/>
                <use id="reset" xlink:href="#resetDef" x="30" y="36" onmousedown="handleReset()"/>
                <g id="arrowUp" xlink:href="#dirArrow" transform="translate(30 24)" onmousedown="handlePan(0,-1)">
                  <use xlink:href="#rim" fill="#404040">
                        <set attributeName="fill" to="#808080" begin="arrowUp.mouseover" end="arrowUp.mouseout"/>
                  </use>
                  <path fill="none" stroke="white" stroke-width="1.5" d="M0,-3.0v7 M-2.5,-0.5L0,-3.0L2.5,-0.5"/>
                </g>
                <g id="arrowRight" xlink:href="#dirArrow" transform="rotate(90) translate(36 -43)" onmousedown="handlePan(1,0)">
                  <use xlink:href="#rim" fill="#404040">
                        <set attributeName="fill" to="#808080" begin="arrowRight.mouseover" end="arrowRight.mouseout"/>
                  </use>
                  <path fill="none" stroke="white" stroke-width="1.5" d="M0,-3.0v7 M-2.5,-0.5L0,-3.0L2.5,-0.5"/>
                </g>
                <g id="arrowDown" xlink:href="#dirArrow" transform="rotate(180) translate(-30 -48)" onmousedown="handlePan(0,1)">
                  <use xlink:href="#rim" fill="#404040">
                        <set attributeName="fill" to="#808080" begin="arrowDown.mouseover" end="arrowDown.mouseout"/>
                  </use>
                  <path fill="none" stroke="white" stroke-width="1.5" d="M0,-3.0v7 M-2.5,-0.5L0,-3.0L2.5,-0.5"/>
                </g>
                <g id="arrowLeft" xlink:href="#dirArrow" transform="rotate(270) translate(-36 17)" onmousedown="handlePan(-1,0)">
                  <use xlink:href="#rim" fill="#404040">
                        <set attributeName="fill" to="#808080" begin="arrowLeft.mouseover" end="arrowLeft.mouseout"/>
                  </use>
                  <path fill="none" stroke="white" stroke-width="1.5" d="M0,-3.0v7 M-2.5,-0.5L0,-3.0L2.5,-0.5"/>
                </g>
        </g>
        <svg viewBox="0 0 15 15" width="100%" height="30px" preserveAspectRatio="xMaxYMin meet">
         <g id="arrow_out" transform="scale(0.3 0.3)">
          <a xlink:href="inferno_8c__incl_org.svg" target="_base">
           <rect id="button" ry="5" rx="5" y="6" x="6" height="38" width="38"
                fill="#f2f5e9" fill-opacity="0.5" stroke="#606060" stroke-width="1.0"/>
           <path id="arrow"
             d="M 11.500037,31.436501 C 11.940474,20.09759 22.043105,11.32322 32.158766,21.979434 L 37.068811,17.246167 C 37.068811,17.246167 37.088388,32 37.088388,32 L 22.160133,31.978069 C 22.160133,31.978069 26.997745,27.140456 26.997745,27.140456 C 18.528582,18.264221 13.291696,25.230495 11.500037,31.436501 z"
             style="fill:#404040;"/>
          </a>
         </g>
        </svg>
</svg>
