<?xml version="1.0" encoding="UTF-8" standalone="no"?>
<!DOCTYPE svg PUBLIC "-//W3C//DTD SVG 1.1//EN"
 "http://www.w3.org/Graphics/SVG/1.1/DTD/svg11.dtd">
<!-- Generated by graphviz version 2.36.0 (20140111.2315)
 -->
<!-- Title: main Pages: 1 -->
<!--zoomable 753 -->
<svg id="main" version="1.1" xmlns="http://www.w3.org/2000/svg" xmlns:xlink="http://www.w3.org/1999/xlink" xml:space="preserve" onload="init(evt)">
<style type="text/css"><![CDATA[
.edge:hover path { stroke: red; }
.edge:hover polygon { stroke: red; fill: red; }
]]></style>
<script type="text/javascript"><![CDATA[
var edges = document.getElementsByTagName('g');
if (edges && edges.length) {
  for (var i=0;i<edges.length;i++) {
    if (edges[i].id.substr(0,4)=='edge') {
      edges[i].setAttribute('class','edge');
    }
  }
}
]]></script>
        <defs>
                <circle id="rim" cx="0" cy="0" r="7"/>
                <circle id="rim2" cx="0" cy="0" r="3.5"/>
                <g id="zoomPlus">
                        <use xlink:href="#rim" fill="#404040">
                                <set attributeName="fill" to="#808080" begin="zoomplus.mouseover" end="zoomplus.mouseout"/>
                        </use>
                        <path d="M-4,0h8M0,-4v8" fill="none" stroke="white" stroke-width="1.5" pointer-events="none"/>
                </g>
                <g id="zoomMin">
                        <use xlink:href="#rim" fill="#404040">
                                <set attributeName="fill" to="#808080" begin="zoomminus.mouseover" end="zoomminus.mouseout"/>
                        </use>
                        <path d="M-4,0h8" fill="none" stroke="white" stroke-width="1.5" pointer-events="none"/>
                </g>
                <g id="dirArrow">
                        <path fill="none" stroke="white" stroke-width="1.5" d="M0,-3.0v7 M-2.5,-0.5L0,-3.0L2.5,-0.5"/>
                </g>
               <g id="resetDef">
                       <use xlink:href="#rim2" fill="#404040">
                               <set attributeName="fill" to="#808080" begin="reset.mouseover" end="reset.mouseout"/>
                       </use>
               </g>
        </defs>

<script type="text/javascript">
var viewWidth = 724;
var viewHeight = 753;
var sectionId = 'dynsection-1';
</script>
<script xlink:href="svgpan.js"/>
<svg id="graph" class="graph">
<g id="viewport">
<title>main</title>
<polygon fill="white" stroke="none" points="-4,4 -4,-749 720,-749 720,4 -4,4"/>
<!-- Node1 -->
<g id="node1" class="node"><title>Node1</title>
<polygon fill="#bfbfbf" stroke="black" points="0,-304.5 0,-323.5 38,-323.5 38,-304.5 0,-304.5"/>
<text text-anchor="middle" x="19" y="-311.5" font-family="Helvetica,sans-Serif" font-size="10.00">main</text>
</g>
<!-- Node2 -->
<g id="node2" class="node"><title>Node2</title>
<g id="a_node2"><a xlink:href="frontend_8h.html#a4cb194a7e9456fffef751e2a311735eb" target="_top" xlink:title="frontend_initialize">
<polygon fill="white" stroke="black" points="94,-725.5 94,-744.5 186,-744.5 186,-725.5 94,-725.5"/>
<text text-anchor="middle" x="140" y="-732.5" font-family="Helvetica,sans-Serif" font-size="10.00">frontend_initialize</text>
</a>
</g>
</g>
<!-- Node1&#45;&gt;Node2 -->
<g id="edge1" class="edge"><title>Node1&#45;&gt;Node2</title>
<path fill="none" stroke="midnightblue" d="M20.0088,-323.523C20.2437,-377.872 23.9419,-648.607 74,-711 77.0841,-714.844 80.8457,-718.072 84.9891,-720.784"/>
<polygon fill="midnightblue" stroke="midnightblue" points="83.479,-723.947 93.9354,-725.654 86.8262,-717.799 83.479,-723.947"/>
</g>
<!-- Node3 -->
<g id="node3" class="node"><title>Node3</title>
<g id="a_node3"><a xlink:href="frontend_8h.html#aeac975aee6becbb83f7fac162d290fe0" target="_top" xlink:title="frontend_initialize\l_viewspace">
<polygon fill="white" stroke="black" points="94,-419 94,-449 186,-449 186,-419 94,-419"/>
<text text-anchor="start" x="102" y="-437" font-family="Helvetica,sans-Serif" font-size="10.00">frontend_initialize</text>
<text text-anchor="middle" x="140" y="-426" font-family="Helvetica,sans-Serif" font-size="10.00">_viewspace</text>
</a>
</g>
</g>
<!-- Node1&#45;&gt;Node3 -->
<g id="edge2" class="edge"><title>Node1&#45;&gt;Node3</title>
<path fill="none" stroke="midnightblue" d="M23.5554,-323.681C30.606,-341.691 47.9621,-380.633 74,-404 78.1047,-407.684 82.7394,-410.992 87.597,-413.944"/>
<polygon fill="midnightblue" stroke="midnightblue" points="86.0706,-417.099 96.5153,-418.877 89.4588,-410.974 86.0706,-417.099"/>
</g>
<!-- Node10 -->
<g id="node10" class="node"><title>Node10</title>
<g id="a_node10"><a xlink:href="frontend_8c.html#af20744b431ee1afa0043f15e5e2f9207" target="_top" xlink:title="inew_eventhandler">
<polygon fill="white" stroke="black" points="263,-383.5 263,-402.5 361,-402.5 361,-383.5 263,-383.5"/>
<text text-anchor="middle" x="312" y="-390.5" font-family="Helvetica,sans-Serif" font-size="10.00">inew_eventhandler</text>
</a>
</g>
</g>
<!-- Node1&#45;&gt;Node10 -->
<g id="edge40" class="edge"><title>Node1&#45;&gt;Node10</title>
<path fill="none" stroke="midnightblue" d="M29.3515,-323.742C39.4055,-333.575 56.3385,-348.367 74,-356 131.458,-380.833 203.146,-389.261 252.547,-391.986"/>
<polygon fill="midnightblue" stroke="midnightblue" points="252.578,-395.492 262.737,-392.485 252.92,-388.5 252.578,-395.492"/>
</g>
<!-- Node11 -->
<g id="node11" class="node"><title>Node11</title>
<g id="a_node11"><a xlink:href="frontend_8h.html#ad8a729cc49f33a0037227c75e1979ada" target="_top" xlink:title="frontend_reset_viewspace">
<polygon fill="white" stroke="black" points="74.5,-304.5 74.5,-323.5 205.5,-323.5 205.5,-304.5 74.5,-304.5"/>
<text text-anchor="middle" x="140" y="-311.5" font-family="Helvetica,sans-Serif" font-size="10.00">frontend_reset_viewspace</text>
</a>
</g>
</g>
<!-- Node1&#45;&gt;Node11 -->
<g id="edge13" class="edge"><title>Node1&#45;&gt;Node11</title>
<path fill="none" stroke="midnightblue" d="M38.0735,-314C45.4568,-314 54.5295,-314 64.1792,-314"/>
<polygon fill="midnightblue" stroke="midnightblue" points="64.3973,-317.5 74.3973,-314 64.3973,-310.5 64.3973,-317.5"/>
</g>
<!-- Node15 -->
<g id="node15" class="node"><title>Node15</title>
<g id="a_node15"><a xlink:href="iprimitives_8c.html#ae27d7429de4cdecf56a3ac42046e0bf8" target="_top" xlink:title="inew_color">
<polygon fill="white" stroke="black" points="108.5,-266.5 108.5,-285.5 171.5,-285.5 171.5,-266.5 108.5,-266.5"/>
<text text-anchor="middle" x="140" y="-273.5" font-family="Helvetica,sans-Serif" font-size="10.00">inew_color</text>
</a>
</g>
</g>
<!-- Node1&#45;&gt;Node15 -->
<g id="edge17" class="edge"><title>Node1&#45;&gt;Node15</title>
<path fill="none" stroke="midnightblue" d="M38.411,-307.245C48.812,-303.499 62.0797,-298.836 74,-295 81.9566,-292.439 90.5069,-289.836 98.7075,-287.41"/>
<polygon fill="midnightblue" stroke="midnightblue" points="99.8576,-290.721 108.474,-284.555 97.8933,-284.002 99.8576,-290.721"/>
</g>
<!-- Node16 -->
<g id="node16" class="node"><title>Node16</title>
<g id="a_node16"><a xlink:href="iprimitives_8c.html#a50f1cb57c7e493d9622bcc633f0a5309" target="_top" xlink:title="init_iobject">
<polygon fill="white" stroke="black" points="108.5,-228.5 108.5,-247.5 171.5,-247.5 171.5,-228.5 108.5,-228.5"/>
<text text-anchor="middle" x="140" y="-235.5" font-family="Helvetica,sans-Serif" font-size="10.00">init_iobject</text>
</a>
</g>
</g>
<!-- Node1&#45;&gt;Node16 -->
<g id="edge18" class="edge"><title>Node1&#45;&gt;Node16</title>
<path fill="none" stroke="midnightblue" d="M26.5264,-304.444C35.6807,-291.758 53.5267,-269.507 74,-257 81.4275,-252.462 89.9949,-248.96 98.4219,-246.274"/>
<polygon fill="midnightblue" stroke="midnightblue" points="99.5226,-249.6 108.173,-243.483 97.596,-242.87 99.5226,-249.6"/>
</g>
<!-- Node18 -->
<g id="node18" class="node"><title>Node18</title>
<g id="a_node18"><a xlink:href="iprimitives_8c.html#a32c313b4080f6b2ce22b65bbd1ad9236" target="_top" xlink:title="iobject_add_triplet">
<polygon fill="white" stroke="black" points="264.5,-345.5 264.5,-364.5 359.5,-364.5 359.5,-345.5 264.5,-345.5"/>
<text text-anchor="middle" x="312" y="-352.5" font-family="Helvetica,sans-Serif" font-size="10.00">iobject_add_triplet</text>
</a>
</g>
</g>
<!-- Node1&#45;&gt;Node18 -->
<g id="edge20" class="edge"><title>Node1&#45;&gt;Node18</title>
<path fill="none" stroke="midnightblue" d="M38.1692,-321.652C48.4946,-325.678 61.7671,-330.323 74,-333 134.549,-346.25 205.506,-351.526 253.888,-353.623"/>
<polygon fill="midnightblue" stroke="midnightblue" points="254.029,-357.132 264.161,-354.036 254.309,-350.137 254.029,-357.132"/>
</g>
<!-- Node25 -->
<g id="node25" class="node"><title>Node25</title>
<g id="a_node25"><a xlink:href="iprimitives_8c.html#a4dd78e34cbd3e6cabf29a57b62b1bc90" target="_top" xlink:title="inew_coloredtriplet">
<polygon fill="white" stroke="black" points="91,-190.5 91,-209.5 189,-209.5 189,-190.5 91,-190.5"/>
<text text-anchor="middle" x="140" y="-197.5" font-family="Helvetica,sans-Serif" font-size="10.00">inew_coloredtriplet</text>
</a>
</g>
</g>
<!-- Node1&#45;&gt;Node25 -->
<g id="edge32" class="edge"><title>Node1&#45;&gt;Node25</title>
<path fill="none" stroke="midnightblue" d="M22.7944,-304.298C28.8403,-285.057 44.9838,-241.948 74,-219 76.412,-217.092 79.0097,-215.376 81.7299,-213.832"/>
<polygon fill="midnightblue" stroke="midnightblue" points="83.2803,-216.97 90.7576,-209.464 80.2315,-210.669 83.2803,-216.97"/>
</g>
<!-- Node26 -->
<g id="node26" class="node"><title>Node26</title>
<g id="a_node26"><a xlink:href="icoordinates_8c.html#a045ac96ebb3a6309f1fc2fd44381c45f" target="_top" xlink:title="inew_point">
<polygon fill="white" stroke="black" points="108.5,-468.5 108.5,-487.5 171.5,-487.5 171.5,-468.5 108.5,-468.5"/>
<text text-anchor="middle" x="140" y="-475.5" font-family="Helvetica,sans-Serif" font-size="10.00">inew_point</text>
</a>
</g>
</g>
<!-- Node1&#45;&gt;Node26 -->
<g id="edge33" class="edge"><title>Node1&#45;&gt;Node26</title>
<path fill="none" stroke="midnightblue" d="M20.7549,-323.643C23.2888,-349.346 33.7591,-420.114 74,-458 80.8181,-464.419 89.6505,-468.78 98.5947,-471.743"/>
<polygon fill="midnightblue" stroke="midnightblue" points="97.681,-475.122 108.254,-474.44 99.5634,-468.379 97.681,-475.122"/>
</g>
<!-- Node27 -->
<g id="node27" class="node"><title>Node27</title>
<g id="a_node27"><a xlink:href="iprimitives_8c.html#ad14816b7b9d9bc34ae7098efadf43add" target="_top" xlink:title="iprint_object">
<polygon fill="white" stroke="black" points="105.5,-522.5 105.5,-541.5 174.5,-541.5 174.5,-522.5 105.5,-522.5"/>
<text text-anchor="middle" x="140" y="-529.5" font-family="Helvetica,sans-Serif" font-size="10.00">iprint_object</text>
</a>
</g>
</g>
<!-- Node1&#45;&gt;Node27 -->
<g id="edge36" class="edge"><title>Node1&#45;&gt;Node27</title>
<path fill="none" stroke="midnightblue" d="M20.3148,-323.528C21.7527,-352.758 29.7393,-442.479 74,-497 81.1742,-505.837 91.1938,-512.755 101.221,-518.022"/>
<polygon fill="midnightblue" stroke="midnightblue" points="99.8204,-521.232 110.35,-522.403 102.849,-514.921 99.8204,-521.232"/>
</g>
<!-- Node30 -->
<g id="node30" class="node"><title>Node30</title>
<g id="a_node30"><a xlink:href="inferno_8c.html#ac367369074184100d42ced4c3f1025ca" target="_top" xlink:title="random_function">
<polygon fill="white" stroke="black" points="427.5,-658.5 427.5,-677.5 516.5,-677.5 516.5,-658.5 427.5,-658.5"/>
<text text-anchor="middle" x="472" y="-665.5" font-family="Helvetica,sans-Serif" font-size="10.00">random_function</text>
</a>
</g>
</g>
<!-- Node1&#45;&gt;Node30 -->
<g id="edge41" class="edge"><title>Node1&#45;&gt;Node30</title>
<path fill="none" stroke="midnightblue" d="M20.1044,-323.546C20.8482,-372.509 26.8152,-594.922 74,-640 171.02,-732.688 349.293,-700.867 429.718,-680.1"/>
<polygon fill="midnightblue" stroke="midnightblue" points="430.719,-683.455 439.486,-677.506 428.923,-676.689 430.719,-683.455"/>
</g>
<!-- Node31 -->
<g id="node31" class="node"><title>Node31</title>
<g id="a_node31"><a xlink:href="frontend_8c.html#a3012f53c007b67ba7dedf3156eb37e80" target="_top" xlink:title="frontend_set_eventhandler">
<polygon fill="white" stroke="black" points="74.5,-152.5 74.5,-171.5 205.5,-171.5 205.5,-152.5 74.5,-152.5"/>
<text text-anchor="middle" x="140" y="-159.5" font-family="Helvetica,sans-Serif" font-size="10.00">frontend_set_eventhandler</text>
</a>
</g>
</g>
<!-- Node1&#45;&gt;Node31 -->
<g id="edge43" class="edge"><title>Node1&#45;&gt;Node31</title>
<path fill="none" stroke="midnightblue" d="M21.0622,-304.345C24.2689,-279.933 36.0929,-215.249 74,-181 75.7365,-179.431 77.5961,-177.991 79.5489,-176.67"/>
<polygon fill="midnightblue" stroke="midnightblue" points="81.5946,-179.536 88.6169,-171.603 78.18,-173.425 81.5946,-179.536"/>
</g>
<!-- Node32 -->
<g id="node32" class="node"><title>Node32</title>
<g id="a_node32"><a xlink:href="isimulation_8c.html#a1eeaf5788ce94de493d5d99b1a79d0cb" target="_top" xlink:title="idetectcollision_object">
<polygon fill="white" stroke="black" points="83.5,-114.5 83.5,-133.5 196.5,-133.5 196.5,-114.5 83.5,-114.5"/>
<text text-anchor="middle" x="140" y="-121.5" font-family="Helvetica,sans-Serif" font-size="10.00">idetectcollision_object</text>
</a>
</g>
</g>
<!-- Node1&#45;&gt;Node32 -->
<g id="edge44" class="edge"><title>Node1&#45;&gt;Node32</title>
<path fill="none" stroke="midnightblue" d="M20.0673,-304.266C20.8113,-275.32 27.0538,-188.948 74,-143 75.4809,-141.551 77.066,-140.211 78.7339,-138.972"/>
<polygon fill="midnightblue" stroke="midnightblue" points="80.9094,-141.747 87.6647,-133.585 77.294,-135.753 80.9094,-141.747"/>
</g>
<!-- Node36 -->
<g id="node36" class="node"><title>Node36</title>
<g id="a_node36"><a xlink:href="frontend_8h.html#a6452a9d7c9fcabeb40bb5d8495300090" target="_top" xlink:title="step">
<polygon fill="white" stroke="black" points="122.5,-76.5 122.5,-95.5 157.5,-95.5 157.5,-76.5 122.5,-76.5"/>
<text text-anchor="middle" x="140" y="-83.5" font-family="Helvetica,sans-Serif" font-size="10.00">step</text>
</a>
</g>
</g>
<!-- Node1&#45;&gt;Node36 -->
<g id="edge48" class="edge"><title>Node1&#45;&gt;Node36</title>
<path fill="none" stroke="midnightblue" d="M19.3971,-304.087C17.9522,-270.951 17.9311,-162.866 74,-105 83.9415,-94.7398 99.0904,-89.9391 112.263,-87.7268"/>
<polygon fill="midnightblue" stroke="midnightblue" points="112.789,-91.1881 122.267,-86.4525 111.904,-84.2443 112.789,-91.1881"/>
</g>
<!-- Node37 -->
<g id="node37" class="node"><title>Node37</title>
<g id="a_node37"><a xlink:href="igraphics_8c.html#a59e056b979c3532457c54692f5af63b4" target="_top" xlink:title="draw_object">
<polygon fill="white" stroke="black" points="105.5,-611.5 105.5,-630.5 174.5,-630.5 174.5,-611.5 105.5,-611.5"/>
<text text-anchor="middle" x="140" y="-618.5" font-family="Helvetica,sans-Serif" font-size="10.00">draw_object</text>
</a>
</g>
</g>
<!-- Node1&#45;&gt;Node37 -->
<g id="edge49" class="edge"><title>Node1&#45;&gt;Node37</title>
<path fill="none" stroke="midnightblue" d="M20.4235,-323.648C22.2463,-357.092 31.407,-470.411 74,-551 85.2462,-572.279 104.631,-591.928 119.312,-604.956"/>
<polygon fill="midnightblue" stroke="midnightblue" points="117.038,-607.617 126.903,-611.482 121.601,-602.309 117.038,-607.617"/>
</g>
<!-- Node40 -->
<g id="node40" class="node"><title>Node40</title>
<g id="a_node40"><a xlink:href="iprimitives_8c.html#ad37f21c7b94e13b74fc04418a30ea62e" target="_top" xlink:title="idelete_object">
<polygon fill="white" stroke="black" points="101.5,-38.5 101.5,-57.5 178.5,-57.5 178.5,-38.5 101.5,-38.5"/>
<text text-anchor="middle" x="140" y="-45.5" font-family="Helvetica,sans-Serif" font-size="10.00">idelete_object</text>
</a>
</g>
</g>
<!-- Node1&#45;&gt;Node40 -->
<g id="edge53" class="edge"><title>Node1&#45;&gt;Node40</title>
<path fill="none" stroke="midnightblue" d="M20.8206,-304.252C24.4887,-262.929 40.6841,-102.703 74,-67 78.7964,-61.86 84.8985,-58.0845 91.4346,-55.3166"/>
<polygon fill="midnightblue" stroke="midnightblue" points="92.9082,-58.5108 101.22,-51.9407 90.6251,-51.8935 92.9082,-58.5108"/>
</g>
<!-- Node43 -->
<g id="node43" class="node"><title>Node43</title>
<g id="a_node43"><a xlink:href="frontend_8h.html#a5f1d2e26db40b3636fb218810a872a03" target="_top" xlink:title="frontend_free">
<polygon fill="white" stroke="black" points="103,-0.5 103,-19.5 177,-19.5 177,-0.5 103,-0.5"/>
<text text-anchor="middle" x="140" y="-7.5" font-family="Helvetica,sans-Serif" font-size="10.00">frontend_free</text>
</a>
</g>
</g>
<!-- Node1&#45;&gt;Node43 -->
<g id="edge56" class="edge"><title>Node1&#45;&gt;Node43</title>
<path fill="none" stroke="midnightblue" d="M20.5091,-304.32C23.0665,-259.317 35.9313,-70.9583 74,-29 79.1054,-23.373 85.7754,-19.3761 92.8947,-16.545"/>
<polygon fill="midnightblue" stroke="midnightblue" points="94.3305,-19.7597 102.777,-13.3633 92.1851,-13.0966 94.3305,-19.7597"/>
</g>
<!-- Node4 -->
<g id="node4" class="node"><title>Node4</title>
<g id="a_node4"><a xlink:href="icoordinates_8c.html#a4507e51c1f2470e19e8ff5a77adf54bd" target="_top" xlink:title="icreate_region">
<polygon fill="white" stroke="black" points="273.5,-421.5 273.5,-440.5 350.5,-440.5 350.5,-421.5 273.5,-421.5"/>
<text text-anchor="middle" x="312" y="-428.5" font-family="Helvetica,sans-Serif" font-size="10.00">icreate_region</text>
</a>
</g>
</g>
<!-- Node3&#45;&gt;Node4 -->
<g id="edge3" class="edge"><title>Node3&#45;&gt;Node4</title>
<path fill="none" stroke="midnightblue" d="M186.111,-433.204C209.952,-432.783 239.208,-432.267 263.41,-431.84"/>
<polygon fill="midnightblue" stroke="midnightblue" points="263.505,-435.339 273.442,-431.663 263.382,-428.34 263.505,-435.339"/>
</g>
<!-- Node3&#45;&gt;Node10 -->
<g id="edge12" class="edge"><title>Node3&#45;&gt;Node10</title>
<path fill="none" stroke="midnightblue" d="M186.111,-423.12C209.35,-417.516 237.733,-410.67 261.566,-404.922"/>
<polygon fill="midnightblue" stroke="midnightblue" points="262.572,-408.28 271.473,-402.533 260.931,-401.475 262.572,-408.28"/>
</g>
<!-- Node5 -->
<g id="node5" class="node"><title>Node5</title>
<g id="a_node5"><a xlink:href="iutils_8c.html#a168fc457c8928038cb3c471bc5fdf170" target="_top" xlink:title="inew_linked">
<polygon fill="white" stroke="black" points="438,-459.5 438,-478.5 506,-478.5 506,-459.5 438,-459.5"/>
<text text-anchor="middle" x="472" y="-466.5" font-family="Helvetica,sans-Serif" font-size="10.00">inew_linked</text>
</a>
</g>
</g>
<!-- Node4&#45;&gt;Node5 -->
<g id="edge4" class="edge"><title>Node4&#45;&gt;Node5</title>
<path fill="none" stroke="midnightblue" d="M350.845,-440.102C374.011,-445.674 403.728,-452.821 427.812,-458.613"/>
<polygon fill="midnightblue" stroke="midnightblue" points="427.212,-462.068 437.753,-461.004 428.849,-455.262 427.212,-462.068"/>
</g>
<!-- Node8 -->
<g id="node8" class="node"><title>Node8</title>
<g id="a_node8"><a xlink:href="iutils_8c.html#acf8aca63685fbd6b4c995516baedab14" target="_top" xlink:title="igetfirst_linked">
<polygon fill="white" stroke="black" points="432,-497.5 432,-516.5 512,-516.5 512,-497.5 432,-497.5"/>
<text text-anchor="middle" x="472" y="-504.5" font-family="Helvetica,sans-Serif" font-size="10.00">igetfirst_linked</text>
</a>
</g>
</g>
<!-- Node4&#45;&gt;Node8 -->
<g id="edge8" class="edge"><title>Node4&#45;&gt;Node8</title>
<path fill="none" stroke="midnightblue" d="M349.337,-440.563C360.253,-444.235 371.982,-449.017 382,-455 400.635,-466.128 399.418,-476.783 418,-488 421.341,-490.017 424.929,-491.866 428.605,-493.552"/>
<polygon fill="midnightblue" stroke="midnightblue" points="427.26,-496.783 437.836,-497.407 429.957,-490.324 427.26,-496.783"/>
</g>
<!-- Node9 -->
<g id="node9" class="node"><title>Node9</title>
<g id="a_node9"><a xlink:href="iutils_8c.html#a67413257923db7c88d91a7e706024e98" target="_top" xlink:title="iadd_linked">
<polygon fill="white" stroke="black" points="439.5,-421.5 439.5,-440.5 504.5,-440.5 504.5,-421.5 439.5,-421.5"/>
<text text-anchor="middle" x="472" y="-428.5" font-family="Helvetica,sans-Serif" font-size="10.00">iadd_linked</text>
</a>
</g>
</g>
<!-- Node4&#45;&gt;Node9 -->
<g id="edge10" class="edge"><title>Node4&#45;&gt;Node9</title>
<path fill="none" stroke="midnightblue" d="M350.845,-431C374.49,-431 404.96,-431 429.299,-431"/>
<polygon fill="midnightblue" stroke="midnightblue" points="429.317,-434.5 439.317,-431 429.317,-427.5 429.317,-434.5"/>
</g>
<!-- Node6 -->
<g id="node6" class="node"><title>Node6</title>
<g id="a_node6"><a xlink:href="error_8c.html#ab10bea042bb9daa7a0e027197b8080e5" target="_top" xlink:title="ierror">
<polygon fill="white" stroke="black" points="572,-440.5 572,-459.5 610,-459.5 610,-440.5 572,-440.5"/>
<text text-anchor="middle" x="591" y="-447.5" font-family="Helvetica,sans-Serif" font-size="10.00">ierror</text>
</a>
</g>
</g>
<!-- Node5&#45;&gt;Node6 -->
<g id="edge5" class="edge"><title>Node5&#45;&gt;Node6</title>
<path fill="none" stroke="midnightblue" d="M506.215,-463.606C523.727,-460.762 544.983,-457.31 561.704,-454.595"/>
<polygon fill="midnightblue" stroke="midnightblue" points="562.642,-457.989 571.951,-452.931 561.519,-451.079 562.642,-457.989"/>
</g>
<!-- Node6&#45;&gt;Node6 -->
<g id="edge7" class="edge"><title>Node6&#45;&gt;Node6</title>
<path fill="none" stroke="midnightblue" d="M576.512,-459.757C569.464,-468.565 574.293,-478 591,-478 601.442,-478 607.244,-474.315 608.407,-469.4"/>
<polygon fill="midnightblue" stroke="midnightblue" points="611.735,-468.314 605.488,-459.757 605.035,-470.342 611.735,-468.314"/>
</g>
<!-- Node7 -->
<g id="node7" class="node"><title>Node7</title>
<g id="a_node7"><a xlink:href="error_8c.html#ac1727d6e8e99b92957a0a7099d19d6f4" target="_top" xlink:title="print_error">
<polygon fill="white" stroke="black" points="656,-440.5 656,-459.5 716,-459.5 716,-440.5 656,-440.5"/>
<text text-anchor="middle" x="686" y="-447.5" font-family="Helvetica,sans-Serif" font-size="10.00">print_error</text>
</a>
</g>
</g>
<!-- Node6&#45;&gt;Node7 -->
<g id="edge6" class="edge"><title>Node6&#45;&gt;Node7</title>
<path fill="none" stroke="midnightblue" d="M610.374,-450C620.465,-450 633.386,-450 645.632,-450"/>
<polygon fill="midnightblue" stroke="midnightblue" points="645.682,-453.5 655.682,-450 645.682,-446.5 645.682,-453.5"/>
</g>
<!-- Node8&#45;&gt;Node6 -->
<g id="edge9" class="edge"><title>Node8&#45;&gt;Node6</title>
<path fill="none" stroke="midnightblue" d="M502.842,-497.431C510.508,-494.668 518.66,-491.456 526,-488 540.161,-481.333 555.249,-472.468 567.217,-464.978"/>
<polygon fill="midnightblue" stroke="midnightblue" points="569.14,-467.902 575.693,-459.577 565.379,-461.998 569.14,-467.902"/>
</g>
<!-- Node9&#45;&gt;Node6 -->
<g id="edge11" class="edge"><title>Node9&#45;&gt;Node6</title>
<path fill="none" stroke="midnightblue" d="M504.662,-436.142C522.484,-439.036 544.549,-442.619 561.777,-445.417"/>
<polygon fill="midnightblue" stroke="midnightblue" points="561.366,-448.896 571.798,-447.044 562.488,-441.986 561.366,-448.896"/>
</g>
<!-- Node12 -->
<g id="node12" class="node"><title>Node12</title>
<g id="a_node12"><a xlink:href="iprimitives_8c.html#afc34677b05531522408374dc02a31f40" target="_top" xlink:title="red">
<polygon fill="white" stroke="black" points="297,-307.5 297,-326.5 327,-326.5 327,-307.5 297,-307.5"/>
<text text-anchor="middle" x="312" y="-314.5" font-family="Helvetica,sans-Serif" font-size="10.00">red</text>
</a>
</g>
</g>
<!-- Node11&#45;&gt;Node12 -->
<g id="edge14" class="edge"><title>Node11&#45;&gt;Node12</title>
<path fill="none" stroke="midnightblue" d="M205.755,-315.143C234.07,-315.642 265.568,-316.198 286.66,-316.57"/>
<polygon fill="midnightblue" stroke="midnightblue" points="286.886,-320.075 296.946,-316.752 287.009,-313.076 286.886,-320.075"/>
</g>
<!-- Node13 -->
<g id="node13" class="node"><title>Node13</title>
<g id="a_node13"><a xlink:href="iprimitives_8c.html#abc6932dd227752af4dbf7fac0b6e3291" target="_top" xlink:title="green">
<polygon fill="white" stroke="black" points="291.5,-269.5 291.5,-288.5 332.5,-288.5 332.5,-269.5 291.5,-269.5"/>
<text text-anchor="middle" x="312" y="-276.5" font-family="Helvetica,sans-Serif" font-size="10.00">green</text>
</a>
</g>
</g>
<!-- Node11&#45;&gt;Node13 -->
<g id="edge15" class="edge"><title>Node11&#45;&gt;Node13</title>
<path fill="none" stroke="midnightblue" d="M187.453,-304.436C217.349,-298.281 255.316,-290.464 281.22,-285.131"/>
<polygon fill="midnightblue" stroke="midnightblue" points="282.098,-288.524 291.187,-283.079 280.687,-281.668 282.098,-288.524"/>
</g>
<!-- Node14 -->
<g id="node14" class="node"><title>Node14</title>
<g id="a_node14"><a xlink:href="iprimitives_8c.html#a03066bd036a134534caeec08526b7269" target="_top" xlink:title="blue">
<polygon fill="white" stroke="black" points="294.5,-231.5 294.5,-250.5 329.5,-250.5 329.5,-231.5 294.5,-231.5"/>
<text text-anchor="middle" x="312" y="-238.5" font-family="Helvetica,sans-Serif" font-size="10.00">blue</text>
</a>
</g>
</g>
<!-- Node11&#45;&gt;Node14 -->
<g id="edge16" class="edge"><title>Node11&#45;&gt;Node14</title>
<path fill="none" stroke="midnightblue" d="M184.532,-304.481C191.958,-301.968 199.398,-298.849 206,-295 225.278,-283.76 222.634,-271.088 242,-260 255.017,-252.547 271.102,-247.897 284.467,-245.065"/>
<polygon fill="midnightblue" stroke="midnightblue" points="285.318,-248.466 294.491,-243.165 284.014,-241.589 285.318,-248.466"/>
</g>
<!-- Node17 -->
<g id="node17" class="node"><title>Node17</title>
<g id="a_node17"><a xlink:href="icoordinates_8c.html#a3c04cf922b23f8a788dd96261c97f50a" target="_top" xlink:title="inew_vector">
<polygon fill="white" stroke="black" points="277.5,-193.5 277.5,-212.5 346.5,-212.5 346.5,-193.5 277.5,-193.5"/>
<text text-anchor="middle" x="312" y="-200.5" font-family="Helvetica,sans-Serif" font-size="10.00">inew_vector</text>
</a>
</g>
</g>
<!-- Node16&#45;&gt;Node17 -->
<g id="edge19" class="edge"><title>Node16&#45;&gt;Node17</title>
<path fill="none" stroke="midnightblue" d="M171.786,-231.662C198.404,-226.181 237.198,-218.195 267.076,-212.043"/>
<polygon fill="midnightblue" stroke="midnightblue" points="268.149,-215.396 277.238,-209.951 266.738,-208.539 268.149,-215.396"/>
</g>
<!-- Node18&#45;&gt;Node5 -->
<g id="edge22" class="edge"><title>Node18&#45;&gt;Node5</title>
<path fill="none" stroke="midnightblue" d="M359.513,-361.899C367.629,-364.679 375.53,-368.566 382,-374 410.621,-398.037 390.307,-424.9 418,-450 421.178,-452.88 424.823,-455.331 428.682,-457.415"/>
<polygon fill="midnightblue" stroke="midnightblue" points="427.405,-460.68 437.956,-461.643 430.309,-454.31 427.405,-460.68"/>
</g>
<!-- Node18&#45;&gt;Node9 -->
<g id="edge21" class="edge"><title>Node18&#45;&gt;Node9</title>
<path fill="none" stroke="midnightblue" d="M359.713,-364.126C367.46,-366.674 375.182,-369.908 382,-374 401.947,-385.972 398.519,-399.283 418,-412 421.738,-414.44 425.83,-416.615 430.029,-418.54"/>
<polygon fill="midnightblue" stroke="midnightblue" points="428.721,-421.787 439.3,-422.365 431.391,-415.316 428.721,-421.787"/>
</g>
<!-- Node19 -->
<g id="node19" class="node"><title>Node19</title>
<g id="a_node19"><a xlink:href="iutils_8c.html#af8939cbd050e1b0099ca01f4ff127e9c" target="_top" xlink:title="igetlast_linked">
<polygon fill="white" stroke="black" points="432.5,-345.5 432.5,-364.5 511.5,-364.5 511.5,-345.5 432.5,-345.5"/>
<text text-anchor="middle" x="472" y="-352.5" font-family="Helvetica,sans-Serif" font-size="10.00">igetlast_linked</text>
</a>
</g>
</g>
<!-- Node18&#45;&gt;Node19 -->
<g id="edge23" class="edge"><title>Node18&#45;&gt;Node19</title>
<path fill="none" stroke="midnightblue" d="M359.551,-355C379.317,-355 402.364,-355 422.353,-355"/>
<polygon fill="midnightblue" stroke="midnightblue" points="422.494,-358.5 432.494,-355 422.494,-351.5 422.494,-358.5"/>
</g>
<!-- Node20 -->
<g id="node20" class="node"><title>Node20</title>
<g id="a_node20"><a xlink:href="icoordinates_8c.html#a7c978730cf6130f65e3ca306b83d953b" target="_top" xlink:title="inew_linkedpoint">
<polygon fill="white" stroke="black" points="427.5,-269.5 427.5,-288.5 516.5,-288.5 516.5,-269.5 427.5,-269.5"/>
<text text-anchor="middle" x="472" y="-276.5" font-family="Helvetica,sans-Serif" font-size="10.00">inew_linkedpoint</text>
</a>
</g>
</g>
<!-- Node18&#45;&gt;Node20 -->
<g id="edge25" class="edge"><title>Node18&#45;&gt;Node20</title>
<path fill="none" stroke="midnightblue" d="M359.713,-345.874C367.46,-343.326 375.182,-340.092 382,-336 401.947,-324.028 398.519,-310.717 418,-298 420.954,-296.071 424.129,-294.309 427.404,-292.704"/>
<polygon fill="midnightblue" stroke="midnightblue" points="429.039,-295.809 436.795,-288.592 426.231,-289.397 429.039,-295.809"/>
</g>
<!-- Node21 -->
<g id="node21" class="node"><title>Node21</title>
<g id="a_node21"><a xlink:href="icoordinates_8c.html#a1576e4429e977b28e65001af937bcf3e" target="_top" xlink:title="iadd_linkedpoint">
<polygon fill="white" stroke="black" points="429,-383.5 429,-402.5 515,-402.5 515,-383.5 429,-383.5"/>
<text text-anchor="middle" x="472" y="-390.5" font-family="Helvetica,sans-Serif" font-size="10.00">iadd_linkedpoint</text>
</a>
</g>
</g>
<!-- Node18&#45;&gt;Node21 -->
<g id="edge27" class="edge"><title>Node18&#45;&gt;Node21</title>
<path fill="none" stroke="midnightblue" d="M352.87,-364.589C373.72,-369.604 399.435,-375.788 421.543,-381.105"/>
<polygon fill="midnightblue" stroke="midnightblue" points="420.875,-384.544 431.417,-383.48 422.512,-377.739 420.875,-384.544"/>
</g>
<!-- Node22 -->
<g id="node22" class="node"><title>Node22</title>
<g id="a_node22"><a xlink:href="iutils_8c.html#a0f9358d11318a553a072c0384b8ed6d9" target="_top" xlink:title="iget_distance">
<polygon fill="white" stroke="black" points="435,-231.5 435,-250.5 509,-250.5 509,-231.5 435,-231.5"/>
<text text-anchor="middle" x="472" y="-238.5" font-family="Helvetica,sans-Serif" font-size="10.00">iget_distance</text>
</a>
</g>
</g>
<!-- Node18&#45;&gt;Node22 -->
<g id="edge29" class="edge"><title>Node18&#45;&gt;Node22</title>
<path fill="none" stroke="midnightblue" d="M359.513,-348.101C367.629,-345.321 375.53,-341.434 382,-336 410.621,-311.963 390.307,-285.1 418,-260 420.426,-257.801 423.125,-255.852 425.984,-254.125"/>
<polygon fill="midnightblue" stroke="midnightblue" points="427.594,-257.233 434.925,-249.585 424.424,-250.992 427.594,-257.233"/>
</g>
<!-- Node24 -->
<g id="node24" class="node"><title>Node24</title>
<g id="a_node24"><a xlink:href="icoordinates_8c.html#a804e459765ed24235ff910f99aa97171" target="_top" xlink:title="icontains_linkedpoint">
<polygon fill="white" stroke="black" points="418.5,-307.5 418.5,-326.5 525.5,-326.5 525.5,-307.5 418.5,-307.5"/>
<text text-anchor="middle" x="472" y="-314.5" font-family="Helvetica,sans-Serif" font-size="10.00">icontains_linkedpoint</text>
</a>
</g>
</g>
<!-- Node18&#45;&gt;Node24 -->
<g id="edge31" class="edge"><title>Node18&#45;&gt;Node24</title>
<path fill="none" stroke="midnightblue" d="M352.87,-345.411C373.72,-340.396 399.435,-334.212 421.543,-328.895"/>
<polygon fill="midnightblue" stroke="midnightblue" points="422.512,-332.261 431.417,-326.52 420.875,-325.456 422.512,-332.261"/>
</g>
<!-- Node19&#45;&gt;Node6 -->
<g id="edge24" class="edge"><title>Node19&#45;&gt;Node6</title>
<path fill="none" stroke="midnightblue" d="M507.939,-364.551C514.245,-367.086 520.543,-370.206 526,-374 548.346,-389.537 567.458,-414.792 578.834,-431.884"/>
<polygon fill="midnightblue" stroke="midnightblue" points="575.976,-433.91 584.33,-440.426 581.863,-430.122 575.976,-433.91"/>
</g>
<!-- Node20&#45;&gt;Node6 -->
<g id="edge26" class="edge"><title>Node20&#45;&gt;Node6</title>
<path fill="none" stroke="midnightblue" d="M511.684,-288.52C516.912,-290.994 521.884,-294.101 526,-298 564.68,-334.634 580.942,-398.31 586.941,-430.368"/>
<polygon fill="midnightblue" stroke="midnightblue" points="583.504,-431.033 588.654,-440.292 590.402,-429.842 583.504,-431.033"/>
</g>
<!-- Node21&#45;&gt;Node6 -->
<g id="edge28" class="edge"><title>Node21&#45;&gt;Node6</title>
<path fill="none" stroke="midnightblue" d="M502.842,-402.569C510.508,-405.332 518.66,-408.544 526,-412 540.161,-418.667 555.249,-427.532 567.217,-435.022"/>
<polygon fill="midnightblue" stroke="midnightblue" points="565.379,-438.002 575.693,-440.423 569.14,-432.098 565.379,-438.002"/>
</g>
<!-- Node23 -->
<g id="node23" class="node"><title>Node23</title>
<g id="a_node23"><a xlink:href="iutils_8c.html#a99799aeb9cb7fb340a3cec124d429764" target="_top" xlink:title="ifast_sqrt">
<polygon fill="white" stroke="black" points="562.5,-231.5 562.5,-250.5 619.5,-250.5 619.5,-231.5 562.5,-231.5"/>
<text text-anchor="middle" x="591" y="-238.5" font-family="Helvetica,sans-Serif" font-size="10.00">ifast_sqrt</text>
</a>
</g>
</g>
<!-- Node22&#45;&gt;Node23 -->
<g id="edge30" class="edge"><title>Node22&#45;&gt;Node23</title>
<path fill="none" stroke="midnightblue" d="M509.059,-241C522.756,-241 538.388,-241 552.238,-241"/>
<polygon fill="midnightblue" stroke="midnightblue" points="552.421,-244.5 562.421,-241 552.421,-237.5 552.421,-244.5"/>
</g>
<!-- Node26&#45;&gt;Node4 -->
<g id="edge35" class="edge"><title>Node26&#45;&gt;Node4</title>
<path fill="none" stroke="midnightblue" d="M171.786,-469.489C198.263,-462.169 236.785,-451.518 266.598,-443.276"/>
<polygon fill="midnightblue" stroke="midnightblue" points="267.639,-446.619 276.345,-440.581 265.774,-439.872 267.639,-446.619"/>
</g>
<!-- Node26&#45;&gt;Node8 -->
<g id="edge34" class="edge"><title>Node26&#45;&gt;Node8</title>
<path fill="none" stroke="midnightblue" d="M171.573,-477.621C217.465,-477.424 306.804,-478.483 382,-488 395.49,-489.707 409.968,-492.414 423.246,-495.255"/>
<polygon fill="midnightblue" stroke="midnightblue" points="422.609,-498.699 433.129,-497.44 424.12,-491.864 422.609,-498.699"/>
</g>
<!-- Node27&#45;&gt;Node8 -->
<g id="edge38" class="edge"><title>Node27&#45;&gt;Node8</title>
<path fill="none" stroke="midnightblue" d="M164.182,-541.592C184.344,-549.385 214.552,-559.756 242,-564 303.491,-573.508 322.285,-581.483 382,-564 408.992,-556.097 435.568,-537.223 452.549,-523.349"/>
<polygon fill="midnightblue" stroke="midnightblue" points="455.121,-525.759 460.506,-516.635 450.607,-520.409 455.121,-525.759"/>
</g>
<!-- Node28 -->
<g id="node28" class="node"><title>Node28</title>
<g id="a_node28"><a xlink:href="icoordinates_8c.html#af824fb9002b49e7348de15d84229e536" target="_top" xlink:title="iprint_vector">
<polygon fill="white" stroke="black" points="277,-535.5 277,-554.5 347,-554.5 347,-535.5 277,-535.5"/>
<text text-anchor="middle" x="312" y="-542.5" font-family="Helvetica,sans-Serif" font-size="10.00">iprint_vector</text>
</a>
</g>
</g>
<!-- Node27&#45;&gt;Node28 -->
<g id="edge37" class="edge"><title>Node27&#45;&gt;Node28</title>
<path fill="none" stroke="midnightblue" d="M174.587,-534.568C200.958,-536.585 237.905,-539.41 266.697,-541.612"/>
<polygon fill="midnightblue" stroke="midnightblue" points="266.664,-545.12 276.901,-542.392 267.197,-538.14 266.664,-545.12"/>
</g>
<!-- Node29 -->
<g id="node29" class="node"><title>Node29</title>
<g id="a_node29"><a xlink:href="icoordinates_8c.html#a49f0ede26f4ff04407aa27d96e333a06" target="_top" xlink:title="iprint_point">
<polygon fill="white" stroke="black" points="280,-497.5 280,-516.5 344,-516.5 344,-497.5 280,-497.5"/>
<text text-anchor="middle" x="312" y="-504.5" font-family="Helvetica,sans-Serif" font-size="10.00">iprint_point</text>
</a>
</g>
</g>
<!-- Node27&#45;&gt;Node29 -->
<g id="edge39" class="edge"><title>Node27&#45;&gt;Node29</title>
<path fill="none" stroke="midnightblue" d="M174.587,-527.061C201.939,-523.038 240.669,-517.343 269.876,-513.048"/>
<polygon fill="midnightblue" stroke="midnightblue" points="270.392,-516.51 279.776,-511.592 269.373,-509.584 270.392,-516.51"/>
</g>
<!-- Node30&#45;&gt;Node6 -->
<g id="edge42" class="edge"><title>Node30&#45;&gt;Node6</title>
<path fill="none" stroke="midnightblue" d="M480.826,-658.068C491.765,-643.918 511.867,-616.902 526,-592 549.919,-549.854 571.713,-497.127 582.636,-469.288"/>
<polygon fill="midnightblue" stroke="midnightblue" points="586.04,-470.189 586.39,-459.6 579.513,-467.66 586.04,-470.189"/>
</g>
<!-- Node33 -->
<g id="node33" class="node"><title>Node33</title>
<g id="a_node33"><a xlink:href="isimulation_8c.html#a7d249146aa3d158dd0a7ef5889fa1f7b" target="_top" xlink:title="icomputeaabb_object">
<polygon fill="white" stroke="black" points="257.5,-152.5 257.5,-171.5 366.5,-171.5 366.5,-152.5 257.5,-152.5"/>
<text text-anchor="middle" x="312" y="-159.5" font-family="Helvetica,sans-Serif" font-size="10.00">icomputeaabb_object</text>
</a>
</g>
</g>
<!-- Node32&#45;&gt;Node33 -->
<g id="edge45" class="edge"><title>Node32&#45;&gt;Node33</title>
<path fill="none" stroke="midnightblue" d="M183.898,-133.589C206.534,-138.649 234.498,-144.9 258.429,-150.249"/>
<polygon fill="midnightblue" stroke="midnightblue" points="257.888,-153.714 268.41,-152.48 259.415,-146.883 257.888,-153.714"/>
</g>
<!-- Node34 -->
<g id="node34" class="node"><title>Node34</title>
<g id="a_node34"><a xlink:href="isimulation_8c.html#abd8ca81c6f851ca923e5aa3ed0ad2def" target="_top" xlink:title="idetectcollision_aabb">
<polygon fill="white" stroke="black" points="258.5,-114.5 258.5,-133.5 365.5,-133.5 365.5,-114.5 258.5,-114.5"/>
<text text-anchor="middle" x="312" y="-121.5" font-family="Helvetica,sans-Serif" font-size="10.00">idetectcollision_aabb</text>
</a>
</g>
</g>
<!-- Node32&#45;&gt;Node34 -->
<g id="edge46" class="edge"><title>Node32&#45;&gt;Node34</title>
<path fill="none" stroke="midnightblue" d="M196.664,-124C213.103,-124 231.211,-124 248.074,-124"/>
<polygon fill="midnightblue" stroke="midnightblue" points="248.386,-127.5 258.386,-124 248.386,-120.5 248.386,-127.5"/>
</g>
<!-- Node35 -->
<g id="node35" class="node"><title>Node35</title>
<g id="a_node35"><a xlink:href="isimulation_8c.html#a9cb63af153849b8ca250a38228dadee7" target="_top" xlink:title="icomputeaabb_coloredtriplet">
<polygon fill="white" stroke="black" points="243,-76.5 243,-95.5 381,-95.5 381,-76.5 243,-76.5"/>
<text text-anchor="middle" x="312" y="-83.5" font-family="Helvetica,sans-Serif" font-size="10.00">icomputeaabb_coloredtriplet</text>
</a>
</g>
</g>
<!-- Node32&#45;&gt;Node35 -->
<g id="edge47" class="edge"><title>Node32&#45;&gt;Node35</title>
<path fill="none" stroke="midnightblue" d="M183.898,-114.411C206.534,-109.351 234.498,-103.1 258.429,-97.7512"/>
<polygon fill="midnightblue" stroke="midnightblue" points="259.415,-101.117 268.41,-95.5201 257.888,-94.2859 259.415,-101.117"/>
</g>
<!-- Node38 -->
<g id="node38" class="node"><title>Node38</title>
<g id="a_node38"><a xlink:href="frontend_8h.html#a0443993e9b09570d3b9ab2a6353be8c0" target="_top" xlink:title="frontend_draw_coloredtriplet">
<polygon fill="white" stroke="black" points="242.5,-611.5 242.5,-630.5 381.5,-630.5 381.5,-611.5 242.5,-611.5"/>
<text text-anchor="middle" x="312" y="-618.5" font-family="Helvetica,sans-Serif" font-size="10.00">frontend_draw_coloredtriplet</text>
</a>
</g>
</g>
<!-- Node37&#45;&gt;Node38 -->
<g id="edge50" class="edge"><title>Node37&#45;&gt;Node38</title>
<path fill="none" stroke="midnightblue" d="M174.587,-621C191.142,-621 211.866,-621 232.124,-621"/>
<polygon fill="midnightblue" stroke="midnightblue" points="232.329,-624.5 242.329,-621 232.329,-617.5 232.329,-624.5"/>
</g>
<!-- Node39 -->
<g id="node39" class="node"><title>Node39</title>
<g id="a_node39"><a xlink:href="iutils_8c.html#a78c507c5fd82c0c4f5255213b3690b57" target="_top" xlink:title="igetnext_linked">
<polygon fill="white" stroke="black" points="431,-563.5 431,-582.5 513,-582.5 513,-563.5 431,-563.5"/>
<text text-anchor="middle" x="472" y="-570.5" font-family="Helvetica,sans-Serif" font-size="10.00">igetnext_linked</text>
</a>
</g>
</g>
<!-- Node37&#45;&gt;Node39 -->
<g id="edge51" class="edge"><title>Node37&#45;&gt;Node39</title>
<path fill="none" stroke="midnightblue" d="M170.465,-630.584C216.804,-644.069 308.959,-664.42 382,-640 411.319,-630.198 438.723,-606.516 455.173,-590.108"/>
<polygon fill="midnightblue" stroke="midnightblue" points="457.879,-592.345 462.329,-582.73 452.854,-587.472 457.879,-592.345"/>
</g>
<!-- Node39&#45;&gt;Node6 -->
<g id="edge52" class="edge"><title>Node39&#45;&gt;Node6</title>
<path fill="none" stroke="midnightblue" d="M484.813,-563.377C495.857,-554.186 512.609,-539.738 526,-526 544.489,-507.031 563.826,-483.473 576.34,-467.656"/>
<polygon fill="midnightblue" stroke="midnightblue" points="579.127,-469.774 582.542,-459.744 573.618,-465.456 579.127,-469.774"/>
</g>
<!-- Node41 -->
<g id="node41" class="node"><title>Node41</title>
<g id="a_node41"><a xlink:href="iutils_8c.html#a758cf0f59ad81b8c8eb0b91ae6bf03a3" target="_top" xlink:title="ifree_linked">
<polygon fill="white" stroke="black" points="279,-38.5 279,-57.5 345,-57.5 345,-38.5 279,-38.5"/>
<text text-anchor="middle" x="312" y="-45.5" font-family="Helvetica,sans-Serif" font-size="10.00">ifree_linked</text>
</a>
</g>
</g>
<!-- Node40&#45;&gt;Node41 -->
<g id="edge54" class="edge"><title>Node40&#45;&gt;Node41</title>
<path fill="none" stroke="midnightblue" d="M178.729,-48C205.357,-48 241.061,-48 268.663,-48"/>
<polygon fill="midnightblue" stroke="midnightblue" points="268.809,-51.5001 278.809,-48 268.809,-44.5001 268.809,-51.5001"/>
</g>
<!-- Node42 -->
<g id="node42" class="node"><title>Node42</title>
<g id="a_node42"><a xlink:href="icoordinates_8c.html#a6d84d9578b81bb5cf94a5bab5612c08d" target="_top" xlink:title="ifree_linkedpoints">
<polygon fill="white" stroke="black" points="266,-0.5 266,-19.5 358,-19.5 358,-0.5 266,-0.5"/>
<text text-anchor="middle" x="312" y="-7.5" font-family="Helvetica,sans-Serif" font-size="10.00">ifree_linkedpoints</text>
</a>
</g>
</g>
<!-- Node40&#45;&gt;Node42 -->
<g id="edge55" class="edge"><title>Node40&#45;&gt;Node42</title>
<path fill="none" stroke="midnightblue" d="M178.729,-39.5666C202.131,-34.3354 232.543,-27.5374 258.305,-21.779"/>
<polygon fill="midnightblue" stroke="midnightblue" points="259.295,-25.1441 268.29,-19.5468 257.768,-18.3127 259.295,-25.1441"/>
</g>
</g>
</svg>
        <g id="navigator" transform="translate(0 0)" fill="#404254">
                <rect fill="#f2f5e9" fill-opacity="0.5" stroke="#606060" stroke-width=".5" x="0" y="0" width="60" height="60"/>
                <use id="zoomplus" xlink:href="#zoomPlus" x="17" y="9" onmousedown="handleZoom(evt,'in')"/>
                <use id="zoomminus" xlink:href="#zoomMin" x="42" y="9" onmousedown="handleZoom(evt,'out')"/>
                <use id="reset" xlink:href="#resetDef" x="30" y="36" onmousedown="handleReset()"/>
                <g id="arrowUp" xlink:href="#dirArrow" transform="translate(30 24)" onmousedown="handlePan(0,-1)">
                  <use xlink:href="#rim" fill="#404040">
                        <set attributeName="fill" to="#808080" begin="arrowUp.mouseover" end="arrowUp.mouseout"/>
                  </use>
                  <path fill="none" stroke="white" stroke-width="1.5" d="M0,-3.0v7 M-2.5,-0.5L0,-3.0L2.5,-0.5"/>
                </g>
                <g id="arrowRight" xlink:href="#dirArrow" transform="rotate(90) translate(36 -43)" onmousedown="handlePan(1,0)">
                  <use xlink:href="#rim" fill="#404040">
                        <set attributeName="fill" to="#808080" begin="arrowRight.mouseover" end="arrowRight.mouseout"/>
                  </use>
                  <path fill="none" stroke="white" stroke-width="1.5" d="M0,-3.0v7 M-2.5,-0.5L0,-3.0L2.5,-0.5"/>
                </g>
                <g id="arrowDown" xlink:href="#dirArrow" transform="rotate(180) translate(-30 -48)" onmousedown="handlePan(0,1)">
                  <use xlink:href="#rim" fill="#404040">
                        <set attributeName="fill" to="#808080" begin="arrowDown.mouseover" end="arrowDown.mouseout"/>
                  </use>
                  <path fill="none" stroke="white" stroke-width="1.5" d="M0,-3.0v7 M-2.5,-0.5L0,-3.0L2.5,-0.5"/>
                </g>
                <g id="arrowLeft" xlink:href="#dirArrow" transform="rotate(270) translate(-36 17)" onmousedown="handlePan(-1,0)">
                  <use xlink:href="#rim" fill="#404040">
                        <set attributeName="fill" to="#808080" begin="arrowLeft.mouseover" end="arrowLeft.mouseout"/>
                  </use>
                  <path fill="none" stroke="white" stroke-width="1.5" d="M0,-3.0v7 M-2.5,-0.5L0,-3.0L2.5,-0.5"/>
                </g>
        </g>
        <svg viewBox="0 0 15 15" width="100%" height="30px" preserveAspectRatio="xMaxYMin meet">
         <g id="arrow_out" transform="scale(0.3 0.3)">
          <a xlink:href="inferno_8c_a0ddf1224851353fc92bfbff6f499fa97_cgraph_org.svg" target="_base">
           <rect id="button" ry="5" rx="5" y="6" x="6" height="38" width="38"
                fill="#f2f5e9" fill-opacity="0.5" stroke="#606060" stroke-width="1.0"/>
           <path id="arrow"
             d="M 11.500037,31.436501 C 11.940474,20.09759 22.043105,11.32322 32.158766,21.979434 L 37.068811,17.246167 C 37.068811,17.246167 37.088388,32 37.088388,32 L 22.160133,31.978069 C 22.160133,31.978069 26.997745,27.140456 26.997745,27.140456 C 18.528582,18.264221 13.291696,25.230495 11.500037,31.436501 z"
             style="fill:#404040;"/>
          </a>
         </g>
        </svg>
</svg>
