<?xml version="1.0" encoding="UTF-8" standalone="no"?>
<!DOCTYPE svg PUBLIC "-//W3C//DTD SVG 1.1//EN"
 "http://www.w3.org/Graphics/SVG/1.1/DTD/svg11.dtd">
<!-- Generated by graphviz version 2.36.0 (20140111.2315)
 -->
<!-- Title: iobject_add_triplet Pages: 1 -->
<svg width="438pt" height="256pt"
 viewBox="0.00 0.00 438.00 256.00" xmlns="http://www.w3.org/2000/svg" xmlns:xlink="http://www.w3.org/1999/xlink">
<g id="graph0" class="graph" transform="scale(1 1) rotate(0) translate(4 252)">
<title>iobject_add_triplet</title>
<polygon fill="white" stroke="none" points="-4,4 -4,-252 434,-252 434,4 -4,4"/>
<!-- Node1 -->
<g id="node1" class="node"><title>Node1</title>
<polygon fill="#bfbfbf" stroke="black" points="0.5,-114.5 0.5,-133.5 95.5,-133.5 95.5,-114.5 0.5,-114.5"/>
<text text-anchor="middle" x="48" y="-121.5" font-family="Helvetica,sans-Serif" font-size="10.00">iobject_add_triplet</text>
</g>
<!-- Node2 -->
<g id="node2" class="node"><title>Node2</title>
<g id="a_node2"><a xlink:href="iutils_8c.html#a67413257923db7c88d91a7e706024e98" target="_top" xlink:title="iadd_linked">
<polygon fill="white" stroke="black" points="153.5,-228.5 153.5,-247.5 218.5,-247.5 218.5,-228.5 153.5,-228.5"/>
<text text-anchor="middle" x="186" y="-235.5" font-family="Helvetica,sans-Serif" font-size="10.00">iadd_linked</text>
</a>
</g>
</g>
<!-- Node1&#45;&gt;Node2 -->
<g id="edge1" class="edge"><title>Node1&#45;&gt;Node2</title>
<path fill="none" stroke="midnightblue" d="M54.8817,-133.513C67.0267,-152.413 96.7152,-194.94 132,-219 135.735,-221.547 139.851,-223.794 144.087,-225.766"/>
<polygon fill="midnightblue" stroke="midnightblue" points="142.876,-229.053 153.454,-229.654 145.559,-222.587 142.876,-229.053"/>
</g>
<!-- Node5 -->
<g id="node5" class="node"><title>Node5</title>
<g id="a_node5"><a xlink:href="iutils_8c.html#a168fc457c8928038cb3c471bc5fdf170" target="_top" xlink:title="inew_linked">
<polygon fill="white" stroke="black" points="152,-190.5 152,-209.5 220,-209.5 220,-190.5 152,-190.5"/>
<text text-anchor="middle" x="186" y="-197.5" font-family="Helvetica,sans-Serif" font-size="10.00">inew_linked</text>
</a>
</g>
</g>
<!-- Node1&#45;&gt;Node5 -->
<g id="edge5" class="edge"><title>Node1&#45;&gt;Node5</title>
<path fill="none" stroke="midnightblue" d="M60.7578,-133.533C76.3101,-145.791 104.923,-167.144 132,-181 136.024,-183.059 140.325,-184.995 144.67,-186.784"/>
<polygon fill="midnightblue" stroke="midnightblue" points="143.574,-190.113 154.163,-190.458 146.101,-183.585 143.574,-190.113"/>
</g>
<!-- Node6 -->
<g id="node6" class="node"><title>Node6</title>
<g id="a_node6"><a xlink:href="iutils_8c.html#af8939cbd050e1b0099ca01f4ff127e9c" target="_top" xlink:title="igetlast_linked">
<polygon fill="white" stroke="black" points="146.5,-152.5 146.5,-171.5 225.5,-171.5 225.5,-152.5 146.5,-152.5"/>
<text text-anchor="middle" x="186" y="-159.5" font-family="Helvetica,sans-Serif" font-size="10.00">igetlast_linked</text>
</a>
</g>
</g>
<!-- Node1&#45;&gt;Node6 -->
<g id="edge7" class="edge"><title>Node1&#45;&gt;Node6</title>
<path fill="none" stroke="midnightblue" d="M83.3185,-133.589C100.794,-138.472 122.241,-144.464 140.925,-149.685"/>
<polygon fill="midnightblue" stroke="midnightblue" points="140.119,-153.094 150.692,-152.414 142.003,-146.352 140.119,-153.094"/>
</g>
<!-- Node7 -->
<g id="node7" class="node"><title>Node7</title>
<g id="a_node7"><a xlink:href="icoordinates_8c.html#a7c978730cf6130f65e3ca306b83d953b" target="_top" xlink:title="inew_linkedpoint">
<polygon fill="white" stroke="black" points="141.5,-114.5 141.5,-133.5 230.5,-133.5 230.5,-114.5 141.5,-114.5"/>
<text text-anchor="middle" x="186" y="-121.5" font-family="Helvetica,sans-Serif" font-size="10.00">inew_linkedpoint</text>
</a>
</g>
</g>
<!-- Node1&#45;&gt;Node7 -->
<g id="edge9" class="edge"><title>Node1&#45;&gt;Node7</title>
<path fill="none" stroke="midnightblue" d="M95.8035,-124C107.214,-124 119.508,-124 131.215,-124"/>
<polygon fill="midnightblue" stroke="midnightblue" points="131.314,-127.5 141.314,-124 131.314,-120.5 131.314,-127.5"/>
</g>
<!-- Node8 -->
<g id="node8" class="node"><title>Node8</title>
<g id="a_node8"><a xlink:href="icoordinates_8c.html#a1576e4429e977b28e65001af937bcf3e" target="_top" xlink:title="iadd_linkedpoint">
<polygon fill="white" stroke="black" points="143,-76.5 143,-95.5 229,-95.5 229,-76.5 143,-76.5"/>
<text text-anchor="middle" x="186" y="-83.5" font-family="Helvetica,sans-Serif" font-size="10.00">iadd_linkedpoint</text>
</a>
</g>
</g>
<!-- Node1&#45;&gt;Node8 -->
<g id="edge11" class="edge"><title>Node1&#45;&gt;Node8</title>
<path fill="none" stroke="midnightblue" d="M83.3185,-114.411C100.794,-109.528 122.241,-103.536 140.925,-98.315"/>
<polygon fill="midnightblue" stroke="midnightblue" points="142.003,-101.648 150.692,-95.5859 140.119,-94.9062 142.003,-101.648"/>
</g>
<!-- Node9 -->
<g id="node9" class="node"><title>Node9</title>
<g id="a_node9"><a xlink:href="iutils_8c.html#a0f9358d11318a553a072c0384b8ed6d9" target="_top" xlink:title="iget_distance">
<polygon fill="white" stroke="black" points="149,-38.5 149,-57.5 223,-57.5 223,-38.5 149,-38.5"/>
<text text-anchor="middle" x="186" y="-45.5" font-family="Helvetica,sans-Serif" font-size="10.00">iget_distance</text>
</a>
</g>
</g>
<!-- Node1&#45;&gt;Node9 -->
<g id="edge13" class="edge"><title>Node1&#45;&gt;Node9</title>
<path fill="none" stroke="midnightblue" d="M60.7578,-114.467C76.3101,-102.209 104.923,-80.8562 132,-67 136.024,-64.9405 140.325,-63.005 144.67,-61.2159"/>
<polygon fill="midnightblue" stroke="midnightblue" points="146.101,-64.4152 154.163,-57.5419 143.574,-57.887 146.101,-64.4152"/>
</g>
<!-- Node11 -->
<g id="node11" class="node"><title>Node11</title>
<g id="a_node11"><a xlink:href="icoordinates_8c.html#a804e459765ed24235ff910f99aa97171" target="_top" xlink:title="icontains_linkedpoint">
<polygon fill="white" stroke="black" points="132.5,-0.5 132.5,-19.5 239.5,-19.5 239.5,-0.5 132.5,-0.5"/>
<text text-anchor="middle" x="186" y="-7.5" font-family="Helvetica,sans-Serif" font-size="10.00">icontains_linkedpoint</text>
</a>
</g>
</g>
<!-- Node1&#45;&gt;Node11 -->
<g id="edge15" class="edge"><title>Node1&#45;&gt;Node11</title>
<path fill="none" stroke="midnightblue" d="M54.8817,-114.487C67.0267,-95.5867 96.7152,-53.0602 132,-29 134.873,-27.0408 137.972,-25.2591 141.177,-23.6436"/>
<polygon fill="midnightblue" stroke="midnightblue" points="142.696,-26.7985 150.395,-19.5207 139.838,-20.4084 142.696,-26.7985"/>
</g>
<!-- Node3 -->
<g id="node3" class="node"><title>Node3</title>
<g id="a_node3"><a xlink:href="error_8c.html#ab10bea042bb9daa7a0e027197b8080e5" target="_top" xlink:title="ierror">
<polygon fill="white" stroke="black" points="286,-152.5 286,-171.5 324,-171.5 324,-152.5 286,-152.5"/>
<text text-anchor="middle" x="305" y="-159.5" font-family="Helvetica,sans-Serif" font-size="10.00">ierror</text>
</a>
</g>
</g>
<!-- Node2&#45;&gt;Node3 -->
<g id="edge2" class="edge"><title>Node2&#45;&gt;Node3</title>
<path fill="none" stroke="midnightblue" d="M218.73,-228.863C225.964,-226.178 233.445,-222.893 240,-219 258.26,-208.156 276.054,-191.684 288.225,-179.232"/>
<polygon fill="midnightblue" stroke="midnightblue" points="291.005,-181.388 295.359,-171.729 285.932,-176.564 291.005,-181.388"/>
</g>
<!-- Node3&#45;&gt;Node3 -->
<g id="edge4" class="edge"><title>Node3&#45;&gt;Node3</title>
<path fill="none" stroke="midnightblue" d="M290.512,-171.757C283.464,-180.565 288.293,-190 305,-190 315.442,-190 321.244,-186.315 322.407,-181.4"/>
<polygon fill="midnightblue" stroke="midnightblue" points="325.735,-180.314 319.488,-171.757 319.035,-182.342 325.735,-180.314"/>
</g>
<!-- Node4 -->
<g id="node4" class="node"><title>Node4</title>
<g id="a_node4"><a xlink:href="error_8c.html#ac1727d6e8e99b92957a0a7099d19d6f4" target="_top" xlink:title="print_error">
<polygon fill="white" stroke="black" points="370,-152.5 370,-171.5 430,-171.5 430,-152.5 370,-152.5"/>
<text text-anchor="middle" x="400" y="-159.5" font-family="Helvetica,sans-Serif" font-size="10.00">print_error</text>
</a>
</g>
</g>
<!-- Node3&#45;&gt;Node4 -->
<g id="edge3" class="edge"><title>Node3&#45;&gt;Node4</title>
<path fill="none" stroke="midnightblue" d="M324.374,-162C334.465,-162 347.386,-162 359.632,-162"/>
<polygon fill="midnightblue" stroke="midnightblue" points="359.682,-165.5 369.682,-162 359.682,-158.5 359.682,-165.5"/>
</g>
<!-- Node5&#45;&gt;Node3 -->
<g id="edge6" class="edge"><title>Node5&#45;&gt;Node3</title>
<path fill="none" stroke="midnightblue" d="M216.524,-190.411C234.831,-184.465 258.203,-176.874 276.182,-171.035"/>
<polygon fill="midnightblue" stroke="midnightblue" points="277.377,-174.327 285.807,-167.909 275.215,-167.669 277.377,-174.327"/>
</g>
<!-- Node6&#45;&gt;Node3 -->
<g id="edge8" class="edge"><title>Node6&#45;&gt;Node3</title>
<path fill="none" stroke="midnightblue" d="M225.634,-162C241.917,-162 260.53,-162 275.529,-162"/>
<polygon fill="midnightblue" stroke="midnightblue" points="275.727,-165.5 285.727,-162 275.727,-158.5 275.727,-165.5"/>
</g>
<!-- Node7&#45;&gt;Node3 -->
<g id="edge10" class="edge"><title>Node7&#45;&gt;Node3</title>
<path fill="none" stroke="midnightblue" d="M216.524,-133.589C234.831,-139.535 258.203,-147.126 276.182,-152.965"/>
<polygon fill="midnightblue" stroke="midnightblue" points="275.215,-156.331 285.807,-156.091 277.377,-149.673 275.215,-156.331"/>
</g>
<!-- Node8&#45;&gt;Node3 -->
<g id="edge12" class="edge"><title>Node8&#45;&gt;Node3</title>
<path fill="none" stroke="midnightblue" d="M219.844,-95.5546C226.728,-98.1607 233.781,-101.306 240,-105 258.26,-115.844 276.054,-132.316 288.225,-144.768"/>
<polygon fill="midnightblue" stroke="midnightblue" points="285.932,-147.436 295.359,-152.271 291.005,-142.612 285.932,-147.436"/>
</g>
<!-- Node10 -->
<g id="node10" class="node"><title>Node10</title>
<g id="a_node10"><a xlink:href="iutils_8c.html#a99799aeb9cb7fb340a3cec124d429764" target="_top" xlink:title="ifast_sqrt">
<polygon fill="white" stroke="black" points="276.5,-38.5 276.5,-57.5 333.5,-57.5 333.5,-38.5 276.5,-38.5"/>
<text text-anchor="middle" x="305" y="-45.5" font-family="Helvetica,sans-Serif" font-size="10.00">ifast_sqrt</text>
</a>
</g>
</g>
<!-- Node9&#45;&gt;Node10 -->
<g id="edge14" class="edge"><title>Node9&#45;&gt;Node10</title>
<path fill="none" stroke="midnightblue" d="M223.059,-48C236.756,-48 252.388,-48 266.238,-48"/>
<polygon fill="midnightblue" stroke="midnightblue" points="266.421,-51.5001 276.421,-48 266.421,-44.5001 266.421,-51.5001"/>
</g>
</g>
</svg>
