<?xml version="1.0" encoding="UTF-8" standalone="no"?>
<!DOCTYPE svg PUBLIC "-//W3C//DTD SVG 1.1//EN"
 "http://www.w3.org/Graphics/SVG/1.1/DTD/svg11.dtd">
<!-- Generated by graphviz version 2.36.0 (20140111.2315)
 -->
<!-- Title: src/iprimitives.c Pages: 1 -->
<svg width="566pt" height="252pt"
 viewBox="0.00 0.00 566.00 252.00" xmlns="http://www.w3.org/2000/svg" xmlns:xlink="http://www.w3.org/1999/xlink">
<g id="graph0" class="graph" transform="scale(1 1) rotate(0) translate(4 248)">
<title>src/iprimitives.c</title>
<polygon fill="white" stroke="none" points="-4,4 -4,-248 562,-248 562,4 -4,4"/>
<!-- Node1 -->
<g id="node1" class="node"><title>Node1</title>
<polygon fill="#bfbfbf" stroke="black" points="314,-224.5 314,-243.5 400,-243.5 400,-224.5 314,-224.5"/>
<text text-anchor="middle" x="357" y="-231.5" font-family="Helvetica,sans-Serif" font-size="10.00">src/iprimitives.c</text>
</g>
<!-- Node2 -->
<g id="node2" class="node"><title>Node2</title>
<g id="a_node2"><a xlink:href="iprimitives_8h.html" target="_top" xlink:title="iprimitives.h">
<polygon fill="white" stroke="black" points="146.5,-168.5 146.5,-187.5 215.5,-187.5 215.5,-168.5 146.5,-168.5"/>
<text text-anchor="middle" x="181" y="-175.5" font-family="Helvetica,sans-Serif" font-size="10.00">iprimitives.h</text>
</a>
</g>
</g>
<!-- Node1&#45;&gt;Node2 -->
<g id="edge1" class="edge"><title>Node1&#45;&gt;Node2</title>
<path fill="none" stroke="midnightblue" d="M329.112,-224.444C299.246,-215.28 251.685,-200.688 218.544,-190.519"/>
<polygon fill="midnightblue" stroke="midnightblue" points="219.344,-187.104 208.757,-187.516 217.291,-193.796 219.344,-187.104"/>
</g>
<!-- Node8 -->
<g id="node8" class="node"><title>Node8</title>
<g id="a_node8"><a xlink:href="iutils_8h.html" target="_top" xlink:title="iutils.h">
<polygon fill="white" stroke="black" points="221.5,-112.5 221.5,-131.5 266.5,-131.5 266.5,-112.5 221.5,-112.5"/>
<text text-anchor="middle" x="244" y="-119.5" font-family="Helvetica,sans-Serif" font-size="10.00">iutils.h</text>
</a>
</g>
</g>
<!-- Node1&#45;&gt;Node8 -->
<g id="edge13" class="edge"><title>Node1&#45;&gt;Node8</title>
<path fill="none" stroke="midnightblue" d="M323.088,-224.364C302.973,-217.595 278.465,-206.2 263,-188 251.947,-174.992 247.32,-155.832 245.385,-141.682"/>
<polygon fill="midnightblue" stroke="midnightblue" points="248.854,-141.205 244.339,-131.621 241.892,-141.929 248.854,-141.205"/>
</g>
<!-- Node9 -->
<g id="node9" class="node"><title>Node9</title>
<g id="a_node9"><a xlink:href="iprettyconsole_8h.html" target="_top" xlink:title="iprettyconsole.h">
<polygon fill="white" stroke="black" points="272,-168.5 272,-187.5 358,-187.5 358,-168.5 272,-168.5"/>
<text text-anchor="middle" x="315" y="-175.5" font-family="Helvetica,sans-Serif" font-size="10.00">iprettyconsole.h</text>
</a>
</g>
</g>
<!-- Node1&#45;&gt;Node9 -->
<g id="edge14" class="edge"><title>Node1&#45;&gt;Node9</title>
<path fill="none" stroke="midnightblue" d="M350.065,-224.083C344.071,-216.377 335.248,-205.033 327.952,-195.653"/>
<polygon fill="midnightblue" stroke="midnightblue" points="330.709,-193.496 321.806,-187.751 325.183,-197.793 330.709,-193.496"/>
</g>
<!-- Node10 -->
<g id="node10" class="node"><title>Node10</title>
<polygon fill="white" stroke="#bfbfbf" points="376,-168.5 376,-187.5 424,-187.5 424,-168.5 376,-168.5"/>
<text text-anchor="middle" x="400" y="-175.5" font-family="Helvetica,sans-Serif" font-size="10.00">stdlib.h</text>
</g>
<!-- Node1&#45;&gt;Node10 -->
<g id="edge15" class="edge"><title>Node1&#45;&gt;Node10</title>
<path fill="none" stroke="midnightblue" d="M364.101,-224.083C370.237,-216.377 379.27,-205.033 386.739,-195.653"/>
<polygon fill="midnightblue" stroke="midnightblue" points="389.54,-197.754 393.032,-187.751 384.064,-193.394 389.54,-197.754"/>
</g>
<!-- Node11 -->
<g id="node11" class="node"><title>Node11</title>
<polygon fill="white" stroke="#bfbfbf" points="442,-168.5 442,-187.5 494,-187.5 494,-168.5 442,-168.5"/>
<text text-anchor="middle" x="468" y="-175.5" font-family="Helvetica,sans-Serif" font-size="10.00">assert.h</text>
</g>
<!-- Node1&#45;&gt;Node11 -->
<g id="edge16" class="edge"><title>Node1&#45;&gt;Node11</title>
<path fill="none" stroke="midnightblue" d="M374.834,-224.324C392.716,-215.625 420.475,-202.12 441.046,-192.113"/>
<polygon fill="midnightblue" stroke="midnightblue" points="442.749,-195.177 450.21,-187.655 439.687,-188.882 442.749,-195.177"/>
</g>
<!-- Node12 -->
<g id="node12" class="node"><title>Node12</title>
<polygon fill="white" stroke="#bfbfbf" points="512,-168.5 512,-187.5 558,-187.5 558,-168.5 512,-168.5"/>
<text text-anchor="middle" x="535" y="-175.5" font-family="Helvetica,sans-Serif" font-size="10.00">stdio.h</text>
</g>
<!-- Node1&#45;&gt;Node12 -->
<g id="edge17" class="edge"><title>Node1&#45;&gt;Node12</title>
<path fill="none" stroke="midnightblue" d="M385.205,-224.444C416.92,-214.822 468.366,-199.215 501.944,-189.028"/>
<polygon fill="midnightblue" stroke="midnightblue" points="503.196,-192.306 511.749,-186.054 501.163,-185.608 503.196,-192.306"/>
</g>
<!-- Node3 -->
<g id="node3" class="node"><title>Node3</title>
<g id="a_node3"><a xlink:href="frontend_8h.html" target="_top" xlink:title="frontend.h">
<polygon fill="white" stroke="black" points="105,-112.5 105,-131.5 165,-131.5 165,-112.5 105,-112.5"/>
<text text-anchor="middle" x="135" y="-119.5" font-family="Helvetica,sans-Serif" font-size="10.00">frontend.h</text>
</a>
</g>
</g>
<!-- Node2&#45;&gt;Node3 -->
<g id="edge2" class="edge"><title>Node2&#45;&gt;Node3</title>
<path fill="none" stroke="midnightblue" d="M168.494,-168.324C160.384,-160.733 150.396,-149.482 143.229,-140.09"/>
<polygon fill="midnightblue" stroke="midnightblue" points="146.015,-137.968 137.376,-131.834 140.305,-142.016 146.015,-137.968"/>
</g>
<!-- Node4 -->
<g id="node4" class="node"><title>Node4</title>
<g id="a_node4"><a xlink:href="icoordinates_8h.html" target="_top" xlink:title="../icoordinates.h">
<polygon fill="white" stroke="black" points="150,-56.5 150,-75.5 236,-75.5 236,-56.5 150,-56.5"/>
<text text-anchor="middle" x="193" y="-63.5" font-family="Helvetica,sans-Serif" font-size="10.00">../icoordinates.h</text>
</a>
</g>
</g>
<!-- Node2&#45;&gt;Node4 -->
<g id="edge12" class="edge"><title>Node2&#45;&gt;Node4</title>
<path fill="none" stroke="midnightblue" d="M181.942,-168.368C183.878,-150.617 188.345,-109.666 190.971,-85.5974"/>
<polygon fill="midnightblue" stroke="midnightblue" points="194.458,-85.912 192.063,-75.5914 187.499,-85.1528 194.458,-85.912"/>
</g>
<!-- Node2&#45;&gt;Node8 -->
<g id="edge9" class="edge"><title>Node2&#45;&gt;Node8</title>
<path fill="none" stroke="midnightblue" d="M191.122,-168.324C200.526,-160.263 214.744,-148.077 226.069,-138.369"/>
<polygon fill="midnightblue" stroke="midnightblue" points="228.379,-140.999 233.694,-131.834 223.823,-135.684 228.379,-140.999"/>
</g>
<!-- Node3&#45;&gt;Node2 -->
<g id="edge3" class="edge"><title>Node3&#45;&gt;Node2</title>
<path fill="none" stroke="midnightblue" d="M147.586,-131.751C155.666,-139.327 165.589,-150.505 172.729,-159.855"/>
<polygon fill="midnightblue" stroke="midnightblue" points="169.927,-161.955 178.57,-168.083 175.635,-157.903 169.927,-161.955"/>
</g>
<!-- Node3&#45;&gt;Node4 -->
<g id="edge4" class="edge"><title>Node3&#45;&gt;Node4</title>
<path fill="none" stroke="midnightblue" d="M139.411,-112.083C146.402,-103.984 159.091,-91.8664 170.494,-82.2334"/>
<polygon fill="midnightblue" stroke="midnightblue" points="172.917,-84.7742 178.47,-75.7511 168.502,-79.342 172.917,-84.7742"/>
</g>
<!-- Node6 -->
<g id="node6" class="node"><title>Node6</title>
<polygon fill="white" stroke="#bfbfbf" points="80,-56.5 80,-75.5 132,-75.5 132,-56.5 80,-56.5"/>
<text text-anchor="middle" x="106" y="-63.5" font-family="Helvetica,sans-Serif" font-size="10.00">X11/X.h</text>
</g>
<!-- Node3&#45;&gt;Node6 -->
<g id="edge7" class="edge"><title>Node3&#45;&gt;Node6</title>
<path fill="none" stroke="midnightblue" d="M130.211,-112.083C126.242,-104.691 120.475,-93.9533 115.565,-84.8111"/>
<polygon fill="midnightblue" stroke="midnightblue" points="118.514,-82.9051 110.7,-75.7511 112.347,-86.217 118.514,-82.9051"/>
</g>
<!-- Node7 -->
<g id="node7" class="node"><title>Node7</title>
<polygon fill="white" stroke="#bfbfbf" points="0,-56.5 0,-75.5 62,-75.5 62,-56.5 0,-56.5"/>
<text text-anchor="middle" x="31" y="-63.5" font-family="Helvetica,sans-Serif" font-size="10.00">X11/Xlib.h</text>
</g>
<!-- Node3&#45;&gt;Node7 -->
<g id="edge8" class="edge"><title>Node3&#45;&gt;Node7</title>
<path fill="none" stroke="midnightblue" d="M118.291,-112.324C101.688,-103.703 75.9979,-90.3643 56.7795,-80.3855"/>
<polygon fill="midnightblue" stroke="midnightblue" points="58.1558,-77.1565 47.6679,-75.6545 54.93,-83.3689 58.1558,-77.1565"/>
</g>
<!-- Node4&#45;&gt;Node3 -->
<g id="edge5" class="edge"><title>Node4&#45;&gt;Node3</title>
<path fill="none" stroke="midnightblue" d="M188.66,-75.8339C181.672,-83.9481 168.902,-96.1452 157.444,-105.82"/>
<polygon fill="midnightblue" stroke="midnightblue" points="154.99,-103.303 149.434,-112.324 159.403,-108.737 154.99,-103.303"/>
</g>
<!-- Node5 -->
<g id="node5" class="node"><title>Node5</title>
<g id="a_node5"><a xlink:href="itypes_8h.html" target="_top" xlink:title="itypes.h">
<polygon fill="white" stroke="black" points="202.5,-0.5 202.5,-19.5 253.5,-19.5 253.5,-0.5 202.5,-0.5"/>
<text text-anchor="middle" x="228" y="-7.5" font-family="Helvetica,sans-Serif" font-size="10.00">itypes.h</text>
</a>
</g>
</g>
<!-- Node4&#45;&gt;Node5 -->
<g id="edge6" class="edge"><title>Node4&#45;&gt;Node5</title>
<path fill="none" stroke="midnightblue" d="M198.78,-56.083C203.672,-48.5341 210.827,-37.4948 216.833,-28.2298"/>
<polygon fill="midnightblue" stroke="midnightblue" points="219.826,-30.0463 222.328,-19.7511 213.952,-26.239 219.826,-30.0463"/>
</g>
<!-- Node8&#45;&gt;Node4 -->
<g id="edge10" class="edge"><title>Node8&#45;&gt;Node4</title>
<path fill="none" stroke="midnightblue" d="M235.578,-112.083C228.152,-104.22 217.148,-92.5688 208.188,-83.0813"/>
<polygon fill="midnightblue" stroke="midnightblue" points="210.676,-80.618 201.265,-75.7511 205.587,-85.4244 210.676,-80.618"/>
</g>
<!-- Node8&#45;&gt;Node5 -->
<g id="edge11" class="edge"><title>Node8&#45;&gt;Node5</title>
<path fill="none" stroke="midnightblue" d="M245.177,-112.499C246.672,-100.001 248.649,-75.9845 245,-56 243.312,-46.7575 239.825,-36.9479 236.446,-28.8546"/>
<polygon fill="midnightblue" stroke="midnightblue" points="239.631,-27.4045 232.366,-19.6928 233.237,-30.2518 239.631,-27.4045"/>
</g>
</g>
</svg>
