<?xml version="1.0" encoding="UTF-8" standalone="no"?>
<!DOCTYPE svg PUBLIC "-//W3C//DTD SVG 1.1//EN"
 "http://www.w3.org/Graphics/SVG/1.1/DTD/svg11.dtd">
<!-- Generated by graphviz version 2.36.0 (20140111.2315)
 -->
<!-- Title: green Pages: 1 -->
<svg width="292pt" height="66pt"
 viewBox="0.00 0.00 292.00 66.00" xmlns="http://www.w3.org/2000/svg" xmlns:xlink="http://www.w3.org/1999/xlink">
<g id="graph0" class="graph" transform="scale(1 1) rotate(0) translate(4 62)">
<title>green</title>
<polygon fill="white" stroke="none" points="-4,4 -4,-62 288,-62 288,4 -4,4"/>
<!-- Node1 -->
<g id="node1" class="node"><title>Node1</title>
<polygon fill="#bfbfbf" stroke="black" points="0.5,-19.5 0.5,-38.5 41.5,-38.5 41.5,-19.5 0.5,-19.5"/>
<text text-anchor="middle" x="21" y="-26.5" font-family="Helvetica,sans-Serif" font-size="10.00">green</text>
</g>
<!-- Node2 -->
<g id="node2" class="node"><title>Node2</title>
<g id="a_node2"><a xlink:href="frontend__opengl__linux_8c.html#ad8a729cc49f33a0037227c75e1979ada" target="_top" xlink:title="frontend_reset_viewspace">
<polygon fill="white" stroke="black" points="78.5,-19.5 78.5,-38.5 209.5,-38.5 209.5,-19.5 78.5,-19.5"/>
<text text-anchor="middle" x="144" y="-26.5" font-family="Helvetica,sans-Serif" font-size="10.00">frontend_reset_viewspace</text>
</a>
</g>
</g>
<!-- Node1&#45;&gt;Node2 -->
<g id="edge1" class="edge"><title>Node1&#45;&gt;Node2</title>
<path fill="none" stroke="midnightblue" d="M51.7434,-29C59.8743,-29 69.0148,-29 78.2879,-29"/>
<polygon fill="midnightblue" stroke="midnightblue" points="51.7101,-25.5001 41.71,-29 51.71,-32.5001 51.7101,-25.5001"/>
</g>
<!-- Node3 -->
<g id="node3" class="node"><title>Node3</title>
<g id="a_node3"><a xlink:href="frontend__opengl__linux_8c.html#a606f78ac8a9bdf59c7a520da2b2052e0" target="_top" xlink:title="step">
<polygon fill="white" stroke="black" points="247.5,-38.5 247.5,-57.5 282.5,-57.5 282.5,-38.5 247.5,-38.5"/>
<text text-anchor="middle" x="265" y="-45.5" font-family="Helvetica,sans-Serif" font-size="10.00">step</text>
</a>
</g>
</g>
<!-- Node2&#45;&gt;Node3 -->
<g id="edge2" class="edge"><title>Node2&#45;&gt;Node3</title>
<path fill="none" stroke="midnightblue" d="M215.054,-40.1851C227.09,-42.1069 238.532,-43.9336 247.321,-45.337"/>
<polygon fill="midnightblue" stroke="midnightblue" points="215.275,-36.6762 204.849,-38.5557 214.172,-43.5886 215.275,-36.6762"/>
</g>
<!-- Node4 -->
<g id="node4" class="node"><title>Node4</title>
<g id="a_node4"><a xlink:href="inferno_8c.html#a0ddf1224851353fc92bfbff6f499fa97" target="_top" xlink:title="main">
<polygon fill="white" stroke="black" points="246,-0.5 246,-19.5 284,-19.5 284,-0.5 246,-0.5"/>
<text text-anchor="middle" x="265" y="-7.5" font-family="Helvetica,sans-Serif" font-size="10.00">main</text>
</a>
</g>
</g>
<!-- Node2&#45;&gt;Node4 -->
<g id="edge3" class="edge"><title>Node2&#45;&gt;Node4</title>
<path fill="none" stroke="midnightblue" d="M214.95,-17.8316C226.339,-16.013 237.202,-14.2787 245.796,-12.9065"/>
<polygon fill="midnightblue" stroke="midnightblue" points="214.172,-14.4114 204.849,-19.4443 215.275,-21.3238 214.172,-14.4114"/>
</g>
</g>
</svg>
