<?xml version="1.0" encoding="UTF-8" standalone="no"?>
<!DOCTYPE svg PUBLIC "-//W3C//DTD SVG 1.1//EN"
 "http://www.w3.org/Graphics/SVG/1.1/DTD/svg11.dtd">
<!-- Generated by graphviz version 2.36.0 (20140111.2315)
 -->
<!-- Title: red Pages: 1 -->
<svg width="280pt" height="66pt"
 viewBox="0.00 0.00 280.00 66.00" xmlns="http://www.w3.org/2000/svg" xmlns:xlink="http://www.w3.org/1999/xlink">
<g id="graph0" class="graph" transform="scale(1 1) rotate(0) translate(4 62)">
<title>red</title>
<polygon fill="white" stroke="none" points="-4,4 -4,-62 276,-62 276,4 -4,4"/>
<!-- Node1 -->
<g id="node1" class="node"><title>Node1</title>
<polygon fill="#bfbfbf" stroke="black" points="0,-19.5 0,-38.5 30,-38.5 30,-19.5 0,-19.5"/>
<text text-anchor="middle" x="15" y="-26.5" font-family="Helvetica,sans-Serif" font-size="10.00">red</text>
</g>
<!-- Node2 -->
<g id="node2" class="node"><title>Node2</title>
<g id="a_node2"><a xlink:href="frontend__opengl__linux_8c.html#ad8a729cc49f33a0037227c75e1979ada" target="_top" xlink:title="frontend_reset_viewspace">
<polygon fill="white" stroke="black" points="66.5,-19.5 66.5,-38.5 197.5,-38.5 197.5,-19.5 66.5,-19.5"/>
<text text-anchor="middle" x="132" y="-26.5" font-family="Helvetica,sans-Serif" font-size="10.00">frontend_reset_viewspace</text>
</a>
</g>
</g>
<!-- Node1&#45;&gt;Node2 -->
<g id="edge1" class="edge"><title>Node1&#45;&gt;Node2</title>
<path fill="none" stroke="midnightblue" d="M40.1886,-29C47.9848,-29 57.0281,-29 66.3257,-29"/>
<polygon fill="midnightblue" stroke="midnightblue" points="40.1013,-25.5001 30.1013,-29 40.1012,-32.5001 40.1013,-25.5001"/>
</g>
<!-- Node3 -->
<g id="node3" class="node"><title>Node3</title>
<g id="a_node3"><a xlink:href="frontend__opengl__linux_8c.html#a606f78ac8a9bdf59c7a520da2b2052e0" target="_top" xlink:title="step">
<polygon fill="white" stroke="black" points="235.5,-38.5 235.5,-57.5 270.5,-57.5 270.5,-38.5 235.5,-38.5"/>
<text text-anchor="middle" x="253" y="-45.5" font-family="Helvetica,sans-Serif" font-size="10.00">step</text>
</a>
</g>
</g>
<!-- Node2&#45;&gt;Node3 -->
<g id="edge2" class="edge"><title>Node2&#45;&gt;Node3</title>
<path fill="none" stroke="midnightblue" d="M203.054,-40.1851C215.09,-42.1069 226.532,-43.9336 235.321,-45.337"/>
<polygon fill="midnightblue" stroke="midnightblue" points="203.275,-36.6762 192.849,-38.5557 202.172,-43.5886 203.275,-36.6762"/>
</g>
<!-- Node4 -->
<g id="node4" class="node"><title>Node4</title>
<g id="a_node4"><a xlink:href="inferno_8c.html#a0ddf1224851353fc92bfbff6f499fa97" target="_top" xlink:title="main">
<polygon fill="white" stroke="black" points="234,-0.5 234,-19.5 272,-19.5 272,-0.5 234,-0.5"/>
<text text-anchor="middle" x="253" y="-7.5" font-family="Helvetica,sans-Serif" font-size="10.00">main</text>
</a>
</g>
</g>
<!-- Node2&#45;&gt;Node4 -->
<g id="edge3" class="edge"><title>Node2&#45;&gt;Node4</title>
<path fill="none" stroke="midnightblue" d="M202.95,-17.8316C214.339,-16.013 225.202,-14.2787 233.796,-12.9065"/>
<polygon fill="midnightblue" stroke="midnightblue" points="202.172,-14.4114 192.849,-19.4443 203.275,-21.3238 202.172,-14.4114"/>
</g>
</g>
</svg>
