<?xml version="1.0" encoding="UTF-8" standalone="no"?>
<!DOCTYPE svg PUBLIC "-//W3C//DTD SVG 1.1//EN"
 "http://www.w3.org/Graphics/SVG/1.1/DTD/svg11.dtd">
<!-- Generated by graphviz version 2.36.0 (20140111.2315)
 -->
<!-- Title: iprint_object Pages: 1 -->
<svg width="364pt" height="104pt"
 viewBox="0.00 0.00 364.00 104.00" xmlns="http://www.w3.org/2000/svg" xmlns:xlink="http://www.w3.org/1999/xlink">
<g id="graph0" class="graph" transform="scale(1 1) rotate(0) translate(4 100)">
<title>iprint_object</title>
<polygon fill="white" stroke="none" points="-4,4 -4,-100 360,-100 360,4 -4,4"/>
<!-- Node1 -->
<g id="node1" class="node"><title>Node1</title>
<polygon fill="#bfbfbf" stroke="black" points="0.5,-38.5 0.5,-57.5 69.5,-57.5 69.5,-38.5 0.5,-38.5"/>
<text text-anchor="middle" x="35" y="-45.5" font-family="Helvetica,sans-Serif" font-size="10.00">iprint_object</text>
</g>
<!-- Node2 -->
<g id="node2" class="node"><title>Node2</title>
<g id="a_node2"><a xlink:href="icoordinates_8c.html#af824fb9002b49e7348de15d84229e536" target="_top" xlink:title="iprint_vector">
<polygon fill="white" stroke="black" points="111,-76.5 111,-95.5 181,-95.5 181,-76.5 111,-76.5"/>
<text text-anchor="middle" x="146" y="-83.5" font-family="Helvetica,sans-Serif" font-size="10.00">iprint_vector</text>
</a>
</g>
</g>
<!-- Node1&#45;&gt;Node2 -->
<g id="edge1" class="edge"><title>Node1&#45;&gt;Node2</title>
<path fill="none" stroke="midnightblue" d="M63.5053,-57.589C76.9307,-62.2694 93.28,-67.9692 107.801,-73.0315"/>
<polygon fill="midnightblue" stroke="midnightblue" points="106.909,-76.427 117.503,-76.4141 109.213,-69.8172 106.909,-76.427"/>
</g>
<!-- Node3 -->
<g id="node3" class="node"><title>Node3</title>
<g id="a_node3"><a xlink:href="iutils_8c.html#acf8aca63685fbd6b4c995516baedab14" target="_top" xlink:title="igetfirst_linked">
<polygon fill="white" stroke="black" points="106,-38.5 106,-57.5 186,-57.5 186,-38.5 106,-38.5"/>
<text text-anchor="middle" x="146" y="-45.5" font-family="Helvetica,sans-Serif" font-size="10.00">igetfirst_linked</text>
</a>
</g>
</g>
<!-- Node1&#45;&gt;Node3 -->
<g id="edge2" class="edge"><title>Node1&#45;&gt;Node3</title>
<path fill="none" stroke="midnightblue" d="M69.593,-48C77.8655,-48 86.8956,-48 95.7399,-48"/>
<polygon fill="midnightblue" stroke="midnightblue" points="95.9804,-51.5001 105.98,-48 95.9804,-44.5001 95.9804,-51.5001"/>
</g>
<!-- Node6 -->
<g id="node6" class="node"><title>Node6</title>
<g id="a_node6"><a xlink:href="icoordinates_8c.html#a49f0ede26f4ff04407aa27d96e333a06" target="_top" xlink:title="iprint_point">
<polygon fill="white" stroke="black" points="114,-0.5 114,-19.5 178,-19.5 178,-0.5 114,-0.5"/>
<text text-anchor="middle" x="146" y="-7.5" font-family="Helvetica,sans-Serif" font-size="10.00">iprint_point</text>
</a>
</g>
</g>
<!-- Node1&#45;&gt;Node6 -->
<g id="edge6" class="edge"><title>Node1&#45;&gt;Node6</title>
<path fill="none" stroke="midnightblue" d="M63.5053,-38.411C76.9307,-33.7306 93.28,-28.0308 107.801,-22.9685"/>
<polygon fill="midnightblue" stroke="midnightblue" points="109.213,-26.1828 117.503,-19.5859 106.909,-19.573 109.213,-26.1828"/>
</g>
<!-- Node4 -->
<g id="node4" class="node"><title>Node4</title>
<g id="a_node4"><a xlink:href="error_8c.html#ab10bea042bb9daa7a0e027197b8080e5" target="_top" xlink:title="ierror">
<polygon fill="white" stroke="black" points="222,-38.5 222,-57.5 260,-57.5 260,-38.5 222,-38.5"/>
<text text-anchor="middle" x="241" y="-45.5" font-family="Helvetica,sans-Serif" font-size="10.00">ierror</text>
</a>
</g>
</g>
<!-- Node3&#45;&gt;Node4 -->
<g id="edge3" class="edge"><title>Node3&#45;&gt;Node4</title>
<path fill="none" stroke="midnightblue" d="M186.171,-48C194.635,-48 203.431,-48 211.399,-48"/>
<polygon fill="midnightblue" stroke="midnightblue" points="211.644,-51.5001 221.644,-48 211.644,-44.5001 211.644,-51.5001"/>
</g>
<!-- Node4&#45;&gt;Node4 -->
<g id="edge5" class="edge"><title>Node4&#45;&gt;Node4</title>
<path fill="none" stroke="midnightblue" d="M228.053,-57.7571C221.755,-66.5653 226.07,-76 241,-76 250.098,-76 255.254,-72.4965 256.469,-67.7663"/>
<polygon fill="midnightblue" stroke="midnightblue" points="259.784,-66.5986 253.947,-57.7571 252.997,-68.3092 259.784,-66.5986"/>
</g>
<!-- Node5 -->
<g id="node5" class="node"><title>Node5</title>
<g id="a_node5"><a xlink:href="error_8c.html#ac1727d6e8e99b92957a0a7099d19d6f4" target="_top" xlink:title="print_error">
<polygon fill="white" stroke="black" points="296,-38.5 296,-57.5 356,-57.5 356,-38.5 296,-38.5"/>
<text text-anchor="middle" x="326" y="-45.5" font-family="Helvetica,sans-Serif" font-size="10.00">print_error</text>
</a>
</g>
</g>
<!-- Node4&#45;&gt;Node5 -->
<g id="edge4" class="edge"><title>Node4&#45;&gt;Node5</title>
<path fill="none" stroke="midnightblue" d="M260.01,-48C267.631,-48 276.828,-48 285.874,-48"/>
<polygon fill="midnightblue" stroke="midnightblue" points="285.931,-51.5001 295.931,-48 285.931,-44.5001 285.931,-51.5001"/>
</g>
</g>
</svg>
