<?xml version="1.0" encoding="UTF-8" standalone="no"?>
<!DOCTYPE svg PUBLIC "-//W3C//DTD SVG 1.1//EN"
 "http://www.w3.org/Graphics/SVG/1.1/DTD/svg11.dtd">
<!-- Generated by graphviz version 2.36.0 (20140111.2315)
 -->
<!-- Title: idelete_object Pages: 1 -->
<svg width="214pt" height="66pt"
 viewBox="0.00 0.00 214.00 66.00" xmlns="http://www.w3.org/2000/svg" xmlns:xlink="http://www.w3.org/1999/xlink">
<g id="graph0" class="graph" transform="scale(1 1) rotate(0) translate(4 62)">
<title>idelete_object</title>
<polygon fill="white" stroke="none" points="-4,4 -4,-62 210,-62 210,4 -4,4"/>
<!-- Node1 -->
<g id="node1" class="node"><title>Node1</title>
<polygon fill="#bfbfbf" stroke="black" points="0.5,-19.5 0.5,-38.5 77.5,-38.5 77.5,-19.5 0.5,-19.5"/>
<text text-anchor="middle" x="39" y="-26.5" font-family="Helvetica,sans-Serif" font-size="10.00">idelete_object</text>
</g>
<!-- Node2 -->
<g id="node2" class="node"><title>Node2</title>
<g id="a_node2"><a xlink:href="iutils_8c.html#a758cf0f59ad81b8c8eb0b91ae6bf03a3" target="_top" xlink:title="ifree_linked">
<polygon fill="white" stroke="black" points="127,-38.5 127,-57.5 193,-57.5 193,-38.5 127,-38.5"/>
<text text-anchor="middle" x="160" y="-45.5" font-family="Helvetica,sans-Serif" font-size="10.00">ifree_linked</text>
</a>
</g>
</g>
<!-- Node1&#45;&gt;Node2 -->
<g id="edge1" class="edge"><title>Node1&#45;&gt;Node2</title>
<path fill="none" stroke="midnightblue" d="M77.6523,-35.0117C90.1175,-37.002 104.068,-39.2294 116.849,-41.27"/>
<polygon fill="midnightblue" stroke="midnightblue" points="116.37,-44.7378 126.797,-42.8583 117.474,-37.8254 116.37,-44.7378"/>
</g>
<!-- Node3 -->
<g id="node3" class="node"><title>Node3</title>
<g id="a_node3"><a xlink:href="icoordinates_8c.html#a6d84d9578b81bb5cf94a5bab5612c08d" target="_top" xlink:title="ifree_linkedpoints">
<polygon fill="white" stroke="black" points="114,-0.5 114,-19.5 206,-19.5 206,-0.5 114,-0.5"/>
<text text-anchor="middle" x="160" y="-7.5" font-family="Helvetica,sans-Serif" font-size="10.00">ifree_linkedpoints</text>
</a>
</g>
</g>
<!-- Node1&#45;&gt;Node3 -->
<g id="edge2" class="edge"><title>Node1&#45;&gt;Node3</title>
<path fill="none" stroke="midnightblue" d="M77.6523,-22.9883C85.9639,-21.6612 94.9359,-20.2287 103.781,-18.8165"/>
<polygon fill="midnightblue" stroke="midnightblue" points="104.349,-22.2703 113.672,-17.2373 103.245,-15.3578 104.349,-22.2703"/>
</g>
</g>
</svg>
