<?xml version="1.0" encoding="UTF-8" standalone="no"?>
<!DOCTYPE svg PUBLIC "-//W3C//DTD SVG 1.1//EN"
 "http://www.w3.org/Graphics/SVG/1.1/DTD/svg11.dtd">
<!-- Generated by graphviz version 2.36.0 (20140111.2315)
 -->
<!-- Title: blue Pages: 1 -->
<svg width="286pt" height="66pt"
 viewBox="0.00 0.00 286.00 66.00" xmlns="http://www.w3.org/2000/svg" xmlns:xlink="http://www.w3.org/1999/xlink">
<g id="graph0" class="graph" transform="scale(1 1) rotate(0) translate(4 62)">
<title>blue</title>
<polygon fill="white" stroke="none" points="-4,4 -4,-62 282,-62 282,4 -4,4"/>
<!-- Node1 -->
<g id="node1" class="node"><title>Node1</title>
<polygon fill="#bfbfbf" stroke="black" points="0.5,-19.5 0.5,-38.5 35.5,-38.5 35.5,-19.5 0.5,-19.5"/>
<text text-anchor="middle" x="18" y="-26.5" font-family="Helvetica,sans-Serif" font-size="10.00">blue</text>
</g>
<!-- Node2 -->
<g id="node2" class="node"><title>Node2</title>
<g id="a_node2"><a xlink:href="frontend__opengl__linux_8c.html#ad8a729cc49f33a0037227c75e1979ada" target="_top" xlink:title="frontend_reset_viewspace">
<polygon fill="white" stroke="black" points="72.5,-19.5 72.5,-38.5 203.5,-38.5 203.5,-19.5 72.5,-19.5"/>
<text text-anchor="middle" x="138" y="-26.5" font-family="Helvetica,sans-Serif" font-size="10.00">frontend_reset_viewspace</text>
</a>
</g>
</g>
<!-- Node1&#45;&gt;Node2 -->
<g id="edge1" class="edge"><title>Node1&#45;&gt;Node2</title>
<path fill="none" stroke="midnightblue" d="M45.7732,-29C53.7763,-29 62.9207,-29 72.2587,-29"/>
<polygon fill="midnightblue" stroke="midnightblue" points="45.6563,-25.5001 35.6562,-29 45.6562,-32.5001 45.6563,-25.5001"/>
</g>
<!-- Node3 -->
<g id="node3" class="node"><title>Node3</title>
<g id="a_node3"><a xlink:href="frontend__opengl__linux_8c.html#a606f78ac8a9bdf59c7a520da2b2052e0" target="_top" xlink:title="step">
<polygon fill="white" stroke="black" points="241.5,-38.5 241.5,-57.5 276.5,-57.5 276.5,-38.5 241.5,-38.5"/>
<text text-anchor="middle" x="259" y="-45.5" font-family="Helvetica,sans-Serif" font-size="10.00">step</text>
</a>
</g>
</g>
<!-- Node2&#45;&gt;Node3 -->
<g id="edge2" class="edge"><title>Node2&#45;&gt;Node3</title>
<path fill="none" stroke="midnightblue" d="M209.054,-40.1851C221.09,-42.1069 232.532,-43.9336 241.321,-45.337"/>
<polygon fill="midnightblue" stroke="midnightblue" points="209.275,-36.6762 198.849,-38.5557 208.172,-43.5886 209.275,-36.6762"/>
</g>
<!-- Node4 -->
<g id="node4" class="node"><title>Node4</title>
<g id="a_node4"><a xlink:href="inferno_8c.html#a0ddf1224851353fc92bfbff6f499fa97" target="_top" xlink:title="main">
<polygon fill="white" stroke="black" points="240,-0.5 240,-19.5 278,-19.5 278,-0.5 240,-0.5"/>
<text text-anchor="middle" x="259" y="-7.5" font-family="Helvetica,sans-Serif" font-size="10.00">main</text>
</a>
</g>
</g>
<!-- Node2&#45;&gt;Node4 -->
<g id="edge3" class="edge"><title>Node2&#45;&gt;Node4</title>
<path fill="none" stroke="midnightblue" d="M208.95,-17.8316C220.339,-16.013 231.202,-14.2787 239.796,-12.9065"/>
<polygon fill="midnightblue" stroke="midnightblue" points="208.172,-14.4114 198.849,-19.4443 209.275,-21.3238 208.172,-14.4114"/>
</g>
</g>
</svg>
