<?xml version="1.0" encoding="UTF-8" standalone="no"?>
<!DOCTYPE svg PUBLIC "-//W3C//DTD SVG 1.1//EN"
 "http://www.w3.org/Graphics/SVG/1.1/DTD/svg11.dtd">
<!-- Generated by graphviz version 2.36.0 (20140111.2315)
 -->
<!-- Title: src/iprimitives.h Pages: 1 -->
<svg width="274pt" height="196pt"
 viewBox="0.00 0.00 274.00 196.00" xmlns="http://www.w3.org/2000/svg" xmlns:xlink="http://www.w3.org/1999/xlink">
<g id="graph0" class="graph" transform="scale(1 1) rotate(0) translate(4 192)">
<title>src/iprimitives.h</title>
<polygon fill="white" stroke="none" points="-4,4 -4,-192 270,-192 270,4 -4,4"/>
<!-- Node1 -->
<g id="node1" class="node"><title>Node1</title>
<polygon fill="#bfbfbf" stroke="black" points="121,-168.5 121,-187.5 207,-187.5 207,-168.5 121,-168.5"/>
<text text-anchor="middle" x="164" y="-175.5" font-family="Helvetica,sans-Serif" font-size="10.00">src/iprimitives.h</text>
</g>
<!-- Node2 -->
<g id="node2" class="node"><title>Node2</title>
<g id="a_node2"><a xlink:href="frontend_8h.html" target="_top" xlink:title="frontend.h">
<polygon fill="white" stroke="black" points="105,-112.5 105,-131.5 165,-131.5 165,-112.5 105,-112.5"/>
<text text-anchor="middle" x="135" y="-119.5" font-family="Helvetica,sans-Serif" font-size="10.00">frontend.h</text>
</a>
</g>
</g>
<!-- Node1&#45;&gt;Node2 -->
<g id="edge1" class="edge"><title>Node1&#45;&gt;Node2</title>
<path fill="none" stroke="midnightblue" d="M154.045,-168.083C148.575,-160.77 142.473,-150.181 138.309,-141.103"/>
<polygon fill="midnightblue" stroke="midnightblue" points="141.532,-139.736 134.569,-131.751 135.032,-142.336 141.532,-139.736"/>
</g>
<!-- Node3 -->
<g id="node3" class="node"><title>Node3</title>
<g id="a_node3"><a xlink:href="icoordinates_8h.html" target="_top" xlink:title="../icoordinates.h">
<polygon fill="white" stroke="black" points="150,-56.5 150,-75.5 236,-75.5 236,-56.5 150,-56.5"/>
<text text-anchor="middle" x="193" y="-63.5" font-family="Helvetica,sans-Serif" font-size="10.00">../icoordinates.h</text>
</a>
</g>
</g>
<!-- Node1&#45;&gt;Node3 -->
<g id="edge11" class="edge"><title>Node1&#45;&gt;Node3</title>
<path fill="none" stroke="midnightblue" d="M166.276,-168.368C170.977,-150.537 181.849,-109.295 188.183,-85.2717"/>
<polygon fill="midnightblue" stroke="midnightblue" points="191.57,-86.1533 190.735,-75.5914 184.801,-84.3688 191.57,-86.1533"/>
</g>
<!-- Node7 -->
<g id="node7" class="node"><title>Node7</title>
<g id="a_node7"><a xlink:href="iutils_8h.html" target="_top" xlink:title="iutils.h">
<polygon fill="white" stroke="black" points="221.5,-112.5 221.5,-131.5 266.5,-131.5 266.5,-112.5 221.5,-112.5"/>
<text text-anchor="middle" x="244" y="-119.5" font-family="Helvetica,sans-Serif" font-size="10.00">iutils.h</text>
</a>
</g>
</g>
<!-- Node1&#45;&gt;Node7 -->
<g id="edge8" class="edge"><title>Node1&#45;&gt;Node7</title>
<path fill="none" stroke="midnightblue" d="M176.853,-168.324C189.216,-159.979 208.13,-147.212 222.737,-137.352"/>
<polygon fill="midnightblue" stroke="midnightblue" points="224.848,-140.15 231.179,-131.655 220.932,-134.348 224.848,-140.15"/>
</g>
<!-- Node2&#45;&gt;Node1 -->
<g id="edge2" class="edge"><title>Node2&#45;&gt;Node1</title>
<path fill="none" stroke="midnightblue" d="M144.831,-131.751C150.291,-139.014 156.403,-149.589 160.596,-158.69"/>
<polygon fill="midnightblue" stroke="midnightblue" points="157.396,-160.114 164.378,-168.083 163.89,-157.499 157.396,-160.114"/>
</g>
<!-- Node2&#45;&gt;Node3 -->
<g id="edge3" class="edge"><title>Node2&#45;&gt;Node3</title>
<path fill="none" stroke="midnightblue" d="M139.411,-112.083C146.402,-103.984 159.091,-91.8664 170.494,-82.2334"/>
<polygon fill="midnightblue" stroke="midnightblue" points="172.917,-84.7742 178.47,-75.7511 168.502,-79.342 172.917,-84.7742"/>
</g>
<!-- Node5 -->
<g id="node5" class="node"><title>Node5</title>
<polygon fill="white" stroke="#bfbfbf" points="0,-56.5 0,-75.5 52,-75.5 52,-56.5 0,-56.5"/>
<text text-anchor="middle" x="26" y="-63.5" font-family="Helvetica,sans-Serif" font-size="10.00">X11/X.h</text>
</g>
<!-- Node2&#45;&gt;Node5 -->
<g id="edge6" class="edge"><title>Node2&#45;&gt;Node5</title>
<path fill="none" stroke="midnightblue" d="M117.487,-112.324C99.9276,-103.625 72.6686,-90.1202 52.4688,-80.113"/>
<polygon fill="midnightblue" stroke="midnightblue" points="53.9837,-76.9575 43.4693,-75.6545 50.8762,-83.23 53.9837,-76.9575"/>
</g>
<!-- Node6 -->
<g id="node6" class="node"><title>Node6</title>
<polygon fill="white" stroke="#bfbfbf" points="70,-56.5 70,-75.5 132,-75.5 132,-56.5 70,-56.5"/>
<text text-anchor="middle" x="101" y="-63.5" font-family="Helvetica,sans-Serif" font-size="10.00">X11/Xlib.h</text>
</g>
<!-- Node2&#45;&gt;Node6 -->
<g id="edge7" class="edge"><title>Node2&#45;&gt;Node6</title>
<path fill="none" stroke="midnightblue" d="M129.386,-112.083C124.633,-104.534 117.682,-93.4948 111.848,-84.2298"/>
<polygon fill="midnightblue" stroke="midnightblue" points="114.8,-82.3486 106.51,-75.7511 108.876,-86.0783 114.8,-82.3486"/>
</g>
<!-- Node3&#45;&gt;Node2 -->
<g id="edge4" class="edge"><title>Node3&#45;&gt;Node2</title>
<path fill="none" stroke="midnightblue" d="M188.66,-75.8339C181.672,-83.9481 168.902,-96.1452 157.444,-105.82"/>
<polygon fill="midnightblue" stroke="midnightblue" points="154.99,-103.303 149.434,-112.324 159.403,-108.737 154.99,-103.303"/>
</g>
<!-- Node4 -->
<g id="node4" class="node"><title>Node4</title>
<g id="a_node4"><a xlink:href="itypes_8h.html" target="_top" xlink:title="itypes.h">
<polygon fill="white" stroke="black" points="202.5,-0.5 202.5,-19.5 253.5,-19.5 253.5,-0.5 202.5,-0.5"/>
<text text-anchor="middle" x="228" y="-7.5" font-family="Helvetica,sans-Serif" font-size="10.00">itypes.h</text>
</a>
</g>
</g>
<!-- Node3&#45;&gt;Node4 -->
<g id="edge5" class="edge"><title>Node3&#45;&gt;Node4</title>
<path fill="none" stroke="midnightblue" d="M198.78,-56.083C203.672,-48.5341 210.827,-37.4948 216.833,-28.2298"/>
<polygon fill="midnightblue" stroke="midnightblue" points="219.826,-30.0463 222.328,-19.7511 213.952,-26.239 219.826,-30.0463"/>
</g>
<!-- Node7&#45;&gt;Node3 -->
<g id="edge9" class="edge"><title>Node7&#45;&gt;Node3</title>
<path fill="none" stroke="midnightblue" d="M235.578,-112.083C228.152,-104.22 217.148,-92.5688 208.188,-83.0813"/>
<polygon fill="midnightblue" stroke="midnightblue" points="210.676,-80.618 201.265,-75.7511 205.587,-85.4244 210.676,-80.618"/>
</g>
<!-- Node7&#45;&gt;Node4 -->
<g id="edge10" class="edge"><title>Node7&#45;&gt;Node4</title>
<path fill="none" stroke="midnightblue" d="M245.177,-112.499C246.672,-100.001 248.649,-75.9845 245,-56 243.312,-46.7575 239.825,-36.9479 236.446,-28.8546"/>
<polygon fill="midnightblue" stroke="midnightblue" points="239.631,-27.4045 232.366,-19.6928 233.237,-30.2518 239.631,-27.4045"/>
</g>
</g>
</svg>
