<?xml version="1.0" encoding="UTF-8" standalone="no"?>
<!DOCTYPE svg PUBLIC "-//W3C//DTD SVG 1.1//EN"
 "http://www.w3.org/Graphics/SVG/1.1/DTD/svg11.dtd">
<!-- Generated by graphviz version 2.36.0 (20140111.2315)
 -->
<!-- Title: src/iprimitives.h Pages: 1 -->
<!--zoomable 332 -->
<svg id="main" version="1.1" xmlns="http://www.w3.org/2000/svg" xmlns:xlink="http://www.w3.org/1999/xlink" xml:space="preserve" onload="init(evt)">
<style type="text/css"><![CDATA[
.edge:hover path { stroke: red; }
.edge:hover polygon { stroke: red; fill: red; }
]]></style>
<script type="text/javascript"><![CDATA[
var edges = document.getElementsByTagName('g');
if (edges && edges.length) {
  for (var i=0;i<edges.length;i++) {
    if (edges[i].id.substr(0,4)=='edge') {
      edges[i].setAttribute('class','edge');
    }
  }
}
]]></script>
        <defs>
                <circle id="rim" cx="0" cy="0" r="7"/>
                <circle id="rim2" cx="0" cy="0" r="3.5"/>
                <g id="zoomPlus">
                        <use xlink:href="#rim" fill="#404040">
                                <set attributeName="fill" to="#808080" begin="zoomplus.mouseover" end="zoomplus.mouseout"/>
                        </use>
                        <path d="M-4,0h8M0,-4v8" fill="none" stroke="white" stroke-width="1.5" pointer-events="none"/>
                </g>
                <g id="zoomMin">
                        <use xlink:href="#rim" fill="#404040">
                                <set attributeName="fill" to="#808080" begin="zoomminus.mouseover" end="zoomminus.mouseout"/>
                        </use>
                        <path d="M-4,0h8" fill="none" stroke="white" stroke-width="1.5" pointer-events="none"/>
                </g>
                <g id="dirArrow">
                        <path fill="none" stroke="white" stroke-width="1.5" d="M0,-3.0v7 M-2.5,-0.5L0,-3.0L2.5,-0.5"/>
                </g>
               <g id="resetDef">
                       <use xlink:href="#rim2" fill="#404040">
                               <set attributeName="fill" to="#808080" begin="reset.mouseover" end="reset.mouseout"/>
                       </use>
               </g>
        </defs>

<script type="text/javascript">
var viewWidth = 1046;
var viewHeight = 332;
var sectionId = 'dynsection-1';
</script>
<script xlink:href="svgpan.js"/>
<svg id="graph" class="graph">
<g id="viewport">
<title>src/iprimitives.h</title>
<polygon fill="white" stroke="none" points="-4,4 -4,-328 1041.77,-328 1041.77,4 -4,4"/>
<!-- Node1 -->
<g id="node1" class="node"><title>Node1</title>
<polygon fill="#bfbfbf" stroke="black" points="475,-304.5 475,-323.5 561,-323.5 561,-304.5 475,-304.5"/>
<text text-anchor="middle" x="518" y="-311.5" font-family="Helvetica,sans-Serif" font-size="10.00">src/iprimitives.h</text>
</g>
<!-- Node2 -->
<g id="node2" class="node"><title>Node2</title>
<g id="a_node2"><a xlink:href="igraphics_8h.html" target="_top" xlink:title="src/igraphics.h">
<polygon fill="white" stroke="black" points="298,-62.5 298,-81.5 378,-81.5 378,-62.5 298,-62.5"/>
<text text-anchor="middle" x="338" y="-69.5" font-family="Helvetica,sans-Serif" font-size="10.00">src/igraphics.h</text>
</a>
</g>
</g>
<!-- Node1&#45;&gt;Node2 -->
<g id="edge1" class="edge"><title>Node1&#45;&gt;Node2</title>
<path fill="none" stroke="midnightblue" d="M464.471,-310.305C394.584,-303.952 272.636,-282.724 200,-212 170.869,-183.636 150.922,-156.763 175,-124 189.662,-104.049 254.56,-88.4249 297.912,-79.9724"/>
<polygon fill="midnightblue" stroke="midnightblue" points="464.551,-313.824 474.808,-311.171 465.135,-306.849 464.551,-313.824"/>
</g>
<!-- Node3 -->
<g id="node3" class="node"><title>Node3</title>
<g id="a_node3"><a xlink:href="igraphics_8c.html" target="_top" xlink:title="src/igraphics.c">
<polygon fill="white" stroke="black" points="180,-0.5 180,-19.5 260,-19.5 260,-0.5 180,-0.5"/>
<text text-anchor="middle" x="220" y="-7.5" font-family="Helvetica,sans-Serif" font-size="10.00">src/igraphics.c</text>
</a>
</g>
</g>
<!-- Node1&#45;&gt;Node3 -->
<g id="edge4" class="edge"><title>Node1&#45;&gt;Node3</title>
<path fill="none" stroke="midnightblue" d="M464.418,-312.861C332.005,-311.077 0,-297.211 0,-203 0,-203 0,-203 0,-139 0,-56.6985 116.449,-26.4 179.904,-15.9994"/>
<polygon fill="midnightblue" stroke="midnightblue" points="464.687,-316.364 474.727,-312.981 464.768,-309.365 464.687,-316.364"/>
</g>
<!-- Node5 -->
<g id="node5" class="node"><title>Node5</title>
<g id="a_node5"><a xlink:href="isimulation_8h.html" target="_top" xlink:title="src/isimulation.h">
<polygon fill="white" stroke="black" points="778,-62.5 778,-81.5 866,-81.5 866,-62.5 778,-62.5"/>
<text text-anchor="middle" x="822" y="-69.5" font-family="Helvetica,sans-Serif" font-size="10.00">src/isimulation.h</text>
</a>
</g>
</g>
<!-- Node1&#45;&gt;Node5 -->
<g id="edge5" class="edge"><title>Node1&#45;&gt;Node5</title>
<path fill="none" stroke="midnightblue" d="M571.237,-302.85C642.361,-286.117 765.712,-245.266 820,-156 834.38,-132.355 828.315,-97.4899 824.384,-81.5353"/>
<polygon fill="midnightblue" stroke="midnightblue" points="570.112,-299.516 561.137,-305.146 571.664,-306.342 570.112,-299.516"/>
</g>
<!-- Node6 -->
<g id="node6" class="node"><title>Node6</title>
<g id="a_node6"><a xlink:href="isimulation_8c.html" target="_top" xlink:title="src/isimulation.c">
<polygon fill="white" stroke="black" points="814,-0.5 814,-19.5 902,-19.5 902,-0.5 814,-0.5"/>
<text text-anchor="middle" x="858" y="-7.5" font-family="Helvetica,sans-Serif" font-size="10.00">src/isimulation.c</text>
</a>
</g>
</g>
<!-- Node1&#45;&gt;Node6 -->
<g id="edge10" class="edge"><title>Node1&#45;&gt;Node6</title>
<path fill="none" stroke="midnightblue" d="M571.582,-312.861C703.995,-311.077 1036,-297.211 1036,-203 1036,-203 1036,-203 1036,-139 1036,-101.157 1043.07,-83.4297 1017,-56 987.452,-24.9128 938.19,-14.7878 902.317,-11.7437"/>
<polygon fill="midnightblue" stroke="midnightblue" points="571.232,-309.365 561.273,-312.981 571.313,-316.364 571.232,-309.365"/>
</g>
<!-- Node7 -->
<g id="node7" class="node"><title>Node7</title>
<g id="a_node7"><a xlink:href="inferno_8h.html" target="_top" xlink:title="src/inferno.h">
<polygon fill="white" stroke="black" points="740.5,-130.5 740.5,-149.5 811.5,-149.5 811.5,-130.5 740.5,-130.5"/>
<text text-anchor="middle" x="776" y="-137.5" font-family="Helvetica,sans-Serif" font-size="10.00">src/inferno.h</text>
</a>
</g>
</g>
<!-- Node1&#45;&gt;Node7 -->
<g id="edge8" class="edge"><title>Node1&#45;&gt;Node7</title>
<path fill="none" stroke="midnightblue" d="M539.188,-298.874C590.751,-264.499 721.581,-177.279 763.129,-149.581"/>
<polygon fill="midnightblue" stroke="midnightblue" points="537.173,-296.011 530.794,-304.47 541.056,-301.836 537.173,-296.011"/>
</g>
<!-- Node8 -->
<g id="node8" class="node"><title>Node8</title>
<g id="a_node8"><a xlink:href="iprimitives_8c.html" target="_top" xlink:title="src/iprimitives.c">
<polygon fill="white" stroke="black" points="922,-62.5 922,-81.5 1008,-81.5 1008,-62.5 922,-62.5"/>
<text text-anchor="middle" x="965" y="-69.5" font-family="Helvetica,sans-Serif" font-size="10.00">src/iprimitives.c</text>
</a>
</g>
</g>
<!-- Node1&#45;&gt;Node8 -->
<g id="edge9" class="edge"><title>Node1&#45;&gt;Node8</title>
<path fill="none" stroke="midnightblue" d="M571.075,-305.972C611.009,-299.442 666.455,-287.685 712,-268 822.464,-220.256 927.443,-113.341 956.865,-81.8739"/>
<polygon fill="midnightblue" stroke="midnightblue" points="570.347,-302.544 561.016,-307.561 571.439,-309.458 570.347,-302.544"/>
</g>
<!-- Node9 -->
<g id="node9" class="node"><title>Node9</title>
<g id="a_node9"><a xlink:href="frontend_8h.html" target="_top" xlink:title="src/frontends/frontend.h">
<polygon fill="white" stroke="black" points="344,-248.5 344,-267.5 464,-267.5 464,-248.5 344,-248.5"/>
<text text-anchor="middle" x="404" y="-255.5" font-family="Helvetica,sans-Serif" font-size="10.00">src/frontends/frontend.h</text>
</a>
</g>
</g>
<!-- Node1&#45;&gt;Node9 -->
<g id="edge11" class="edge"><title>Node1&#45;&gt;Node9</title>
<path fill="none" stroke="midnightblue" d="M485.516,-300.368C462.712,-290.255 433.599,-276.349 416.899,-267.516"/>
<polygon fill="midnightblue" stroke="midnightblue" points="484.283,-303.648 494.848,-304.444 487.084,-297.234 484.283,-303.648"/>
</g>
<!-- Node14 -->
<g id="node14" class="node"><title>Node14</title>
<g id="a_node14"><a xlink:href="frontend__opengl__linux_8c.html" target="_top" xlink:title="src/frontends/frontend\l_opengl_linux.c">
<polygon fill="white" stroke="black" points="130,-57 130,-87 242,-87 242,-57 130,-57"/>
<text text-anchor="start" x="138" y="-75" font-family="Helvetica,sans-Serif" font-size="10.00">src/frontends/frontend</text>
<text text-anchor="middle" x="186" y="-64" font-family="Helvetica,sans-Serif" font-size="10.00">_opengl_linux.c</text>
</a>
</g>
</g>
<!-- Node1&#45;&gt;Node14 -->
<g id="edge43" class="edge"><title>Node1&#45;&gt;Node14</title>
<path fill="none" stroke="midnightblue" d="M464.853,-311.995C408.699,-309.173 318.67,-299.555 248,-268 190.445,-242.302 170.255,-218.348 161,-156 158.912,-141.932 157.787,-137.855 161,-124 164.074,-110.744 171.099,-96.9596 176.921,-87.0685"/>
<polygon fill="midnightblue" stroke="midnightblue" points="464.785,-315.495 474.932,-312.447 465.098,-308.502 464.785,-315.495"/>
</g>
<!-- Node2&#45;&gt;Node3 -->
<g id="edge2" class="edge"><title>Node2&#45;&gt;Node3</title>
<path fill="none" stroke="midnightblue" d="M311.954,-57.7561C289.084,-46.1274 256.489,-29.5538 236.875,-19.5806"/>
<polygon fill="midnightblue" stroke="midnightblue" points="310.593,-60.9908 321.093,-62.4035 313.766,-54.7511 310.593,-60.9908"/>
</g>
<!-- Node4 -->
<g id="node4" class="node"><title>Node4</title>
<g id="a_node4"><a xlink:href="inferno_8c.html" target="_top" xlink:title="src/inferno.c">
<polygon fill="white" stroke="black" points="445.5,-0.5 445.5,-19.5 516.5,-19.5 516.5,-0.5 445.5,-0.5"/>
<text text-anchor="middle" x="481" y="-7.5" font-family="Helvetica,sans-Serif" font-size="10.00">src/inferno.c</text>
</a>
</g>
</g>
<!-- Node2&#45;&gt;Node4 -->
<g id="edge3" class="edge"><title>Node2&#45;&gt;Node4</title>
<path fill="none" stroke="midnightblue" d="M367.727,-58.5273C395.508,-46.8706 436.25,-29.7764 460.55,-19.5806"/>
<polygon fill="midnightblue" stroke="midnightblue" points="366.355,-55.3069 358.488,-62.4035 369.064,-61.7618 366.355,-55.3069"/>
</g>
<!-- Node5&#45;&gt;Node4 -->
<g id="edge6" class="edge"><title>Node5&#45;&gt;Node4</title>
<path fill="none" stroke="midnightblue" d="M767.773,-61.4586C697.45,-49.085 576.727,-27.8435 516.847,-17.3073"/>
<polygon fill="midnightblue" stroke="midnightblue" points="767.315,-64.9316 777.77,-63.2176 768.528,-58.0375 767.315,-64.9316"/>
</g>
<!-- Node5&#45;&gt;Node6 -->
<g id="edge7" class="edge"><title>Node5&#45;&gt;Node6</title>
<path fill="none" stroke="midnightblue" d="M832.485,-53.5251C839.179,-42.3689 847.562,-28.3962 852.852,-19.5806"/>
<polygon fill="midnightblue" stroke="midnightblue" points="829.302,-52.0278 827.158,-62.4035 835.304,-55.6293 829.302,-52.0278"/>
</g>
<!-- Node9&#45;&gt;Node1 -->
<g id="edge37" class="edge"><title>Node9&#45;&gt;Node1</title>
<path fill="none" stroke="midnightblue" d="M436.654,-271.707C459.295,-281.753 488.093,-295.507 504.799,-304.324"/>
<polygon fill="midnightblue" stroke="midnightblue" points="437.946,-268.452 427.381,-267.655 435.142,-274.866 437.946,-268.452"/>
</g>
<!-- Node9&#45;&gt;Node2 -->
<g id="edge36" class="edge"><title>Node9&#45;&gt;Node2</title>
<path fill="none" stroke="midnightblue" d="M393.063,-239.832C381.125,-220.294 362.336,-187.056 352,-156 343.325,-129.933 339.841,-97.3893 338.602,-81.9399"/>
<polygon fill="midnightblue" stroke="midnightblue" points="390.195,-241.848 398.453,-248.485 396.137,-238.147 390.195,-241.848"/>
</g>
<!-- Node9&#45;&gt;Node3 -->
<g id="edge38" class="edge"><title>Node9&#45;&gt;Node3</title>
<path fill="none" stroke="midnightblue" d="M333.824,-250.033C276.713,-243.113 201.81,-230.795 178,-212 120.06,-166.263 81.0368,-118.063 121,-56 133.981,-35.8405 158.447,-24.6081 179.808,-18.4069"/>
<polygon fill="midnightblue" stroke="midnightblue" points="333.563,-253.526 343.904,-251.221 334.382,-246.574 333.563,-253.526"/>
</g>
<!-- Node9&#45;&gt;Node4 -->
<g id="edge39" class="edge"><title>Node9&#45;&gt;Node4</title>
<path fill="none" stroke="midnightblue" d="M401.422,-238.345C397.205,-201.116 392.286,-116.027 425,-56 433.833,-39.7919 451.17,-27.2841 464.226,-19.6154"/>
<polygon fill="midnightblue" stroke="midnightblue" points="397.951,-238.794 402.666,-248.281 404.896,-237.924 397.951,-238.794"/>
</g>
<!-- Node10 -->
<g id="node10" class="node"><title>Node10</title>
<g id="a_node10"><a xlink:href="icoordinates_8c.html" target="_top" xlink:title="src/icoordinates.c">
<polygon fill="white" stroke="black" points="434,-62.5 434,-81.5 528,-81.5 528,-62.5 434,-62.5"/>
<text text-anchor="middle" x="481" y="-69.5" font-family="Helvetica,sans-Serif" font-size="10.00">src/icoordinates.c</text>
</a>
</g>
</g>
<!-- Node9&#45;&gt;Node10 -->
<g id="edge12" class="edge"><title>Node9&#45;&gt;Node10</title>
<path fill="none" stroke="midnightblue" d="M411.713,-238.568C428.018,-199.606 465.459,-110.136 477.323,-81.7857"/>
<polygon fill="midnightblue" stroke="midnightblue" points="408.346,-237.549 407.714,-248.125 414.803,-240.252 408.346,-237.549"/>
</g>
<!-- Node11 -->
<g id="node11" class="node"><title>Node11</title>
<g id="a_node11"><a xlink:href="icoordinates_8h.html" target="_top" xlink:title="src/icoordinates.h">
<polygon fill="white" stroke="black" points="471,-192.5 471,-211.5 565,-211.5 565,-192.5 471,-192.5"/>
<text text-anchor="middle" x="518" y="-199.5" font-family="Helvetica,sans-Serif" font-size="10.00">src/icoordinates.h</text>
</a>
</g>
</g>
<!-- Node9&#45;&gt;Node11 -->
<g id="edge13" class="edge"><title>Node9&#45;&gt;Node11</title>
<path fill="none" stroke="midnightblue" d="M426.117,-243.726C445.879,-233.727 474.476,-220.307 494.619,-211.655"/>
<polygon fill="midnightblue" stroke="midnightblue" points="424.485,-240.63 417.201,-248.324 427.693,-246.851 424.485,-240.63"/>
</g>
<!-- Node9&#45;&gt;Node14 -->
<g id="edge41" class="edge"><title>Node9&#45;&gt;Node14</title>
<path fill="none" stroke="midnightblue" d="M334.022,-248.376C283.39,-240.898 220.423,-228.651 200,-212 168.488,-186.307 170.69,-164.43 175,-124 176.344,-111.391 179.508,-97.32 182.099,-87.1576"/>
<polygon fill="midnightblue" stroke="midnightblue" points="333.571,-251.847 343.967,-249.808 334.568,-244.918 333.571,-251.847"/>
</g>
<!-- Node15 -->
<g id="node15" class="node"><title>Node15</title>
<g id="a_node15"><a xlink:href="frontend__opengl__linux_8h.html" target="_top" xlink:title="src/frontends/frontend\l_opengl_linux.h">
<polygon fill="white" stroke="black" points="184,-125 184,-155 296,-155 296,-125 184,-125"/>
<text text-anchor="start" x="192" y="-143" font-family="Helvetica,sans-Serif" font-size="10.00">src/frontends/frontend</text>
<text text-anchor="middle" x="240" y="-132" font-family="Helvetica,sans-Serif" font-size="10.00">_opengl_linux.h</text>
</a>
</g>
</g>
<!-- Node9&#45;&gt;Node15 -->
<g id="edge42" class="edge"><title>Node9&#45;&gt;Node15</title>
<path fill="none" stroke="midnightblue" d="M333.705,-249.948C284.388,-243.38 224.582,-231.587 209,-212 195.268,-194.738 211.852,-170.454 225.546,-155.23"/>
<polygon fill="midnightblue" stroke="midnightblue" points="333.367,-253.433 343.731,-251.232 334.256,-246.49 333.367,-253.433"/>
</g>
<!-- Node16 -->
<g id="node16" class="node"><title>Node16</title>
<g id="a_node16"><a xlink:href="frontend_8c.html" target="_top" xlink:title="src/frontends/frontend.c">
<polygon fill="white" stroke="black" points="218,-192.5 218,-211.5 338,-211.5 338,-192.5 218,-192.5"/>
<text text-anchor="middle" x="278" y="-199.5" font-family="Helvetica,sans-Serif" font-size="10.00">src/frontends/frontend.c</text>
</a>
</g>
</g>
<!-- Node9&#45;&gt;Node16 -->
<g id="edge40" class="edge"><title>Node9&#45;&gt;Node16</title>
<path fill="none" stroke="midnightblue" d="M374.84,-244.503C351.219,-234.38 318.572,-220.388 297.872,-211.516"/>
<polygon fill="midnightblue" stroke="midnightblue" points="373.465,-247.721 384.035,-248.444 376.222,-241.287 373.465,-247.721"/>
</g>
<!-- Node11&#45;&gt;Node1 -->
<g id="edge26" class="edge"><title>Node11&#45;&gt;Node1</title>
<path fill="none" stroke="midnightblue" d="M518,-221.597C518,-245.666 518,-286.617 518,-304.368"/>
<polygon fill="midnightblue" stroke="midnightblue" points="521.5,-221.591 518,-211.591 514.5,-221.591 521.5,-221.591"/>
</g>
<!-- Node11&#45;&gt;Node2 -->
<g id="edge25" class="edge"><title>Node11&#45;&gt;Node2</title>
<path fill="none" stroke="midnightblue" d="M499.533,-185.989C479.741,-170.089 447.217,-144.501 418,-124 395.618,-108.295 368.625,-91.5134 352.412,-81.6549"/>
<polygon fill="midnightblue" stroke="midnightblue" points="497.452,-188.807 507.432,-192.363 501.848,-183.359 497.452,-188.807"/>
</g>
<!-- Node11&#45;&gt;Node4 -->
<g id="edge27" class="edge"><title>Node11&#45;&gt;Node4</title>
<path fill="none" stroke="midnightblue" d="M526.543,-182.831C538.633,-154.328 557.142,-98.0239 537,-56 529.076,-39.4667 511.787,-27.0831 498.502,-19.5351"/>
<polygon fill="midnightblue" stroke="midnightblue" points="523.194,-181.747 522.318,-192.306 529.588,-184.598 523.194,-181.747"/>
</g>
<!-- Node11&#45;&gt;Node6 -->
<g id="edge29" class="edge"><title>Node11&#45;&gt;Node6</title>
<path fill="none" stroke="midnightblue" d="M575.1,-192.682C610.186,-186.033 655.289,-174.653 692,-156 711.989,-145.844 710.978,-134.092 731,-124 789.525,-94.5013 833.709,-139.691 874,-88 889.948,-67.5394 873.41,-35.0351 863.822,-19.6351"/>
<polygon fill="midnightblue" stroke="midnightblue" points="574.233,-189.282 565.02,-194.515 575.485,-196.169 574.233,-189.282"/>
</g>
<!-- Node11&#45;&gt;Node7 -->
<g id="edge28" class="edge"><title>Node11&#45;&gt;Node7</title>
<path fill="none" stroke="midnightblue" d="M572.511,-190.424C614.631,-181.959 674.274,-169.332 726,-156 733.46,-154.077 741.478,-151.778 748.861,-149.564"/>
<polygon fill="midnightblue" stroke="midnightblue" points="571.585,-187.04 562.464,-192.431 572.956,-193.904 571.585,-187.04"/>
</g>
<!-- Node11&#45;&gt;Node9 -->
<g id="edge31" class="edge"><title>Node11&#45;&gt;Node9</title>
<path fill="none" stroke="midnightblue" d="M496.165,-216.131C476.32,-226.183 447.403,-239.754 427.152,-248.444"/>
<polygon fill="midnightblue" stroke="midnightblue" points="497.822,-219.215 505.101,-211.516 494.61,-212.995 497.822,-219.215"/>
</g>
<!-- Node11&#45;&gt;Node10 -->
<g id="edge14" class="edge"><title>Node11&#45;&gt;Node10</title>
<path fill="none" stroke="midnightblue" d="M512.624,-182.403C504.491,-154.265 489.378,-101.983 483.464,-81.5224"/>
<polygon fill="midnightblue" stroke="midnightblue" points="509.317,-183.567 515.457,-192.202 516.042,-181.623 509.317,-183.567"/>
</g>
<!-- Node12 -->
<g id="node12" class="node"><title>Node12</title>
<g id="a_node12"><a xlink:href="iutils_8h.html" target="_top" xlink:title="src/iutils.h">
<polygon fill="white" stroke="black" points="622,-130.5 622,-149.5 684,-149.5 684,-130.5 622,-130.5"/>
<text text-anchor="middle" x="653" y="-137.5" font-family="Helvetica,sans-Serif" font-size="10.00">src/iutils.h</text>
</a>
</g>
</g>
<!-- Node11&#45;&gt;Node12 -->
<g id="edge15" class="edge"><title>Node11&#45;&gt;Node12</title>
<path fill="none" stroke="midnightblue" d="M546.753,-188.221C572.962,-176.573 610.953,-159.687 633.694,-149.581"/>
<polygon fill="midnightblue" stroke="midnightblue" points="545.059,-185.144 537.342,-192.403 547.902,-191.54 545.059,-185.144"/>
</g>
<!-- Node13 -->
<g id="node13" class="node"><title>Node13</title>
<g id="a_node13"><a xlink:href="iutils_8c.html" target="_top" xlink:title="src/iutils.c">
<polygon fill="white" stroke="black" points="584,-62.5 584,-81.5 646,-81.5 646,-62.5 584,-62.5"/>
<text text-anchor="middle" x="615" y="-69.5" font-family="Helvetica,sans-Serif" font-size="10.00">src/iutils.c</text>
</a>
</g>
</g>
<!-- Node11&#45;&gt;Node13 -->
<g id="edge30" class="edge"><title>Node11&#45;&gt;Node13</title>
<path fill="none" stroke="midnightblue" d="M538.357,-186.225C548.661,-178.082 560.883,-167.34 570,-156 589.616,-131.6 605.011,-97.4068 611.564,-81.6162"/>
<polygon fill="midnightblue" stroke="midnightblue" points="536.084,-183.557 530.263,-192.41 540.334,-189.119 536.084,-183.557"/>
</g>
<!-- Node11&#45;&gt;Node14 -->
<g id="edge32" class="edge"><title>Node11&#45;&gt;Node14</title>
<path fill="none" stroke="midnightblue" d="M486.072,-188.69C424.135,-164.811 288.027,-112.336 222.572,-87.1001"/>
<polygon fill="midnightblue" stroke="midnightblue" points="485.111,-192.071 495.701,-192.403 487.63,-185.54 485.111,-192.071"/>
</g>
<!-- Node11&#45;&gt;Node15 -->
<g id="edge33" class="edge"><title>Node11&#45;&gt;Node15</title>
<path fill="none" stroke="midnightblue" d="M468.552,-190.328C420.227,-179.898 346.757,-164.041 296.233,-153.137"/>
<polygon fill="midnightblue" stroke="midnightblue" points="467.951,-193.779 478.465,-192.467 469.428,-186.936 467.951,-193.779"/>
</g>
<!-- Node12&#45;&gt;Node1 -->
<g id="edge18" class="edge"><title>Node12&#45;&gt;Node1</title>
<path fill="none" stroke="midnightblue" d="M640.007,-157.554C611.904,-193.36 546.279,-276.971 524.88,-304.234"/>
<polygon fill="midnightblue" stroke="midnightblue" points="642.873,-159.572 646.294,-149.544 637.366,-155.25 642.873,-159.572"/>
</g>
<!-- Node12&#45;&gt;Node2 -->
<g id="edge17" class="edge"><title>Node12&#45;&gt;Node2</title>
<path fill="none" stroke="midnightblue" d="M611.947,-130.398C551.261,-117.683 438.319,-94.0192 378.154,-81.4131"/>
<polygon fill="midnightblue" stroke="midnightblue" points="611.429,-133.866 621.935,-132.491 612.865,-127.015 611.429,-133.866"/>
</g>
<!-- Node12&#45;&gt;Node3 -->
<g id="edge19" class="edge"><title>Node12&#45;&gt;Node3</title>
<path fill="none" stroke="midnightblue" d="M659.611,-120.719C665.071,-102.031 669.65,-73.3565 654,-56 627.876,-27.0269 362.771,-15.5439 260.211,-12.1636"/>
<polygon fill="midnightblue" stroke="midnightblue" points="656.225,-119.814 656.442,-130.407 662.878,-121.991 656.225,-119.814"/>
</g>
<!-- Node12&#45;&gt;Node4 -->
<g id="edge20" class="edge"><title>Node12&#45;&gt;Node4</title>
<path fill="none" stroke="midnightblue" d="M668.834,-123.093C684.62,-105.285 704.34,-76.2732 688,-56 666.883,-29.7995 570.18,-18.0625 516.745,-13.4991"/>
<polygon fill="midnightblue" stroke="midnightblue" points="666.265,-120.716 662.002,-130.415 671.383,-125.491 666.265,-120.716"/>
</g>
<!-- Node12&#45;&gt;Node5 -->
<g id="edge21" class="edge"><title>Node12&#45;&gt;Node5</title>
<path fill="none" stroke="midnightblue" d="M684.48,-126.706C718.176,-113.547 770.745,-93.0166 800.169,-81.5259"/>
<polygon fill="midnightblue" stroke="midnightblue" points="683.135,-123.474 675.094,-130.372 685.682,-129.994 683.135,-123.474"/>
</g>
<!-- Node12&#45;&gt;Node6 -->
<g id="edge23" class="edge"><title>Node12&#45;&gt;Node6</title>
<path fill="none" stroke="midnightblue" d="M671.836,-124.152C694.294,-106.776 733.285,-77.6322 769,-56 792.399,-41.8274 820.817,-28.0076 839.145,-19.5039"/>
<polygon fill="midnightblue" stroke="midnightblue" points="669.549,-121.496 663.813,-130.404 673.852,-127.018 669.549,-121.496"/>
</g>
<!-- Node12&#45;&gt;Node8 -->
<g id="edge22" class="edge"><title>Node12&#45;&gt;Node8</title>
<path fill="none" stroke="midnightblue" d="M693.941,-130.339C753.974,-117.64 865.201,-94.1114 924.805,-81.5027"/>
<polygon fill="midnightblue" stroke="midnightblue" points="693.116,-126.936 684.056,-132.43 694.564,-133.785 693.116,-126.936"/>
</g>
<!-- Node12&#45;&gt;Node10 -->
<g id="edge16" class="edge"><title>Node12&#45;&gt;Node10</title>
<path fill="none" stroke="midnightblue" d="M620.961,-126.706C586.667,-113.547 533.165,-93.0166 503.219,-81.5259"/>
<polygon fill="midnightblue" stroke="midnightblue" points="619.924,-130.057 630.514,-130.372 622.432,-123.521 619.924,-130.057"/>
</g>
<!-- Node12&#45;&gt;Node13 -->
<g id="edge24" class="edge"><title>Node12&#45;&gt;Node13</title>
<path fill="none" stroke="midnightblue" d="M642.961,-121.563C635.601,-108.781 625.916,-91.9599 620.09,-81.8411"/>
<polygon fill="midnightblue" stroke="midnightblue" points="640.009,-123.452 648.032,-130.372 646.076,-119.959 640.009,-123.452"/>
</g>
<!-- Node15&#45;&gt;Node4 -->
<g id="edge34" class="edge"><title>Node15&#45;&gt;Node4</title>
<path fill="none" stroke="midnightblue" d="M247.967,-115.432C255.574,-96.5258 268.885,-70.7852 289,-56 335.483,-21.8335 403.956,-13.1486 445.333,-11.2031"/>
<polygon fill="midnightblue" stroke="midnightblue" points="244.666,-114.268 244.413,-124.86 251.216,-116.737 244.666,-114.268"/>
</g>
<!-- Node15&#45;&gt;Node14 -->
<g id="edge35" class="edge"><title>Node15&#45;&gt;Node14</title>
<path fill="none" stroke="midnightblue" d="M221.919,-116.901C213.93,-107.136 204.766,-95.9363 197.694,-87.2931"/>
<polygon fill="midnightblue" stroke="midnightblue" points="219.242,-119.156 228.283,-124.679 224.659,-114.723 219.242,-119.156"/>
</g>
</g>
</svg>
        <g id="navigator" transform="translate(0 0)" fill="#404254">
                <rect fill="#f2f5e9" fill-opacity="0.5" stroke="#606060" stroke-width=".5" x="0" y="0" width="60" height="60"/>
                <use id="zoomplus" xlink:href="#zoomPlus" x="17" y="9" onmousedown="handleZoom(evt,'in')"/>
                <use id="zoomminus" xlink:href="#zoomMin" x="42" y="9" onmousedown="handleZoom(evt,'out')"/>
                <use id="reset" xlink:href="#resetDef" x="30" y="36" onmousedown="handleReset()"/>
                <g id="arrowUp" xlink:href="#dirArrow" transform="translate(30 24)" onmousedown="handlePan(0,-1)">
                  <use xlink:href="#rim" fill="#404040">
                        <set attributeName="fill" to="#808080" begin="arrowUp.mouseover" end="arrowUp.mouseout"/>
                  </use>
                  <path fill="none" stroke="white" stroke-width="1.5" d="M0,-3.0v7 M-2.5,-0.5L0,-3.0L2.5,-0.5"/>
                </g>
                <g id="arrowRight" xlink:href="#dirArrow" transform="rotate(90) translate(36 -43)" onmousedown="handlePan(1,0)">
                  <use xlink:href="#rim" fill="#404040">
                        <set attributeName="fill" to="#808080" begin="arrowRight.mouseover" end="arrowRight.mouseout"/>
                  </use>
                  <path fill="none" stroke="white" stroke-width="1.5" d="M0,-3.0v7 M-2.5,-0.5L0,-3.0L2.5,-0.5"/>
                </g>
                <g id="arrowDown" xlink:href="#dirArrow" transform="rotate(180) translate(-30 -48)" onmousedown="handlePan(0,1)">
                  <use xlink:href="#rim" fill="#404040">
                        <set attributeName="fill" to="#808080" begin="arrowDown.mouseover" end="arrowDown.mouseout"/>
                  </use>
                  <path fill="none" stroke="white" stroke-width="1.5" d="M0,-3.0v7 M-2.5,-0.5L0,-3.0L2.5,-0.5"/>
                </g>
                <g id="arrowLeft" xlink:href="#dirArrow" transform="rotate(270) translate(-36 17)" onmousedown="handlePan(-1,0)">
                  <use xlink:href="#rim" fill="#404040">
                        <set attributeName="fill" to="#808080" begin="arrowLeft.mouseover" end="arrowLeft.mouseout"/>
                  </use>
                  <path fill="none" stroke="white" stroke-width="1.5" d="M0,-3.0v7 M-2.5,-0.5L0,-3.0L2.5,-0.5"/>
                </g>
        </g>
        <svg viewBox="0 0 15 15" width="100%" height="30px" preserveAspectRatio="xMaxYMin meet">
         <g id="arrow_out" transform="scale(0.3 0.3)">
          <a xlink:href="iprimitives_8h__dep__incl_org.svg" target="_base">
           <rect id="button" ry="5" rx="5" y="6" x="6" height="38" width="38"
                fill="#f2f5e9" fill-opacity="0.5" stroke="#606060" stroke-width="1.0"/>
           <path id="arrow"
             d="M 11.500037,31.436501 C 11.940474,20.09759 22.043105,11.32322 32.158766,21.979434 L 37.068811,17.246167 C 37.068811,17.246167 37.088388,32 37.088388,32 L 22.160133,31.978069 C 22.160133,31.978069 26.997745,27.140456 26.997745,27.140456 C 18.528582,18.264221 13.291696,25.230495 11.500037,31.436501 z"
             style="fill:#404040;"/>
          </a>
         </g>
        </svg>
</svg>
