<?xml version="1.0" encoding="UTF-8" standalone="no"?>
<!DOCTYPE svg PUBLIC "-//W3C//DTD SVG 1.1//EN"
 "http://www.w3.org/Graphics/SVG/1.1/DTD/svg11.dtd">
<!-- Generated by graphviz version 2.36.0 (20140111.2315)
 -->
<!-- Title: src/isimulation.c Pages: 1 -->
<svg width="315pt" height="308pt"
 viewBox="0.00 0.00 315.04 308.00" xmlns="http://www.w3.org/2000/svg" xmlns:xlink="http://www.w3.org/1999/xlink">
<g id="graph0" class="graph" transform="scale(1 1) rotate(0) translate(4 304)">
<title>src/isimulation.c</title>
<polygon fill="white" stroke="none" points="-4,4 -4,-304 311.041,-304 311.041,4 -4,4"/>
<!-- Node1 -->
<g id="node1" class="node"><title>Node1</title>
<polygon fill="#bfbfbf" stroke="black" points="115,-280.5 115,-299.5 203,-299.5 203,-280.5 115,-280.5"/>
<text text-anchor="middle" x="159" y="-287.5" font-family="Helvetica,sans-Serif" font-size="10.00">src/isimulation.c</text>
</g>
<!-- Node2 -->
<g id="node2" class="node"><title>Node2</title>
<polygon fill="white" stroke="#bfbfbf" points="0,-224.5 0,-243.5 48,-243.5 48,-224.5 0,-224.5"/>
<text text-anchor="middle" x="24" y="-231.5" font-family="Helvetica,sans-Serif" font-size="10.00">stdlib.h</text>
</g>
<!-- Node1&#45;&gt;Node2 -->
<g id="edge1" class="edge"><title>Node1&#45;&gt;Node2</title>
<path fill="none" stroke="midnightblue" d="M137.609,-280.444C115.293,-271.517 80.0968,-257.439 54.792,-247.317"/>
<polygon fill="midnightblue" stroke="midnightblue" points="55.8757,-243.981 45.2911,-243.516 53.276,-250.48 55.8757,-243.981"/>
</g>
<!-- Node3 -->
<g id="node3" class="node"><title>Node3</title>
<polygon fill="white" stroke="#bfbfbf" points="66,-224.5 66,-243.5 112,-243.5 112,-224.5 66,-224.5"/>
<text text-anchor="middle" x="89" y="-231.5" font-family="Helvetica,sans-Serif" font-size="10.00">stdio.h</text>
</g>
<!-- Node1&#45;&gt;Node3 -->
<g id="edge2" class="edge"><title>Node1&#45;&gt;Node3</title>
<path fill="none" stroke="midnightblue" d="M147.753,-280.324C137.203,-272.185 121.199,-259.839 108.558,-250.087"/>
<polygon fill="midnightblue" stroke="midnightblue" points="110.507,-247.171 100.451,-243.834 106.231,-252.713 110.507,-247.171"/>
</g>
<!-- Node4 -->
<g id="node4" class="node"><title>Node4</title>
<g id="a_node4"><a xlink:href="isimulation_8h.html" target="_top" xlink:title="isimulation.h">
<polygon fill="white" stroke="black" points="206.5,-224.5 206.5,-243.5 277.5,-243.5 277.5,-224.5 206.5,-224.5"/>
<text text-anchor="middle" x="242" y="-231.5" font-family="Helvetica,sans-Serif" font-size="10.00">isimulation.h</text>
</a>
</g>
</g>
<!-- Node1&#45;&gt;Node4 -->
<g id="edge3" class="edge"><title>Node1&#45;&gt;Node4</title>
<path fill="none" stroke="midnightblue" d="M172.335,-280.324C185.162,-271.979 204.785,-259.212 219.94,-249.352"/>
<polygon fill="midnightblue" stroke="midnightblue" points="222.224,-252.042 228.698,-243.655 218.407,-246.174 222.224,-252.042"/>
</g>
<!-- Node5 -->
<g id="node5" class="node"><title>Node5</title>
<g id="a_node5"><a xlink:href="iutils_8h.html" target="_top" xlink:title="iutils.h">
<polygon fill="white" stroke="black" points="168.5,-168.5 168.5,-187.5 213.5,-187.5 213.5,-168.5 168.5,-168.5"/>
<text text-anchor="middle" x="191" y="-175.5" font-family="Helvetica,sans-Serif" font-size="10.00">iutils.h</text>
</a>
</g>
</g>
<!-- Node1&#45;&gt;Node5 -->
<g id="edge17" class="edge"><title>Node1&#45;&gt;Node5</title>
<path fill="none" stroke="midnightblue" d="M161.511,-280.368C166.698,-262.537 178.696,-221.295 185.685,-197.272"/>
<polygon fill="midnightblue" stroke="midnightblue" points="189.068,-198.171 188.501,-187.591 182.347,-196.216 189.068,-198.171"/>
</g>
<!-- Node6 -->
<g id="node6" class="node"><title>Node6</title>
<g id="a_node6"><a xlink:href="icoordinates_8h.html" target="_top" xlink:title="icoordinates.h">
<polygon fill="white" stroke="black" points="85.5,-112.5 85.5,-131.5 162.5,-131.5 162.5,-112.5 85.5,-112.5"/>
<text text-anchor="middle" x="124" y="-119.5" font-family="Helvetica,sans-Serif" font-size="10.00">icoordinates.h</text>
</a>
</g>
</g>
<!-- Node1&#45;&gt;Node6 -->
<g id="edge18" class="edge"><title>Node1&#45;&gt;Node6</title>
<path fill="none" stroke="midnightblue" d="M157.118,-280.075C151.609,-253.945 135.43,-177.211 127.917,-141.577"/>
<polygon fill="midnightblue" stroke="midnightblue" points="131.294,-140.631 125.807,-131.568 124.445,-142.075 131.294,-140.631"/>
</g>
<!-- Node8 -->
<g id="node8" class="node"><title>Node8</title>
<g id="a_node8"><a xlink:href="iprimitives_8h.html" target="_top" xlink:title="../iprimitives.h">
<polygon fill="white" stroke="black" points="172,-0.5 172,-19.5 250,-19.5 250,-0.5 172,-0.5"/>
<text text-anchor="middle" x="211" y="-7.5" font-family="Helvetica,sans-Serif" font-size="10.00">../iprimitives.h</text>
</a>
</g>
</g>
<!-- Node1&#45;&gt;Node8 -->
<g id="edge19" class="edge"><title>Node1&#45;&gt;Node8</title>
<path fill="none" stroke="midnightblue" d="M203.15,-283.392C230.377,-277.749 264.149,-266.473 286,-244 307.164,-222.234 307,-209.359 307,-179 307,-179 307,-179 307,-121 307,-77.5434 263.943,-42.9573 235.5,-24.851"/>
<polygon fill="midnightblue" stroke="midnightblue" points="237.209,-21.7936 226.852,-19.5611 233.557,-27.765 237.209,-21.7936"/>
</g>
<!-- Node4&#45;&gt;Node5 -->
<g id="edge4" class="edge"><title>Node4&#45;&gt;Node5</title>
<path fill="none" stroke="midnightblue" d="M233.578,-224.083C226.152,-216.22 215.148,-204.569 206.188,-195.081"/>
<polygon fill="midnightblue" stroke="midnightblue" points="208.676,-192.618 199.265,-187.751 203.587,-197.424 208.676,-192.618"/>
</g>
<!-- Node4&#45;&gt;Node8 -->
<g id="edge16" class="edge"><title>Node4&#45;&gt;Node8</title>
<path fill="none" stroke="midnightblue" d="M241.801,-224.435C241.069,-198.692 237.857,-119.855 225,-56 223.203,-47.0768 220.324,-37.4108 217.643,-29.3327"/>
<polygon fill="midnightblue" stroke="midnightblue" points="220.928,-28.1217 214.34,-19.8242 214.315,-30.419 220.928,-28.1217"/>
</g>
<!-- Node5&#45;&gt;Node6 -->
<g id="edge5" class="edge"><title>Node5&#45;&gt;Node6</title>
<path fill="none" stroke="midnightblue" d="M180.235,-168.324C170.234,-160.263 155.113,-148.077 143.07,-138.369"/>
<polygon fill="midnightblue" stroke="midnightblue" points="144.943,-135.384 134.961,-131.834 140.55,-140.834 144.943,-135.384"/>
</g>
<!-- Node11 -->
<g id="node11" class="node"><title>Node11</title>
<g id="a_node11"><a xlink:href="itypes_8h.html" target="_top" xlink:title="itypes.h">
<polygon fill="white" stroke="black" points="151.5,-56.5 151.5,-75.5 202.5,-75.5 202.5,-56.5 151.5,-56.5"/>
<text text-anchor="middle" x="177" y="-63.5" font-family="Helvetica,sans-Serif" font-size="10.00">itypes.h</text>
</a>
</g>
</g>
<!-- Node5&#45;&gt;Node11 -->
<g id="edge15" class="edge"><title>Node5&#45;&gt;Node11</title>
<path fill="none" stroke="midnightblue" d="M189.901,-168.368C187.642,-150.617 182.43,-109.666 179.367,-85.5974"/>
<polygon fill="midnightblue" stroke="midnightblue" points="182.828,-85.0695 178.093,-75.5914 175.884,-85.9533 182.828,-85.0695"/>
</g>
<!-- Node7 -->
<g id="node7" class="node"><title>Node7</title>
<g id="a_node7"><a xlink:href="frontend_8h.html" target="_top" xlink:title="frontend.h">
<polygon fill="white" stroke="black" points="35,-56.5 35,-75.5 95,-75.5 95,-56.5 35,-56.5"/>
<text text-anchor="middle" x="65" y="-63.5" font-family="Helvetica,sans-Serif" font-size="10.00">frontend.h</text>
</a>
</g>
</g>
<!-- Node6&#45;&gt;Node7 -->
<g id="edge6" class="edge"><title>Node6&#45;&gt;Node7</title>
<path fill="none" stroke="midnightblue" d="M109.406,-112.324C99.1607,-104.498 85.9834,-92.7829 76.4785,-83.2238"/>
<polygon fill="midnightblue" stroke="midnightblue" points="78.9126,-80.7035 69.5031,-75.8339 73.8221,-85.5085 78.9126,-80.7035"/>
</g>
<!-- Node6&#45;&gt;Node11 -->
<g id="edge14" class="edge"><title>Node6&#45;&gt;Node11</title>
<path fill="none" stroke="midnightblue" d="M132.752,-112.083C140.47,-104.22 151.905,-92.5688 161.217,-83.0813"/>
<polygon fill="midnightblue" stroke="midnightblue" points="163.904,-85.3396 168.411,-75.7511 158.908,-80.4363 163.904,-85.3396"/>
</g>
<!-- Node7&#45;&gt;Node6 -->
<g id="edge11" class="edge"><title>Node7&#45;&gt;Node6</title>
<path fill="none" stroke="midnightblue" d="M79.6924,-75.7511C89.9024,-83.5608 102.993,-95.1997 112.463,-104.718"/>
<polygon fill="midnightblue" stroke="midnightblue" points="110.011,-107.219 119.424,-112.083 115.099,-102.411 110.011,-107.219"/>
</g>
<!-- Node7&#45;&gt;Node8 -->
<g id="edge7" class="edge"><title>Node7&#45;&gt;Node8</title>
<path fill="none" stroke="midnightblue" d="M83.0454,-56.4435C105.516,-47.3986 144.066,-33.064 173.074,-22.9158"/>
<polygon fill="midnightblue" stroke="midnightblue" points="174.589,-26.0951 182.894,-19.5164 172.299,-19.4802 174.589,-26.0951"/>
</g>
<!-- Node9 -->
<g id="node9" class="node"><title>Node9</title>
<polygon fill="white" stroke="#bfbfbf" points="2,-0.5 2,-19.5 54,-19.5 54,-0.5 2,-0.5"/>
<text text-anchor="middle" x="28" y="-7.5" font-family="Helvetica,sans-Serif" font-size="10.00">X11/X.h</text>
</g>
<!-- Node7&#45;&gt;Node9 -->
<g id="edge12" class="edge"><title>Node7&#45;&gt;Node9</title>
<path fill="none" stroke="midnightblue" d="M58.8902,-56.083C53.7178,-48.5341 46.1539,-37.4948 39.8056,-28.2298"/>
<polygon fill="midnightblue" stroke="midnightblue" points="42.5357,-26.0221 33.9961,-19.7511 36.7612,-29.9787 42.5357,-26.0221"/>
</g>
<!-- Node10 -->
<g id="node10" class="node"><title>Node10</title>
<polygon fill="white" stroke="#bfbfbf" points="72,-0.5 72,-19.5 134,-19.5 134,-0.5 72,-0.5"/>
<text text-anchor="middle" x="103" y="-7.5" font-family="Helvetica,sans-Serif" font-size="10.00">X11/Xlib.h</text>
</g>
<!-- Node7&#45;&gt;Node10 -->
<g id="edge13" class="edge"><title>Node7&#45;&gt;Node10</title>
<path fill="none" stroke="midnightblue" d="M71.2749,-56.083C76.6425,-48.4554 84.5176,-37.2645 91.0787,-27.9408"/>
<polygon fill="midnightblue" stroke="midnightblue" points="93.9492,-29.9434 96.8418,-19.7511 88.2245,-25.9149 93.9492,-29.9434"/>
</g>
<!-- Node8&#45;&gt;Node5 -->
<g id="edge9" class="edge"><title>Node8&#45;&gt;Node5</title>
<path fill="none" stroke="midnightblue" d="M211.546,-19.8581C212.195,-32.3932 212.96,-56.0091 211,-76 208.13,-105.27 200.688,-138.636 195.736,-158.742"/>
<polygon fill="midnightblue" stroke="midnightblue" points="192.343,-157.885 193.286,-168.438 199.129,-159.6 192.343,-157.885"/>
</g>
<!-- Node8&#45;&gt;Node6 -->
<g id="edge10" class="edge"><title>Node8&#45;&gt;Node6</title>
<path fill="none" stroke="midnightblue" d="M190.918,-19.5706C175.658,-27.0669 155.265,-39.3639 143,-56 133.08,-69.4554 128.318,-88.016 126.045,-101.86"/>
<polygon fill="midnightblue" stroke="midnightblue" points="122.523,-101.787 124.662,-112.164 129.461,-102.718 122.523,-101.787"/>
</g>
<!-- Node8&#45;&gt;Node7 -->
<g id="edge8" class="edge"><title>Node8&#45;&gt;Node7</title>
<path fill="none" stroke="midnightblue" d="M193.054,-19.5164C170.533,-28.5852 131.754,-43.0039 102.675,-53.172"/>
<polygon fill="midnightblue" stroke="midnightblue" points="101.528,-49.8652 93.2229,-56.4435 103.818,-56.4802 101.528,-49.8652"/>
</g>
</g>
</svg>
