<?xml version="1.0" encoding="UTF-8" standalone="no"?>
<!DOCTYPE svg PUBLIC "-//W3C//DTD SVG 1.1//EN"
 "http://www.w3.org/Graphics/SVG/1.1/DTD/svg11.dtd">
<!-- Generated by graphviz version 2.36.0 (20140111.2315)
 -->
<!-- Title: src/isimulation.h Pages: 1 -->
<svg width="185pt" height="84pt"
 viewBox="0.00 0.00 185.00 84.00" xmlns="http://www.w3.org/2000/svg" xmlns:xlink="http://www.w3.org/1999/xlink">
<g id="graph0" class="graph" transform="scale(1 1) rotate(0) translate(4 80)">
<title>src/isimulation.h</title>
<polygon fill="white" stroke="none" points="-4,4 -4,-80 181,-80 181,4 -4,4"/>
<!-- Node1 -->
<g id="node1" class="node"><title>Node1</title>
<polygon fill="#bfbfbf" stroke="black" points="40,-56.5 40,-75.5 128,-75.5 128,-56.5 40,-56.5"/>
<text text-anchor="middle" x="84" y="-63.5" font-family="Helvetica,sans-Serif" font-size="10.00">src/isimulation.h</text>
</g>
<!-- Node2 -->
<g id="node2" class="node"><title>Node2</title>
<g id="a_node2"><a xlink:href="inferno_8c.html" target="_top" xlink:title="src/inferno.c">
<polygon fill="white" stroke="black" points="-0.5,-0.5 -0.5,-19.5 70.5,-19.5 70.5,-0.5 -0.5,-0.5"/>
<text text-anchor="middle" x="35" y="-7.5" font-family="Helvetica,sans-Serif" font-size="10.00">src/inferno.c</text>
</a>
</g>
</g>
<!-- Node1&#45;&gt;Node2 -->
<g id="edge1" class="edge"><title>Node1&#45;&gt;Node2</title>
<path fill="none" stroke="midnightblue" d="M68.9655,-48.4314C60.3778,-38.9673 49.9565,-27.4827 42.9408,-19.7511"/>
<polygon fill="midnightblue" stroke="midnightblue" points="66.5967,-51.0293 75.9086,-56.083 71.7807,-46.3254 66.5967,-51.0293"/>
</g>
<!-- Node3 -->
<g id="node3" class="node"><title>Node3</title>
<g id="a_node3"><a xlink:href="isimulation_8c.html" target="_top" xlink:title="src/isimulation.c">
<polygon fill="white" stroke="black" points="89,-0.5 89,-19.5 177,-19.5 177,-0.5 89,-0.5"/>
<text text-anchor="middle" x="133" y="-7.5" font-family="Helvetica,sans-Serif" font-size="10.00">src/isimulation.c</text>
</a>
</g>
</g>
<!-- Node1&#45;&gt;Node3 -->
<g id="edge2" class="edge"><title>Node1&#45;&gt;Node3</title>
<path fill="none" stroke="midnightblue" d="M99.0345,-48.4314C107.622,-38.9673 118.043,-27.4827 125.059,-19.7511"/>
<polygon fill="midnightblue" stroke="midnightblue" points="96.2193,-46.3254 92.0914,-56.083 101.403,-51.0293 96.2193,-46.3254"/>
</g>
</g>
</svg>
