<?xml version="1.0" encoding="UTF-8" standalone="no"?>
<!DOCTYPE svg PUBLIC "-//W3C//DTD SVG 1.1//EN"
 "http://www.w3.org/Graphics/SVG/1.1/DTD/svg11.dtd">
<!-- Generated by graphviz version 2.36.0 (20140111.2315)
 -->
<!-- Title: src/isimulation.h Pages: 1 -->
<svg width="330pt" height="252pt"
 viewBox="0.00 0.00 330.00 252.00" xmlns="http://www.w3.org/2000/svg" xmlns:xlink="http://www.w3.org/1999/xlink">
<g id="graph0" class="graph" transform="scale(1 1) rotate(0) translate(4 248)">
<title>src/isimulation.h</title>
<polygon fill="white" stroke="none" points="-4,4 -4,-248 326,-248 326,4 -4,4"/>
<!-- Node1 -->
<g id="node1" class="node"><title>Node1</title>
<polygon fill="#bfbfbf" stroke="black" points="235,-224.5 235,-243.5 323,-243.5 323,-224.5 235,-224.5"/>
<text text-anchor="middle" x="279" y="-231.5" font-family="Helvetica,sans-Serif" font-size="10.00">src/isimulation.h</text>
</g>
<!-- Node2 -->
<g id="node2" class="node"><title>Node2</title>
<g id="a_node2"><a xlink:href="iutils_8h.html" target="_top" xlink:title="iutils.h">
<polygon fill="white" stroke="black" points="218.5,-168.5 218.5,-187.5 263.5,-187.5 263.5,-168.5 218.5,-168.5"/>
<text text-anchor="middle" x="241" y="-175.5" font-family="Helvetica,sans-Serif" font-size="10.00">iutils.h</text>
</a>
</g>
</g>
<!-- Node1&#45;&gt;Node2 -->
<g id="edge1" class="edge"><title>Node1&#45;&gt;Node2</title>
<path fill="none" stroke="midnightblue" d="M272.725,-224.083C267.358,-216.455 259.482,-205.264 252.921,-195.941"/>
<polygon fill="midnightblue" stroke="midnightblue" points="255.775,-193.915 247.158,-187.751 250.051,-197.943 255.775,-193.915"/>
</g>
<!-- Node5 -->
<g id="node5" class="node"><title>Node5</title>
<g id="a_node5"><a xlink:href="iprimitives_8h.html" target="_top" xlink:title="../iprimitives.h">
<polygon fill="white" stroke="black" points="150,-0.5 150,-19.5 228,-19.5 228,-0.5 150,-0.5"/>
<text text-anchor="middle" x="189" y="-7.5" font-family="Helvetica,sans-Serif" font-size="10.00">../iprimitives.h</text>
</a>
</g>
</g>
<!-- Node1&#45;&gt;Node5 -->
<g id="edge13" class="edge"><title>Node1&#45;&gt;Node5</title>
<path fill="none" stroke="midnightblue" d="M280.888,-224.412C286.363,-197.249 299.741,-111.713 265,-56 255.882,-41.3773 240.123,-30.9209 225.311,-23.7909"/>
<polygon fill="midnightblue" stroke="midnightblue" points="226.354,-20.4251 215.793,-19.5755 223.519,-26.8254 226.354,-20.4251"/>
</g>
<!-- Node3 -->
<g id="node3" class="node"><title>Node3</title>
<g id="a_node3"><a xlink:href="icoordinates_8h.html" target="_top" xlink:title="icoordinates.h">
<polygon fill="white" stroke="black" points="120.5,-112.5 120.5,-131.5 197.5,-131.5 197.5,-112.5 120.5,-112.5"/>
<text text-anchor="middle" x="159" y="-119.5" font-family="Helvetica,sans-Serif" font-size="10.00">icoordinates.h</text>
</a>
</g>
</g>
<!-- Node2&#45;&gt;Node3 -->
<g id="edge2" class="edge"><title>Node2&#45;&gt;Node3</title>
<path fill="none" stroke="midnightblue" d="M227.825,-168.324C215.153,-159.979 195.767,-147.212 180.794,-137.352"/>
<polygon fill="midnightblue" stroke="midnightblue" points="182.419,-134.231 172.142,-131.655 178.569,-140.078 182.419,-134.231"/>
</g>
<!-- Node8 -->
<g id="node8" class="node"><title>Node8</title>
<g id="a_node8"><a xlink:href="itypes_8h.html" target="_top" xlink:title="itypes.h">
<polygon fill="white" stroke="black" points="187.5,-56.5 187.5,-75.5 238.5,-75.5 238.5,-56.5 187.5,-56.5"/>
<text text-anchor="middle" x="213" y="-63.5" font-family="Helvetica,sans-Serif" font-size="10.00">itypes.h</text>
</a>
</g>
</g>
<!-- Node2&#45;&gt;Node8 -->
<g id="edge12" class="edge"><title>Node2&#45;&gt;Node8</title>
<path fill="none" stroke="midnightblue" d="M238.803,-168.368C234.284,-150.617 223.861,-109.666 217.734,-85.5974"/>
<polygon fill="midnightblue" stroke="midnightblue" points="221.046,-84.419 215.187,-75.5914 214.262,-86.1458 221.046,-84.419"/>
</g>
<!-- Node4 -->
<g id="node4" class="node"><title>Node4</title>
<g id="a_node4"><a xlink:href="frontend_8h.html" target="_top" xlink:title="frontend.h">
<polygon fill="white" stroke="black" points="71,-56.5 71,-75.5 131,-75.5 131,-56.5 71,-56.5"/>
<text text-anchor="middle" x="101" y="-63.5" font-family="Helvetica,sans-Serif" font-size="10.00">frontend.h</text>
</a>
</g>
</g>
<!-- Node3&#45;&gt;Node4 -->
<g id="edge3" class="edge"><title>Node3&#45;&gt;Node4</title>
<path fill="none" stroke="midnightblue" d="M144.566,-112.324C134.466,-104.498 121.506,-92.7829 112.178,-83.2238"/>
<polygon fill="midnightblue" stroke="midnightblue" points="114.7,-80.7963 105.34,-75.8339 109.563,-85.5507 114.7,-80.7963"/>
</g>
<!-- Node3&#45;&gt;Node8 -->
<g id="edge11" class="edge"><title>Node3&#45;&gt;Node8</title>
<path fill="none" stroke="midnightblue" d="M167.917,-112.083C175.78,-104.22 187.431,-92.5688 196.919,-83.0813"/>
<polygon fill="midnightblue" stroke="midnightblue" points="199.653,-85.2971 204.249,-75.7511 194.703,-80.3473 199.653,-85.2971"/>
</g>
<!-- Node4&#45;&gt;Node3 -->
<g id="edge8" class="edge"><title>Node4&#45;&gt;Node3</title>
<path fill="none" stroke="midnightblue" d="M115.53,-75.7511C125.596,-83.5608 138.471,-95.1997 147.765,-104.718"/>
<polygon fill="midnightblue" stroke="midnightblue" points="145.225,-107.126 154.589,-112.083 150.36,-102.369 145.225,-107.126"/>
</g>
<!-- Node4&#45;&gt;Node5 -->
<g id="edge4" class="edge"><title>Node4&#45;&gt;Node5</title>
<path fill="none" stroke="midnightblue" d="M110.024,-56.324C122.15,-47.7428 143.479,-34.486 161.025,-24.5224"/>
<polygon fill="midnightblue" stroke="midnightblue" points="162.745,-27.5708 169.786,-19.6545 159.345,-21.4518 162.745,-27.5708"/>
</g>
<!-- Node6 -->
<g id="node6" class="node"><title>Node6</title>
<polygon fill="white" stroke="#bfbfbf" points="0,-0.5 0,-19.5 52,-19.5 52,-0.5 0,-0.5"/>
<text text-anchor="middle" x="26" y="-7.5" font-family="Helvetica,sans-Serif" font-size="10.00">X11/X.h</text>
</g>
<!-- Node4&#45;&gt;Node6 -->
<g id="edge9" class="edge"><title>Node4&#45;&gt;Node6</title>
<path fill="none" stroke="midnightblue" d="M88.95,-56.324C77.5369,-48.1066 60.169,-35.6017 46.5651,-25.8069"/>
<polygon fill="midnightblue" stroke="midnightblue" points="48.4297,-22.8366 38.2693,-19.8339 44.3396,-28.5174 48.4297,-22.8366"/>
</g>
<!-- Node7 -->
<g id="node7" class="node"><title>Node7</title>
<polygon fill="white" stroke="#bfbfbf" points="70,-0.5 70,-19.5 132,-19.5 132,-0.5 70,-0.5"/>
<text text-anchor="middle" x="101" y="-7.5" font-family="Helvetica,sans-Serif" font-size="10.00">X11/Xlib.h</text>
</g>
<!-- Node4&#45;&gt;Node7 -->
<g id="edge10" class="edge"><title>Node4&#45;&gt;Node7</title>
<path fill="none" stroke="midnightblue" d="M101,-56.083C101,-49.0059 101,-38.8611 101,-29.9865"/>
<polygon fill="midnightblue" stroke="midnightblue" points="104.5,-29.751 101,-19.7511 97.5001,-29.7511 104.5,-29.751"/>
</g>
<!-- Node5&#45;&gt;Node2 -->
<g id="edge6" class="edge"><title>Node5&#45;&gt;Node2</title>
<path fill="none" stroke="midnightblue" d="M207.389,-19.5294C221.101,-27.003 238.815,-39.2896 247,-56 263.28,-89.2364 254.345,-133.949 247.167,-158.659"/>
<polygon fill="midnightblue" stroke="midnightblue" points="243.824,-157.624 244.183,-168.213 250.505,-159.711 243.824,-157.624"/>
</g>
<!-- Node5&#45;&gt;Node3 -->
<g id="edge7" class="edge"><title>Node5&#45;&gt;Node3</title>
<path fill="none" stroke="midnightblue" d="M186.657,-19.5914C181.803,-37.3881 170.557,-78.6248 163.998,-102.674"/>
<polygon fill="midnightblue" stroke="midnightblue" points="160.609,-101.8 161.354,-112.368 167.362,-103.642 160.609,-101.8"/>
</g>
<!-- Node5&#45;&gt;Node4 -->
<g id="edge5" class="edge"><title>Node5&#45;&gt;Node4</title>
<path fill="none" stroke="midnightblue" d="M179.753,-19.8339C167.699,-28.342 146.793,-41.339 129.446,-51.21"/>
<polygon fill="midnightblue" stroke="midnightblue" points="127.291,-48.4038 120.254,-56.324 130.694,-54.521 127.291,-48.4038"/>
</g>
</g>
</svg>
