<?xml version="1.0" encoding="UTF-8" standalone="no"?>
<!DOCTYPE svg PUBLIC "-//W3C//DTD SVG 1.1//EN"
 "http://www.w3.org/Graphics/SVG/1.1/DTD/svg11.dtd">
<!-- Generated by graphviz version 2.36.0 (20140111.2315)
 -->
<!-- Title: idetectcollision_object Pages: 1 -->
<svg width="296pt" height="104pt"
 viewBox="0.00 0.00 296.00 104.00" xmlns="http://www.w3.org/2000/svg" xmlns:xlink="http://www.w3.org/1999/xlink">
<g id="graph0" class="graph" transform="scale(1 1) rotate(0) translate(4 100)">
<title>idetectcollision_object</title>
<polygon fill="white" stroke="none" points="-4,4 -4,-100 292,-100 292,4 -4,4"/>
<!-- Node1 -->
<g id="node1" class="node"><title>Node1</title>
<polygon fill="#bfbfbf" stroke="black" points="0.5,-38.5 0.5,-57.5 113.5,-57.5 113.5,-38.5 0.5,-38.5"/>
<text text-anchor="middle" x="57" y="-45.5" font-family="Helvetica,sans-Serif" font-size="10.00">idetectcollision_object</text>
</g>
<!-- Node2 -->
<g id="node2" class="node"><title>Node2</title>
<g id="a_node2"><a xlink:href="isimulation_8c.html#a7d249146aa3d158dd0a7ef5889fa1f7b" target="_top" xlink:title="icomputeaabb_object">
<polygon fill="white" stroke="black" points="164.5,-76.5 164.5,-95.5 273.5,-95.5 273.5,-76.5 164.5,-76.5"/>
<text text-anchor="middle" x="219" y="-83.5" font-family="Helvetica,sans-Serif" font-size="10.00">icomputeaabb_object</text>
</a>
</g>
</g>
<!-- Node1&#45;&gt;Node2 -->
<g id="edge1" class="edge"><title>Node1&#45;&gt;Node2</title>
<path fill="none" stroke="midnightblue" d="M98.3748,-57.589C119.488,-62.6035 145.529,-68.7881 167.917,-74.1053"/>
<polygon fill="midnightblue" stroke="midnightblue" points="167.377,-77.5744 177.916,-76.4799 168.995,-70.7639 167.377,-77.5744"/>
</g>
<!-- Node3 -->
<g id="node3" class="node"><title>Node3</title>
<g id="a_node3"><a xlink:href="isimulation_8c.html#abd8ca81c6f851ca923e5aa3ed0ad2def" target="_top" xlink:title="idetectcollision_aabb">
<polygon fill="white" stroke="black" points="165.5,-38.5 165.5,-57.5 272.5,-57.5 272.5,-38.5 165.5,-38.5"/>
<text text-anchor="middle" x="219" y="-45.5" font-family="Helvetica,sans-Serif" font-size="10.00">idetectcollision_aabb</text>
</a>
</g>
</g>
<!-- Node1&#45;&gt;Node3 -->
<g id="edge2" class="edge"><title>Node1&#45;&gt;Node3</title>
<path fill="none" stroke="midnightblue" d="M113.511,-48C126.889,-48 141.278,-48 154.972,-48"/>
<polygon fill="midnightblue" stroke="midnightblue" points="155.279,-51.5001 165.279,-48 155.279,-44.5001 155.279,-51.5001"/>
</g>
<!-- Node4 -->
<g id="node4" class="node"><title>Node4</title>
<g id="a_node4"><a xlink:href="isimulation_8c.html#a9cb63af153849b8ca250a38228dadee7" target="_top" xlink:title="icomputeaabb_coloredtriplet">
<polygon fill="white" stroke="black" points="150,-0.5 150,-19.5 288,-19.5 288,-0.5 150,-0.5"/>
<text text-anchor="middle" x="219" y="-7.5" font-family="Helvetica,sans-Serif" font-size="10.00">icomputeaabb_coloredtriplet</text>
</a>
</g>
</g>
<!-- Node1&#45;&gt;Node4 -->
<g id="edge3" class="edge"><title>Node1&#45;&gt;Node4</title>
<path fill="none" stroke="midnightblue" d="M98.3748,-38.411C119.488,-33.3965 145.529,-27.2119 167.917,-21.8947"/>
<polygon fill="midnightblue" stroke="midnightblue" points="168.995,-25.2361 177.916,-19.5201 167.377,-18.4256 168.995,-25.2361"/>
</g>
</g>
</svg>
