<?xml version="1.0" encoding="UTF-8" standalone="no"?>
<!DOCTYPE svg PUBLIC "-//W3C//DTD SVG 1.1//EN"
 "http://www.w3.org/Graphics/SVG/1.1/DTD/svg11.dtd">
<!-- Generated by graphviz version 2.36.0 (20140111.2315)
 -->
<!-- Title: src/itypes.h Pages: 1 -->
<svg width="1001pt" height="388pt"
 viewBox="0.00 0.00 1000.66 388.00" xmlns="http://www.w3.org/2000/svg" xmlns:xlink="http://www.w3.org/1999/xlink">
<g id="graph0" class="graph" transform="scale(1 1) rotate(0) translate(4 384)">
<title>src/itypes.h</title>
<polygon fill="white" stroke="none" points="-4,4 -4,-384 996.66,-384 996.66,4 -4,4"/>
<!-- Node1 -->
<g id="node1" class="node"><title>Node1</title>
<polygon fill="#bfbfbf" stroke="black" points="808,-360.5 808,-379.5 876,-379.5 876,-360.5 808,-360.5"/>
<text text-anchor="middle" x="842" y="-367.5" font-family="Helvetica,sans-Serif" font-size="10.00">src/itypes.h</text>
</g>
<!-- Node2 -->
<g id="node2" class="node"><title>Node2</title>
<g id="a_node2"><a xlink:href="icoordinates_8h.html" target="_top" xlink:title="src/icoordinates.h">
<polygon fill="white" stroke="black" points="709,-304.5 709,-323.5 803,-323.5 803,-304.5 709,-304.5"/>
<text text-anchor="middle" x="756" y="-311.5" font-family="Helvetica,sans-Serif" font-size="10.00">src/icoordinates.h</text>
</a>
</g>
</g>
<!-- Node1&#45;&gt;Node2 -->
<g id="edge1" class="edge"><title>Node1&#45;&gt;Node2</title>
<path fill="none" stroke="midnightblue" d="M819.545,-354.901C803.776,-344.999 783.186,-332.071 769.783,-323.655"/>
<polygon fill="midnightblue" stroke="midnightblue" points="817.852,-357.97 828.183,-360.324 821.575,-352.042 817.852,-357.97"/>
</g>
<!-- Node3 -->
<g id="node3" class="node"><title>Node3</title>
<g id="a_node3"><a xlink:href="icoordinates_8c.html" target="_top" xlink:title="src/icoordinates.c">
<polygon fill="white" stroke="black" points="885,-74.5 885,-93.5 979,-93.5 979,-74.5 885,-74.5"/>
<text text-anchor="middle" x="932" y="-81.5" font-family="Helvetica,sans-Serif" font-size="10.00">src/icoordinates.c</text>
</a>
</g>
</g>
<!-- Node1&#45;&gt;Node3 -->
<g id="edge46" class="edge"><title>Node1&#45;&gt;Node3</title>
<path fill="none" stroke="midnightblue" d="M854.884,-352.303C880.278,-317.915 935.187,-235.713 945,-156 947.787,-133.364 940.04,-107.028 935.329,-93.6937"/>
<polygon fill="midnightblue" stroke="midnightblue" points="852.052,-350.245 848.837,-360.34 857.646,-354.454 852.052,-350.245"/>
</g>
<!-- Node4 -->
<g id="node4" class="node"><title>Node4</title>
<g id="a_node4"><a xlink:href="iutils_8h.html" target="_top" xlink:title="src/iutils.h">
<polygon fill="white" stroke="black" points="336,-248.5 336,-267.5 398,-267.5 398,-248.5 336,-248.5"/>
<text text-anchor="middle" x="367" y="-255.5" font-family="Helvetica,sans-Serif" font-size="10.00">src/iutils.h</text>
</a>
</g>
</g>
<!-- Node1&#45;&gt;Node4 -->
<g id="edge45" class="edge"><title>Node1&#45;&gt;Node4</title>
<path fill="none" stroke="midnightblue" d="M797.961,-358.801C702.822,-336.769 480.076,-285.186 398.043,-266.189"/>
<polygon fill="midnightblue" stroke="midnightblue" points="797.307,-362.243 807.839,-361.089 798.887,-355.423 797.307,-362.243"/>
</g>
<!-- Node17 -->
<g id="node17" class="node"><title>Node17</title>
<g id="a_node17"><a xlink:href="iutils_8c.html" target="_top" xlink:title="src/iutils.c">
<polygon fill="white" stroke="black" points="842,-192.5 842,-211.5 904,-211.5 904,-192.5 842,-192.5"/>
<text text-anchor="middle" x="873" y="-199.5" font-family="Helvetica,sans-Serif" font-size="10.00">src/iutils.c</text>
</a>
</g>
</g>
<!-- Node1&#45;&gt;Node17 -->
<g id="edge47" class="edge"><title>Node1&#45;&gt;Node17</title>
<path fill="none" stroke="midnightblue" d="M845.561,-349.93C852.286,-313.92 866.607,-237.231 871.4,-211.568"/>
<polygon fill="midnightblue" stroke="midnightblue" points="842.062,-349.603 843.667,-360.075 848.943,-350.888 842.062,-349.603"/>
</g>
<!-- Node2&#45;&gt;Node3 -->
<g id="edge2" class="edge"><title>Node2&#45;&gt;Node3</title>
<path fill="none" stroke="midnightblue" d="M793.328,-300.909C831.06,-286.441 887.229,-258.201 912,-212 933.516,-171.871 933.441,-115.051 932.523,-93.624"/>
<polygon fill="midnightblue" stroke="midnightblue" points="791.863,-297.719 783.69,-304.46 794.283,-304.287 791.863,-297.719"/>
</g>
<!-- Node2&#45;&gt;Node4 -->
<g id="edge3" class="edge"><title>Node2&#45;&gt;Node4</title>
<path fill="none" stroke="midnightblue" d="M698.724,-305.624C632.511,-297.007 520.281,-282.124 424,-268 415.575,-266.764 406.46,-265.357 398.043,-264.028"/>
<polygon fill="midnightblue" stroke="midnightblue" points="698.579,-309.134 708.947,-306.952 699.481,-302.192 698.579,-309.134"/>
</g>
<!-- Node5 -->
<g id="node5" class="node"><title>Node5</title>
<g id="a_node5"><a xlink:href="igraphics_8h.html" target="_top" xlink:title="src/igraphics.h">
<polygon fill="white" stroke="black" points="329,-74.5 329,-93.5 409,-93.5 409,-74.5 329,-74.5"/>
<text text-anchor="middle" x="369" y="-81.5" font-family="Helvetica,sans-Serif" font-size="10.00">src/igraphics.h</text>
</a>
</g>
</g>
<!-- Node2&#45;&gt;Node5 -->
<g id="edge36" class="edge"><title>Node2&#45;&gt;Node5</title>
<path fill="none" stroke="midnightblue" d="M708.428,-301.959C677.518,-294.093 636.673,-282.382 602,-268 554.23,-248.186 541.605,-242.718 500,-212 486.43,-201.981 404.753,-120.715 377.698,-93.6976"/>
<polygon fill="midnightblue" stroke="midnightblue" points="707.956,-305.448 718.506,-304.477 709.653,-298.657 707.956,-305.448"/>
</g>
<!-- Node7 -->
<g id="node7" class="node"><title>Node7</title>
<g id="a_node7"><a xlink:href="inferno_8c.html" target="_top" xlink:title="src/inferno.c">
<polygon fill="white" stroke="black" points="175.5,-6.5 175.5,-25.5 246.5,-25.5 246.5,-6.5 175.5,-6.5"/>
<text text-anchor="middle" x="211" y="-13.5" font-family="Helvetica,sans-Serif" font-size="10.00">src/inferno.c</text>
</a>
</g>
</g>
<!-- Node2&#45;&gt;Node7 -->
<g id="edge38" class="edge"><title>Node2&#45;&gt;Node7</title>
<path fill="none" stroke="midnightblue" d="M698.89,-310.697C522.792,-302.845 0,-273.588 0,-203 0,-203 0,-203 0,-145 0,-64.0222 115.007,-32.8456 175.207,-22.0733"/>
<polygon fill="midnightblue" stroke="midnightblue" points="698.85,-314.199 708.994,-311.141 699.158,-307.205 698.85,-314.199"/>
</g>
<!-- Node8 -->
<g id="node8" class="node"><title>Node8</title>
<g id="a_node8"><a xlink:href="iprimitives_8h.html" target="_top" xlink:title="src/iprimitives.h">
<polygon fill="white" stroke="black" points="509,-192.5 509,-211.5 595,-211.5 595,-192.5 509,-192.5"/>
<text text-anchor="middle" x="552" y="-199.5" font-family="Helvetica,sans-Serif" font-size="10.00">src/iprimitives.h</text>
</a>
</g>
</g>
<!-- Node2&#45;&gt;Node8 -->
<g id="edge37" class="edge"><title>Node2&#45;&gt;Node8</title>
<path fill="none" stroke="midnightblue" d="M715.069,-301.487C690.685,-293.767 659.603,-282.382 634,-268 604.857,-251.629 575.246,-225.212 560.895,-211.648"/>
<polygon fill="midnightblue" stroke="midnightblue" points="714.147,-304.865 724.734,-304.468 716.21,-298.176 714.147,-304.865"/>
</g>
<!-- Node10 -->
<g id="node10" class="node"><title>Node10</title>
<g id="a_node10"><a xlink:href="isimulation_8c.html" target="_top" xlink:title="src/isimulation.c">
<polygon fill="white" stroke="black" points="142,-74.5 142,-93.5 230,-93.5 230,-74.5 142,-74.5"/>
<text text-anchor="middle" x="186" y="-81.5" font-family="Helvetica,sans-Serif" font-size="10.00">src/isimulation.c</text>
</a>
</g>
</g>
<!-- Node2&#45;&gt;Node10 -->
<g id="edge40" class="edge"><title>Node2&#45;&gt;Node10</title>
<path fill="none" stroke="midnightblue" d="M698.77,-311.657C615.781,-308.665 457.664,-299.025 327,-268 215.599,-241.549 149.027,-256.95 95,-156 78.9733,-126.054 124.063,-104.637 156.363,-93.5834"/>
<polygon fill="midnightblue" stroke="midnightblue" points="698.885,-315.163 708.998,-312.006 699.123,-308.167 698.885,-315.163"/>
</g>
<!-- Node11 -->
<g id="node11" class="node"><title>Node11</title>
<g id="a_node11"><a xlink:href="inferno_8h.html" target="_top" xlink:title="src/inferno.h">
<polygon fill="white" stroke="black" points="580.5,-136.5 580.5,-155.5 651.5,-155.5 651.5,-136.5 580.5,-136.5"/>
<text text-anchor="middle" x="616" y="-143.5" font-family="Helvetica,sans-Serif" font-size="10.00">src/inferno.h</text>
</a>
</g>
</g>
<!-- Node2&#45;&gt;Node11 -->
<g id="edge39" class="edge"><title>Node2&#45;&gt;Node11</title>
<path fill="none" stroke="midnightblue" d="M741.839,-296.21C712.367,-261.264 645.338,-181.787 623.226,-155.568"/>
<polygon fill="midnightblue" stroke="midnightblue" points="739.35,-298.687 748.473,-304.075 744.701,-294.174 739.35,-298.687"/>
</g>
<!-- Node13 -->
<g id="node13" class="node"><title>Node13</title>
<g id="a_node13"><a xlink:href="frontend_8h.html" target="_top" xlink:title="src/frontends/frontend.h">
<polygon fill="white" stroke="black" points="670,-136.5 670,-155.5 790,-155.5 790,-136.5 670,-136.5"/>
<text text-anchor="middle" x="730" y="-143.5" font-family="Helvetica,sans-Serif" font-size="10.00">src/frontends/frontend.h</text>
</a>
</g>
</g>
<!-- Node2&#45;&gt;Node13 -->
<g id="edge42" class="edge"><title>Node2&#45;&gt;Node13</title>
<path fill="none" stroke="midnightblue" d="M748.634,-294.395C739.59,-258.585 727.908,-181.342 728.137,-155.568"/>
<polygon fill="midnightblue" stroke="midnightblue" points="745.276,-295.386 751.339,-304.075 752.018,-293.502 745.276,-295.386"/>
</g>
<!-- Node15 -->
<g id="node15" class="node"><title>Node15</title>
<g id="a_node15"><a xlink:href="frontend__opengl__linux_8c.html" target="_top" xlink:title="src/frontends/frontend\l_opengl_linux.c">
<polygon fill="white" stroke="black" points="782,-1 782,-31 894,-31 894,-1 782,-1"/>
<text text-anchor="start" x="790" y="-19" font-family="Helvetica,sans-Serif" font-size="10.00">src/frontends/frontend</text>
<text text-anchor="middle" x="838" y="-8" font-family="Helvetica,sans-Serif" font-size="10.00">_opengl_linux.c</text>
</a>
</g>
</g>
<!-- Node2&#45;&gt;Node15 -->
<g id="edge43" class="edge"><title>Node2&#45;&gt;Node15</title>
<path fill="none" stroke="midnightblue" d="M808.178,-301.794C832.96,-294.791 862.093,-283.989 885,-268 956.818,-217.871 967.574,-185.168 988,-100 991.317,-86.17 996.281,-79.5625 988,-68 966.779,-38.3705 927.342,-25.75 894.23,-20.4688"/>
<polygon fill="midnightblue" stroke="midnightblue" points="806.958,-298.498 798.211,-304.476 808.777,-305.257 806.958,-298.498"/>
</g>
<!-- Node16 -->
<g id="node16" class="node"><title>Node16</title>
<g id="a_node16"><a xlink:href="frontend__opengl__linux_8h.html" target="_top" xlink:title="src/frontends/frontend\l_opengl_linux.h">
<polygon fill="white" stroke="black" points="679,-69 679,-99 791,-99 791,-69 679,-69"/>
<text text-anchor="start" x="687" y="-87" font-family="Helvetica,sans-Serif" font-size="10.00">src/frontends/frontend</text>
<text text-anchor="middle" x="735" y="-76" font-family="Helvetica,sans-Serif" font-size="10.00">_opengl_linux.h</text>
</a>
</g>
</g>
<!-- Node2&#45;&gt;Node16 -->
<g id="edge44" class="edge"><title>Node2&#45;&gt;Node16</title>
<path fill="none" stroke="midnightblue" d="M767.419,-295.669C787.382,-263.021 824.127,-190.765 798,-136 790.487,-120.251 775.471,-107.793 761.983,-99.1334"/>
<polygon fill="midnightblue" stroke="midnightblue" points="764.242,-294.145 761.851,-304.467 770.156,-297.889 764.242,-294.145"/>
</g>
<!-- Node2&#45;&gt;Node17 -->
<g id="edge41" class="edge"><title>Node2&#45;&gt;Node17</title>
<path fill="none" stroke="midnightblue" d="M782.901,-299.642C797.278,-291.691 814.702,-280.688 828,-268 846.073,-250.756 861.193,-225.178 868.424,-211.831"/>
<polygon fill="midnightblue" stroke="midnightblue" points="781.14,-296.614 773.967,-304.412 784.437,-302.789 781.14,-296.614"/>
</g>
<!-- Node4&#45;&gt;Node3 -->
<g id="edge4" class="edge"><title>Node4&#45;&gt;Node3</title>
<path fill="none" stroke="midnightblue" d="M408.419,-253.137C490.259,-244.366 677.211,-218.633 821,-156 860.428,-138.825 901.809,-108.585 921.011,-93.7319"/>
<polygon fill="midnightblue" stroke="midnightblue" points="407.859,-249.676 398.276,-254.194 408.585,-256.639 407.859,-249.676"/>
</g>
<!-- Node4&#45;&gt;Node5 -->
<g id="edge5" class="edge"><title>Node4&#45;&gt;Node5</title>
<path fill="none" stroke="midnightblue" d="M351.325,-240.952C330.683,-217.775 298.798,-173.588 315,-136 323.014,-117.408 341.508,-102.439 354.614,-93.6409"/>
<polygon fill="midnightblue" stroke="midnightblue" points="348.947,-243.534 358.312,-248.489 354.08,-238.775 348.947,-243.534"/>
</g>
<!-- Node6 -->
<g id="node6" class="node"><title>Node6</title>
<g id="a_node6"><a xlink:href="igraphics_8c.html" target="_top" xlink:title="src/igraphics.c">
<polygon fill="white" stroke="black" points="363,-6.5 363,-25.5 443,-25.5 443,-6.5 363,-6.5"/>
<text text-anchor="middle" x="403" y="-13.5" font-family="Helvetica,sans-Serif" font-size="10.00">src/igraphics.c</text>
</a>
</g>
</g>
<!-- Node4&#45;&gt;Node6 -->
<g id="edge30" class="edge"><title>Node4&#45;&gt;Node6</title>
<path fill="none" stroke="midnightblue" d="M343.626,-242.488C333.166,-234.747 321.703,-224.28 315,-212 298.727,-182.188 303.797,-169.813 307,-136 309.902,-105.368 302.516,-93.3193 320,-68 334.223,-47.4031 359.742,-33.5757 378.742,-25.5746"/>
<polygon fill="midnightblue" stroke="midnightblue" points="341.838,-245.507 352.05,-248.329 345.827,-239.754 341.838,-245.507"/>
</g>
<!-- Node4&#45;&gt;Node7 -->
<g id="edge31" class="edge"><title>Node4&#45;&gt;Node7</title>
<path fill="none" stroke="midnightblue" d="M325.689,-256.95C261.063,-254.27 138.905,-238.037 95,-156 79.5336,-127.101 111.112,-83.6597 125,-68 142.507,-48.2598 169.543,-33.9816 188.62,-25.6384"/>
<polygon fill="midnightblue" stroke="midnightblue" points="325.816,-260.456 335.924,-257.281 326.042,-253.46 325.816,-260.456"/>
</g>
<!-- Node4&#45;&gt;Node8 -->
<g id="edge8" class="edge"><title>Node4&#45;&gt;Node8</title>
<path fill="none" stroke="midnightblue" d="M406.166,-245.568C441.065,-235.381 491.349,-220.703 522.823,-211.516"/>
<polygon fill="midnightblue" stroke="midnightblue" points="404.933,-242.282 396.314,-248.444 406.894,-249.001 404.933,-242.282"/>
</g>
<!-- Node9 -->
<g id="node9" class="node"><title>Node9</title>
<g id="a_node9"><a xlink:href="isimulation_8h.html" target="_top" xlink:title="src/isimulation.h">
<polygon fill="white" stroke="black" points="104,-136.5 104,-155.5 192,-155.5 192,-136.5 104,-136.5"/>
<text text-anchor="middle" x="148" y="-143.5" font-family="Helvetica,sans-Serif" font-size="10.00">src/isimulation.h</text>
</a>
</g>
</g>
<!-- Node4&#45;&gt;Node9 -->
<g id="edge32" class="edge"><title>Node4&#45;&gt;Node9</title>
<path fill="none" stroke="midnightblue" d="M325.731,-252.036C291.564,-246.448 242.829,-234.957 206,-212 182.127,-197.119 162.327,-169.549 153.283,-155.584"/>
<polygon fill="midnightblue" stroke="midnightblue" points="325.422,-255.529 335.837,-253.587 326.484,-248.61 325.422,-255.529"/>
</g>
<!-- Node4&#45;&gt;Node10 -->
<g id="edge34" class="edge"><title>Node4&#45;&gt;Node10</title>
<path fill="none" stroke="midnightblue" d="M325.938,-250.385C299.756,-244.307 266.618,-232.926 244,-212 225.229,-194.633 197.999,-119.619 189.006,-93.7831"/>
<polygon fill="midnightblue" stroke="midnightblue" points="325.445,-253.858 335.957,-252.535 326.914,-247.014 325.445,-253.858"/>
</g>
<!-- Node12 -->
<g id="node12" class="node"><title>Node12</title>
<g id="a_node12"><a xlink:href="iprimitives_8c.html" target="_top" xlink:title="src/iprimitives.c">
<polygon fill="white" stroke="black" points="324,-136.5 324,-155.5 410,-155.5 410,-136.5 324,-136.5"/>
<text text-anchor="middle" x="367" y="-143.5" font-family="Helvetica,sans-Serif" font-size="10.00">src/iprimitives.c</text>
</a>
</g>
</g>
<!-- Node4&#45;&gt;Node12 -->
<g id="edge33" class="edge"><title>Node4&#45;&gt;Node12</title>
<path fill="none" stroke="midnightblue" d="M367,-238.348C367,-214.254 367,-173.308 367,-155.591"/>
<polygon fill="midnightblue" stroke="midnightblue" points="363.5,-238.368 367,-248.368 370.5,-238.369 363.5,-238.368"/>
</g>
<!-- Node4&#45;&gt;Node17 -->
<g id="edge35" class="edge"><title>Node4&#45;&gt;Node17</title>
<path fill="none" stroke="midnightblue" d="M408.46,-252.575C507.227,-242.035 754.67,-215.628 841.938,-206.315"/>
<polygon fill="midnightblue" stroke="midnightblue" points="407.843,-249.121 398.271,-253.663 408.586,-256.082 407.843,-249.121"/>
</g>
<!-- Node5&#45;&gt;Node6 -->
<g id="edge6" class="edge"><title>Node5&#45;&gt;Node6</title>
<path fill="none" stroke="midnightblue" d="M378.177,-65.1859C384.737,-52.4523 393.284,-35.8607 398.445,-25.8411"/>
<polygon fill="midnightblue" stroke="midnightblue" points="374.913,-63.879 373.445,-74.3717 381.136,-67.0848 374.913,-63.879"/>
</g>
<!-- Node5&#45;&gt;Node7 -->
<g id="edge7" class="edge"><title>Node5&#45;&gt;Node7</title>
<path fill="none" stroke="midnightblue" d="M338.782,-70.3772C307.349,-57.2472 258.987,-37.0452 231.661,-25.6305"/>
<polygon fill="midnightblue" stroke="midnightblue" points="337.768,-73.7467 348.344,-74.3717 340.466,-67.2876 337.768,-73.7467"/>
</g>
<!-- Node8&#45;&gt;Node5 -->
<g id="edge9" class="edge"><title>Node8&#45;&gt;Node5</title>
<path fill="none" stroke="midnightblue" d="M539.362,-184.305C527.8,-169.953 509.559,-149.495 490,-136 461.291,-116.192 423.678,-101.844 398.059,-93.5048"/>
<polygon fill="midnightblue" stroke="midnightblue" points="536.729,-186.619 545.651,-192.334 542.241,-182.303 536.729,-186.619"/>
</g>
<!-- Node8&#45;&gt;Node6 -->
<g id="edge10" class="edge"><title>Node8&#45;&gt;Node6</title>
<path fill="none" stroke="midnightblue" d="M543.586,-183.006C536.923,-169.528 526.941,-150.922 516,-136 498.564,-112.22 435.443,-49.0916 411.919,-25.7966"/>
<polygon fill="midnightblue" stroke="midnightblue" points="540.505,-184.674 547.996,-192.166 546.812,-181.638 540.505,-184.674"/>
</g>
<!-- Node8&#45;&gt;Node9 -->
<g id="edge11" class="edge"><title>Node8&#45;&gt;Node9</title>
<path fill="none" stroke="midnightblue" d="M498.835,-193.894C418.325,-183.133 266.956,-162.9 192.149,-152.901"/>
<polygon fill="midnightblue" stroke="midnightblue" points="498.389,-197.365 508.765,-195.221 499.317,-190.427 498.389,-197.365"/>
</g>
<!-- Node8&#45;&gt;Node10 -->
<g id="edge16" class="edge"><title>Node8&#45;&gt;Node10</title>
<path fill="none" stroke="midnightblue" d="M528.601,-187.423C502.598,-172.85 458.991,-149.923 419,-136 355.061,-113.739 277.753,-99.1098 230.233,-91.4445"/>
<polygon fill="midnightblue" stroke="midnightblue" points="526.92,-190.493 537.345,-192.381 530.373,-184.404 526.92,-190.493"/>
</g>
<!-- Node8&#45;&gt;Node11 -->
<g id="edge14" class="edge"><title>Node8&#45;&gt;Node11</title>
<path fill="none" stroke="midnightblue" d="M569.991,-185.82C581.458,-176.145 595.913,-163.948 605.53,-155.834"/>
<polygon fill="midnightblue" stroke="midnightblue" points="567.669,-183.2 562.283,-192.324 572.183,-188.55 567.669,-183.2"/>
</g>
<!-- Node8&#45;&gt;Node12 -->
<g id="edge15" class="edge"><title>Node8&#45;&gt;Node12</title>
<path fill="none" stroke="midnightblue" d="M512.834,-189.568C477.935,-179.381 427.651,-164.703 396.177,-155.516"/>
<polygon fill="midnightblue" stroke="midnightblue" points="512.106,-193.001 522.686,-192.444 514.067,-186.282 512.106,-193.001"/>
</g>
<!-- Node8&#45;&gt;Node13 -->
<g id="edge17" class="edge"><title>Node8&#45;&gt;Node13</title>
<path fill="none" stroke="midnightblue" d="M584.877,-189.304C616.807,-179.129 664.818,-164.625 696.847,-155.516"/>
<polygon fill="midnightblue" stroke="midnightblue" points="583.564,-186.05 575.116,-192.444 585.707,-192.714 583.564,-186.05"/>
</g>
<!-- Node8&#45;&gt;Node15 -->
<g id="edge29" class="edge"><title>Node8&#45;&gt;Node15</title>
<path fill="none" stroke="midnightblue" d="M605.4,-196.947C668.488,-191.195 768.603,-178.746 798,-156 836.926,-125.881 839.694,-60.4024 838.853,-31.3639"/>
<polygon fill="midnightblue" stroke="midnightblue" points="604.879,-193.479 595.226,-197.845 605.495,-200.452 604.879,-193.479"/>
</g>
<!-- Node9&#45;&gt;Node7 -->
<g id="edge12" class="edge"><title>Node9&#45;&gt;Node7</title>
<path fill="none" stroke="midnightblue" d="M138.248,-127.388C130.642,-111.094 122.912,-86.6498 133,-68 144.239,-47.2231 168.029,-33.5568 186.398,-25.6484"/>
<polygon fill="midnightblue" stroke="midnightblue" points="135.156,-129.028 142.809,-136.355 141.395,-125.854 135.156,-129.028"/>
</g>
<!-- Node9&#45;&gt;Node10 -->
<g id="edge13" class="edge"><title>Node9&#45;&gt;Node10</title>
<path fill="none" stroke="midnightblue" d="M158.854,-127.862C165.954,-116.652 174.926,-102.485 180.566,-93.5806"/>
<polygon fill="midnightblue" stroke="midnightblue" points="155.838,-126.083 153.444,-136.403 161.752,-129.828 155.838,-126.083"/>
</g>
<!-- Node13&#45;&gt;Node2 -->
<g id="edge19" class="edge"><title>Node13&#45;&gt;Node2</title>
<path fill="none" stroke="midnightblue" d="M737.359,-165.577C746.362,-201.211 757.985,-277.945 757.865,-304.075"/>
<polygon fill="midnightblue" stroke="midnightblue" points="740.622,-164.248 734.547,-155.568 733.883,-166.142 740.622,-164.248"/>
</g>
<!-- Node13&#45;&gt;Node3 -->
<g id="edge18" class="edge"><title>Node13&#45;&gt;Node3</title>
<path fill="none" stroke="midnightblue" d="M768.695,-133.507C807.95,-121.847 867.812,-104.066 903.112,-93.5806"/>
<polygon fill="midnightblue" stroke="midnightblue" points="767.531,-130.201 758.942,-136.403 769.524,-136.911 767.531,-130.201"/>
</g>
<!-- Node13&#45;&gt;Node5 -->
<g id="edge20" class="edge"><title>Node13&#45;&gt;Node5</title>
<path fill="none" stroke="midnightblue" d="M668.533,-134.784C594.4,-122.463 471.93,-102.108 409.023,-91.652"/>
<polygon fill="midnightblue" stroke="midnightblue" points="668.222,-138.28 678.661,-136.467 669.37,-131.375 668.222,-138.28"/>
</g>
<!-- Node13&#45;&gt;Node6 -->
<g id="edge22" class="edge"><title>Node13&#45;&gt;Node6</title>
<path fill="none" stroke="midnightblue" d="M671.944,-134.565C622.805,-125.23 556.563,-111.313 532,-100 510.362,-90.034 508.828,-81.2048 489,-68 465.017,-52.0278 435.976,-35.3255 418.521,-25.5558"/>
<polygon fill="midnightblue" stroke="midnightblue" points="671.362,-138.017 681.837,-136.427 672.657,-131.138 671.362,-138.017"/>
</g>
<!-- Node13&#45;&gt;Node7 -->
<g id="edge23" class="edge"><title>Node13&#45;&gt;Node7</title>
<path fill="none" stroke="midnightblue" d="M666.113,-134.842C606.234,-125 521.248,-110.118 489,-100 455.975,-89.6385 450.717,-79.2978 418,-68 359.225,-47.7037 288.445,-32.0824 246.728,-23.7411"/>
<polygon fill="midnightblue" stroke="midnightblue" points="665.805,-138.338 676.239,-136.498 666.935,-131.43 665.805,-138.338"/>
</g>
<!-- Node13&#45;&gt;Node8 -->
<g id="edge21" class="edge"><title>Node13&#45;&gt;Node8</title>
<path fill="none" stroke="midnightblue" d="M697.263,-158.651C665.38,-168.813 617.37,-183.32 585.293,-192.444"/>
<polygon fill="midnightblue" stroke="midnightblue" points="698.559,-161.911 707.007,-155.516 696.416,-155.247 698.559,-161.911"/>
</g>
<!-- Node14 -->
<g id="node14" class="node"><title>Node14</title>
<g id="a_node14"><a xlink:href="frontend_8c.html" target="_top" xlink:title="src/frontends/frontend.c">
<polygon fill="white" stroke="black" points="541,-74.5 541,-93.5 661,-93.5 661,-74.5 541,-74.5"/>
<text text-anchor="middle" x="601" y="-81.5" font-family="Helvetica,sans-Serif" font-size="10.00">src/frontends/frontend.c</text>
</a>
</g>
</g>
<!-- Node13&#45;&gt;Node14 -->
<g id="edge24" class="edge"><title>Node13&#45;&gt;Node14</title>
<path fill="none" stroke="midnightblue" d="M702.193,-132.066C677.161,-120.424 641.082,-103.643 619.448,-93.5806"/>
<polygon fill="midnightblue" stroke="midnightblue" points="700.974,-135.36 711.517,-136.403 703.926,-129.013 700.974,-135.36"/>
</g>
<!-- Node13&#45;&gt;Node15 -->
<g id="edge25" class="edge"><title>Node13&#45;&gt;Node15</title>
<path fill="none" stroke="midnightblue" d="M757.829,-131.559C771.588,-123.833 787.635,-113.061 799,-100 816.976,-79.3416 828.402,-48.9754 833.965,-31.2718"/>
<polygon fill="midnightblue" stroke="midnightblue" points="755.922,-128.61 748.755,-136.412 759.224,-134.782 755.922,-128.61"/>
</g>
<!-- Node13&#45;&gt;Node16 -->
<g id="edge26" class="edge"><title>Node13&#45;&gt;Node16</title>
<path fill="none" stroke="midnightblue" d="M731.552,-126.371C732.285,-117.585 733.144,-107.272 733.822,-99.1408"/>
<polygon fill="midnightblue" stroke="midnightblue" points="728.059,-126.147 730.716,-136.403 735.035,-126.729 728.059,-126.147"/>
</g>
<!-- Node16&#45;&gt;Node7 -->
<g id="edge27" class="edge"><title>Node16&#45;&gt;Node7</title>
<path fill="none" stroke="midnightblue" d="M669.304,-68.0515C669.203,-68.0343 669.101,-68.0171 669,-68 627.681,-61.027 347.262,-31.3115 246.754,-20.7465"/>
<polygon fill="midnightblue" stroke="midnightblue" points="668.451,-71.4535 678.916,-69.802 669.705,-64.5668 668.451,-71.4535"/>
</g>
<!-- Node16&#45;&gt;Node15 -->
<g id="edge28" class="edge"><title>Node16&#45;&gt;Node15</title>
<path fill="none" stroke="midnightblue" d="M765.683,-63.339C781.841,-52.9856 801.285,-40.526 815.94,-31.1352"/>
<polygon fill="midnightblue" stroke="midnightblue" points="763.628,-60.4992 757.096,-68.8413 767.404,-66.393 763.628,-60.4992"/>
</g>
</g>
</svg>
