<?xml version="1.0" encoding="UTF-8" standalone="no"?>
<!DOCTYPE svg PUBLIC "-//W3C//DTD SVG 1.1//EN"
 "http://www.w3.org/Graphics/SVG/1.1/DTD/svg11.dtd">
<!-- Generated by graphviz version 2.36.0 (20140111.2315)
 -->
<!-- Title: ifast_sqrt Pages: 1 -->
<svg width="408pt" height="66pt"
 viewBox="0.00 0.00 408.00 66.00" xmlns="http://www.w3.org/2000/svg" xmlns:xlink="http://www.w3.org/1999/xlink">
<g id="graph0" class="graph" transform="scale(1 1) rotate(0) translate(4 62)">
<title>ifast_sqrt</title>
<polygon fill="white" stroke="none" points="-4,4 -4,-62 404,-62 404,4 -4,4"/>
<!-- Node1 -->
<g id="node1" class="node"><title>Node1</title>
<polygon fill="#bfbfbf" stroke="black" points="0.5,-19.5 0.5,-38.5 57.5,-38.5 57.5,-19.5 0.5,-19.5"/>
<text text-anchor="middle" x="29" y="-26.5" font-family="Helvetica,sans-Serif" font-size="10.00">ifast_sqrt</text>
</g>
<!-- Node2 -->
<g id="node2" class="node"><title>Node2</title>
<g id="a_node2"><a xlink:href="iutils_8h.html#a0d4e05ec2704d32a31038d072268bbbe" target="_top" xlink:title="iget_distance">
<polygon fill="white" stroke="black" points="94,-19.5 94,-38.5 168,-38.5 168,-19.5 94,-19.5"/>
<text text-anchor="middle" x="131" y="-26.5" font-family="Helvetica,sans-Serif" font-size="10.00">iget_distance</text>
</a>
</g>
</g>
<!-- Node1&#45;&gt;Node2 -->
<g id="edge1" class="edge"><title>Node1&#45;&gt;Node2</title>
<path fill="none" stroke="midnightblue" d="M67.7179,-29C76.2898,-29 85.3752,-29 93.8789,-29"/>
<polygon fill="midnightblue" stroke="midnightblue" points="67.5902,-25.5001 57.5902,-29 67.5901,-32.5001 67.5902,-25.5001"/>
</g>
<!-- Node3 -->
<g id="node3" class="node"><title>Node3</title>
<g id="a_node3"><a xlink:href="iprimitives_8h.html#a32c313b4080f6b2ce22b65bbd1ad9236" target="_top" xlink:title="iobject_add_triplet">
<polygon fill="white" stroke="black" points="217.5,-38.5 217.5,-57.5 312.5,-57.5 312.5,-38.5 217.5,-38.5"/>
<text text-anchor="middle" x="265" y="-45.5" font-family="Helvetica,sans-Serif" font-size="10.00">iobject_add_triplet</text>
</a>
</g>
</g>
<!-- Node2&#45;&gt;Node3 -->
<g id="edge2" class="edge"><title>Node2&#45;&gt;Node3</title>
<path fill="none" stroke="midnightblue" d="M178.324,-35.6679C190.879,-37.475 204.479,-39.4326 217.067,-41.2445"/>
<polygon fill="midnightblue" stroke="midnightblue" points="178.466,-32.1523 168.07,-34.1918 177.469,-39.0809 178.466,-32.1523"/>
</g>
<!-- Node5 -->
<g id="node5" class="node"><title>Node5</title>
<g id="a_node5"><a xlink:href="iutils_8h.html#af19f54fefe2f16b8a7fba23fc7f67de5" target="_top" xlink:title="igetclosest_point_linked">
<polygon fill="white" stroke="black" points="204.5,-0.5 204.5,-19.5 325.5,-19.5 325.5,-0.5 204.5,-0.5"/>
<text text-anchor="middle" x="265" y="-7.5" font-family="Helvetica,sans-Serif" font-size="10.00">igetclosest_point_linked</text>
</a>
</g>
</g>
<!-- Node2&#45;&gt;Node5 -->
<g id="edge4" class="edge"><title>Node2&#45;&gt;Node5</title>
<path fill="none" stroke="midnightblue" d="M178.125,-22.3608C186.599,-21.141 195.556,-19.8518 204.36,-18.5845"/>
<polygon fill="midnightblue" stroke="midnightblue" points="177.469,-18.9191 168.07,-23.8082 178.466,-25.8477 177.469,-18.9191"/>
</g>
<!-- Node4 -->
<g id="node4" class="node"><title>Node4</title>
<g id="a_node4"><a xlink:href="inferno_8c.html#a0ddf1224851353fc92bfbff6f499fa97" target="_top" xlink:title="main">
<polygon fill="white" stroke="black" points="362,-38.5 362,-57.5 400,-57.5 400,-38.5 362,-38.5"/>
<text text-anchor="middle" x="381" y="-45.5" font-family="Helvetica,sans-Serif" font-size="10.00">main</text>
</a>
</g>
</g>
<!-- Node3&#45;&gt;Node4 -->
<g id="edge3" class="edge"><title>Node3&#45;&gt;Node4</title>
<path fill="none" stroke="midnightblue" d="M322.958,-48C337.119,-48 351.283,-48 361.955,-48"/>
<polygon fill="midnightblue" stroke="midnightblue" points="322.697,-44.5001 312.697,-48 322.697,-51.5001 322.697,-44.5001"/>
</g>
</g>
</svg>
