<?xml version="1.0" encoding="UTF-8" standalone="no"?>
<!DOCTYPE svg PUBLIC "-//W3C//DTD SVG 1.1//EN"
 "http://www.w3.org/Graphics/SVG/1.1/DTD/svg11.dtd">
<!-- Generated by graphviz version 2.36.0 (20140111.2315)
 -->
<!-- Title: inew_linked Pages: 1 -->
<svg width="246pt" height="46pt"
 viewBox="0.00 0.00 246.00 46.00" xmlns="http://www.w3.org/2000/svg" xmlns:xlink="http://www.w3.org/1999/xlink">
<g id="graph0" class="graph" transform="scale(1 1) rotate(0) translate(4 42)">
<title>inew_linked</title>
<polygon fill="white" stroke="none" points="-4,4 -4,-42 242,-42 242,4 -4,4"/>
<!-- Node1 -->
<g id="node1" class="node"><title>Node1</title>
<polygon fill="#bfbfbf" stroke="black" points="0,-0.5 0,-19.5 68,-19.5 68,-0.5 0,-0.5"/>
<text text-anchor="middle" x="34" y="-7.5" font-family="Helvetica,sans-Serif" font-size="10.00">inew_linked</text>
</g>
<!-- Node2 -->
<g id="node2" class="node"><title>Node2</title>
<g id="a_node2"><a xlink:href="error_8c.html#ab10bea042bb9daa7a0e027197b8080e5" target="_top" xlink:title="ierror">
<polygon fill="white" stroke="black" points="104,-0.5 104,-19.5 142,-19.5 142,-0.5 104,-0.5"/>
<text text-anchor="middle" x="123" y="-7.5" font-family="Helvetica,sans-Serif" font-size="10.00">ierror</text>
</a>
</g>
</g>
<!-- Node1&#45;&gt;Node2 -->
<g id="edge1" class="edge"><title>Node1&#45;&gt;Node2</title>
<path fill="none" stroke="midnightblue" d="M68.3877,-10C76.7839,-10 85.7123,-10 93.8253,-10"/>
<polygon fill="midnightblue" stroke="midnightblue" points="93.9075,-13.5001 103.908,-10 93.9075,-6.5001 93.9075,-13.5001"/>
</g>
<!-- Node2&#45;&gt;Node2 -->
<g id="edge3" class="edge"><title>Node2&#45;&gt;Node2</title>
<path fill="none" stroke="midnightblue" d="M110.053,-19.7571C103.755,-28.5653 108.07,-38 123,-38 132.098,-38 137.254,-34.4965 138.469,-29.7663"/>
<polygon fill="midnightblue" stroke="midnightblue" points="141.784,-28.5986 135.947,-19.7571 134.997,-30.3092 141.784,-28.5986"/>
</g>
<!-- Node3 -->
<g id="node3" class="node"><title>Node3</title>
<g id="a_node3"><a xlink:href="error_8c.html#ac1727d6e8e99b92957a0a7099d19d6f4" target="_top" xlink:title="print_error">
<polygon fill="white" stroke="black" points="178,-0.5 178,-19.5 238,-19.5 238,-0.5 178,-0.5"/>
<text text-anchor="middle" x="208" y="-7.5" font-family="Helvetica,sans-Serif" font-size="10.00">print_error</text>
</a>
</g>
</g>
<!-- Node2&#45;&gt;Node3 -->
<g id="edge2" class="edge"><title>Node2&#45;&gt;Node3</title>
<path fill="none" stroke="midnightblue" d="M142.01,-10C149.631,-10 158.828,-10 167.874,-10"/>
<polygon fill="midnightblue" stroke="midnightblue" points="167.931,-13.5001 177.931,-10 167.931,-6.5001 167.931,-13.5001"/>
</g>
</g>
</svg>
