<?xml version="1.0" encoding="UTF-8" standalone="no"?>
<!DOCTYPE svg PUBLIC "-//W3C//DTD SVG 1.1//EN"
 "http://www.w3.org/Graphics/SVG/1.1/DTD/svg11.dtd">
<!-- Generated by graphviz version 2.36.0 (20140111.2315)
 -->
<!-- Title: src/iutils.h Pages: 1 -->
<svg width="976pt" height="332pt"
 viewBox="0.00 0.00 976.00 332.00" xmlns="http://www.w3.org/2000/svg" xmlns:xlink="http://www.w3.org/1999/xlink">
<g id="graph0" class="graph" transform="scale(1 1) rotate(0) translate(4 328)">
<title>src/iutils.h</title>
<polygon fill="white" stroke="none" points="-4,4 -4,-328 972,-328 972,4 -4,4"/>
<!-- Node1 -->
<g id="node1" class="node"><title>Node1</title>
<polygon fill="#bfbfbf" stroke="black" points="721,-304.5 721,-323.5 783,-323.5 783,-304.5 721,-304.5"/>
<text text-anchor="middle" x="752" y="-311.5" font-family="Helvetica,sans-Serif" font-size="10.00">src/iutils.h</text>
</g>
<!-- Node2 -->
<g id="node2" class="node"><title>Node2</title>
<g id="a_node2"><a xlink:href="icoordinates_8c.html" target="_top" xlink:title="src/icoordinates.c">
<polygon fill="white" stroke="black" points="240,-74.5 240,-93.5 334,-93.5 334,-74.5 240,-74.5"/>
<text text-anchor="middle" x="287" y="-81.5" font-family="Helvetica,sans-Serif" font-size="10.00">src/icoordinates.c</text>
</a>
</g>
</g>
<!-- Node1&#45;&gt;Node2 -->
<g id="edge1" class="edge"><title>Node1&#45;&gt;Node2</title>
<path fill="none" stroke="midnightblue" d="M710.814,-310.638C655.301,-306.505 553.976,-295.59 472,-268 421.874,-251.129 409.902,-242.93 367,-212 337.673,-190.857 326.882,-186.831 308,-156 295.647,-135.83 290.203,-107.976 288.118,-93.9032"/>
<polygon fill="midnightblue" stroke="midnightblue" points="710.737,-314.141 720.959,-311.355 711.231,-307.159 710.737,-314.141"/>
</g>
<!-- Node3 -->
<g id="node3" class="node"><title>Node3</title>
<g id="a_node3"><a xlink:href="igraphics_8h.html" target="_top" xlink:title="src/igraphics.h">
<polygon fill="white" stroke="black" points="142,-74.5 142,-93.5 222,-93.5 222,-74.5 142,-74.5"/>
<text text-anchor="middle" x="182" y="-81.5" font-family="Helvetica,sans-Serif" font-size="10.00">src/igraphics.h</text>
</a>
</g>
</g>
<!-- Node1&#45;&gt;Node3 -->
<g id="edge2" class="edge"><title>Node1&#45;&gt;Node3</title>
<path fill="none" stroke="midnightblue" d="M710.559,-312.834C646.281,-311.386 519.486,-303.746 419,-268 329.158,-236.041 306.746,-219.937 236,-156 214.63,-136.686 195.807,-107.957 187.111,-93.6903"/>
<polygon fill="midnightblue" stroke="midnightblue" points="710.635,-316.335 720.698,-313.022 710.764,-309.337 710.635,-316.335"/>
</g>
<!-- Node4 -->
<g id="node4" class="node"><title>Node4</title>
<g id="a_node4"><a xlink:href="igraphics_8c.html" target="_top" xlink:title="src/igraphics.c">
<polygon fill="white" stroke="black" points="17,-6.5 17,-25.5 97,-25.5 97,-6.5 17,-6.5"/>
<text text-anchor="middle" x="57" y="-13.5" font-family="Helvetica,sans-Serif" font-size="10.00">src/igraphics.c</text>
</a>
</g>
</g>
<!-- Node1&#45;&gt;Node4 -->
<g id="edge38" class="edge"><title>Node1&#45;&gt;Node4</title>
<path fill="none" stroke="midnightblue" d="M710.406,-311.341C552.636,-304.504 0,-275.391 0,-203 0,-203 0,-203 0,-145 0,-96.348 34.79,-45.5897 50.0107,-25.7111"/>
<polygon fill="midnightblue" stroke="midnightblue" points="710.505,-314.848 720.645,-311.777 710.803,-307.855 710.505,-314.848"/>
</g>
<!-- Node5 -->
<g id="node5" class="node"><title>Node5</title>
<g id="a_node5"><a xlink:href="inferno_8c.html" target="_top" xlink:title="src/inferno.c">
<polygon fill="white" stroke="black" points="651.5,-6.5 651.5,-25.5 722.5,-25.5 722.5,-6.5 651.5,-6.5"/>
<text text-anchor="middle" x="687" y="-13.5" font-family="Helvetica,sans-Serif" font-size="10.00">src/inferno.c</text>
</a>
</g>
</g>
<!-- Node1&#45;&gt;Node5 -->
<g id="edge39" class="edge"><title>Node1&#45;&gt;Node5</title>
<path fill="none" stroke="midnightblue" d="M793.398,-310.193C856.119,-303.442 968,-280.535 968,-203 968,-203 968,-203 968,-145 968,-106.229 957.972,-91.3231 927,-68 895.099,-43.977 781.182,-27.7854 722.503,-20.8404"/>
<polygon fill="midnightblue" stroke="midnightblue" points="793.017,-306.713 783.408,-311.177 793.703,-313.68 793.017,-306.713"/>
</g>
<!-- Node6 -->
<g id="node6" class="node"><title>Node6</title>
<g id="a_node6"><a xlink:href="iprimitives_8h.html" target="_top" xlink:title="src/iprimitives.h">
<polygon fill="white" stroke="black" points="481,-248.5 481,-267.5 567,-267.5 567,-248.5 481,-248.5"/>
<text text-anchor="middle" x="524" y="-255.5" font-family="Helvetica,sans-Serif" font-size="10.00">src/iprimitives.h</text>
</a>
</g>
</g>
<!-- Node1&#45;&gt;Node6 -->
<g id="edge5" class="edge"><title>Node1&#45;&gt;Node6</title>
<path fill="none" stroke="midnightblue" d="M710.924,-303.271C667.943,-293.092 601.127,-277.267 560.104,-267.551"/>
<polygon fill="midnightblue" stroke="midnightblue" points="710.238,-306.706 720.776,-305.605 711.851,-299.894 710.238,-306.706"/>
</g>
<!-- Node7 -->
<g id="node7" class="node"><title>Node7</title>
<g id="a_node7"><a xlink:href="isimulation_8h.html" target="_top" xlink:title="src/isimulation.h">
<polygon fill="white" stroke="black" points="812,-136.5 812,-155.5 900,-155.5 900,-136.5 812,-136.5"/>
<text text-anchor="middle" x="856" y="-143.5" font-family="Helvetica,sans-Serif" font-size="10.00">src/isimulation.h</text>
</a>
</g>
</g>
<!-- Node1&#45;&gt;Node7 -->
<g id="edge40" class="edge"><title>Node1&#45;&gt;Node7</title>
<path fill="none" stroke="midnightblue" d="M788.581,-300.454C804.226,-293.294 821.314,-282.746 832,-268 857.637,-232.624 857.655,-176.792 856.605,-155.57"/>
<polygon fill="midnightblue" stroke="midnightblue" points="786.934,-297.351 779.097,-304.481 789.67,-303.794 786.934,-297.351"/>
</g>
<!-- Node8 -->
<g id="node8" class="node"><title>Node8</title>
<g id="a_node8"><a xlink:href="isimulation_8c.html" target="_top" xlink:title="src/isimulation.c">
<polygon fill="white" stroke="black" points="734,-74.5 734,-93.5 822,-93.5 822,-74.5 734,-74.5"/>
<text text-anchor="middle" x="778" y="-81.5" font-family="Helvetica,sans-Serif" font-size="10.00">src/isimulation.c</text>
</a>
</g>
</g>
<!-- Node1&#45;&gt;Node8 -->
<g id="edge42" class="edge"><title>Node1&#45;&gt;Node8</title>
<path fill="none" stroke="midnightblue" d="M767.714,-296.883C774.427,-288.883 781.51,-278.66 785,-268 805.971,-203.942 787.408,-120.48 780.408,-93.6827"/>
<polygon fill="midnightblue" stroke="midnightblue" points="765.096,-294.561 761.02,-304.34 770.305,-299.237 765.096,-294.561"/>
</g>
<!-- Node10 -->
<g id="node10" class="node"><title>Node10</title>
<g id="a_node10"><a xlink:href="iprimitives_8c.html" target="_top" xlink:title="src/iprimitives.c">
<polygon fill="white" stroke="black" points="666,-192.5 666,-211.5 752,-211.5 752,-192.5 666,-192.5"/>
<text text-anchor="middle" x="709" y="-199.5" font-family="Helvetica,sans-Serif" font-size="10.00">src/iprimitives.c</text>
</a>
</g>
</g>
<!-- Node1&#45;&gt;Node10 -->
<g id="edge41" class="edge"><title>Node1&#45;&gt;Node10</title>
<path fill="none" stroke="midnightblue" d="M744.963,-294.998C735.581,-270.997 719.347,-229.468 712.358,-211.591"/>
<polygon fill="midnightblue" stroke="midnightblue" points="741.725,-296.329 748.626,-304.368 748.245,-293.78 741.725,-296.329"/>
</g>
<!-- Node13 -->
<g id="node13" class="node"><title>Node13</title>
<g id="a_node13"><a xlink:href="iutils_8c.html" target="_top" xlink:title="src/iutils.c">
<polygon fill="white" stroke="black" points="840,-74.5 840,-93.5 902,-93.5 902,-74.5 840,-74.5"/>
<text text-anchor="middle" x="871" y="-81.5" font-family="Helvetica,sans-Serif" font-size="10.00">src/iutils.c</text>
</a>
</g>
</g>
<!-- Node1&#45;&gt;Node13 -->
<g id="edge43" class="edge"><title>Node1&#45;&gt;Node13</title>
<path fill="none" stroke="midnightblue" d="M792.844,-301.747C812.607,-294.655 835.552,-283.79 852,-268 892.147,-229.458 895.214,-210.164 908,-156 910.042,-147.349 910.744,-144.455 908,-136 902.53,-119.144 889.166,-103.199 880.09,-93.7611"/>
<polygon fill="midnightblue" stroke="midnightblue" points="791.499,-298.507 783.146,-305.024 793.74,-305.139 791.499,-298.507"/>
</g>
<!-- Node3&#45;&gt;Node4 -->
<g id="edge3" class="edge"><title>Node3&#45;&gt;Node4</title>
<path fill="none" stroke="midnightblue" d="M156.79,-69.6889C131.906,-56.5502 94.59,-36.8475 73.3456,-25.6305"/>
<polygon fill="midnightblue" stroke="midnightblue" points="155.181,-72.7975 165.658,-74.3717 158.45,-66.6074 155.181,-72.7975"/>
</g>
<!-- Node3&#45;&gt;Node5 -->
<g id="edge4" class="edge"><title>Node3&#45;&gt;Node5</title>
<path fill="none" stroke="midnightblue" d="M216.425,-71.587C221.282,-70.2335 226.241,-68.9856 231,-68 385.645,-35.9717 574.242,-22.9642 651.463,-18.7254"/>
<polygon fill="midnightblue" stroke="midnightblue" points="215.293,-68.2718 206.696,-74.4631 217.278,-74.9847 215.293,-68.2718"/>
</g>
<!-- Node6&#45;&gt;Node3 -->
<g id="edge6" class="edge"><title>Node6&#45;&gt;Node3</title>
<path fill="none" stroke="midnightblue" d="M475.585,-246.095C444.058,-238.275 402.369,-226.564 367,-212 319.179,-192.309 307.541,-185.408 265,-156 235.987,-135.944 205.319,-107.551 190.716,-93.5237"/>
<polygon fill="midnightblue" stroke="midnightblue" points="474.899,-249.53 485.444,-248.496 476.556,-242.729 474.899,-249.53"/>
</g>
<!-- Node6&#45;&gt;Node4 -->
<g id="edge7" class="edge"><title>Node6&#45;&gt;Node4</title>
<path fill="none" stroke="midnightblue" d="M470.548,-256.64C410.285,-254.476 310.481,-245.518 232,-212 159.674,-181.11 142.009,-163.051 95,-100 76.907,-75.7325 64.6592,-41.4742 59.6061,-25.6419"/>
<polygon fill="midnightblue" stroke="midnightblue" points="470.494,-260.14 480.598,-256.951 470.711,-253.143 470.494,-260.14"/>
</g>
<!-- Node6&#45;&gt;Node7 -->
<g id="edge8" class="edge"><title>Node6&#45;&gt;Node7</title>
<path fill="none" stroke="midnightblue" d="M550.367,-243.705C585.963,-225.821 646.198,-195.803 657,-192 708.787,-173.769 770.815,-161.118 811.698,-153.973"/>
<polygon fill="midnightblue" stroke="midnightblue" points="548.403,-240.775 541.043,-248.396 551.549,-247.029 548.403,-240.775"/>
</g>
<!-- Node6&#45;&gt;Node8 -->
<g id="edge13" class="edge"><title>Node6&#45;&gt;Node8</title>
<path fill="none" stroke="midnightblue" d="M544.23,-242.292C570.19,-223.432 612.134,-193.013 614,-192 652.951,-170.852 669.862,-180.192 707,-156 734.46,-138.112 759.879,-108.206 771.445,-93.5809"/>
<polygon fill="midnightblue" stroke="midnightblue" points="541.837,-239.704 535.805,-248.414 545.953,-245.367 541.837,-239.704"/>
</g>
<!-- Node9 -->
<g id="node9" class="node"><title>Node9</title>
<g id="a_node9"><a xlink:href="inferno_8h.html" target="_top" xlink:title="src/inferno.h">
<polygon fill="white" stroke="black" points="530.5,-74.5 530.5,-93.5 601.5,-93.5 601.5,-74.5 530.5,-74.5"/>
<text text-anchor="middle" x="566" y="-81.5" font-family="Helvetica,sans-Serif" font-size="10.00">src/inferno.h</text>
</a>
</g>
</g>
<!-- Node6&#45;&gt;Node9 -->
<g id="edge11" class="edge"><title>Node6&#45;&gt;Node9</title>
<path fill="none" stroke="midnightblue" d="M528.572,-238.278C537.609,-201.269 557.443,-120.042 563.914,-93.5442"/>
<polygon fill="midnightblue" stroke="midnightblue" points="525.113,-237.689 526.141,-248.234 531.913,-239.35 525.113,-237.689"/>
</g>
<!-- Node6&#45;&gt;Node10 -->
<g id="edge12" class="edge"><title>Node6&#45;&gt;Node10</title>
<path fill="none" stroke="midnightblue" d="M563.166,-245.568C598.065,-235.381 648.349,-220.703 679.823,-211.516"/>
<polygon fill="midnightblue" stroke="midnightblue" points="561.933,-242.282 553.314,-248.444 563.894,-249.001 561.933,-242.282"/>
</g>
<!-- Node11 -->
<g id="node11" class="node"><title>Node11</title>
<g id="a_node11"><a xlink:href="frontend_8h.html" target="_top" xlink:title="src/frontends/frontend.h">
<polygon fill="white" stroke="black" points="376,-192.5 376,-211.5 496,-211.5 496,-192.5 376,-192.5"/>
<text text-anchor="middle" x="436" y="-199.5" font-family="Helvetica,sans-Serif" font-size="10.00">src/frontends/frontend.h</text>
</a>
</g>
</g>
<!-- Node6&#45;&gt;Node11 -->
<g id="edge14" class="edge"><title>Node6&#45;&gt;Node11</title>
<path fill="none" stroke="midnightblue" d="M495.554,-243.21C478.207,-233.339 457.301,-220.342 445.247,-211.834"/>
<polygon fill="midnightblue" stroke="midnightblue" points="494.306,-246.521 504.746,-248.324 497.709,-240.404 494.306,-246.521"/>
</g>
<!-- Node14 -->
<g id="node14" class="node"><title>Node14</title>
<g id="a_node14"><a xlink:href="frontend__opengl__linux_8c.html" target="_top" xlink:title="src/frontends/frontend\l_opengl_linux.c">
<polygon fill="white" stroke="black" points="353,-1 353,-31 465,-31 465,-1 353,-1"/>
<text text-anchor="start" x="361" y="-19" font-family="Helvetica,sans-Serif" font-size="10.00">src/frontends/frontend</text>
<text text-anchor="middle" x="409" y="-8" font-family="Helvetica,sans-Serif" font-size="10.00">_opengl_linux.c</text>
</a>
</g>
</g>
<!-- Node6&#45;&gt;Node14 -->
<g id="edge37" class="edge"><title>Node6&#45;&gt;Node14</title>
<path fill="none" stroke="midnightblue" d="M470.914,-255.046C380.741,-248.422 200.837,-220.034 133,-100 126.003,-87.6183 123.903,-78.9322 133,-68 160.389,-35.0859 280.255,-23.3273 352.713,-19.1897"/>
<polygon fill="midnightblue" stroke="midnightblue" points="470.716,-258.541 480.928,-255.719 471.186,-251.557 470.716,-258.541"/>
</g>
<!-- Node7&#45;&gt;Node5 -->
<g id="edge9" class="edge"><title>Node7&#45;&gt;Node5</title>
<path fill="none" stroke="midnightblue" d="M881.177,-131C892.188,-123.401 903.955,-112.906 910,-100 916.032,-87.1205 918.865,-79.1213 910,-68 886.978,-39.1182 779.69,-25.2827 722.738,-19.8759"/>
<polygon fill="midnightblue" stroke="midnightblue" points="879.172,-128.128 872.633,-136.464 882.943,-134.025 879.172,-128.128"/>
</g>
<!-- Node7&#45;&gt;Node8 -->
<g id="edge10" class="edge"><title>Node7&#45;&gt;Node8</title>
<path fill="none" stroke="midnightblue" d="M836.721,-130.17C821.759,-118.661 801.541,-103.109 789.155,-93.5806"/>
<polygon fill="midnightblue" stroke="midnightblue" points="834.764,-133.081 844.825,-136.403 839.032,-127.532 834.764,-133.081"/>
</g>
<!-- Node11&#45;&gt;Node2 -->
<g id="edge15" class="edge"><title>Node11&#45;&gt;Node2</title>
<path fill="none" stroke="midnightblue" d="M390.6,-189.399C369.757,-182.351 345.782,-171.626 328,-156 307.899,-138.336 295.21,-108.325 289.887,-93.6283"/>
<polygon fill="midnightblue" stroke="midnightblue" points="389.64,-192.766 400.231,-192.475 391.77,-186.098 389.64,-192.766"/>
</g>
<!-- Node11&#45;&gt;Node3 -->
<g id="edge30" class="edge"><title>Node11&#45;&gt;Node3</title>
<path fill="none" stroke="midnightblue" d="M397.449,-189.397C371.678,-181.169 337.262,-169.265 308,-156 265.464,-136.718 218.224,-107.975 195.569,-93.6974"/>
<polygon fill="midnightblue" stroke="midnightblue" points="396.633,-192.809 407.223,-192.474 398.735,-186.132 396.633,-192.809"/>
</g>
<!-- Node11&#45;&gt;Node4 -->
<g id="edge32" class="edge"><title>Node11&#45;&gt;Node4</title>
<path fill="none" stroke="midnightblue" d="M370.044,-190.519C305.03,-177.683 205.207,-151.04 133,-100 102.367,-78.347 74.9336,-42.486 63.1313,-25.9088"/>
<polygon fill="midnightblue" stroke="midnightblue" points="369.69,-194.015 380.17,-192.463 371.009,-187.141 369.69,-194.015"/>
</g>
<!-- Node11&#45;&gt;Node5 -->
<g id="edge33" class="edge"><title>Node11&#45;&gt;Node5</title>
<path fill="none" stroke="midnightblue" d="M506.489,-198.179C572.521,-193.879 664.349,-183.073 687,-156 719.209,-117.503 699.078,-49.8018 690.397,-25.7674"/>
<polygon fill="midnightblue" stroke="midnightblue" points="505.894,-194.708 496.128,-198.814 506.323,-201.695 505.894,-194.708"/>
</g>
<!-- Node11&#45;&gt;Node6 -->
<g id="edge31" class="edge"><title>Node11&#45;&gt;Node6</title>
<path fill="none" stroke="midnightblue" d="M463.975,-216.522C481.521,-226.486 502.85,-239.743 514.976,-248.324"/>
<polygon fill="midnightblue" stroke="midnightblue" points="465.655,-213.452 455.214,-211.655 462.255,-219.571 465.655,-213.452"/>
</g>
<!-- Node12 -->
<g id="node12" class="node"><title>Node12</title>
<g id="a_node12"><a xlink:href="icoordinates_8h.html" target="_top" xlink:title="src/icoordinates.h">
<polygon fill="white" stroke="black" points="584,-136.5 584,-155.5 678,-155.5 678,-136.5 584,-136.5"/>
<text text-anchor="middle" x="631" y="-143.5" font-family="Helvetica,sans-Serif" font-size="10.00">src/icoordinates.h</text>
</a>
</g>
</g>
<!-- Node11&#45;&gt;Node12 -->
<g id="edge16" class="edge"><title>Node11&#45;&gt;Node12</title>
<path fill="none" stroke="midnightblue" d="M471.65,-189.568C506.781,-179.381 559.967,-164.703 595.166,-155.516"/>
<polygon fill="midnightblue" stroke="midnightblue" points="470.426,-186.279 461.81,-192.444 472.39,-192.998 470.426,-186.279"/>
</g>
<!-- Node11&#45;&gt;Node14 -->
<g id="edge35" class="edge"><title>Node11&#45;&gt;Node14</title>
<path fill="none" stroke="midnightblue" d="M399.287,-188.268C384.662,-181.181 369.347,-170.742 361,-156 336.975,-113.567 375.519,-57.0766 396.641,-31.1259"/>
<polygon fill="midnightblue" stroke="midnightblue" points="398.158,-191.596 408.718,-192.453 400.997,-185.197 398.158,-191.596"/>
</g>
<!-- Node15 -->
<g id="node15" class="node"><title>Node15</title>
<g id="a_node15"><a xlink:href="frontend__opengl__linux_8h.html" target="_top" xlink:title="src/frontends/frontend\l_opengl_linux.h">
<polygon fill="white" stroke="black" points="400,-69 400,-99 512,-99 512,-69 400,-69"/>
<text text-anchor="start" x="408" y="-87" font-family="Helvetica,sans-Serif" font-size="10.00">src/frontends/frontend</text>
<text text-anchor="middle" x="456" y="-76" font-family="Helvetica,sans-Serif" font-size="10.00">_opengl_linux.h</text>
</a>
</g>
</g>
<!-- Node11&#45;&gt;Node15 -->
<g id="edge36" class="edge"><title>Node11&#45;&gt;Node15</title>
<path fill="none" stroke="midnightblue" d="M465.1,-187.654C477.634,-180.25 491,-169.73 498,-156 508.343,-135.713 489.636,-113.238 473.975,-99.1179"/>
<polygon fill="midnightblue" stroke="midnightblue" points="463.326,-184.634 456.223,-192.495 466.678,-190.78 463.326,-184.634"/>
</g>
<!-- Node16 -->
<g id="node16" class="node"><title>Node16</title>
<g id="a_node16"><a xlink:href="frontend_8c.html" target="_top" xlink:title="src/frontends/frontend.c">
<polygon fill="white" stroke="black" points="370,-136.5 370,-155.5 490,-155.5 490,-136.5 370,-136.5"/>
<text text-anchor="middle" x="430" y="-143.5" font-family="Helvetica,sans-Serif" font-size="10.00">src/frontends/frontend.c</text>
</a>
</g>
</g>
<!-- Node11&#45;&gt;Node16 -->
<g id="edge34" class="edge"><title>Node11&#45;&gt;Node16</title>
<path fill="none" stroke="midnightblue" d="M433.9,-182.101C432.904,-173.136 431.762,-162.858 430.972,-155.751"/>
<polygon fill="midnightblue" stroke="midnightblue" points="430.426,-182.531 435.009,-192.083 437.383,-181.758 430.426,-182.531"/>
</g>
<!-- Node12&#45;&gt;Node1 -->
<g id="edge18" class="edge"><title>Node12&#45;&gt;Node1</title>
<path fill="none" stroke="midnightblue" d="M688.207,-151.88C714.917,-157.362 744.417,-168.711 761,-192 785.926,-227.005 765.411,-283.057 756.048,-304.384"/>
<polygon fill="midnightblue" stroke="midnightblue" points="688.603,-148.395 678.139,-150.053 687.354,-155.282 688.603,-148.395"/>
</g>
<!-- Node12&#45;&gt;Node2 -->
<g id="edge17" class="edge"><title>Node12&#45;&gt;Node2</title>
<path fill="none" stroke="midnightblue" d="M573.902,-135.041C506.759,-123.33 396.567,-104.11 334.092,-93.2138"/>
<polygon fill="midnightblue" stroke="midnightblue" points="573.437,-138.513 583.89,-136.783 574.64,-131.617 573.437,-138.513"/>
</g>
<!-- Node12&#45;&gt;Node3 -->
<g id="edge19" class="edge"><title>Node12&#45;&gt;Node3</title>
<path fill="none" stroke="midnightblue" d="M573.417,-139.846C478.903,-131.164 294.975,-113.271 231,-100 222.986,-98.3375 214.403,-95.9326 206.696,-93.5337"/>
<polygon fill="midnightblue" stroke="midnightblue" points="573.381,-143.357 583.658,-140.783 574.018,-136.386 573.381,-143.357"/>
</g>
<!-- Node12&#45;&gt;Node5 -->
<g id="edge21" class="edge"><title>Node12&#45;&gt;Node5</title>
<path fill="none" stroke="midnightblue" d="M638.973,-126.776C651.244,-98.7279 674.28,-46.0734 683.271,-25.5224"/>
<polygon fill="midnightblue" stroke="midnightblue" points="635.651,-125.638 634.849,-136.202 642.064,-128.443 635.651,-125.638"/>
</g>
<!-- Node12&#45;&gt;Node6 -->
<g id="edge20" class="edge"><title>Node12&#45;&gt;Node6</title>
<path fill="none" stroke="midnightblue" d="M615.087,-162.73C606.435,-171.329 595.575,-182.196 586,-192 566.604,-211.859 544.206,-235.527 532.358,-248.105"/>
<polygon fill="midnightblue" stroke="midnightblue" points="617.675,-165.093 622.312,-155.567 612.747,-160.122 617.675,-165.093"/>
</g>
<!-- Node12&#45;&gt;Node8 -->
<g id="edge23" class="edge"><title>Node12&#45;&gt;Node8</title>
<path fill="none" stroke="midnightblue" d="M661.558,-132.527C690.117,-120.871 731.998,-103.776 756.978,-93.5806"/>
<polygon fill="midnightblue" stroke="midnightblue" points="659.997,-129.384 652.062,-136.403 662.643,-135.865 659.997,-129.384"/>
</g>
<!-- Node12&#45;&gt;Node9 -->
<g id="edge22" class="edge"><title>Node12&#45;&gt;Node9</title>
<path fill="none" stroke="midnightblue" d="M614.231,-129.521C601.838,-118.082 585.425,-102.93 575.296,-93.5806"/>
<polygon fill="midnightblue" stroke="midnightblue" points="611.965,-132.192 621.687,-136.403 616.713,-127.049 611.965,-132.192"/>
</g>
<!-- Node12&#45;&gt;Node11 -->
<g id="edge25" class="edge"><title>Node12&#45;&gt;Node11</title>
<path fill="none" stroke="midnightblue" d="M595.502,-158.388C560.425,-168.562 507.239,-183.241 471.987,-192.444"/>
<polygon fill="midnightblue" stroke="midnightblue" points="596.71,-161.682 605.326,-155.516 594.746,-154.963 596.71,-161.682"/>
</g>
<!-- Node12&#45;&gt;Node13 -->
<g id="edge24" class="edge"><title>Node12&#45;&gt;Node13</title>
<path fill="none" stroke="midnightblue" d="M686.351,-134.47C726.553,-126.342 782.077,-114.121 830,-100 836.253,-98.1576 842.931,-95.8602 849.044,-93.6215"/>
<polygon fill="midnightblue" stroke="midnightblue" points="685.593,-131.052 676.475,-136.447 686.967,-137.916 685.593,-131.052"/>
</g>
<!-- Node12&#45;&gt;Node14 -->
<g id="edge26" class="edge"><title>Node12&#45;&gt;Node14</title>
<path fill="none" stroke="midnightblue" d="M630.98,-126.366C629.929,-108.915 625.568,-83.294 610,-68 589.647,-48.0053 517.446,-33.2196 465.402,-24.8573"/>
<polygon fill="midnightblue" stroke="midnightblue" points="627.484,-126.572 631.277,-136.465 634.481,-126.366 627.484,-126.572"/>
</g>
<!-- Node12&#45;&gt;Node15 -->
<g id="edge27" class="edge"><title>Node12&#45;&gt;Node15</title>
<path fill="none" stroke="midnightblue" d="M596.35,-133.12C567.749,-123.314 527.103,-109.378 496.907,-99.0253"/>
<polygon fill="midnightblue" stroke="midnightblue" points="595.332,-136.471 605.927,-136.403 597.602,-129.849 595.332,-136.471"/>
</g>
<!-- Node15&#45;&gt;Node5 -->
<g id="edge28" class="edge"><title>Node15&#45;&gt;Node5</title>
<path fill="none" stroke="midnightblue" d="M515.011,-66.1398C560.461,-53.1541 621.393,-35.7447 657.202,-25.5138"/>
<polygon fill="midnightblue" stroke="midnightblue" points="513.926,-62.8097 505.272,-68.9223 515.849,-69.5403 513.926,-62.8097"/>
</g>
<!-- Node15&#45;&gt;Node14 -->
<g id="edge29" class="edge"><title>Node15&#45;&gt;Node14</title>
<path fill="none" stroke="midnightblue" d="M439.845,-60.3137C432.991,-50.6892 425.21,-39.7635 419.178,-31.2931"/>
<polygon fill="midnightblue" stroke="midnightblue" points="437.15,-62.5636 445.802,-68.679 442.852,-58.503 437.15,-62.5636"/>
</g>
</g>
</svg>
