<?xml version="1.0" encoding="UTF-8" standalone="no"?>
<!DOCTYPE svg PUBLIC "-//W3C//DTD SVG 1.1//EN"
 "http://www.w3.org/Graphics/SVG/1.1/DTD/svg11.dtd">
<!-- Generated by graphviz version 2.36.0 (20140111.2315)
 -->
<!-- Title: ifast_bigpow Pages: 1 -->
<svg width="294pt" height="28pt"
 viewBox="0.00 0.00 294.00 28.00" xmlns="http://www.w3.org/2000/svg" xmlns:xlink="http://www.w3.org/1999/xlink">
<g id="graph0" class="graph" transform="scale(1 1) rotate(0) translate(4 24)">
<title>ifast_bigpow</title>
<polygon fill="white" stroke="none" points="-4,4 -4,-24 290,-24 290,4 -4,4"/>
<!-- Node1 -->
<g id="node1" class="node"><title>Node1</title>
<polygon fill="#bfbfbf" stroke="black" points="0.5,-0.5 0.5,-19.5 71.5,-19.5 71.5,-0.5 0.5,-0.5"/>
<text text-anchor="middle" x="36" y="-7.5" font-family="Helvetica,sans-Serif" font-size="10.00">ifast_bigpow</text>
</g>
<!-- Node2 -->
<g id="node2" class="node"><title>Node2</title>
<g id="a_node2"><a xlink:href="iutils_8c.html#ac8fed0eb9501e0cdf9ee92fb58c0d8eb" target="_top" xlink:title="ifast_smallpow">
<polygon fill="white" stroke="black" points="108,-0.5 108,-19.5 190,-19.5 190,-0.5 108,-0.5"/>
<text text-anchor="middle" x="149" y="-7.5" font-family="Helvetica,sans-Serif" font-size="10.00">ifast_smallpow</text>
</a>
</g>
</g>
<!-- Node1&#45;&gt;Node2 -->
<g id="edge1" class="edge"><title>Node1&#45;&gt;Node2</title>
<path fill="none" stroke="midnightblue" d="M71.5126,-10C79.7462,-10 88.7025,-10 97.4905,-10"/>
<polygon fill="midnightblue" stroke="midnightblue" points="97.6763,-13.5001 107.676,-10 97.6762,-6.5001 97.6763,-13.5001"/>
</g>
<!-- Node3 -->
<g id="node3" class="node"><title>Node3</title>
<g id="a_node3"><a xlink:href="iutils_8c.html#a1c96160b622425f63f2566171feda038" target="_top" xlink:title="All credit the the authors of the Quake engine. ">
<polygon fill="white" stroke="black" points="226,-0.5 226,-19.5 286,-19.5 286,-0.5 226,-0.5"/>
<text text-anchor="middle" x="256" y="-7.5" font-family="Helvetica,sans-Serif" font-size="10.00">ifast_rsqrt</text>
</a>
</g>
</g>
<!-- Node2&#45;&gt;Node3 -->
<g id="edge2" class="edge"><title>Node2&#45;&gt;Node3</title>
<path fill="none" stroke="midnightblue" d="M190.295,-10C198.591,-10 207.317,-10 215.581,-10"/>
<polygon fill="midnightblue" stroke="midnightblue" points="215.734,-13.5001 225.734,-10 215.734,-6.5001 215.734,-13.5001"/>
</g>
</g>
</svg>
