<?xml version="1.0" encoding="UTF-8" standalone="no"?>
<!DOCTYPE svg PUBLIC "-//W3C//DTD SVG 1.1//EN"
 "http://www.w3.org/Graphics/SVG/1.1/DTD/svg11.dtd">
<!-- Generated by graphviz version 2.36.0 (20140111.2315)
 -->
<!-- Title: igetlast_linked Pages: 1 -->
<svg width="258pt" height="46pt"
 viewBox="0.00 0.00 258.00 46.00" xmlns="http://www.w3.org/2000/svg" xmlns:xlink="http://www.w3.org/1999/xlink">
<g id="graph0" class="graph" transform="scale(1 1) rotate(0) translate(4 42)">
<title>igetlast_linked</title>
<polygon fill="white" stroke="none" points="-4,4 -4,-42 254,-42 254,4 -4,4"/>
<!-- Node1 -->
<g id="node1" class="node"><title>Node1</title>
<polygon fill="#bfbfbf" stroke="black" points="0.5,-0.5 0.5,-19.5 79.5,-19.5 79.5,-0.5 0.5,-0.5"/>
<text text-anchor="middle" x="40" y="-7.5" font-family="Helvetica,sans-Serif" font-size="10.00">igetlast_linked</text>
</g>
<!-- Node2 -->
<g id="node2" class="node"><title>Node2</title>
<g id="a_node2"><a xlink:href="error_8c.html#ab10bea042bb9daa7a0e027197b8080e5" target="_top" xlink:title="ierror">
<polygon fill="white" stroke="black" points="116,-0.5 116,-19.5 154,-19.5 154,-0.5 116,-0.5"/>
<text text-anchor="middle" x="135" y="-7.5" font-family="Helvetica,sans-Serif" font-size="10.00">ierror</text>
</a>
</g>
</g>
<!-- Node1&#45;&gt;Node2 -->
<g id="edge1" class="edge"><title>Node1&#45;&gt;Node2</title>
<path fill="none" stroke="midnightblue" d="M79.6324,-10C88.3768,-10 97.5035,-10 105.727,-10"/>
<polygon fill="midnightblue" stroke="midnightblue" points="105.908,-13.5001 115.908,-10 105.908,-6.5001 105.908,-13.5001"/>
</g>
<!-- Node2&#45;&gt;Node2 -->
<g id="edge3" class="edge"><title>Node2&#45;&gt;Node2</title>
<path fill="none" stroke="midnightblue" d="M122.053,-19.7571C115.755,-28.5653 120.07,-38 135,-38 144.098,-38 149.254,-34.4965 150.469,-29.7663"/>
<polygon fill="midnightblue" stroke="midnightblue" points="153.784,-28.5986 147.947,-19.7571 146.997,-30.3092 153.784,-28.5986"/>
</g>
<!-- Node3 -->
<g id="node3" class="node"><title>Node3</title>
<g id="a_node3"><a xlink:href="error_8c.html#ac1727d6e8e99b92957a0a7099d19d6f4" target="_top" xlink:title="print_error">
<polygon fill="white" stroke="black" points="190,-0.5 190,-19.5 250,-19.5 250,-0.5 190,-0.5"/>
<text text-anchor="middle" x="220" y="-7.5" font-family="Helvetica,sans-Serif" font-size="10.00">print_error</text>
</a>
</g>
</g>
<!-- Node2&#45;&gt;Node3 -->
<g id="edge2" class="edge"><title>Node2&#45;&gt;Node3</title>
<path fill="none" stroke="midnightblue" d="M154.01,-10C161.631,-10 170.828,-10 179.874,-10"/>
<polygon fill="midnightblue" stroke="midnightblue" points="179.931,-13.5001 189.931,-10 179.931,-6.5001 179.931,-13.5001"/>
</g>
</g>
</svg>
