<?xml version="1.0" encoding="UTF-8" standalone="no"?>
<!DOCTYPE svg PUBLIC "-//W3C//DTD SVG 1.1//EN"
 "http://www.w3.org/Graphics/SVG/1.1/DTD/svg11.dtd">
<!-- Generated by graphviz version 2.36.0 (20140111.2315)
 -->
<!-- Title: iaddunique_linked Pages: 1 -->
<svg width="510pt" height="66pt"
 viewBox="0.00 0.00 510.00 66.00" xmlns="http://www.w3.org/2000/svg" xmlns:xlink="http://www.w3.org/1999/xlink">
<g id="graph0" class="graph" transform="scale(1 1) rotate(0) translate(4 62)">
<title>iaddunique_linked</title>
<polygon fill="white" stroke="none" points="-4,4 -4,-62 506,-62 506,4 -4,4"/>
<!-- Node1 -->
<g id="node1" class="node"><title>Node1</title>
<polygon fill="#bfbfbf" stroke="black" points="0,-19.5 0,-38.5 94,-38.5 94,-19.5 0,-19.5"/>
<text text-anchor="middle" x="47" y="-26.5" font-family="Helvetica,sans-Serif" font-size="10.00">iaddunique_linked</text>
</g>
<!-- Node2 -->
<g id="node2" class="node"><title>Node2</title>
<g id="a_node2"><a xlink:href="iutils_8c.html#a33e3d3f35e70f3424c71ffaf21fdefa2" target="_top" xlink:title="icontains_linked">
<polygon fill="white" stroke="black" points="130,-38.5 130,-57.5 216,-57.5 216,-38.5 130,-38.5"/>
<text text-anchor="middle" x="173" y="-45.5" font-family="Helvetica,sans-Serif" font-size="10.00">icontains_linked</text>
</a>
</g>
</g>
<!-- Node1&#45;&gt;Node2 -->
<g id="edge1" class="edge"><title>Node1&#45;&gt;Node2</title>
<path fill="none" stroke="midnightblue" d="M94.173,-36.0749C102.587,-37.3641 111.417,-38.7171 119.986,-40.0301"/>
<polygon fill="midnightblue" stroke="midnightblue" points="119.469,-43.4917 129.884,-41.5468 120.53,-36.5725 119.469,-43.4917"/>
</g>
<!-- Node6 -->
<g id="node6" class="node"><title>Node6</title>
<g id="a_node6"><a xlink:href="iutils_8c.html#a67413257923db7c88d91a7e706024e98" target="_top" xlink:title="iadd_linked">
<polygon fill="white" stroke="black" points="259.5,-0.5 259.5,-19.5 324.5,-19.5 324.5,-0.5 259.5,-0.5"/>
<text text-anchor="middle" x="292" y="-7.5" font-family="Helvetica,sans-Serif" font-size="10.00">iadd_linked</text>
</a>
</g>
</g>
<!-- Node1&#45;&gt;Node6 -->
<g id="edge6" class="edge"><title>Node1&#45;&gt;Node6</title>
<path fill="none" stroke="midnightblue" d="M94.2784,-25.3815C138.931,-21.8902 205.93,-16.6516 249.06,-13.2793"/>
<polygon fill="midnightblue" stroke="midnightblue" points="249.519,-16.7542 259.215,-12.4852 248.973,-9.77547 249.519,-16.7542"/>
</g>
<!-- Node3 -->
<g id="node3" class="node"><title>Node3</title>
<g id="a_node3"><a xlink:href="iutils_8c.html#acf8aca63685fbd6b4c995516baedab14" target="_top" xlink:title="igetfirst_linked">
<polygon fill="white" stroke="black" points="252,-38.5 252,-57.5 332,-57.5 332,-38.5 252,-38.5"/>
<text text-anchor="middle" x="292" y="-45.5" font-family="Helvetica,sans-Serif" font-size="10.00">igetfirst_linked</text>
</a>
</g>
</g>
<!-- Node2&#45;&gt;Node3 -->
<g id="edge2" class="edge"><title>Node2&#45;&gt;Node3</title>
<path fill="none" stroke="midnightblue" d="M216.24,-48C224.523,-48 233.279,-48 241.767,-48"/>
<polygon fill="midnightblue" stroke="midnightblue" points="241.939,-51.5001 251.939,-48 241.939,-44.5001 241.939,-51.5001"/>
</g>
<!-- Node4 -->
<g id="node4" class="node"><title>Node4</title>
<g id="a_node4"><a xlink:href="error_8c.html#ab10bea042bb9daa7a0e027197b8080e5" target="_top" xlink:title="ierror">
<polygon fill="white" stroke="black" points="368,-19.5 368,-38.5 406,-38.5 406,-19.5 368,-19.5"/>
<text text-anchor="middle" x="387" y="-26.5" font-family="Helvetica,sans-Serif" font-size="10.00">ierror</text>
</a>
</g>
</g>
<!-- Node3&#45;&gt;Node4 -->
<g id="edge3" class="edge"><title>Node3&#45;&gt;Node4</title>
<path fill="none" stroke="midnightblue" d="M332.171,-39.9974C340.731,-38.2485 349.631,-36.4303 357.671,-34.7877"/>
<polygon fill="midnightblue" stroke="midnightblue" points="358.547,-38.1812 367.644,-32.7502 357.145,-31.3228 358.547,-38.1812"/>
</g>
<!-- Node4&#45;&gt;Node4 -->
<g id="edge5" class="edge"><title>Node4&#45;&gt;Node4</title>
<path fill="none" stroke="midnightblue" d="M374.053,-38.7571C367.755,-47.5653 372.07,-57 387,-57 396.098,-57 401.254,-53.4965 402.469,-48.7663"/>
<polygon fill="midnightblue" stroke="midnightblue" points="405.784,-47.5986 399.947,-38.7571 398.997,-49.3092 405.784,-47.5986"/>
</g>
<!-- Node5 -->
<g id="node5" class="node"><title>Node5</title>
<g id="a_node5"><a xlink:href="error_8c.html#ac1727d6e8e99b92957a0a7099d19d6f4" target="_top" xlink:title="print_error">
<polygon fill="white" stroke="black" points="442,-19.5 442,-38.5 502,-38.5 502,-19.5 442,-19.5"/>
<text text-anchor="middle" x="472" y="-26.5" font-family="Helvetica,sans-Serif" font-size="10.00">print_error</text>
</a>
</g>
</g>
<!-- Node4&#45;&gt;Node5 -->
<g id="edge4" class="edge"><title>Node4&#45;&gt;Node5</title>
<path fill="none" stroke="midnightblue" d="M406.01,-29C413.631,-29 422.828,-29 431.874,-29"/>
<polygon fill="midnightblue" stroke="midnightblue" points="431.931,-32.5001 441.931,-29 431.931,-25.5001 431.931,-32.5001"/>
</g>
<!-- Node6&#45;&gt;Node4 -->
<g id="edge7" class="edge"><title>Node6&#45;&gt;Node4</title>
<path fill="none" stroke="midnightblue" d="M324.745,-16.4856C335.559,-18.6948 347.56,-21.1466 358.053,-23.2904"/>
<polygon fill="midnightblue" stroke="midnightblue" points="357.445,-26.7385 367.944,-25.3111 358.847,-19.8802 357.445,-26.7385"/>
</g>
</g>
</svg>
