<?xml version="1.0" encoding="UTF-8" standalone="no"?>
<!DOCTYPE svg PUBLIC "-//W3C//DTD SVG 1.1//EN"
 "http://www.w3.org/Graphics/SVG/1.1/DTD/svg11.dtd">
<!-- Generated by graphviz version 2.36.0 (20140111.2315)
 -->
<!-- Title: iget_distance Pages: 1 -->
<svg width="314pt" height="66pt"
 viewBox="0.00 0.00 314.00 66.00" xmlns="http://www.w3.org/2000/svg" xmlns:xlink="http://www.w3.org/1999/xlink">
<g id="graph0" class="graph" transform="scale(1 1) rotate(0) translate(4 62)">
<title>iget_distance</title>
<polygon fill="white" stroke="none" points="-4,4 -4,-62 310,-62 310,4 -4,4"/>
<!-- Node1 -->
<g id="node1" class="node"><title>Node1</title>
<polygon fill="#bfbfbf" stroke="black" points="0,-19.5 0,-38.5 74,-38.5 74,-19.5 0,-19.5"/>
<text text-anchor="middle" x="37" y="-26.5" font-family="Helvetica,sans-Serif" font-size="10.00">iget_distance</text>
</g>
<!-- Node2 -->
<g id="node2" class="node"><title>Node2</title>
<g id="a_node2"><a xlink:href="iprimitives_8h.html#a32c313b4080f6b2ce22b65bbd1ad9236" target="_top" xlink:title="iobject_add_triplet">
<polygon fill="white" stroke="black" points="123.5,-38.5 123.5,-57.5 218.5,-57.5 218.5,-38.5 123.5,-38.5"/>
<text text-anchor="middle" x="171" y="-45.5" font-family="Helvetica,sans-Serif" font-size="10.00">iobject_add_triplet</text>
</a>
</g>
</g>
<!-- Node1&#45;&gt;Node2 -->
<g id="edge1" class="edge"><title>Node1&#45;&gt;Node2</title>
<path fill="none" stroke="midnightblue" d="M84.3244,-35.6679C96.879,-37.475 110.479,-39.4326 123.067,-41.2445"/>
<polygon fill="midnightblue" stroke="midnightblue" points="84.4662,-32.1523 74.0696,-34.1918 83.4689,-39.0809 84.4662,-32.1523"/>
</g>
<!-- Node4 -->
<g id="node4" class="node"><title>Node4</title>
<g id="a_node4"><a xlink:href="iutils_8h.html#af19f54fefe2f16b8a7fba23fc7f67de5" target="_top" xlink:title="igetclosest_point_linked">
<polygon fill="white" stroke="black" points="110.5,-0.5 110.5,-19.5 231.5,-19.5 231.5,-0.5 110.5,-0.5"/>
<text text-anchor="middle" x="171" y="-7.5" font-family="Helvetica,sans-Serif" font-size="10.00">igetclosest_point_linked</text>
</a>
</g>
</g>
<!-- Node1&#45;&gt;Node4 -->
<g id="edge3" class="edge"><title>Node1&#45;&gt;Node4</title>
<path fill="none" stroke="midnightblue" d="M84.1247,-22.3608C92.5992,-21.141 101.556,-19.8518 110.36,-18.5845"/>
<polygon fill="midnightblue" stroke="midnightblue" points="83.4689,-18.9191 74.0696,-23.8082 84.4662,-25.8477 83.4689,-18.9191"/>
</g>
<!-- Node3 -->
<g id="node3" class="node"><title>Node3</title>
<g id="a_node3"><a xlink:href="inferno_8c.html#a0ddf1224851353fc92bfbff6f499fa97" target="_top" xlink:title="main">
<polygon fill="white" stroke="black" points="268,-38.5 268,-57.5 306,-57.5 306,-38.5 268,-38.5"/>
<text text-anchor="middle" x="287" y="-45.5" font-family="Helvetica,sans-Serif" font-size="10.00">main</text>
</a>
</g>
</g>
<!-- Node2&#45;&gt;Node3 -->
<g id="edge2" class="edge"><title>Node2&#45;&gt;Node3</title>
<path fill="none" stroke="midnightblue" d="M228.958,-48C243.119,-48 257.283,-48 267.955,-48"/>
<polygon fill="midnightblue" stroke="midnightblue" points="228.697,-44.5001 218.697,-48 228.697,-51.5001 228.697,-44.5001"/>
</g>
</g>
</svg>
