<?xml version="1.0" encoding="UTF-8" standalone="no"?>
<!DOCTYPE svg PUBLIC "-//W3C//DTD SVG 1.1//EN"
 "http://www.w3.org/Graphics/SVG/1.1/DTD/svg11.dtd">
<!-- Generated by graphviz version 2.36.0 (20140111.2315)
 -->
<!-- Title: iadd_linked Pages: 1 -->
<svg width="244pt" height="46pt"
 viewBox="0.00 0.00 244.00 46.00" xmlns="http://www.w3.org/2000/svg" xmlns:xlink="http://www.w3.org/1999/xlink">
<g id="graph0" class="graph" transform="scale(1 1) rotate(0) translate(4 42)">
<title>iadd_linked</title>
<polygon fill="white" stroke="none" points="-4,4 -4,-42 240,-42 240,4 -4,4"/>
<!-- Node1 -->
<g id="node1" class="node"><title>Node1</title>
<polygon fill="#bfbfbf" stroke="black" points="0.5,-0.5 0.5,-19.5 65.5,-19.5 65.5,-0.5 0.5,-0.5"/>
<text text-anchor="middle" x="33" y="-7.5" font-family="Helvetica,sans-Serif" font-size="10.00">iadd_linked</text>
</g>
<!-- Node2 -->
<g id="node2" class="node"><title>Node2</title>
<g id="a_node2"><a xlink:href="error_8c.html#ab10bea042bb9daa7a0e027197b8080e5" target="_top" xlink:title="ierror">
<polygon fill="white" stroke="black" points="102,-0.5 102,-19.5 140,-19.5 140,-0.5 102,-0.5"/>
<text text-anchor="middle" x="121" y="-7.5" font-family="Helvetica,sans-Serif" font-size="10.00">ierror</text>
</a>
</g>
</g>
<!-- Node1&#45;&gt;Node2 -->
<g id="edge1" class="edge"><title>Node1&#45;&gt;Node2</title>
<path fill="none" stroke="midnightblue" d="M65.5349,-10C74.1638,-10 83.4571,-10 91.8813,-10"/>
<polygon fill="midnightblue" stroke="midnightblue" points="91.9716,-13.5001 101.972,-10 91.9715,-6.5001 91.9716,-13.5001"/>
</g>
<!-- Node2&#45;&gt;Node2 -->
<g id="edge3" class="edge"><title>Node2&#45;&gt;Node2</title>
<path fill="none" stroke="midnightblue" d="M108.053,-19.7571C101.755,-28.5653 106.07,-38 121,-38 130.098,-38 135.254,-34.4965 136.469,-29.7663"/>
<polygon fill="midnightblue" stroke="midnightblue" points="139.784,-28.5986 133.947,-19.7571 132.997,-30.3092 139.784,-28.5986"/>
</g>
<!-- Node3 -->
<g id="node3" class="node"><title>Node3</title>
<g id="a_node3"><a xlink:href="error_8c.html#ac1727d6e8e99b92957a0a7099d19d6f4" target="_top" xlink:title="print_error">
<polygon fill="white" stroke="black" points="176,-0.5 176,-19.5 236,-19.5 236,-0.5 176,-0.5"/>
<text text-anchor="middle" x="206" y="-7.5" font-family="Helvetica,sans-Serif" font-size="10.00">print_error</text>
</a>
</g>
</g>
<!-- Node2&#45;&gt;Node3 -->
<g id="edge2" class="edge"><title>Node2&#45;&gt;Node3</title>
<path fill="none" stroke="midnightblue" d="M140.01,-10C147.631,-10 156.828,-10 165.874,-10"/>
<polygon fill="midnightblue" stroke="midnightblue" points="165.931,-13.5001 175.931,-10 165.931,-6.5001 165.931,-13.5001"/>
</g>
</g>
</svg>
