<?xml version="1.0" encoding="UTF-8" standalone="no"?>
<!DOCTYPE svg PUBLIC "-//W3C//DTD SVG 1.1//EN"
 "http://www.w3.org/Graphics/SVG/1.1/DTD/svg11.dtd">
<!-- Generated by graphviz version 2.36.0 (20140111.2315)
 -->
<!-- Title: igetclosest_point_linked Pages: 1 -->
<svg width="436pt" height="84pt"
 viewBox="0.00 0.00 436.00 84.00" xmlns="http://www.w3.org/2000/svg" xmlns:xlink="http://www.w3.org/1999/xlink">
<g id="graph0" class="graph" transform="scale(1 1) rotate(0) translate(4 80)">
<title>igetclosest_point_linked</title>
<polygon fill="white" stroke="none" points="-4,4 -4,-80 432,-80 432,4 -4,4"/>
<!-- Node1 -->
<g id="node1" class="node"><title>Node1</title>
<polygon fill="#bfbfbf" stroke="black" points="0.5,-19.5 0.5,-38.5 121.5,-38.5 121.5,-19.5 0.5,-19.5"/>
<text text-anchor="middle" x="61" y="-26.5" font-family="Helvetica,sans-Serif" font-size="10.00">igetclosest_point_linked</text>
</g>
<!-- Node2 -->
<g id="node2" class="node"><title>Node2</title>
<g id="a_node2"><a xlink:href="iutils_8c.html#acf8aca63685fbd6b4c995516baedab14" target="_top" xlink:title="igetfirst_linked">
<polygon fill="white" stroke="black" points="158,-38.5 158,-57.5 238,-57.5 238,-38.5 158,-38.5"/>
<text text-anchor="middle" x="198" y="-45.5" font-family="Helvetica,sans-Serif" font-size="10.00">igetfirst_linked</text>
</a>
</g>
</g>
<!-- Node1&#45;&gt;Node2 -->
<g id="edge1" class="edge"><title>Node1&#45;&gt;Node2</title>
<path fill="none" stroke="midnightblue" d="M121.606,-37.389C130.344,-38.6187 139.26,-39.8737 147.759,-41.0698"/>
<polygon fill="midnightblue" stroke="midnightblue" points="147.489,-44.5661 157.879,-42.494 148.464,-37.6344 147.489,-44.5661"/>
</g>
<!-- Node5 -->
<g id="node5" class="node"><title>Node5</title>
<g id="a_node5"><a xlink:href="iutils_8c.html#a0f9358d11318a553a072c0384b8ed6d9" target="_top" xlink:title="iget_distance">
<polygon fill="white" stroke="black" points="161,-0.5 161,-19.5 235,-19.5 235,-0.5 161,-0.5"/>
<text text-anchor="middle" x="198" y="-7.5" font-family="Helvetica,sans-Serif" font-size="10.00">iget_distance</text>
</a>
</g>
</g>
<!-- Node1&#45;&gt;Node5 -->
<g id="edge5" class="edge"><title>Node1&#45;&gt;Node5</title>
<path fill="none" stroke="midnightblue" d="M121.606,-20.611C131.462,-19.2239 141.545,-17.8048 151,-16.4741"/>
<polygon fill="midnightblue" stroke="midnightblue" points="151.558,-19.9302 160.972,-15.0706 150.582,-12.9985 151.558,-19.9302"/>
</g>
<!-- Node3 -->
<g id="node3" class="node"><title>Node3</title>
<g id="a_node3"><a xlink:href="error_8c.html#ab10bea042bb9daa7a0e027197b8080e5" target="_top" xlink:title="ierror">
<polygon fill="white" stroke="black" points="284,-38.5 284,-57.5 322,-57.5 322,-38.5 284,-38.5"/>
<text text-anchor="middle" x="303" y="-45.5" font-family="Helvetica,sans-Serif" font-size="10.00">ierror</text>
</a>
</g>
</g>
<!-- Node2&#45;&gt;Node3 -->
<g id="edge2" class="edge"><title>Node2&#45;&gt;Node3</title>
<path fill="none" stroke="midnightblue" d="M238.234,-48C250.002,-48 262.677,-48 273.603,-48"/>
<polygon fill="midnightblue" stroke="midnightblue" points="273.847,-51.5001 283.847,-48 273.847,-44.5001 273.847,-51.5001"/>
</g>
<!-- Node3&#45;&gt;Node3 -->
<g id="edge4" class="edge"><title>Node3&#45;&gt;Node3</title>
<path fill="none" stroke="midnightblue" d="M288.512,-57.7571C281.464,-66.5653 286.293,-76 303,-76 313.442,-76 319.244,-72.3146 320.407,-67.4"/>
<polygon fill="midnightblue" stroke="midnightblue" points="323.735,-66.3144 317.488,-57.7571 317.035,-68.3422 323.735,-66.3144"/>
</g>
<!-- Node4 -->
<g id="node4" class="node"><title>Node4</title>
<g id="a_node4"><a xlink:href="error_8c.html#ac1727d6e8e99b92957a0a7099d19d6f4" target="_top" xlink:title="print_error">
<polygon fill="white" stroke="black" points="368,-38.5 368,-57.5 428,-57.5 428,-38.5 368,-38.5"/>
<text text-anchor="middle" x="398" y="-45.5" font-family="Helvetica,sans-Serif" font-size="10.00">print_error</text>
</a>
</g>
</g>
<!-- Node3&#45;&gt;Node4 -->
<g id="edge3" class="edge"><title>Node3&#45;&gt;Node4</title>
<path fill="none" stroke="midnightblue" d="M322.374,-48C332.465,-48 345.386,-48 357.632,-48"/>
<polygon fill="midnightblue" stroke="midnightblue" points="357.682,-51.5001 367.682,-48 357.682,-44.5001 357.682,-51.5001"/>
</g>
<!-- Node6 -->
<g id="node6" class="node"><title>Node6</title>
<g id="a_node6"><a xlink:href="iutils_8c.html#a99799aeb9cb7fb340a3cec124d429764" target="_top" xlink:title="ifast_sqrt">
<polygon fill="white" stroke="black" points="274.5,-0.5 274.5,-19.5 331.5,-19.5 331.5,-0.5 274.5,-0.5"/>
<text text-anchor="middle" x="303" y="-7.5" font-family="Helvetica,sans-Serif" font-size="10.00">ifast_sqrt</text>
</a>
</g>
</g>
<!-- Node5&#45;&gt;Node6 -->
<g id="edge6" class="edge"><title>Node5&#45;&gt;Node6</title>
<path fill="none" stroke="midnightblue" d="M235.024,-10C244.482,-10 254.708,-10 264.253,-10"/>
<polygon fill="midnightblue" stroke="midnightblue" points="264.275,-13.5001 274.275,-10 264.275,-6.5001 264.275,-13.5001"/>
</g>
</g>
</svg>
