<?xml version="1.0" encoding="UTF-8" standalone="no"?>
<!DOCTYPE svg PUBLIC "-//W3C//DTD SVG 1.1//EN"
 "http://www.w3.org/Graphics/SVG/1.1/DTD/svg11.dtd">
<!-- Generated by graphviz version 2.36.0 (20140111.2315)
 -->
<!-- Title: ifast_rsqrt Pages: 1 -->
<svg width="306pt" height="66pt"
 viewBox="0.00 0.00 306.00 66.00" xmlns="http://www.w3.org/2000/svg" xmlns:xlink="http://www.w3.org/1999/xlink">
<g id="graph0" class="graph" transform="scale(1 1) rotate(0) translate(4 62)">
<title>ifast_rsqrt</title>
<polygon fill="white" stroke="none" points="-4,4 -4,-62 302,-62 302,4 -4,4"/>
<!-- Node1 -->
<g id="node1" class="node"><title>Node1</title>
<polygon fill="#bfbfbf" stroke="black" points="0,-19.5 0,-38.5 60,-38.5 60,-19.5 0,-19.5"/>
<text text-anchor="middle" x="30" y="-26.5" font-family="Helvetica,sans-Serif" font-size="10.00">ifast_rsqrt</text>
</g>
<!-- Node2 -->
<g id="node2" class="node"><title>Node2</title>
<g id="a_node2"><a xlink:href="icoordinates_8h.html#ae329256a981cc3027c3945b339972130" target="_top" xlink:title="inormalize_vector">
<polygon fill="white" stroke="black" points="96.5,-38.5 96.5,-57.5 189.5,-57.5 189.5,-38.5 96.5,-38.5"/>
<text text-anchor="middle" x="143" y="-45.5" font-family="Helvetica,sans-Serif" font-size="10.00">inormalize_vector</text>
</a>
</g>
</g>
<!-- Node1&#45;&gt;Node2 -->
<g id="edge1" class="edge"><title>Node1&#45;&gt;Node2</title>
<path fill="none" stroke="midnightblue" d="M70.1396,-35.6996C78.5926,-37.1465 87.6018,-38.6886 96.2814,-40.1743"/>
<polygon fill="midnightblue" stroke="midnightblue" points="70.6111,-32.2295 60.1639,-33.992 69.4301,-39.1291 70.6111,-32.2295"/>
</g>
<!-- Node3 -->
<g id="node3" class="node"><title>Node3</title>
<g id="a_node3"><a xlink:href="iutils_8c.html#ac8fed0eb9501e0cdf9ee92fb58c0d8eb" target="_top" xlink:title="ifast_smallpow">
<polygon fill="white" stroke="black" points="102,-0.5 102,-19.5 184,-19.5 184,-0.5 102,-0.5"/>
<text text-anchor="middle" x="143" y="-7.5" font-family="Helvetica,sans-Serif" font-size="10.00">ifast_smallpow</text>
</a>
</g>
</g>
<!-- Node1&#45;&gt;Node3 -->
<g id="edge2" class="edge"><title>Node1&#45;&gt;Node3</title>
<path fill="none" stroke="midnightblue" d="M70.0942,-22.3082C80.3573,-20.5514 91.4429,-18.6539 101.765,-16.8871"/>
<polygon fill="midnightblue" stroke="midnightblue" points="69.43,-18.8709 60.1639,-24.008 70.6111,-25.7705 69.43,-18.8709"/>
</g>
<!-- Node4 -->
<g id="node4" class="node"><title>Node4</title>
<g id="a_node4"><a xlink:href="iutils_8c.html#ad9b6aaf19fdac7482cc5e8bbb77cb796" target="_top" xlink:title="ifast_bigpow">
<polygon fill="white" stroke="black" points="226.5,-0.5 226.5,-19.5 297.5,-19.5 297.5,-0.5 226.5,-0.5"/>
<text text-anchor="middle" x="262" y="-7.5" font-family="Helvetica,sans-Serif" font-size="10.00">ifast_bigpow</text>
</a>
</g>
</g>
<!-- Node3&#45;&gt;Node4 -->
<g id="edge3" class="edge"><title>Node3&#45;&gt;Node4</title>
<path fill="none" stroke="midnightblue" d="M194.368,-10C205.074,-10 216.151,-10 226.126,-10"/>
<polygon fill="midnightblue" stroke="midnightblue" points="194.265,-6.5001 184.265,-10 194.265,-13.5001 194.265,-6.5001"/>
</g>
</g>
</svg>
