<?xml version="1.0" encoding="UTF-8" standalone="no"?>
<!DOCTYPE svg PUBLIC "-//W3C//DTD SVG 1.1//EN"
 "http://www.w3.org/Graphics/SVG/1.1/DTD/svg11.dtd">
<!-- Generated by graphviz version 2.36.0 (20140111.2315)
 -->
<!-- Title: inew_linked Pages: 1 -->
<svg width="410pt" height="115pt"
 viewBox="0.00 0.00 410.00 115.00" xmlns="http://www.w3.org/2000/svg" xmlns:xlink="http://www.w3.org/1999/xlink">
<g id="graph0" class="graph" transform="scale(1 1) rotate(0) translate(4 111)">
<title>inew_linked</title>
<polygon fill="white" stroke="none" points="-4,4 -4,-111 406,-111 406,4 -4,4"/>
<!-- Node1 -->
<g id="node1" class="node"><title>Node1</title>
<polygon fill="#bfbfbf" stroke="black" points="0,-19.5 0,-38.5 68,-38.5 68,-19.5 0,-19.5"/>
<text text-anchor="middle" x="34" y="-26.5" font-family="Helvetica,sans-Serif" font-size="10.00">inew_linked</text>
</g>
<!-- Node2 -->
<g id="node2" class="node"><title>Node2</title>
<g id="a_node2"><a xlink:href="icoordinates_8h.html#a4507e51c1f2470e19e8ff5a77adf54bd" target="_top" xlink:title="icreate_region">
<polygon fill="white" stroke="black" points="113.5,-38.5 113.5,-57.5 190.5,-57.5 190.5,-38.5 113.5,-38.5"/>
<text text-anchor="middle" x="152" y="-45.5" font-family="Helvetica,sans-Serif" font-size="10.00">icreate_region</text>
</a>
</g>
</g>
<!-- Node1&#45;&gt;Node2 -->
<g id="edge1" class="edge"><title>Node1&#45;&gt;Node2</title>
<path fill="none" stroke="midnightblue" d="M78.1145,-36.0619C89.6541,-37.952 102.037,-39.9802 113.262,-41.8187"/>
<polygon fill="midnightblue" stroke="midnightblue" points="78.6752,-32.6071 68.2409,-34.4446 77.5437,-39.5151 78.6752,-32.6071"/>
</g>
<!-- Node6 -->
<g id="node6" class="node"><title>Node6</title>
<g id="a_node6"><a xlink:href="iprimitives_8h.html#a32c313b4080f6b2ce22b65bbd1ad9236" target="_top" xlink:title="iobject_add_triplet">
<polygon fill="white" stroke="black" points="104.5,-0.5 104.5,-19.5 199.5,-19.5 199.5,-0.5 104.5,-0.5"/>
<text text-anchor="middle" x="152" y="-7.5" font-family="Helvetica,sans-Serif" font-size="10.00">iobject_add_triplet</text>
</a>
</g>
</g>
<!-- Node1&#45;&gt;Node6 -->
<g id="edge6" class="edge"><title>Node1&#45;&gt;Node6</title>
<path fill="none" stroke="midnightblue" d="M78.3244,-21.9038C86.8176,-20.5126 95.7601,-19.0479 104.356,-17.6399"/>
<polygon fill="midnightblue" stroke="midnightblue" points="77.5437,-18.4849 68.2409,-23.5554 78.6752,-25.3929 77.5437,-18.4849"/>
</g>
<!-- Node3 -->
<g id="node3" class="node"><title>Node3</title>
<g id="a_node3"><a xlink:href="frontend__opengl__linux_8c.html#aeac975aee6becbb83f7fac162d290fe0" target="_top" xlink:title="frontend_initialize\l_viewspace">
<polygon fill="white" stroke="black" points="236,-77 236,-107 328,-107 328,-77 236,-77"/>
<text text-anchor="start" x="244" y="-95" font-family="Helvetica,sans-Serif" font-size="10.00">frontend_initialize</text>
<text text-anchor="middle" x="282" y="-84" font-family="Helvetica,sans-Serif" font-size="10.00">_viewspace</text>
</a>
</g>
</g>
<!-- Node2&#45;&gt;Node3 -->
<g id="edge2" class="edge"><title>Node2&#45;&gt;Node3</title>
<path fill="none" stroke="midnightblue" d="M190.494,-60.8884C205.12,-65.9163 221.991,-71.7155 237.173,-76.9346"/>
<polygon fill="midnightblue" stroke="midnightblue" points="191.369,-57.4883 180.774,-57.5473 189.093,-64.1081 191.369,-57.4883"/>
</g>
<!-- Node5 -->
<g id="node5" class="node"><title>Node5</title>
<g id="a_node5"><a xlink:href="icoordinates_8h.html#a045ac96ebb3a6309f1fc2fd44381c45f" target="_top" xlink:title="inew_point">
<polygon fill="white" stroke="black" points="250.5,-38.5 250.5,-57.5 313.5,-57.5 313.5,-38.5 250.5,-38.5"/>
<text text-anchor="middle" x="282" y="-45.5" font-family="Helvetica,sans-Serif" font-size="10.00">inew_point</text>
</a>
</g>
</g>
<!-- Node2&#45;&gt;Node5 -->
<g id="edge4" class="edge"><title>Node2&#45;&gt;Node5</title>
<path fill="none" stroke="midnightblue" d="M200.811,-48C217.424,-48 235.595,-48 250.432,-48"/>
<polygon fill="midnightblue" stroke="midnightblue" points="200.712,-44.5001 190.712,-48 200.712,-51.5001 200.712,-44.5001"/>
</g>
<!-- Node4 -->
<g id="node4" class="node"><title>Node4</title>
<g id="a_node4"><a xlink:href="inferno_8c.html#a0ddf1224851353fc92bfbff6f499fa97" target="_top" xlink:title="main">
<polygon fill="white" stroke="black" points="364,-38.5 364,-57.5 402,-57.5 402,-38.5 364,-38.5"/>
<text text-anchor="middle" x="383" y="-45.5" font-family="Helvetica,sans-Serif" font-size="10.00">main</text>
</a>
</g>
</g>
<!-- Node3&#45;&gt;Node4 -->
<g id="edge3" class="edge"><title>Node3&#45;&gt;Node4</title>
<path fill="none" stroke="midnightblue" d="M326.266,-72.7706C339.498,-66.8899 353.333,-60.7408 363.909,-56.0403"/>
<polygon fill="midnightblue" stroke="midnightblue" points="324.51,-69.721 316.793,-76.9808 327.353,-76.1177 324.51,-69.721"/>
</g>
<!-- Node5&#45;&gt;Node4 -->
<g id="edge5" class="edge"><title>Node5&#45;&gt;Node4</title>
<path fill="none" stroke="midnightblue" d="M323.885,-48C337.788,-48 352.627,-48 363.83,-48"/>
<polygon fill="midnightblue" stroke="midnightblue" points="323.511,-44.5001 313.511,-48 323.511,-51.5001 323.511,-44.5001"/>
</g>
<!-- Node6&#45;&gt;Node4 -->
<g id="edge7" class="edge"><title>Node6&#45;&gt;Node4</title>
<path fill="none" stroke="midnightblue" d="M209.896,-12.856C244.392,-15.4059 289.108,-20.1708 328,-29 340.212,-31.7723 353.484,-36.4183 363.814,-40.4221"/>
<polygon fill="midnightblue" stroke="midnightblue" points="209.756,-9.33775 199.537,-12.1337 209.269,-16.3208 209.756,-9.33775"/>
</g>
</g>
</svg>
