<?xml version="1.0" encoding="UTF-8" standalone="no"?>
<!DOCTYPE svg PUBLIC "-//W3C//DTD SVG 1.1//EN"
 "http://www.w3.org/Graphics/SVG/1.1/DTD/svg11.dtd">
<!-- Generated by graphviz version 2.36.0 (20140111.2315)
 -->
<!-- Title: iadd_linked Pages: 1 -->
<svg width="410pt" height="153pt"
 viewBox="0.00 0.00 410.00 153.00" xmlns="http://www.w3.org/2000/svg" xmlns:xlink="http://www.w3.org/1999/xlink">
<g id="graph0" class="graph" transform="scale(1 1) rotate(0) translate(4 149)">
<title>iadd_linked</title>
<polygon fill="white" stroke="none" points="-4,4 -4,-149 406,-149 406,4 -4,4"/>
<!-- Node1 -->
<g id="node1" class="node"><title>Node1</title>
<polygon fill="#bfbfbf" stroke="black" points="0.5,-38.5 0.5,-57.5 65.5,-57.5 65.5,-38.5 0.5,-38.5"/>
<text text-anchor="middle" x="33" y="-45.5" font-family="Helvetica,sans-Serif" font-size="10.00">iadd_linked</text>
</g>
<!-- Node2 -->
<g id="node2" class="node"><title>Node2</title>
<g id="a_node2"><a xlink:href="icoordinates_8h.html#a4507e51c1f2470e19e8ff5a77adf54bd" target="_top" xlink:title="icreate_region">
<polygon fill="white" stroke="black" points="110.5,-76.5 110.5,-95.5 187.5,-95.5 187.5,-76.5 110.5,-76.5"/>
<text text-anchor="middle" x="149" y="-83.5" font-family="Helvetica,sans-Serif" font-size="10.00">icreate_region</text>
</a>
</g>
</g>
<!-- Node1&#45;&gt;Node2 -->
<g id="edge1" class="edge"><title>Node1&#45;&gt;Node2</title>
<path fill="none" stroke="midnightblue" d="M72.4778,-60.8259C87.7742,-65.9247 105.067,-71.6891 119.242,-76.4141"/>
<polygon fill="midnightblue" stroke="midnightblue" points="73.3607,-57.431 62.767,-57.589 71.147,-64.0717 73.3607,-57.431"/>
</g>
<!-- Node6 -->
<g id="node6" class="node"><title>Node6</title>
<g id="a_node6"><a xlink:href="iprimitives_8h.html#a32c313b4080f6b2ce22b65bbd1ad9236" target="_top" xlink:title="iobject_add_triplet">
<polygon fill="white" stroke="black" points="232.5,-38.5 232.5,-57.5 327.5,-57.5 327.5,-38.5 232.5,-38.5"/>
<text text-anchor="middle" x="280" y="-45.5" font-family="Helvetica,sans-Serif" font-size="10.00">iobject_add_triplet</text>
</a>
</g>
</g>
<!-- Node1&#45;&gt;Node6 -->
<g id="edge6" class="edge"><title>Node1&#45;&gt;Node6</title>
<path fill="none" stroke="midnightblue" d="M75.735,-48C119.116,-48 186.872,-48 232.082,-48"/>
<polygon fill="midnightblue" stroke="midnightblue" points="75.5279,-44.5001 65.5279,-48 75.5279,-51.5001 75.5279,-44.5001"/>
</g>
<!-- Node7 -->
<g id="node7" class="node"><title>Node7</title>
<g id="a_node7"><a xlink:href="iutils_8h.html#aadd9a7c0a870d973f29968dfb6ed8480" target="_top" xlink:title="iaddunique_linked">
<polygon fill="white" stroke="black" points="102,-0.5 102,-19.5 196,-19.5 196,-0.5 102,-0.5"/>
<text text-anchor="middle" x="149" y="-7.5" font-family="Helvetica,sans-Serif" font-size="10.00">iaddunique_linked</text>
</a>
</g>
</g>
<!-- Node1&#45;&gt;Node7 -->
<g id="edge8" class="edge"><title>Node1&#45;&gt;Node7</title>
<path fill="none" stroke="midnightblue" d="M72.4778,-35.1741C87.7742,-30.0753 105.067,-24.3109 119.242,-19.5859"/>
<polygon fill="midnightblue" stroke="midnightblue" points="71.147,-31.9283 62.767,-38.411 73.3607,-38.569 71.147,-31.9283"/>
</g>
<!-- Node3 -->
<g id="node3" class="node"><title>Node3</title>
<g id="a_node3"><a xlink:href="frontend__opengl__linux_8c.html#aeac975aee6becbb83f7fac162d290fe0" target="_top" xlink:title="frontend_initialize\l_viewspace">
<polygon fill="white" stroke="black" points="234,-115 234,-145 326,-145 326,-115 234,-115"/>
<text text-anchor="start" x="242" y="-133" font-family="Helvetica,sans-Serif" font-size="10.00">frontend_initialize</text>
<text text-anchor="middle" x="280" y="-122" font-family="Helvetica,sans-Serif" font-size="10.00">_viewspace</text>
</a>
</g>
</g>
<!-- Node2&#45;&gt;Node3 -->
<g id="edge2" class="edge"><title>Node2&#45;&gt;Node3</title>
<path fill="none" stroke="midnightblue" d="M187.786,-98.8884C202.527,-103.916 219.53,-109.715 234.831,-114.935"/>
<polygon fill="midnightblue" stroke="midnightblue" points="188.586,-95.463 177.991,-95.5473 186.326,-102.088 188.586,-95.463"/>
</g>
<!-- Node5 -->
<g id="node5" class="node"><title>Node5</title>
<g id="a_node5"><a xlink:href="icoordinates_8h.html#a045ac96ebb3a6309f1fc2fd44381c45f" target="_top" xlink:title="inew_point">
<polygon fill="white" stroke="black" points="248.5,-76.5 248.5,-95.5 311.5,-95.5 311.5,-76.5 248.5,-76.5"/>
<text text-anchor="middle" x="280" y="-83.5" font-family="Helvetica,sans-Serif" font-size="10.00">inew_point</text>
</a>
</g>
</g>
<!-- Node2&#45;&gt;Node5 -->
<g id="edge4" class="edge"><title>Node2&#45;&gt;Node5</title>
<path fill="none" stroke="midnightblue" d="M197.93,-86C214.838,-86 233.376,-86 248.452,-86"/>
<polygon fill="midnightblue" stroke="midnightblue" points="197.659,-82.5001 187.659,-86 197.659,-89.5001 197.659,-82.5001"/>
</g>
<!-- Node4 -->
<g id="node4" class="node"><title>Node4</title>
<g id="a_node4"><a xlink:href="inferno_8c.html#a0ddf1224851353fc92bfbff6f499fa97" target="_top" xlink:title="main">
<polygon fill="white" stroke="black" points="364,-76.5 364,-95.5 402,-95.5 402,-76.5 364,-76.5"/>
<text text-anchor="middle" x="383" y="-83.5" font-family="Helvetica,sans-Serif" font-size="10.00">main</text>
</a>
</g>
</g>
<!-- Node3&#45;&gt;Node4 -->
<g id="edge3" class="edge"><title>Node3&#45;&gt;Node4</title>
<path fill="none" stroke="midnightblue" d="M324.814,-110.913C338.53,-104.937 352.917,-98.67 363.828,-93.9163"/>
<polygon fill="midnightblue" stroke="midnightblue" points="323.246,-107.778 315.476,-114.981 326.042,-114.196 323.246,-107.778"/>
</g>
<!-- Node5&#45;&gt;Node4 -->
<g id="edge5" class="edge"><title>Node5&#45;&gt;Node4</title>
<path fill="none" stroke="midnightblue" d="M321.92,-86C336.493,-86 352.17,-86 363.855,-86"/>
<polygon fill="midnightblue" stroke="midnightblue" points="321.577,-82.5001 311.577,-86 321.577,-89.5001 321.577,-82.5001"/>
</g>
<!-- Node6&#45;&gt;Node4 -->
<g id="edge7" class="edge"><title>Node6&#45;&gt;Node4</title>
<path fill="none" stroke="midnightblue" d="M316.137,-61.2198C332.219,-67.2705 350.599,-74.1857 363.848,-79.1707"/>
<polygon fill="midnightblue" stroke="midnightblue" points="317.079,-57.8346 306.487,-57.589 314.614,-64.3863 317.079,-57.8346"/>
</g>
</g>
</svg>
