<?xml version="1.0" encoding="UTF-8" standalone="no"?>
<!DOCTYPE svg PUBLIC "-//W3C//DTD SVG 1.1//EN"
 "http://www.w3.org/Graphics/SVG/1.1/DTD/svg11.dtd">
<!-- Generated by graphviz version 2.36.0 (20140111.2315)
 -->
<!-- Title: igetfirst_linked Pages: 1 -->
<svg width="450pt" height="184pt"
 viewBox="0.00 0.00 450.00 184.00" xmlns="http://www.w3.org/2000/svg" xmlns:xlink="http://www.w3.org/1999/xlink">
<g id="graph0" class="graph" transform="scale(1 1) rotate(0) translate(4 180)">
<title>igetfirst_linked</title>
<polygon fill="white" stroke="none" points="-4,4 -4,-180 446,-180 446,4 -4,4"/>
<!-- Node1 -->
<g id="node1" class="node"><title>Node1</title>
<polygon fill="#bfbfbf" stroke="black" points="0,-76.5 0,-95.5 80,-95.5 80,-76.5 0,-76.5"/>
<text text-anchor="middle" x="40" y="-83.5" font-family="Helvetica,sans-Serif" font-size="10.00">igetfirst_linked</text>
</g>
<!-- Node2 -->
<g id="node2" class="node"><title>Node2</title>
<g id="a_node2"><a xlink:href="icoordinates_8h.html#a045ac96ebb3a6309f1fc2fd44381c45f" target="_top" xlink:title="inew_point">
<polygon fill="white" stroke="black" points="289.5,-156.5 289.5,-175.5 352.5,-175.5 352.5,-156.5 289.5,-156.5"/>
<text text-anchor="middle" x="321" y="-163.5" font-family="Helvetica,sans-Serif" font-size="10.00">inew_point</text>
</a>
</g>
</g>
<!-- Node1&#45;&gt;Node2 -->
<g id="edge1" class="edge"><title>Node1&#45;&gt;Node2</title>
<path fill="none" stroke="midnightblue" d="M57.5572,-102.854C71.7431,-116.163 93.4106,-133.949 116,-143 174.063,-166.263 248.391,-168.44 289.395,-167.508"/>
<polygon fill="midnightblue" stroke="midnightblue" points="59.7326,-100.088 50.119,-95.6348 54.8574,-105.111 59.7326,-100.088"/>
</g>
<!-- Node4 -->
<g id="node4" class="node"><title>Node4</title>
<g id="a_node4"><a xlink:href="icoordinates_8h.html#a4507e51c1f2470e19e8ff5a77adf54bd" target="_top" xlink:title="icreate_region">
<polygon fill="white" stroke="black" points="138.5,-114.5 138.5,-133.5 215.5,-133.5 215.5,-114.5 138.5,-114.5"/>
<text text-anchor="middle" x="177" y="-121.5" font-family="Helvetica,sans-Serif" font-size="10.00">icreate_region</text>
</a>
</g>
</g>
<!-- Node1&#45;&gt;Node4 -->
<g id="edge3" class="edge"><title>Node1&#45;&gt;Node4</title>
<path fill="none" stroke="midnightblue" d="M84.7625,-98.3183C103.311,-103.539 124.599,-109.532 141.945,-114.414"/>
<polygon fill="midnightblue" stroke="midnightblue" points="85.6405,-94.9295 75.0662,-95.589 83.7438,-101.668 85.6405,-94.9295"/>
</g>
<!-- Node6 -->
<g id="node6" class="node"><title>Node6</title>
<g id="a_node6"><a xlink:href="iprimitives_8h.html#ad14816b7b9d9bc34ae7098efadf43add" target="_top" xlink:title="iprint_object">
<polygon fill="white" stroke="black" points="286.5,-68.5 286.5,-87.5 355.5,-87.5 355.5,-68.5 286.5,-68.5"/>
<text text-anchor="middle" x="321" y="-75.5" font-family="Helvetica,sans-Serif" font-size="10.00">iprint_object</text>
</a>
</g>
</g>
<!-- Node1&#45;&gt;Node6 -->
<g id="edge7" class="edge"><title>Node1&#45;&gt;Node6</title>
<path fill="none" stroke="midnightblue" d="M90.2008,-84.5892C146.612,-82.9717 237.569,-80.3636 286.416,-78.963"/>
<polygon fill="midnightblue" stroke="midnightblue" points="89.9831,-81.0939 80.0875,-84.8792 90.1838,-88.0911 89.9831,-81.0939"/>
</g>
<!-- Node7 -->
<g id="node7" class="node"><title>Node7</title>
<g id="a_node7"><a xlink:href="iutils_8h.html#af19f54fefe2f16b8a7fba23fc7f67de5" target="_top" xlink:title="igetclosest_point_linked">
<polygon fill="white" stroke="black" points="116.5,-38.5 116.5,-57.5 237.5,-57.5 237.5,-38.5 116.5,-38.5"/>
<text text-anchor="middle" x="177" y="-45.5" font-family="Helvetica,sans-Serif" font-size="10.00">igetclosest_point_linked</text>
</a>
</g>
</g>
<!-- Node1&#45;&gt;Node7 -->
<g id="edge9" class="edge"><title>Node1&#45;&gt;Node7</title>
<path fill="none" stroke="midnightblue" d="M84.7625,-73.6817C103.311,-68.4607 124.599,-62.4684 141.945,-57.5859"/>
<polygon fill="midnightblue" stroke="midnightblue" points="83.7438,-70.3323 75.0662,-76.411 85.6405,-77.0705 83.7438,-70.3323"/>
</g>
<!-- Node8 -->
<g id="node8" class="node"><title>Node8</title>
<g id="a_node8"><a xlink:href="iutils_8h.html#a0ebe4fcebc989b963635264358e68403" target="_top" xlink:title="icontains_linked">
<polygon fill="white" stroke="black" points="134,-0.5 134,-19.5 220,-19.5 220,-0.5 134,-0.5"/>
<text text-anchor="middle" x="177" y="-7.5" font-family="Helvetica,sans-Serif" font-size="10.00">icontains_linked</text>
</a>
</g>
</g>
<!-- Node1&#45;&gt;Node8 -->
<g id="edge10" class="edge"><title>Node1&#45;&gt;Node8</title>
<path fill="none" stroke="midnightblue" d="M59.0635,-69.4177C73.5489,-56.8566 94.8811,-39.9484 116,-29 123.178,-25.2786 131.22,-22.1211 139.026,-19.5124"/>
<polygon fill="midnightblue" stroke="midnightblue" points="56.5381,-66.9792 51.3792,-76.2332 61.183,-72.2161 56.5381,-66.9792"/>
</g>
<!-- Node3 -->
<g id="node3" class="node"><title>Node3</title>
<g id="a_node3"><a xlink:href="inferno_8c.html#a0ddf1224851353fc92bfbff6f499fa97" target="_top" xlink:title="main">
<polygon fill="white" stroke="black" points="404,-112.5 404,-131.5 442,-131.5 442,-112.5 404,-112.5"/>
<text text-anchor="middle" x="423" y="-119.5" font-family="Helvetica,sans-Serif" font-size="10.00">main</text>
</a>
</g>
</g>
<!-- Node2&#45;&gt;Node3 -->
<g id="edge2" class="edge"><title>Node2&#45;&gt;Node3</title>
<path fill="none" stroke="midnightblue" d="M353.262,-152.448C358.196,-150.298 363.239,-148.093 368,-146 379.834,-140.798 393.1,-134.903 403.522,-130.257"/>
<polygon fill="midnightblue" stroke="midnightblue" points="351.783,-149.275 344.01,-156.473 354.576,-155.693 351.783,-149.275"/>
</g>
<!-- Node4&#45;&gt;Node2 -->
<g id="edge6" class="edge"><title>Node4&#45;&gt;Node2</title>
<path fill="none" stroke="midnightblue" d="M220.078,-136.446C242.316,-143.023 269.12,-150.951 289.366,-156.939"/>
<polygon fill="midnightblue" stroke="midnightblue" points="220.804,-133.011 210.222,-133.53 218.819,-139.723 220.804,-133.011"/>
</g>
<!-- Node5 -->
<g id="node5" class="node"><title>Node5</title>
<g id="a_node5"><a xlink:href="frontend__opengl__linux_8c.html#aeac975aee6becbb83f7fac162d290fe0" target="_top" xlink:title="frontend_initialize\l_viewspace">
<polygon fill="white" stroke="black" points="275,-107 275,-137 367,-137 367,-107 275,-107"/>
<text text-anchor="start" x="283" y="-125" font-family="Helvetica,sans-Serif" font-size="10.00">frontend_initialize</text>
<text text-anchor="middle" x="321" y="-114" font-family="Helvetica,sans-Serif" font-size="10.00">_viewspace</text>
</a>
</g>
</g>
<!-- Node4&#45;&gt;Node5 -->
<g id="edge4" class="edge"><title>Node4&#45;&gt;Node5</title>
<path fill="none" stroke="midnightblue" d="M225.795,-123.327C241.623,-123.104 259.181,-122.857 274.807,-122.637"/>
<polygon fill="midnightblue" stroke="midnightblue" points="225.63,-119.829 215.681,-123.469 225.729,-126.828 225.63,-119.829"/>
</g>
<!-- Node5&#45;&gt;Node3 -->
<g id="edge5" class="edge"><title>Node5&#45;&gt;Node3</title>
<path fill="none" stroke="midnightblue" d="M377.16,-122C386.853,-122 396.284,-122 403.976,-122"/>
<polygon fill="midnightblue" stroke="midnightblue" points="377.027,-118.5 367.027,-122 377.027,-125.5 377.027,-118.5"/>
</g>
<!-- Node6&#45;&gt;Node3 -->
<g id="edge8" class="edge"><title>Node6&#45;&gt;Node3</title>
<path fill="none" stroke="midnightblue" d="M355.228,-91.5308C359.537,-93.3421 363.882,-95.1971 368,-97 379.924,-102.22 393.192,-108.358 403.592,-113.246"/>
<polygon fill="midnightblue" stroke="midnightblue" points="356.533,-88.2826 345.955,-87.6723 353.843,-94.7455 356.533,-88.2826"/>
</g>
<!-- Node9 -->
<g id="node9" class="node"><title>Node9</title>
<g id="a_node9"><a xlink:href="iutils_8h.html#aadd9a7c0a870d973f29968dfb6ed8480" target="_top" xlink:title="iaddunique_linked">
<polygon fill="white" stroke="black" points="274,-0.5 274,-19.5 368,-19.5 368,-0.5 274,-0.5"/>
<text text-anchor="middle" x="321" y="-7.5" font-family="Helvetica,sans-Serif" font-size="10.00">iaddunique_linked</text>
</a>
</g>
</g>
<!-- Node8&#45;&gt;Node9 -->
<g id="edge11" class="edge"><title>Node8&#45;&gt;Node9</title>
<path fill="none" stroke="midnightblue" d="M230.4,-10C244.693,-10 260.068,-10 273.977,-10"/>
<polygon fill="midnightblue" stroke="midnightblue" points="230.22,-6.5001 220.22,-10 230.22,-13.5001 230.22,-6.5001"/>
</g>
</g>
</svg>
