<?xml version="1.0" encoding="UTF-8" standalone="no"?>
<!DOCTYPE svg PUBLIC "-//W3C//DTD SVG 1.1//EN"
 "http://www.w3.org/Graphics/SVG/1.1/DTD/svg11.dtd">
<!-- Generated by graphviz version 2.36.0 (20140111.2315)
 -->
<!-- Title: iset_linked Pages: 1 -->
<svg width="268pt" height="84pt"
 viewBox="0.00 0.00 268.00 84.00" xmlns="http://www.w3.org/2000/svg" xmlns:xlink="http://www.w3.org/1999/xlink">
<g id="graph0" class="graph" transform="scale(1 1) rotate(0) translate(4 80)">
<title>iset_linked</title>
<polygon fill="white" stroke="none" points="-4,4 -4,-80 264,-80 264,4 -4,4"/>
<!-- Node1 -->
<g id="node1" class="node"><title>Node1</title>
<polygon fill="#bfbfbf" stroke="black" points="0.5,-19.5 0.5,-38.5 63.5,-38.5 63.5,-19.5 0.5,-19.5"/>
<text text-anchor="middle" x="32" y="-26.5" font-family="Helvetica,sans-Serif" font-size="10.00">iset_linked</text>
</g>
<!-- Node2 -->
<g id="node2" class="node"><title>Node2</title>
<g id="a_node2"><a xlink:href="error_8c.html#ab10bea042bb9daa7a0e027197b8080e5" target="_top" xlink:title="ierror">
<polygon fill="white" stroke="black" points="113,-38.5 113,-57.5 151,-57.5 151,-38.5 113,-38.5"/>
<text text-anchor="middle" x="132" y="-45.5" font-family="Helvetica,sans-Serif" font-size="10.00">ierror</text>
</a>
</g>
</g>
<!-- Node1&#45;&gt;Node2 -->
<g id="edge1" class="edge"><title>Node1&#45;&gt;Node2</title>
<path fill="none" stroke="midnightblue" d="M63.7389,-34.9596C76.2426,-37.3838 90.5975,-40.1669 102.826,-42.5377"/>
<polygon fill="midnightblue" stroke="midnightblue" points="102.442,-46.0283 112.925,-44.4957 103.774,-39.1563 102.442,-46.0283"/>
</g>
<!-- Node4 -->
<g id="node4" class="node"><title>Node4</title>
<g id="a_node4"><a xlink:href="iutils_8c.html#afa917800755bb3e467deb597d34f674e" target="_top" xlink:title="iget_linked">
<polygon fill="white" stroke="black" points="100.5,-0.5 100.5,-19.5 163.5,-19.5 163.5,-0.5 100.5,-0.5"/>
<text text-anchor="middle" x="132" y="-7.5" font-family="Helvetica,sans-Serif" font-size="10.00">iget_linked</text>
</a>
</g>
</g>
<!-- Node1&#45;&gt;Node4 -->
<g id="edge4" class="edge"><title>Node1&#45;&gt;Node4</title>
<path fill="none" stroke="midnightblue" d="M63.7389,-23.0404C72.2221,-21.3957 81.5573,-19.5858 90.5026,-17.8515"/>
<polygon fill="midnightblue" stroke="midnightblue" points="91.2191,-21.2779 100.37,-15.9384 89.8868,-14.4058 91.2191,-21.2779"/>
</g>
<!-- Node2&#45;&gt;Node2 -->
<g id="edge3" class="edge"><title>Node2&#45;&gt;Node2</title>
<path fill="none" stroke="midnightblue" d="M116.895,-57.7571C109.547,-66.5653 114.582,-76 132,-76 142.886,-76 148.935,-72.3146 150.147,-67.4"/>
<polygon fill="midnightblue" stroke="midnightblue" points="153.452,-66.2404 147.105,-57.7571 146.776,-68.3468 153.452,-66.2404"/>
</g>
<!-- Node3 -->
<g id="node3" class="node"><title>Node3</title>
<g id="a_node3"><a xlink:href="error_8c.html#ac1727d6e8e99b92957a0a7099d19d6f4" target="_top" xlink:title="print_error">
<polygon fill="white" stroke="black" points="200,-38.5 200,-57.5 260,-57.5 260,-38.5 200,-38.5"/>
<text text-anchor="middle" x="230" y="-45.5" font-family="Helvetica,sans-Serif" font-size="10.00">print_error</text>
</a>
</g>
</g>
<!-- Node2&#45;&gt;Node3 -->
<g id="edge2" class="edge"><title>Node2&#45;&gt;Node3</title>
<path fill="none" stroke="midnightblue" d="M151.057,-48C161.857,-48 176.024,-48 189.314,-48"/>
<polygon fill="midnightblue" stroke="midnightblue" points="189.704,-51.5001 199.704,-48 189.704,-44.5001 189.704,-51.5001"/>
</g>
</g>
</svg>
