<?xml version="1.0" encoding="UTF-8" standalone="no"?>
<!DOCTYPE svg PUBLIC "-//W3C//DTD SVG 1.1//EN"
 "http://www.w3.org/Graphics/SVG/1.1/DTD/svg11.dtd">
<!-- Generated by graphviz version 2.36.0 (20140111.2315)
 -->
<!-- Title: icontains_linked Pages: 1 -->
<svg width="380pt" height="46pt"
 viewBox="0.00 0.00 380.00 46.00" xmlns="http://www.w3.org/2000/svg" xmlns:xlink="http://www.w3.org/1999/xlink">
<g id="graph0" class="graph" transform="scale(1 1) rotate(0) translate(4 42)">
<title>icontains_linked</title>
<polygon fill="white" stroke="none" points="-4,4 -4,-42 376,-42 376,4 -4,4"/>
<!-- Node1 -->
<g id="node1" class="node"><title>Node1</title>
<polygon fill="#bfbfbf" stroke="black" points="0,-0.5 0,-19.5 86,-19.5 86,-0.5 0,-0.5"/>
<text text-anchor="middle" x="43" y="-7.5" font-family="Helvetica,sans-Serif" font-size="10.00">icontains_linked</text>
</g>
<!-- Node2 -->
<g id="node2" class="node"><title>Node2</title>
<g id="a_node2"><a xlink:href="iutils_8c.html#acf8aca63685fbd6b4c995516baedab14" target="_top" xlink:title="igetfirst_linked">
<polygon fill="white" stroke="black" points="122,-0.5 122,-19.5 202,-19.5 202,-0.5 122,-0.5"/>
<text text-anchor="middle" x="162" y="-7.5" font-family="Helvetica,sans-Serif" font-size="10.00">igetfirst_linked</text>
</a>
</g>
</g>
<!-- Node1&#45;&gt;Node2 -->
<g id="edge1" class="edge"><title>Node1&#45;&gt;Node2</title>
<path fill="none" stroke="midnightblue" d="M86.2397,-10C94.5229,-10 103.279,-10 111.767,-10"/>
<polygon fill="midnightblue" stroke="midnightblue" points="111.939,-13.5001 121.939,-10 111.939,-6.5001 111.939,-13.5001"/>
</g>
<!-- Node3 -->
<g id="node3" class="node"><title>Node3</title>
<g id="a_node3"><a xlink:href="error_8c.html#ab10bea042bb9daa7a0e027197b8080e5" target="_top" xlink:title="ierror">
<polygon fill="white" stroke="black" points="238,-0.5 238,-19.5 276,-19.5 276,-0.5 238,-0.5"/>
<text text-anchor="middle" x="257" y="-7.5" font-family="Helvetica,sans-Serif" font-size="10.00">ierror</text>
</a>
</g>
</g>
<!-- Node2&#45;&gt;Node3 -->
<g id="edge2" class="edge"><title>Node2&#45;&gt;Node3</title>
<path fill="none" stroke="midnightblue" d="M202.171,-10C210.635,-10 219.431,-10 227.399,-10"/>
<polygon fill="midnightblue" stroke="midnightblue" points="227.644,-13.5001 237.644,-10 227.644,-6.5001 227.644,-13.5001"/>
</g>
<!-- Node3&#45;&gt;Node3 -->
<g id="edge4" class="edge"><title>Node3&#45;&gt;Node3</title>
<path fill="none" stroke="midnightblue" d="M244.053,-19.7571C237.755,-28.5653 242.07,-38 257,-38 266.098,-38 271.254,-34.4965 272.469,-29.7663"/>
<polygon fill="midnightblue" stroke="midnightblue" points="275.784,-28.5986 269.947,-19.7571 268.997,-30.3092 275.784,-28.5986"/>
</g>
<!-- Node4 -->
<g id="node4" class="node"><title>Node4</title>
<g id="a_node4"><a xlink:href="error_8c.html#ac1727d6e8e99b92957a0a7099d19d6f4" target="_top" xlink:title="print_error">
<polygon fill="white" stroke="black" points="312,-0.5 312,-19.5 372,-19.5 372,-0.5 312,-0.5"/>
<text text-anchor="middle" x="342" y="-7.5" font-family="Helvetica,sans-Serif" font-size="10.00">print_error</text>
</a>
</g>
</g>
<!-- Node3&#45;&gt;Node4 -->
<g id="edge3" class="edge"><title>Node3&#45;&gt;Node4</title>
<path fill="none" stroke="midnightblue" d="M276.01,-10C283.631,-10 292.828,-10 301.874,-10"/>
<polygon fill="midnightblue" stroke="midnightblue" points="301.931,-13.5001 311.931,-10 301.931,-6.5001 301.931,-13.5001"/>
</g>
</g>
</svg>
