<?xml version="1.0" encoding="UTF-8" standalone="no"?>
<!DOCTYPE svg PUBLIC "-//W3C//DTD SVG 1.1//EN"
 "http://www.w3.org/Graphics/SVG/1.1/DTD/svg11.dtd">
<!-- Generated by graphviz version 2.36.0 (20140111.2315)
 -->
<!-- Title: src/iutils.c Pages: 1 -->
<svg width="370pt" height="252pt"
 viewBox="0.00 0.00 370.00 252.00" xmlns="http://www.w3.org/2000/svg" xmlns:xlink="http://www.w3.org/1999/xlink">
<g id="graph0" class="graph" transform="scale(1 1) rotate(0) translate(4 248)">
<title>src/iutils.c</title>
<polygon fill="white" stroke="none" points="-4,4 -4,-248 366,-248 366,4 -4,4"/>
<!-- Node1 -->
<g id="node1" class="node"><title>Node1</title>
<polygon fill="#bfbfbf" stroke="black" points="170,-224.5 170,-243.5 232,-243.5 232,-224.5 170,-224.5"/>
<text text-anchor="middle" x="201" y="-231.5" font-family="Helvetica,sans-Serif" font-size="10.00">src/iutils.c</text>
</g>
<!-- Node2 -->
<g id="node2" class="node"><title>Node2</title>
<polygon fill="white" stroke="#bfbfbf" points="36,-168.5 36,-187.5 82,-187.5 82,-168.5 36,-168.5"/>
<text text-anchor="middle" x="59" y="-175.5" font-family="Helvetica,sans-Serif" font-size="10.00">stdio.h</text>
</g>
<!-- Node1&#45;&gt;Node2 -->
<g id="edge1" class="edge"><title>Node1&#45;&gt;Node2</title>
<path fill="none" stroke="midnightblue" d="M178.5,-224.444C154.923,-215.478 117.678,-201.314 91.036,-191.183"/>
<polygon fill="midnightblue" stroke="midnightblue" points="91.9861,-187.8 81.3951,-187.516 89.4979,-194.342 91.9861,-187.8"/>
</g>
<!-- Node3 -->
<g id="node3" class="node"><title>Node3</title>
<polygon fill="white" stroke="#bfbfbf" points="100,-168.5 100,-187.5 148,-187.5 148,-168.5 100,-168.5"/>
<text text-anchor="middle" x="124" y="-175.5" font-family="Helvetica,sans-Serif" font-size="10.00">stdlib.h</text>
</g>
<!-- Node1&#45;&gt;Node3 -->
<g id="edge2" class="edge"><title>Node1&#45;&gt;Node3</title>
<path fill="none" stroke="midnightblue" d="M188.629,-224.324C176.842,-216.058 158.868,-203.453 144.864,-193.632"/>
<polygon fill="midnightblue" stroke="midnightblue" points="146.538,-190.531 136.341,-187.655 142.518,-196.262 146.538,-190.531"/>
</g>
<!-- Node4 -->
<g id="node4" class="node"><title>Node4</title>
<g id="a_node4"><a xlink:href="iutils_8h.html" target="_top" xlink:title="iutils.h">
<polygon fill="white" stroke="black" points="204.5,-168.5 204.5,-187.5 249.5,-187.5 249.5,-168.5 204.5,-168.5"/>
<text text-anchor="middle" x="227" y="-175.5" font-family="Helvetica,sans-Serif" font-size="10.00">iutils.h</text>
</a>
</g>
</g>
<!-- Node1&#45;&gt;Node4 -->
<g id="edge3" class="edge"><title>Node1&#45;&gt;Node4</title>
<path fill="none" stroke="midnightblue" d="M205.293,-224.083C208.852,-216.691 214.022,-205.953 218.424,-196.811"/>
<polygon fill="midnightblue" stroke="midnightblue" points="221.602,-198.279 222.787,-187.751 215.295,-195.243 221.602,-198.279"/>
</g>
<!-- Node5 -->
<g id="node5" class="node"><title>Node5</title>
<g id="a_node5"><a xlink:href="icoordinates_8h.html" target="_top" xlink:title="icoordinates.h">
<polygon fill="white" stroke="black" points="108.5,-112.5 108.5,-131.5 185.5,-131.5 185.5,-112.5 108.5,-112.5"/>
<text text-anchor="middle" x="147" y="-119.5" font-family="Helvetica,sans-Serif" font-size="10.00">icoordinates.h</text>
</a>
</g>
</g>
<!-- Node1&#45;&gt;Node5 -->
<g id="edge15" class="edge"><title>Node1&#45;&gt;Node5</title>
<path fill="none" stroke="midnightblue" d="M196.763,-224.368C187.93,-206.376 167.397,-164.55 155.653,-140.627"/>
<polygon fill="midnightblue" stroke="midnightblue" points="158.766,-139.026 151.218,-131.591 152.483,-142.11 158.766,-139.026"/>
</g>
<!-- Node10 -->
<g id="node10" class="node"><title>Node10</title>
<g id="a_node10"><a xlink:href="itypes_8h.html" target="_top" xlink:title="itypes.h">
<polygon fill="white" stroke="black" points="242.5,-56.5 242.5,-75.5 293.5,-75.5 293.5,-56.5 242.5,-56.5"/>
<text text-anchor="middle" x="268" y="-63.5" font-family="Helvetica,sans-Serif" font-size="10.00">itypes.h</text>
</a>
</g>
</g>
<!-- Node1&#45;&gt;Node10 -->
<g id="edge17" class="edge"><title>Node1&#45;&gt;Node10</title>
<path fill="none" stroke="midnightblue" d="M218.435,-224.355C231.743,-216.745 249.237,-204.331 258,-188 275.465,-155.45 273.705,-110.762 270.856,-85.8079"/>
<polygon fill="midnightblue" stroke="midnightblue" points="274.282,-85.0141 269.493,-75.5632 267.343,-85.9375 274.282,-85.0141"/>
</g>
<!-- Node11 -->
<g id="node11" class="node"><title>Node11</title>
<g id="a_node11"><a xlink:href="error_8h.html" target="_top" xlink:title="error.h">
<polygon fill="white" stroke="black" points="318,-168.5 318,-187.5 362,-187.5 362,-168.5 318,-168.5"/>
<text text-anchor="middle" x="340" y="-175.5" font-family="Helvetica,sans-Serif" font-size="10.00">error.h</text>
</a>
</g>
</g>
<!-- Node1&#45;&gt;Node11 -->
<g id="edge16" class="edge"><title>Node1&#45;&gt;Node11</title>
<path fill="none" stroke="midnightblue" d="M223.025,-224.444C246.104,-215.478 282.562,-201.314 308.641,-191.183"/>
<polygon fill="midnightblue" stroke="midnightblue" points="310.024,-194.4 318.078,-187.516 307.489,-187.875 310.024,-194.4"/>
</g>
<!-- Node4&#45;&gt;Node5 -->
<g id="edge4" class="edge"><title>Node4&#45;&gt;Node5</title>
<path fill="none" stroke="midnightblue" d="M214.147,-168.324C201.784,-159.979 182.87,-147.212 168.263,-137.352"/>
<polygon fill="midnightblue" stroke="midnightblue" points="170.068,-134.348 159.821,-131.655 166.152,-140.15 170.068,-134.348"/>
</g>
<!-- Node4&#45;&gt;Node10 -->
<g id="edge14" class="edge"><title>Node4&#45;&gt;Node10</title>
<path fill="none" stroke="midnightblue" d="M230.217,-168.368C236.864,-150.537 252.235,-109.295 261.19,-85.2717"/>
<polygon fill="midnightblue" stroke="midnightblue" points="264.585,-86.1841 264.798,-75.5914 258.026,-83.7393 264.585,-86.1841"/>
</g>
<!-- Node6 -->
<g id="node6" class="node"><title>Node6</title>
<g id="a_node6"><a xlink:href="frontend_8h.html" target="_top" xlink:title="frontend.h">
<polygon fill="white" stroke="black" points="88,-56.5 88,-75.5 148,-75.5 148,-56.5 88,-56.5"/>
<text text-anchor="middle" x="118" y="-63.5" font-family="Helvetica,sans-Serif" font-size="10.00">frontend.h</text>
</a>
</g>
</g>
<!-- Node5&#45;&gt;Node6 -->
<g id="edge5" class="edge"><title>Node5&#45;&gt;Node6</title>
<path fill="none" stroke="midnightblue" d="M137.045,-112.083C131.575,-104.77 125.473,-94.1814 121.309,-85.1034"/>
<polygon fill="midnightblue" stroke="midnightblue" points="124.532,-83.7363 117.569,-75.7511 118.032,-86.3358 124.532,-83.7363"/>
</g>
<!-- Node5&#45;&gt;Node10 -->
<g id="edge13" class="edge"><title>Node5&#45;&gt;Node10</title>
<path fill="none" stroke="midnightblue" d="M166.173,-112.444C185.909,-103.636 216.885,-89.8116 239.493,-79.722"/>
<polygon fill="midnightblue" stroke="midnightblue" points="241.211,-82.788 248.917,-75.5164 238.359,-76.3957 241.211,-82.788"/>
</g>
<!-- Node6&#45;&gt;Node5 -->
<g id="edge10" class="edge"><title>Node6&#45;&gt;Node5</title>
<path fill="none" stroke="midnightblue" d="M127.831,-75.7511C133.291,-83.0141 139.403,-93.589 143.596,-102.69"/>
<polygon fill="midnightblue" stroke="midnightblue" points="140.396,-104.114 147.378,-112.083 146.89,-101.499 140.396,-104.114"/>
</g>
<!-- Node7 -->
<g id="node7" class="node"><title>Node7</title>
<g id="a_node7"><a xlink:href="iprimitives_8h.html" target="_top" xlink:title="../iprimitives.h">
<polygon fill="white" stroke="black" points="150,-0.5 150,-19.5 228,-19.5 228,-0.5 150,-0.5"/>
<text text-anchor="middle" x="189" y="-7.5" font-family="Helvetica,sans-Serif" font-size="10.00">../iprimitives.h</text>
</a>
</g>
</g>
<!-- Node6&#45;&gt;Node7 -->
<g id="edge6" class="edge"><title>Node6&#45;&gt;Node7</title>
<path fill="none" stroke="midnightblue" d="M124.293,-56.324C133.458,-47.979 149.934,-35.2122 164.086,-25.3524"/>
<polygon fill="midnightblue" stroke="midnightblue" points="166.188,-28.156 172.511,-19.6545 162.267,-22.3576 166.188,-28.156"/>
</g>
<!-- Node8 -->
<g id="node8" class="node"><title>Node8</title>
<polygon fill="white" stroke="#bfbfbf" points="80,-0.5 80,-19.5 132,-19.5 132,-0.5 80,-0.5"/>
<text text-anchor="middle" x="106" y="-7.5" font-family="Helvetica,sans-Serif" font-size="10.00">X11/X.h</text>
</g>
<!-- Node6&#45;&gt;Node8 -->
<g id="edge11" class="edge"><title>Node6&#45;&gt;Node8</title>
<path fill="none" stroke="midnightblue" d="M116.018,-56.083C114.428,-48.9272 112.141,-38.6353 110.154,-29.6911"/>
<polygon fill="midnightblue" stroke="midnightblue" points="113.531,-28.7537 107.945,-19.7511 106.697,-30.2722 113.531,-28.7537"/>
</g>
<!-- Node9 -->
<g id="node9" class="node"><title>Node9</title>
<polygon fill="white" stroke="#bfbfbf" points="0,-0.5 0,-19.5 62,-19.5 62,-0.5 0,-0.5"/>
<text text-anchor="middle" x="31" y="-7.5" font-family="Helvetica,sans-Serif" font-size="10.00">X11/Xlib.h</text>
</g>
<!-- Node6&#45;&gt;Node9 -->
<g id="edge12" class="edge"><title>Node6&#45;&gt;Node9</title>
<path fill="none" stroke="midnightblue" d="M104.022,-56.324C90.4504,-47.9002 69.6198,-34.9709 53.675,-25.0741"/>
<polygon fill="midnightblue" stroke="midnightblue" points="55.2856,-21.9544 44.9434,-19.6545 51.594,-27.9019 55.2856,-21.9544"/>
</g>
<!-- Node7&#45;&gt;Node4 -->
<g id="edge8" class="edge"><title>Node7&#45;&gt;Node4</title>
<path fill="none" stroke="midnightblue" d="M190.961,-19.5681C196.836,-45.2312 214.391,-121.92 222.634,-157.93"/>
<polygon fill="midnightblue" stroke="midnightblue" points="219.314,-159.108 224.957,-168.075 226.137,-157.546 219.314,-159.108"/>
</g>
<!-- Node7&#45;&gt;Node5 -->
<g id="edge9" class="edge"><title>Node7&#45;&gt;Node5</title>
<path fill="none" stroke="midnightblue" d="M185.72,-19.5914C178.894,-37.4683 163.038,-78.9968 153.873,-102.998"/>
<polygon fill="midnightblue" stroke="midnightblue" points="150.593,-101.778 150.296,-112.368 157.133,-104.275 150.593,-101.778"/>
</g>
<!-- Node7&#45;&gt;Node6 -->
<g id="edge7" class="edge"><title>Node7&#45;&gt;Node6</title>
<path fill="none" stroke="midnightblue" d="M182.534,-19.8339C173.332,-28.1845 156.965,-40.8592 142.898,-50.6585"/>
<polygon fill="midnightblue" stroke="midnightblue" points="140.844,-47.8222 134.522,-56.324 144.766,-53.6205 140.844,-47.8222"/>
</g>
</g>
</svg>
