<?xml version="1.0" encoding="UTF-8" standalone="no"?>
<!DOCTYPE svg PUBLIC "-//W3C//DTD SVG 1.1//EN"
 "http://www.w3.org/Graphics/SVG/1.1/DTD/svg11.dtd">
<!-- Generated by graphviz version 2.36.0 (20140111.2315)
 -->
<!-- Title: src/iutils.h Pages: 1 -->
<svg width="278pt" height="196pt"
 viewBox="0.00 0.00 277.89 196.00" xmlns="http://www.w3.org/2000/svg" xmlns:xlink="http://www.w3.org/1999/xlink">
<g id="graph0" class="graph" transform="scale(1 1) rotate(0) translate(4 192)">
<title>src/iutils.h</title>
<polygon fill="white" stroke="none" points="-4,4 -4,-192 273.891,-192 273.891,4 -4,4"/>
<!-- Node1 -->
<g id="node1" class="node"><title>Node1</title>
<polygon fill="#bfbfbf" stroke="black" points="204,-168.5 204,-187.5 266,-187.5 266,-168.5 204,-168.5"/>
<text text-anchor="middle" x="235" y="-175.5" font-family="Helvetica,sans-Serif" font-size="10.00">src/iutils.h</text>
</g>
<!-- Node2 -->
<g id="node2" class="node"><title>Node2</title>
<g id="a_node2"><a xlink:href="icoordinates_8h.html" target="_top" xlink:title="icoordinates.h">
<polygon fill="white" stroke="black" points="129.5,-112.5 129.5,-131.5 206.5,-131.5 206.5,-112.5 129.5,-112.5"/>
<text text-anchor="middle" x="168" y="-119.5" font-family="Helvetica,sans-Serif" font-size="10.00">icoordinates.h</text>
</a>
</g>
</g>
<!-- Node1&#45;&gt;Node2 -->
<g id="edge1" class="edge"><title>Node1&#45;&gt;Node2</title>
<path fill="none" stroke="midnightblue" d="M224.235,-168.324C214.234,-160.263 199.113,-148.077 187.07,-138.369"/>
<polygon fill="midnightblue" stroke="midnightblue" points="188.943,-135.384 178.961,-131.834 184.55,-140.834 188.943,-135.384"/>
</g>
<!-- Node7 -->
<g id="node7" class="node"><title>Node7</title>
<g id="a_node7"><a xlink:href="itypes_8h.html" target="_top" xlink:title="itypes.h">
<polygon fill="white" stroke="black" points="202.5,-56.5 202.5,-75.5 253.5,-75.5 253.5,-56.5 202.5,-56.5"/>
<text text-anchor="middle" x="228" y="-63.5" font-family="Helvetica,sans-Serif" font-size="10.00">itypes.h</text>
</a>
</g>
</g>
<!-- Node1&#45;&gt;Node7 -->
<g id="edge11" class="edge"><title>Node1&#45;&gt;Node7</title>
<path fill="none" stroke="midnightblue" d="M234.451,-168.368C233.321,-150.617 230.715,-109.666 229.183,-85.5974"/>
<polygon fill="midnightblue" stroke="midnightblue" points="232.675,-85.3489 228.547,-75.5914 225.689,-85.7935 232.675,-85.3489"/>
</g>
<!-- Node3 -->
<g id="node3" class="node"><title>Node3</title>
<g id="a_node3"><a xlink:href="frontend_8h.html" target="_top" xlink:title="frontend.h">
<polygon fill="white" stroke="black" points="86,-56.5 86,-75.5 146,-75.5 146,-56.5 86,-56.5"/>
<text text-anchor="middle" x="116" y="-63.5" font-family="Helvetica,sans-Serif" font-size="10.00">frontend.h</text>
</a>
</g>
</g>
<!-- Node2&#45;&gt;Node3 -->
<g id="edge2" class="edge"><title>Node2&#45;&gt;Node3</title>
<path fill="none" stroke="midnightblue" d="M154.53,-112.324C145.484,-104.654 134.107,-93.25 125.875,-83.7999"/>
<polygon fill="midnightblue" stroke="midnightblue" points="128.399,-81.3573 119.358,-75.8339 122.981,-85.7899 128.399,-81.3573"/>
</g>
<!-- Node2&#45;&gt;Node7 -->
<g id="edge10" class="edge"><title>Node2&#45;&gt;Node7</title>
<path fill="none" stroke="midnightblue" d="M177.64,-112.324C186.51,-104.341 199.875,-92.3128 210.608,-82.6529"/>
<polygon fill="midnightblue" stroke="midnightblue" points="213.093,-85.1251 218.185,-75.8339 208.41,-79.922 213.093,-85.1251"/>
</g>
<!-- Node3&#45;&gt;Node2 -->
<g id="edge7" class="edge"><title>Node3&#45;&gt;Node2</title>
<path fill="none" stroke="midnightblue" d="M129.558,-75.7511C138.572,-83.4046 149.875,-94.7357 158.076,-104.144"/>
<polygon fill="midnightblue" stroke="midnightblue" points="155.535,-106.565 164.58,-112.083 160.95,-102.129 155.535,-106.565"/>
</g>
<!-- Node4 -->
<g id="node4" class="node"><title>Node4</title>
<g id="a_node4"><a xlink:href="iprimitives_8h.html" target="_top" xlink:title="../iprimitives.h">
<polygon fill="white" stroke="black" points="150,-0.5 150,-19.5 228,-19.5 228,-0.5 150,-0.5"/>
<text text-anchor="middle" x="189" y="-7.5" font-family="Helvetica,sans-Serif" font-size="10.00">../iprimitives.h</text>
</a>
</g>
</g>
<!-- Node3&#45;&gt;Node4 -->
<g id="edge3" class="edge"><title>Node3&#45;&gt;Node4</title>
<path fill="none" stroke="midnightblue" d="M122.614,-56.324C132.088,-47.979 149.038,-35.2122 163.554,-25.3524"/>
<polygon fill="midnightblue" stroke="midnightblue" points="165.771,-28.0832 172.19,-19.6545 161.916,-22.2404 165.771,-28.0832"/>
</g>
<!-- Node5 -->
<g id="node5" class="node"><title>Node5</title>
<polygon fill="white" stroke="#bfbfbf" points="0,-0.5 0,-19.5 52,-19.5 52,-0.5 0,-0.5"/>
<text text-anchor="middle" x="26" y="-7.5" font-family="Helvetica,sans-Serif" font-size="10.00">X11/X.h</text>
</g>
<!-- Node3&#45;&gt;Node5 -->
<g id="edge8" class="edge"><title>Node3&#45;&gt;Node5</title>
<path fill="none" stroke="midnightblue" d="M101.54,-56.324C87.5004,-47.9002 65.9515,-34.9709 49.4569,-25.0741"/>
<polygon fill="midnightblue" stroke="midnightblue" points="50.7999,-21.7983 40.4242,-19.6545 47.1984,-27.8007 50.7999,-21.7983"/>
</g>
<!-- Node6 -->
<g id="node6" class="node"><title>Node6</title>
<polygon fill="white" stroke="#bfbfbf" points="70,-0.5 70,-19.5 132,-19.5 132,-0.5 70,-0.5"/>
<text text-anchor="middle" x="101" y="-7.5" font-family="Helvetica,sans-Serif" font-size="10.00">X11/Xlib.h</text>
</g>
<!-- Node3&#45;&gt;Node6 -->
<g id="edge9" class="edge"><title>Node3&#45;&gt;Node6</title>
<path fill="none" stroke="midnightblue" d="M113.523,-56.083C111.514,-48.8486 108.614,-38.4087 106.11,-29.3968"/>
<polygon fill="midnightblue" stroke="midnightblue" points="109.48,-28.4495 103.431,-19.7511 102.735,-30.323 109.48,-28.4495"/>
</g>
<!-- Node4&#45;&gt;Node1 -->
<g id="edge5" class="edge"><title>Node4&#45;&gt;Node1</title>
<path fill="none" stroke="midnightblue" d="M215.211,-19.5863C231.85,-26.5554 252.057,-38.1908 262,-56 280.72,-89.5303 260.231,-135.097 246.094,-159.635"/>
<polygon fill="midnightblue" stroke="midnightblue" points="242.916,-158.127 240.731,-168.494 248.904,-161.752 242.916,-158.127"/>
</g>
<!-- Node4&#45;&gt;Node2 -->
<g id="edge6" class="edge"><title>Node4&#45;&gt;Node2</title>
<path fill="none" stroke="midnightblue" d="M187.36,-19.5914C183.978,-37.3079 176.161,-78.2538 171.561,-102.348"/>
<polygon fill="midnightblue" stroke="midnightblue" points="168.085,-101.89 169.648,-112.368 174.961,-103.202 168.085,-101.89"/>
</g>
<!-- Node4&#45;&gt;Node3 -->
<g id="edge4" class="edge"><title>Node4&#45;&gt;Node3</title>
<path fill="none" stroke="midnightblue" d="M182.207,-19.8339C172.695,-28.1845 155.859,-40.8592 141.43,-50.6585"/>
<polygon fill="midnightblue" stroke="midnightblue" points="139.263,-47.895 132.844,-56.324 143.118,-53.7377 139.263,-47.895"/>
</g>
</g>
</svg>
