<?xml version="1.0" encoding="UTF-8" standalone="no"?>
<!DOCTYPE svg PUBLIC "-//W3C//DTD SVG 1.1//EN"
 "http://www.w3.org/Graphics/SVG/1.1/DTD/svg11.dtd">
<!-- Generated by graphviz version 2.36.0 (20140111.2315)
 -->
<!-- Title: igetnext_linked Pages: 1 -->
<svg width="260pt" height="46pt"
 viewBox="0.00 0.00 260.00 46.00" xmlns="http://www.w3.org/2000/svg" xmlns:xlink="http://www.w3.org/1999/xlink">
<g id="graph0" class="graph" transform="scale(1 1) rotate(0) translate(4 42)">
<title>igetnext_linked</title>
<polygon fill="white" stroke="none" points="-4,4 -4,-42 256,-42 256,4 -4,4"/>
<!-- Node1 -->
<g id="node1" class="node"><title>Node1</title>
<polygon fill="#bfbfbf" stroke="black" points="0,-0.5 0,-19.5 82,-19.5 82,-0.5 0,-0.5"/>
<text text-anchor="middle" x="41" y="-7.5" font-family="Helvetica,sans-Serif" font-size="10.00">igetnext_linked</text>
</g>
<!-- Node2 -->
<g id="node2" class="node"><title>Node2</title>
<g id="a_node2"><a xlink:href="error_8c.html#ab10bea042bb9daa7a0e027197b8080e5" target="_top" xlink:title="ierror">
<polygon fill="white" stroke="black" points="118,-0.5 118,-19.5 156,-19.5 156,-0.5 118,-0.5"/>
<text text-anchor="middle" x="137" y="-7.5" font-family="Helvetica,sans-Serif" font-size="10.00">ierror</text>
</a>
</g>
</g>
<!-- Node1&#45;&gt;Node2 -->
<g id="edge1" class="edge"><title>Node1&#45;&gt;Node2</title>
<path fill="none" stroke="midnightblue" d="M82.1371,-10C90.6451,-10 99.4597,-10 107.433,-10"/>
<polygon fill="midnightblue" stroke="midnightblue" points="107.677,-13.5001 117.677,-10 107.677,-6.5001 107.677,-13.5001"/>
</g>
<!-- Node2&#45;&gt;Node2 -->
<g id="edge3" class="edge"><title>Node2&#45;&gt;Node2</title>
<path fill="none" stroke="midnightblue" d="M124.053,-19.7571C117.755,-28.5653 122.07,-38 137,-38 146.098,-38 151.254,-34.4965 152.469,-29.7663"/>
<polygon fill="midnightblue" stroke="midnightblue" points="155.784,-28.5986 149.947,-19.7571 148.997,-30.3092 155.784,-28.5986"/>
</g>
<!-- Node3 -->
<g id="node3" class="node"><title>Node3</title>
<g id="a_node3"><a xlink:href="error_8c.html#ac1727d6e8e99b92957a0a7099d19d6f4" target="_top" xlink:title="print_error">
<polygon fill="white" stroke="black" points="192,-0.5 192,-19.5 252,-19.5 252,-0.5 192,-0.5"/>
<text text-anchor="middle" x="222" y="-7.5" font-family="Helvetica,sans-Serif" font-size="10.00">print_error</text>
</a>
</g>
</g>
<!-- Node2&#45;&gt;Node3 -->
<g id="edge2" class="edge"><title>Node2&#45;&gt;Node3</title>
<path fill="none" stroke="midnightblue" d="M156.01,-10C163.631,-10 172.828,-10 181.874,-10"/>
<polygon fill="midnightblue" stroke="midnightblue" points="181.931,-13.5001 191.931,-10 181.931,-6.5001 181.931,-13.5001"/>
</g>
</g>
</svg>
