<?xml version="1.0" encoding="UTF-8" standalone="no"?>
<!DOCTYPE svg PUBLIC "-//W3C//DTD SVG 1.1//EN"
 "http://www.w3.org/Graphics/SVG/1.1/DTD/svg11.dtd">
<!-- Generated by graphviz version 2.36.0 (20140111.2315)
 -->
<!-- Title: infastsort Pages: 1 -->
<svg width="236pt" height="46pt"
 viewBox="0.00 0.00 236.00 46.00" xmlns="http://www.w3.org/2000/svg" xmlns:xlink="http://www.w3.org/1999/xlink">
<g id="graph0" class="graph" transform="scale(1 1) rotate(0) translate(4 42)">
<title>infastsort</title>
<polygon fill="white" stroke="none" points="-4,4 -4,-42 232,-42 232,4 -4,4"/>
<!-- Node1 -->
<g id="node1" class="node"><title>Node1</title>
<polygon fill="#bfbfbf" stroke="black" points="0.5,-0.5 0.5,-19.5 57.5,-19.5 57.5,-0.5 0.5,-0.5"/>
<text text-anchor="middle" x="29" y="-7.5" font-family="Helvetica,sans-Serif" font-size="10.00">infastsort</text>
</g>
<!-- Node2 -->
<g id="node2" class="node"><title>Node2</title>
<g id="a_node2"><a xlink:href="error_8c.html#ab10bea042bb9daa7a0e027197b8080e5" target="_top" xlink:title="ierror">
<polygon fill="white" stroke="black" points="94,-0.5 94,-19.5 132,-19.5 132,-0.5 94,-0.5"/>
<text text-anchor="middle" x="113" y="-7.5" font-family="Helvetica,sans-Serif" font-size="10.00">ierror</text>
</a>
</g>
</g>
<!-- Node1&#45;&gt;Node2 -->
<g id="edge1" class="edge"><title>Node1&#45;&gt;Node2</title>
<path fill="none" stroke="midnightblue" d="M57.7615,-10C66.1247,-10 75.3112,-10 83.7085,-10"/>
<polygon fill="midnightblue" stroke="midnightblue" points="83.8016,-13.5001 93.8015,-10 83.8015,-6.5001 83.8016,-13.5001"/>
</g>
<!-- Node2&#45;&gt;Node2 -->
<g id="edge3" class="edge"><title>Node2&#45;&gt;Node2</title>
<path fill="none" stroke="midnightblue" d="M100.053,-19.7571C93.7547,-28.5653 98.0703,-38 113,-38 122.098,-38 127.254,-34.4965 128.469,-29.7663"/>
<polygon fill="midnightblue" stroke="midnightblue" points="131.784,-28.5986 125.947,-19.7571 124.997,-30.3092 131.784,-28.5986"/>
</g>
<!-- Node3 -->
<g id="node3" class="node"><title>Node3</title>
<g id="a_node3"><a xlink:href="error_8c.html#ac1727d6e8e99b92957a0a7099d19d6f4" target="_top" xlink:title="print_error">
<polygon fill="white" stroke="black" points="168,-0.5 168,-19.5 228,-19.5 228,-0.5 168,-0.5"/>
<text text-anchor="middle" x="198" y="-7.5" font-family="Helvetica,sans-Serif" font-size="10.00">print_error</text>
</a>
</g>
</g>
<!-- Node2&#45;&gt;Node3 -->
<g id="edge2" class="edge"><title>Node2&#45;&gt;Node3</title>
<path fill="none" stroke="midnightblue" d="M132.01,-10C139.631,-10 148.828,-10 157.874,-10"/>
<polygon fill="midnightblue" stroke="midnightblue" points="157.931,-13.5001 167.931,-10 157.931,-6.5001 157.931,-13.5001"/>
</g>
</g>
</svg>
