<?xml version="1.0" encoding="UTF-8" standalone="no"?>
<!DOCTYPE svg PUBLIC "-//W3C//DTD SVG 1.1//EN"
 "http://www.w3.org/Graphics/SVG/1.1/DTD/svg11.dtd">
<!-- Generated by graphviz version 2.36.0 (20140111.2315)
 -->
<!-- Title: ifrontendstate_t Pages: 1 -->
<svg width="312pt" height="108pt"
 viewBox="0.00 0.00 312.00 108.00" xmlns="http://www.w3.org/2000/svg" xmlns:xlink="http://www.w3.org/1999/xlink">
<g id="graph0" class="graph" transform="scale(1 1) rotate(0) translate(4 104)">
<title>ifrontendstate_t</title>
<polygon fill="white" stroke="none" points="-4,4 -4,-104 308,-104 308,4 -4,4"/>
<!-- Node1 -->
<g id="node1" class="node"><title>Node1</title>
<polygon fill="#bfbfbf" stroke="black" points="116,-0.5 116,-19.5 200,-19.5 200,-0.5 116,-0.5"/>
<text text-anchor="middle" x="158" y="-7.5" font-family="Helvetica,sans-Serif" font-size="10.00">ifrontendstate_t</text>
</g>
<!-- Node2 -->
<g id="node2" class="node"><title>Node2</title>
<g id="a_node2"><a xlink:href="structievent__handler.html" target="_top" xlink:title="ievent_handler">
<polygon fill="white" stroke="black" points="0,-79.5 0,-98.5 80,-98.5 80,-79.5 0,-79.5"/>
<text text-anchor="middle" x="40" y="-86.5" font-family="Helvetica,sans-Serif" font-size="10.00">ievent_handler</text>
</a>
</g>
</g>
<!-- Node2&#45;&gt;Node1 -->
<g id="edge1" class="edge"><title>Node2&#45;&gt;Node1</title>
<path fill="none" stroke="#9a32cd" stroke-dasharray="5,2" d="M38.7113,-69.1243C39.0372,-58.6944 41.2927,-46.2231 49,-38 58.1992,-28.1853 89.1546,-21.1061 115.737,-16.6654"/>
<polygon fill="#9a32cd" stroke="#9a32cd" points="35.2172,-69.4268 38.9483,-79.3429 42.2154,-69.2644 35.2172,-69.4268"/>
<text text-anchor="middle" x="96.5" y="-52" font-family="Helvetica,sans-Serif" font-size="10.00"> onkeydown_handlers</text>
<text text-anchor="middle" x="96.5" y="-41" font-family="Helvetica,sans-Serif" font-size="10.00">onkeyup_handlers</text>
</g>
<!-- Node3 -->
<g id="node3" class="node"><title>Node3</title>
<g id="a_node3"><a xlink:href="structilinked__t.html" target="_top" xlink:title="ilinked_t">
<polygon fill="white" stroke="black" points="114.5,-79.5 114.5,-98.5 167.5,-98.5 167.5,-79.5 114.5,-79.5"/>
<text text-anchor="middle" x="141" y="-86.5" font-family="Helvetica,sans-Serif" font-size="10.00">ilinked_t</text>
</a>
</g>
</g>
<!-- Node3&#45;&gt;Node1 -->
<g id="edge2" class="edge"><title>Node3&#45;&gt;Node1</title>
<path fill="none" stroke="#9a32cd" stroke-dasharray="5,2" d="M145.125,-69.3145C148.597,-53.5917 153.406,-31.8079 156.055,-19.8094"/>
<polygon fill="#9a32cd" stroke="#9a32cd" points="141.623,-68.946 142.884,-79.4655 148.458,-70.4552 141.623,-68.946"/>
<text text-anchor="middle" x="170.5" y="-46.5" font-family="Helvetica,sans-Serif" font-size="10.00"> regions</text>
</g>
<!-- Node3&#45;&gt;Node3 -->
<g id="edge3" class="edge"><title>Node3&#45;&gt;Node3</title>
<path fill="none" stroke="#9a32cd" stroke-dasharray="5,2" d="M177.677,-95.4645C182.104,-94.2969 185,-92.1421 185,-89 185,-83.8438 177.201,-81.3462 167.635,-81.5073"/>
<polygon fill="#9a32cd" stroke="#9a32cd" points="177.227,-91.9921 167.635,-96.4927 177.94,-98.9557 177.227,-91.9921"/>
<text text-anchor="middle" x="205" y="-92" font-family="Helvetica,sans-Serif" font-size="10.00"> previous</text>
<text text-anchor="middle" x="205" y="-81" font-family="Helvetica,sans-Serif" font-size="10.00">next</text>
</g>
<!-- Node4 -->
<g id="node4" class="node"><title>Node4</title>
<g id="a_node4"><a xlink:href="structicolor__t.html" target="_top" xlink:title="icolor_t">
<polygon fill="white" stroke="black" points="244,-79.5 244,-98.5 292,-98.5 292,-79.5 244,-79.5"/>
<text text-anchor="middle" x="268" y="-86.5" font-family="Helvetica,sans-Serif" font-size="10.00">icolor_t</text>
</a>
</g>
</g>
<!-- Node4&#45;&gt;Node1 -->
<g id="edge4" class="edge"><title>Node4&#45;&gt;Node1</title>
<path fill="none" stroke="#9a32cd" stroke-dasharray="5,2" d="M247.535,-73.6746C224.833,-57.7833 188.947,-32.6627 170.247,-19.5728"/>
<polygon fill="#9a32cd" stroke="#9a32cd" points="245.608,-76.5981 255.808,-79.4655 249.623,-70.8635 245.608,-76.5981"/>
<text text-anchor="middle" x="265.5" y="-52" font-family="Helvetica,sans-Serif" font-size="10.00"> drawing_color</text>
<text text-anchor="middle" x="265.5" y="-41" font-family="Helvetica,sans-Serif" font-size="10.00">background_color</text>
</g>
</g>
</svg>
