<?xml version="1.0" encoding="UTF-8" standalone="no"?>
<!DOCTYPE svg PUBLIC "-//W3C//DTD SVG 1.1//EN"
 "http://www.w3.org/Graphics/SVG/1.1/DTD/svg11.dtd">
<!-- Generated by graphviz version 2.36.0 (20140111.2315)
 -->
<!-- Title: icoloredtriplet_t Pages: 1 -->
<svg width="122pt" height="96pt"
 viewBox="0.00 0.00 122.00 96.00" xmlns="http://www.w3.org/2000/svg" xmlns:xlink="http://www.w3.org/1999/xlink">
<g id="graph0" class="graph" transform="scale(1 1) rotate(0) translate(4 92)">
<title>icoloredtriplet_t</title>
<polygon fill="white" stroke="none" points="-4,4 -4,-92 118,-92 118,4 -4,4"/>
<!-- Node1 -->
<g id="node1" class="node"><title>Node1</title>
<polygon fill="#bfbfbf" stroke="black" points="15.5,-0.5 15.5,-19.5 98.5,-19.5 98.5,-0.5 15.5,-0.5"/>
<text text-anchor="middle" x="57" y="-7.5" font-family="Helvetica,sans-Serif" font-size="10.00">icoloredtriplet_t</text>
</g>
<!-- Node2 -->
<g id="node2" class="node"><title>Node2</title>
<g id="a_node2"><a xlink:href="structipoint__t.html" target="_top" xlink:title="ipoint_t">
<polygon fill="white" stroke="black" points="0,-68.5 0,-87.5 48,-87.5 48,-68.5 0,-68.5"/>
<text text-anchor="middle" x="24" y="-75.5" font-family="Helvetica,sans-Serif" font-size="10.00">ipoint_t</text>
</a>
</g>
</g>
<!-- Node2&#45;&gt;Node1 -->
<g id="edge1" class="edge"><title>Node2&#45;&gt;Node1</title>
<path fill="none" stroke="#9a32cd" stroke-dasharray="5,2" d="M24.4905,-58.2525C25.272,-51.5762 26.8657,-44.1852 30,-38 33.6557,-30.7858 39.9591,-24.3157 45.5563,-19.5188"/>
<polygon fill="#9a32cd" stroke="#9a32cd" points="20.9821,-58.2652 23.8137,-68.4746 27.9668,-58.7277 20.9821,-58.2652"/>
<text text-anchor="middle" x="49" y="-41.5" font-family="Helvetica,sans-Serif" font-size="10.00"> vertices</text>
</g>
<!-- Node3 -->
<g id="node3" class="node"><title>Node3</title>
<g id="a_node3"><a xlink:href="structicolor__t.html" target="_top" xlink:title="icolor_t">
<polygon fill="white" stroke="black" points="66,-68.5 66,-87.5 114,-87.5 114,-68.5 66,-68.5"/>
<text text-anchor="middle" x="90" y="-75.5" font-family="Helvetica,sans-Serif" font-size="10.00">icolor_t</text>
</a>
</g>
</g>
<!-- Node3&#45;&gt;Node1 -->
<g id="edge2" class="edge"><title>Node3&#45;&gt;Node1</title>
<path fill="none" stroke="#9a32cd" stroke-dasharray="5,2" d="M81.093,-59.1859C74.7261,-46.4523 66.4304,-29.8607 61.4206,-19.8411"/>
<polygon fill="#9a32cd" stroke="#9a32cd" points="78.0831,-60.9926 85.6858,-68.3717 84.3441,-57.8621 78.0831,-60.9926"/>
<text text-anchor="middle" x="91" y="-41.5" font-family="Helvetica,sans-Serif" font-size="10.00"> colors</text>
</g>
</g>
</svg>
