<?xml version="1.0" encoding="UTF-8" standalone="no"?>
<!DOCTYPE svg PUBLIC "-//W3C//DTD SVG 1.1//EN"
 "http://www.w3.org/Graphics/SVG/1.1/DTD/svg11.dtd">
<!-- Generated by graphviz version 2.36.0 (20140111.2315)
 -->
<!-- Title: iobject_t Pages: 1 -->
<svg width="324pt" height="166pt"
 viewBox="0.00 0.00 324.00 166.00" xmlns="http://www.w3.org/2000/svg" xmlns:xlink="http://www.w3.org/1999/xlink">
<g id="graph0" class="graph" transform="scale(1 1) rotate(0) translate(4 162)">
<title>iobject_t</title>
<polygon fill="white" stroke="none" points="-4,4 -4,-162 320,-162 320,4 -4,4"/>
<!-- Node1 -->
<g id="node1" class="node"><title>Node1</title>
<polygon fill="#bfbfbf" stroke="black" points="132.5,-0.5 132.5,-19.5 185.5,-19.5 185.5,-0.5 132.5,-0.5"/>
<text text-anchor="middle" x="159" y="-7.5" font-family="Helvetica,sans-Serif" font-size="10.00">iobject_t</text>
</g>
<!-- Node2 -->
<g id="node2" class="node"><title>Node2</title>
<g id="a_node2"><a xlink:href="structilinkedpoint__t.html" target="_top" xlink:title="ilinkedpoint_t">
<polygon fill="white" stroke="black" points="0,-69.5 0,-88.5 74,-88.5 74,-69.5 0,-69.5"/>
<text text-anchor="middle" x="37" y="-76.5" font-family="Helvetica,sans-Serif" font-size="10.00">ilinkedpoint_t</text>
</a>
</g>
</g>
<!-- Node2&#45;&gt;Node1 -->
<g id="edge1" class="edge"><title>Node2&#45;&gt;Node1</title>
<path fill="none" stroke="#9a32cd" stroke-dasharray="5,2" d="M61.9805,-64.2812C86.4179,-50.8607 122.872,-30.8408 143.432,-19.5494"/>
<polygon fill="#9a32cd" stroke="#9a32cd" points="60.0298,-61.3594 52.9494,-69.2409 63.3994,-67.495 60.0298,-61.3594"/>
<text text-anchor="middle" x="124" y="-41.5" font-family="Helvetica,sans-Serif" font-size="10.00"> points</text>
</g>
<!-- Node2&#45;&gt;Node2 -->
<g id="edge2" class="edge"><title>Node2&#45;&gt;Node2</title>
<path fill="none" stroke="#9a32cd" stroke-dasharray="5,2" d="M84.1857,-84.2299C88.9569,-83.192 92,-81.4487 92,-79 92,-75.082 84.2097,-72.97 74.0153,-72.6639"/>
<polygon fill="#9a32cd" stroke="#9a32cd" points="83.5782,-80.7752 74.0153,-85.3361 84.3352,-87.7342 83.5782,-80.7752"/>
<text text-anchor="middle" x="103" y="-76.5" font-family="Helvetica,sans-Serif" font-size="10.00"> next</text>
</g>
<!-- Node3 -->
<g id="node3" class="node"><title>Node3</title>
<g id="a_node3"><a xlink:href="structipoint__t.html" target="_top" xlink:title="ipoint_t">
<polygon fill="white" stroke="black" points="13,-138.5 13,-157.5 61,-157.5 61,-138.5 13,-138.5"/>
<text text-anchor="middle" x="37" y="-145.5" font-family="Helvetica,sans-Serif" font-size="10.00">ipoint_t</text>
</a>
</g>
</g>
<!-- Node3&#45;&gt;Node2 -->
<g id="edge3" class="edge"><title>Node3&#45;&gt;Node2</title>
<path fill="none" stroke="#9a32cd" stroke-dasharray="5,2" d="M37,-128.018C37,-115.034 37,-98.4419 37,-88.5494"/>
<polygon fill="#9a32cd" stroke="#9a32cd" points="33.5001,-128.241 37,-138.241 40.5001,-128.241 33.5001,-128.241"/>
<text text-anchor="middle" x="49.5" y="-111.5" font-family="Helvetica,sans-Serif" font-size="10.00"> point</text>
</g>
<!-- Node4 -->
<g id="node4" class="node"><title>Node4</title>
<g id="a_node4"><a xlink:href="structilinked__t.html" target="_top" xlink:title="ilinked_t">
<polygon fill="white" stroke="black" points="132.5,-69.5 132.5,-88.5 185.5,-88.5 185.5,-69.5 132.5,-69.5"/>
<text text-anchor="middle" x="159" y="-76.5" font-family="Helvetica,sans-Serif" font-size="10.00">ilinked_t</text>
</a>
</g>
</g>
<!-- Node4&#45;&gt;Node1 -->
<g id="edge4" class="edge"><title>Node4&#45;&gt;Node1</title>
<path fill="none" stroke="#9a32cd" stroke-dasharray="5,2" d="M159,-59.0183C159,-46.034 159,-29.4419 159,-19.5494"/>
<polygon fill="#9a32cd" stroke="#9a32cd" points="155.5,-59.2409 159,-69.2409 162.5,-59.241 155.5,-59.2409"/>
<text text-anchor="middle" x="175.5" y="-41.5" font-family="Helvetica,sans-Serif" font-size="10.00"> triplets</text>
</g>
<!-- Node4&#45;&gt;Node4 -->
<g id="edge5" class="edge"><title>Node4&#45;&gt;Node4</title>
<path fill="none" stroke="#9a32cd" stroke-dasharray="5,2" d="M195.677,-84.4948C200.104,-83.5024 203,-81.6708 203,-79 203,-74.6172 195.201,-72.4943 185.635,-72.6312"/>
<polygon fill="#9a32cd" stroke="#9a32cd" points="195.294,-81.0148 185.635,-85.3688 195.901,-87.9884 195.294,-81.0148"/>
<text text-anchor="middle" x="223" y="-82" font-family="Helvetica,sans-Serif" font-size="10.00"> previous</text>
<text text-anchor="middle" x="223" y="-71" font-family="Helvetica,sans-Serif" font-size="10.00">next</text>
</g>
<!-- Node5 -->
<g id="node5" class="node"><title>Node5</title>
<g id="a_node5"><a xlink:href="structivector__t.html" target="_top" xlink:title="ivector_t">
<polygon fill="white" stroke="black" points="262,-69.5 262,-88.5 316,-88.5 316,-69.5 262,-69.5"/>
<text text-anchor="middle" x="289" y="-76.5" font-family="Helvetica,sans-Serif" font-size="10.00">ivector_t</text>
</a>
</g>
</g>
<!-- Node5&#45;&gt;Node1 -->
<g id="edge6" class="edge"><title>Node5&#45;&gt;Node1</title>
<path fill="none" stroke="#9a32cd" stroke-dasharray="5,2" d="M263.356,-64.7837C237.35,-51.3804 197.863,-31.0294 175.665,-19.5888"/>
<polygon fill="#9a32cd" stroke="#9a32cd" points="261.779,-67.9079 272.271,-69.3781 264.985,-61.6857 261.779,-67.9079"/>
<text text-anchor="middle" x="248.5" y="-41.5" font-family="Helvetica,sans-Serif" font-size="10.00"> motion</text>
</g>
</g>
</svg>
